<svg xmlns="http://www.w3.org/2000/svg" viewBox="0 0 29 40.5"><defs><style>.cls-5{fill:#b2825a}.cls-7{fill:#f8f7f4}</style></defs><g id="Layer_2" data-name="Layer 2"><g id="Layer_1-2" data-name="Layer 1"><path d="M18.7 6.2a13.8 13.8 0 00-1 2.2l4 .7a13.2 13.2 0 014.9 1.7 8.2 8.2 0 011.6 1.5 3.7 3.7 0 01.6 3.5 10.2 10.2 0 01-2.4 4.2l-.2.2c-.8.3-.8 1-.8 1.5a16.2 16.2 0 01-.4 4l-.7 4.7a10.7 10.7 0 01-.6 2.7 14.2 14.2 0 00-.6 2 5.2 5.2 0 01-1.4 2.2 6.9 6.9 0 01-2 1.6 12.8 12.8 0 01-6.2 1.6 12.2 12.2 0 01-5.8-1.3A4.4 4.4 0 016 37.6l-1.2-1.7A17.9 17.9 0 013 31.3 42.6 42.6 0 011.7 25l-.3-3.8a2.1 2.1 0 010-.8 1.4 1.4 0 00-.6-1.6 3 3 0 01-.7-3 11.7 11.7 0 011.7-4.7 1.9 1.9 0 01.3-.4l1.4-1.2.3-.3c1.5-.2 2.7-1 4.2-1a42.4 42.4 0 016.5-.2c1.2 0 1.1.3 1.3-1l.4-4A4.2 4.2 0 0117.4.5a1.8 1.8 0 013.2.8 2.8 2.8 0 01-.2 2.2 3.3 3.3 0 01-.7 1 .3.3 0 00-.1.3 4.8 4.8 0 01-.8 1 .3.3 0 00-.1.3z" fill="#845a48"/><path d="M19.6 4.9a.2.2 0 01.1-.2.3.3 0 01-.1.2z" fill="#7e594a"/><path d="M18.7 6.2a.2.2 0 01.1-.2.2.2 0 01-.1.2z" fill="#7e5a4b"/><path d="M11.1 18a47.3 47.3 0 018 .7 25 25 0 015.5 1.8c.3.2.1.4.2.6A20.5 20.5 0 0124 26a25.3 25.3 0 00-.5 3.5 10.2 10.2 0 01-.5 2.3 15 15 0 00-.7 2.5 4 4 0 01-2.2 3 15.5 15.5 0 01-5 1.8 12.5 12.5 0 01-7.1-1 2.4 2.4 0 01-1-.8A13.1 13.1 0 014.8 32c-.3-1.3-.8-2.5-1-3.8q-.5-1.8-.7-3.7c0-.8-.2-1.6-.4-2.4a9.9 9.9 0 010-2c0-.2 0-.4.3-.4a5.5 5.5 0 002.4-.8 9.2 9.2 0 012.7-.7 19.5 19.5 0 013-.3z" fill="#fbba90"/><path class="cls-5" d="M13.4 9.3a37.1 37.1 0 016 .5l3.5.6a8.7 8.7 0 014.4 2.5 2.7 2.7 0 01.7 2.6 8.6 8.6 0 01-1.8 3.7 1.4 1.4 0 01-1.6.4c-.7-.2-1.3-.6-2-.9a23.6 23.6 0 00-5.8-1.5c-1.3-.1-2.5-.3-3.8-.3-.7 0-1.3-.2-2-.1a17 17 0 00-5 .9c-.8.2-1.5.6-2.2 1-.4 0-.7.2-1-.2l-.2-.2a1.8 1.8 0 01-1-2.1c0-1 .2-1.8.4-2.7a3.9 3.9 0 012.8-3 19.3 19.3 0 015.6-1.1l3-.1zM16.5 7.5l.5-4.3a3.5 3.5 0 01.8-1.6 2 2 0 01.3-.3 1.3 1.3 0 011.3-.2 1.3 1.3 0 01.4 1.3 5.6 5.6 0 01-1 1.8 15.3 15.3 0 00-2.1 3.5c-.2 0-.2 0-.2-.2z"/><path d="M16.5 7.5a.2.2 0 00.2.2l-.3.6c0-.4-.1-.6.1-.8z" fill="#a07558"/><path class="cls-7" d="M22.3 23a1.8 1.8 0 01-1 2 1.8 1.8 0 01-2-.1 1.7 1.7 0 01-.7-1.2 23 23 0 01-.3-2.2 1.9 1.9 0 013.7-.6 9.8 9.8 0 01.3 2.2zM15.8 37.2a1 1 0 01-1-.6c-.1-.3 0-.6.2-.8a1.5 1.5 0 01.5-.5 3.6 3.6 0 001.7-2 .9.9 0 011.1-.4.9.9 0 01.6 1 4.5 4.5 0 01-2.8 3.2 1.2 1.2 0 01-.3 0z"/></g></g></svg>