<svg xmlns="http://www.w3.org/2000/svg" viewBox="0 0 30.6861 27.2813"><defs><style>.cls-1{fill:#fff;}</style></defs><title>cart</title><g id="Layer_2" data-name="Layer 2"><g id="Nav"><path class="cls-1" d="M28.1338,16.0386a1.2449,1.2449,0,0,1-1.2256,1.0122H11.2959l.32,1.7051h14.333a1.162,1.162,0,0,1,.959.4795,1.2882,1.2882,0,0,1,.2666,1.0659l-.32,1.332a2.9626,2.9626,0,1,1-4.2617,2.6372,2.7762,2.7762,0,0,1,.9052-2.1045H12.3086a2.7763,2.7763,0,0,1,.9053,2.1045,2.9026,2.9026,0,0,1-.8789,2.1314,2.9578,2.9578,0,0,1-4.209,0,2.8713,2.8713,0,0,1-.8789-2.1045,2.9319,2.9319,0,0,1,.3994-1.4917,3.1374,3.1374,0,0,1,1.0918-1.1192L5.0088,3.41h-3.73A1.2346,1.2346,0,0,1,.373,3.0371,1.232,1.232,0,0,1,0,2.1313V1.2788A1.2321,1.2321,0,0,1,.373.373,1.2346,1.2346,0,0,1,1.2783,0H6.7666A1.17,1.17,0,0,1,7.54.293a1.3493,1.3493,0,0,1,.4522.7192L8.4717,3.41H29.4131a1.2124,1.2124,0,0,1,1.0117.4794,1.1519,1.1519,0,0,1,.2129,1.066Z"/></g></g></svg>