<svg id="Layer_5" data-name="Layer 5" xmlns="http://www.w3.org/2000/svg" viewBox="0 0 323 439"><defs><style>.cls-1{fill:#2c2c2c}.cls-2{fill:#ca896e}.cls-4{fill:#fff}.cls-6{fill:#b3835a}.cls-7{fill:#fad8bd}.cls-8{fill:#ffb9b7}.cls-9{fill:#e691a1}.cls-10{fill:#835947}.cls-11{fill:#f8f8f5}</style></defs><path class="cls-1" d="M116.6 172.5c-9.2 1.2-11.6 23-.8 23.2 11.4.4 13.4-25 .8-23.2M211.4 174.2c-7 1.6-8.4 18.1-3 19.6 15.4 4 14.2-22.2 3-19.6M212 180l.1.1m1.3 0h-.1"/><path class="cls-1" d="M97.4 149.9a31.2 31.2 0 01-4.3 4.4c-20.4 15.8-43.1 54.5-25.3 78.8a74.6 74.6 0 0034.7 24.5c3.6 1.2 27.5 9.5 30 6A132.8 132.8 0 0197 253.3c-7.6-3.6-13-8.9-19.6-13.6-6.5-4.6-10.3-7.5-12.4-15.8-1-3.8-2.3-11.3-1-15.5-4.2 1 2.2-6.4 2.7-7.2 2-4 3.1-9 5-13.2a83.3 83.3 0 015-9.8 138 138 0 0114.1-19c2-2 5.5-4 6.7-6.5.1-.3 2-5.3-.1-2.8M136 265c-.1.1 17 1 18.8.7-2.6-.1-18-2.6-18.9-.8"/><path class="cls-1" d="M88.6 117.4c-8.2 2.4-3 44.7-1.7 44.7 1 0-.1-24.4 0-24.2-.1-5.1-2.7-16 3.3-18.1 3.2-1.1 8.3 1.7 11.4 2.7 6.4 2.3 14.2 7.5 20.9 8.1 8.6.8-2.9-3.4-5.8-4.5-7.6-2.9-19.6-11-28.1-8.7"/><path class="cls-1" d="M159.8 117.3c-4.3.2-40.2 5.8-39.4 11.6.5 4 11.3-1.1 14.2-1.9a128.5 128.5 0 0155.2-2.9 93.9 93.9 0 0126.3 7.8c3 1.5 6 3 9 4.8 3 1.9 7 4.2 3.2-.3-5.3-6.6-18.2-11-25.7-13.4a124.9 124.9 0 00-42.8-5.7m-36 13"/><path class="cls-1" d="M253 120.2c-3.5.4-33.8 9-32.9 12.8.7 3 9.7-2.5 12-3.4 5.8-2.4 12.2-5 18.4-6.1 9.4-1.7 10 4.3 9 13-1 8.3-4.1 16.3-6.5 24.3-2.2 7.6 0 10.3 2.4.7 1.9-7.7 15-43.1-2.5-41.3M259.5 145.8v.1-.1m-4 15.3v0"/><path class="cls-1" d="M238 148.5s13.5 25.2 14.6 28.5c1.2 3.5 2.3 7 3.1 10.7.6 2.4 2.4 5.4 2.8 6.8a42.5 42.5 0 01-8.7 37.3 45.7 45.7 0 003.9-4.5c13.2-16.2 5.5-40.4-2-57.7-1.3-3-11.4-23.4-13.7-21.1M213.7 254.6a199.7 199.7 0 01-27.6 8.4c2.3 2.4 25.6-6.1 27.5-6.8a81.3 81.3 0 0024.6-14 109 109 0 01-24.5 12.4M180.1 264l-3.6.5c.3.8 5.3-.2 6.1-.3a1.9 1.9 0 01.2-.6l-2.7.4"/><path class="cls-1" d="M252.4 165c0-.1-2.3 3.7-.8 4 2.1.6 2.6-5.2.8-4"/><path class="cls-1" d="M253.4 164.3c-2.6 1.5-1.5 8.1.2 4 .2-.5 2.1-5.4-.2-4"/><path class="cls-1" d="M253 165.9c-.5 0-1.6 2.4-1 2.7.9.5 2-3.1 1-2.7"/><path class="cls-1" d="M252 167.1q-2.3 2.6-.7 4.7c3.3.8 1.4-7.2.6-4.7"/><path class="cls-1" d="M251.7 167.6q-1.9 2.2-.3 4c3.6 1 1.2-6.8.3-4M178.7 202.8c-.8.4.5 3.9.5 4.5.5-.5 2-5.5-.5-4.5M143.3 204.2c-1.5.2-1.9 6.7-2.1 6 .8 2.1 1.3 2.3 3 3 3.7 1.6 7.3-1.4 10.9-2 6.8-1.3 19.2 4.8 24.4-.7a1.6 1.6 0 01-1.3-1.2c-2.9 3.7-16.4-.4-20.3-.1-3.2.2-6.5 2-9.5 2.2-2 .1-4.4.4-5.4-1.6-.5-1.2 2.2-6 .3-5.6"/><path class="cls-1" d="M155.2 210.4c-.4 3.3-1.4 8.3 1.8 10.5 9 6.2 11-11.6 8.1-11.2-2.2.4 2.3 12.6-5.8 10-2.2-.8-1.9-1.7-2.5-3.9.4 1.4-1.2-9.2-1.6-5.4"/><path class="cls-1" d="M176 211c-1.6 9.8-4.6 23.6-11.2 31.4-12.1 14.2-15.6-31.1-19-30-1.2.4 6.8 35.9 15.7 34.5 7.4-1.2 11.3-17.2 12.8-23 .7-2.5 1.2-5 1.7-7.6.3-1.3.1-6.5 0-5.2M139.5 279.3c-3.2 1.5-8.6 17.2-1.3 15 2.7-.8-1.5-2.6-1.6-3.5-.9-5.8 3.4-7.8 4.5-12l-1.6.5"/><path class="cls-1" d="M151.7 289.7c-1 0-15 2.3-15.1 3.5-.2 1.2 14-1.7 16.2-1.7 5.4 0 20.7 6.2 22.5 2-1 1.3-20.7-3.6-23.6-3.8zM153.5 276c-4 1.4-14 1.4-16.5 5.4 0 0 13.6-3.6 15.4-3.7a50.7 50.7 0 0119.6 2.4c3.5 1.2 7.6 4.3 6.1 8.5 4.6-8.3-6.2-9.6-11.9-10.8-2.1-.4-4.3-1.3-6.1-1.6l-.7-.1c-.9-.2-3 .4-4.1.2-2-.3 1-1-1.8-.3"/><path class="cls-1" d="M113.4 261c-16 9.8-23.6 29.2-8 42.6 9.6 8.3 24.3 16 37 14.3 17-2.2 2-13-3.7-18-6.8-5.8-12.3-9.8-18-17.4-1-1.3-4.3-7.8-5.1-4.8-.4 1.4 3.6 5.8 4.2 6.7 4 5.3 9.2 8.7 13.6 13.4 4 4.3 24.3 14.5 10.8 18.6-8.7 2.6-22.6-3.7-29.7-8-6.7-4-13.3-8.9-15.7-16.6-2.3-7.3.8-15.2 5.5-20.8 1.2-1.5 12.6-10.4 12.6-10.7a2.6 2.6 0 00-3.5.8m20 36.7M201.5 259c1.1-.8 10.4 21.4 10.6 24.5.9 15.2-11.4 31.3-26.8 33.4-4.3 0-26.6 3.8-15.2-7.6 5.9-4.2 12.2-7.2 17-12.9.6-.6 8.8-13.7 6.7-13.7 0 0-8 13.4-8.6 14a40.8 40.8 0 01-10.8 8.7c-4 2.1-11.6 5.6-8.1 11.2 2.5 4.1 10.3 3.5 14 2.6 15.2-3.7 32-12.1 33.2-32a34.7 34.7 0 00-4.4-18.7c-1-1.9-6.4-10.4-7.6-9.5m2.1 1.9"/><path class="cls-1" d="M136.5 293.4c-.1 1-.3 9.5 2.2 6.4 1.2-1.4-1.8-8.5-2.2-6.4M140.9 317c-1.3.8 2.4 5.5 3 6a16 16 0 0012 4.2c2.8-.1 17.6-7.5 14.2-9 0 0-9 6.3-11.4 6.8-3.4.7-8.7.6-11.8-1.5-.8-.5-5.1-7.2-6-6.6M173.7 294.3c-.4 0-.4 1-.3 1.2 0 3.4-1.4 6.7-1.5 10 0 3.6 1-1.7 1-2 .8-2.7 2-6.7.8-9.2zM165.3 265.5c.5 1.5-7.4 12-4.6 12.4-.2 0 9-12.6 4.6-12.4M161.4 265.6c-2.3.1-1.4 10-2.5 11 .2.3 3.6-11 2.5-11M101.2 296.9c-2 .2-3.8 25.8-4 29.7-1 14 1.6 28.6 4.4 42.3 1.8 9 4.1 17.8 6.8 26.6 2.2 7 4.2 14.8 7.5 21.4.3.5 2.3 6.5 3 3.4 1-3.2-3.7-11.7-4.8-15l-5.6-17.7a212.5 212.5 0 01-7.2-35.2 151.2 151.2 0 01-1.3-34c.2-2 2.7-21.7 1.2-21.5"/><path class="cls-1" d="M142.9 363.9c-2 1.3-1.7 14.5-2.2 17.9-1.3 8.7-3 17.3-4.1 26a33.7 33.7 0 00.8 13.8c1 4.7 1.2 4.7-3.2 6.1a31.6 31.6 0 01-13 .6c-8.2-1.2-3.3-1.9-3-7 .2-5.6-5.6 3.8-4 6.8 2 4.1 18.8 3.3 22.3 1.5 5.3-2.8 2.8-5.2 1.7-9.7-1.4-5.5-.1-11.3.7-16.9 1.3-8.6 2.9-17.1 4-25.8 0-.2 1.5-14.4 0-13.3"/><path class="cls-1" d="M142.6 367.8c-2.7 5.7 26.8 4.6 22.4 2-.2-.2-23.6.6-22.4-2M187 427.1c-2 .3-22.3 2.1-22 .8-.7 3 15.9 1.6 16.7 1.5 1 0 7.2 0 6.2-1.8a.8.8 0 00-1-.5"/><path class="cls-1" d="M163.8 372c-2 10.2.3 21 1.3 30.4.3 3.5 1.2 7.8 1.8 11 0 .6 0 4.4 1 4.3 2.1-3-1.9-16.7-2.3-20.6l-1-10.2a102.1 102.1 0 010-10.3c0-1.2-.3-7-.8-4.7m3.3 43.3"/><path class="cls-1" d="M167.3 416.5c-1.8 3.1-4.1 6.1-3.7 9.9 0 .5 1.2 3.9 2 2.5.2-.3-.9-2.9-.7-3.5l2.4-8.9m-2 11.5M188 426.7c0 .2-.7 1 .3 1s.2-1.2-.2-1"/><path class="cls-1" d="M186.3 417.6c0-.1 3.2 10.8 1.9 10.4 2 .6 1.4-11.5-1.9-10.4"/><path class="cls-1" d="M212.5 289.5c-1.5.4-1.5 33.8-2 37.9a358 358 0 01-14.3 63c-1.5 4.5-3.5 8.9-5.5 13.2-1.3 3-3.2 5.8-4 9 0 .2-1.2 8.3 1.2 7 .3-.2-.9-4-.8-5 .3-3.9 3.9-8.7 5.6-12.4a122 122 0 007.6-21 482 482 0 0011.5-52.7c.7-5.3 1.6-39.3.7-39M213.7 254.6c-2.1.9-10.5 11.5-7.4 12.3-1.2-.3 9.2-13 7.4-12.3M242.2 241.1a4.3 4.3 0 00-4.3 1.3c19.7-1.9 37 17.8 41.5 35.5a58 58 0 01-1.7 34.9c-7 17.7-21 32.1-41.6 30-8.3-.9-15-7.2-18.5-14.8-5.3-11.6-1-22.7 7-31.3 8.3-9.1 27-10.2 23.8 7.6-.8 4.1-4.2 9.6-9.1 9.8-2.7.1-6.6-1.9-7-4.8-.2-1.7 3-1.9 2.8-3-.7-2.3-4.2 2-4.2 3.6.2 2.8 4.2 5.4 6.6 5.9 3.6.7 7.9-1.5 10-4.5 8.6-11.6-1.6-28.8-16.2-22.4-10 4.4-16.8 16.7-17.2 27.1-.8 25 25 35.2 45.8 24.3 19-10 26.1-36.8 23-56.7a54.3 54.3 0 00-31.3-40.9 20.4 20.4 0 00-9.4-1.6m5.3 70.2z"/><path class="cls-1" d="M209.4 342.6s-.8 1.6-.4 1.5c.5-.1.5-2 .4-1.5"/><path class="cls-1" d="M216.8 329.8c-1.4 2.2-11.6 18.4-9 19.1-.4 0 6.5-12.9 7.2-14 .7-1.1 3-6.9 1.8-5.1M157.4 195.3c-19.5 5.3 20 13.3 10.5 1.4-1.6-2-9-1.8-10.5-1.4m-3 2.8c1.1-1.3 11.5-3.8 12.9-.1 2 5.5-15.7 4.6-12.9 0"/><path class="cls-2" d="M212.2 294.4a34 34 0 01-15.6 19.4c-2.3 1.3-8.7 2.6-9.8 4.2-1 1.5 0 7.5-.3 9.9a35.9 35.9 0 01-6.6 17.8c-7.5 9.9-20.9 12.3-32.2 8-15-5.8-16.4-19.1-18.8-32.8-.2-1.1.6-4 .2-4.6-.7-.8-6-1.9-7-2.2a49.3 49.3 0 01-8.4-4.4c-3.6-2.3-8.9-5.7-11.8-9-5.2 36.7 1 70.3 12.4 105.1 1.1 3.6 4.5 9.9 4.4 13.5-.1 2.2-2.3 2.8-2.5 5.2-.4 4.8 4 3.8 7.7 3.9 3.3 0 12.8 1 14.4-2.8 1.1-2.6-2.5-8.7-2.4-12 0-3.5 8-49.8 7.5-49.9.8.2 1 2.4.5 2.3-1.3-.5 3 2.8 3 2.9a15.4 15.4 0 002.7 1 26.3 26.3 0 0010.6.9c4.4-.5 4.1-1.5 5 .6 1 2.8-.7 12.6-.5 16.2l1 10c.6 5.5 3.7 14.2 2.7 19.5-1.3 6.5-7.6 10.3 2 11.3 2.7.3 16.1-2.3 17.4-1-.2-1.3.7-3.4.4-5-.3-1.7-2-3-2.2-4.4-.5-3.2 1.4-7.2 2.7-10.3 4.3-9.4 8-18.4 10.7-28.6a329 329 0 0012.8-84.7zM91.3 119.7c-8.4 0-4.3 32.4-3.8 39.6 1.7-1.9 14-13.1 10.4-7-3.6 6.2-10.8 11.5-15.2 17.4A92.2 92.2 0 0066.2 203c13-9.2 29.3-9.6 44.5-7.1 10 1.6 23 3.8 31.2 10.1 2.4-5 0 4.1 4 5.4 3 .9 9.3-2.2 12.4-2.3 2.9-.2 7.3.4 10.7.8 2 .3 7.4 1.6 9.2-.7.9-1 .1-6.3.5-6.5 1-.4 1.8 2.4 2 3.2a56.9 56.9 0 0126.2-12c-3.2-4-2.1-16.4 3.2-19.3 10-5.4 10.7 12.4 7 17.7 11.7-1.4 28.7-3 39.9 1.4-3-13.3-6.8-26.2-14.3-37.7a46 46 0 01-2.7-3.9c-3.3-6.5 0-3.3 3 .9 3.3 4.7 5.6 9.8 8 15 3.3-7 5.6-17.6 7.3-25.5 1-4.8 2.6-10.8.7-15.6-2-5.5-5-4.4-10.8-3-8.5 2.1-16.5 5.8-24.5 9.3 4.8 3.3 9.8 8.5 1 3.2a95.2 95.2 0 00-21.1-9.5 117.6 117.6 0 00-54.2-3.5c-6.5 1.3-14.5 2.3-20.4 5.1-5.3 2.5-5 2.5-10.7.3-8.2-3-18-8.8-27-9.2zm24.5 76c-10.8-.6-8.4-21.5.8-23.2 12.6-2.3 10.6 24-.8 23.2m45.3 7.6c-13.9-.1-5.8-10.9 3.6-7.7 6.5 2.2 3.1 8.1-3.6 7.7z"/><path class="cls-2" d="M200.6 260c-4.7 1.4-9.4 2.3-14 3.4 7.3 9.3 3 27.3-3.8 35.6 3-2.3 10-16.3 11-16.3 1.6 0-2.7 8.3-3.1 8.9a42.5 42.5 0 01-11.1 11.6c-3.2 2.4-14 7-12.7 11.5 1.3 4.9 9.8 3.5 13.2 3 19.5-2.4 37.3-20.2 30.8-40.8-.8-2.6-7.6-17.6-10.3-16.8M166.3 268.8c-.9 1.7-2.2 3.2-3.2 5 1.5-1.4 2.8-4.3 3.2-5"/><path class="cls-2" d="M174.4 279.4c2.3 1 4.8 3.4 5.4 5.8a1.5 1.5 0 01.3 0 11 11 0 00-3.3-4.5c-.4-.4-4.5-2.4-2.4-1.3M174.2 295.6v1.6c.1-.5.9-1.8 0-1.6M114.9 262c-12 6.6-21.5 21.2-13.8 34.4 5.2 9 16.9 14.8 26.7 17.9 7.8 2.4 29.8 4 16-8-8-6.8-16.9-12.6-23.4-21-1.5-2-7.9-11.3-2.5-6.9 3.8 3.2 6.7 9.1 10.5 12.7a36.3 36.3 0 013.5-26.6c-4.3-.7-13.4-4.5-17-2.6M159 272c.3.8-.5.1.2 1.1 0-.6.6-2.8-.1-1M241.8 242.2c-5-.8-9.4 4.6-13.4 7-4.7 2.9-11.6 4.2-15.7 7.3-1.7 1.3-4.8 5.6-5 7.8-.2 2.5 2.5 6.4 3.5 9 3.8 9.9 2.2 23.1 2 33.5-.3 12.1-1.2 23.8-4 35.6 1.7-3.1 6-8 6.8-11.4 1-4.3-2-10.4-1.8-15.7.2-4.4.8-8.4 3-12.1 4.4-7.3 12-16.2 21.2-15.5 12 .9 15.7 14.9 9.2 23.6-2.6 3-6.6 5.4-10.7 4.3-2.3-.5-5.8-3-6-5.7 0-1.6 3.5-5.8 4.2-3.6.5 1.8-7.5 5.6 2.2 7.6 4 .8 8-2.4 9.8-5.8 5-9.4-2.2-20.5-12.6-18.3-23.3 5-25.6 46.1-2.2 52.3 33.4 9 52-30.9 48.2-58.1-2.5-18.5-18.3-41.8-38.7-41.8"/><path d="M159.7 196c-16.3 0 8 12.1 7.8 2.9 0-2.8-6.2-2.9-7.8-2.9" fill="#eea47d"/><path class="cls-4" d="M157.8 210.8c-3 1.2-1.5 11.6 4.8 8.3a4.5 4.5 0 002.2-6c-1.1-2.8-3.6-2.3-7-2.3"/><path d="M151.8 291.4c-5.4 0-16.6 1-13 8.4 1.9 4.1 23.3 16.8 3.7 18 3 6.9 10.1 8.5 17 7 2-.5 5.8-1.7 7.3-3.2 3.9-4.1.8-.4-.6-5.1-2.1-7.2 10.3-10.7 7-19.4-2-5.6-15.5-5.7-21.4-5.7" fill="#ffbc91"/><path class="cls-6" d="M152.4 277.7c-3.4.3-7.5.2-10.6 1.8-3.4 1.8-8.4 8.6-4.6 12.2 2.4 2.3 6.2-.8 8.9-1.4 4.4-1 9.4-.6 13.9 0 3.4.4 10.3 4.4 13.3 4 3.8-.7 6-7 4.3-10.3-3.2-6.6-19-6.7-25.2-6.3"/><path class="cls-7" d="M232 191.5c-11.5.1-23.3 1.3-34.2 5-2.5.8-23.5 13-18.3 14-4 2.4-3.4 6.8-4.4 11.1a73.6 73.6 0 01-7.1 18.8c-9.8 17-16-4.3-18.7-13.6l-2-6.5c-.4-1.3-.5-3.6-1.3-4.8a27.7 27.7 0 00-2.6-2.5c-.2-.5-1.9-2.3-2.2-2.8-.1-.1 1.6-2.6-.6-5-1-1-.9-.3-1.4-.7-11-7.5-30.5-9.9-43.4-9.9-7.8 0-15.7 1.2-22.8 4.5-2.4 1.1-9.3 4.1-10.3 6.7-.4 1-.6 3.1 1.4 2.6-2 4.8.2 14 1.7 18.4 2.5 7 6.4 9 11.9 13 7 5.1 12.7 10.5 21 14.2a135.4 135.4 0 0033.7 9.6c-4.1 5.8-8 22-3.5 28.6 1.4 2 5.2 4.2 7.4 6 1.7-3.5-2.2-6.7-2-10.4.4-6.8 5.8-8.4 11.5-9.7 2.8-.7 12.9-1.6 13.6-2.5 0 0 1.6-8.8 1.3-10 1.2 0 3.7-.6 4.6 0 4.9 2.7-4 6.9-3.9 9.7.1 3.4 7 2.5 9.8 3.1 3 .8 6.7 2 8 5.1 1.2 2.7-.8 4.1-2.2 7-1.6 3.4-7.7 15.8-1.5 14.8 14-2 18.9-33.6 10.6-42.3 24-5.1 55.3-15 68.3-37.8 3.3-5.9 9.6-24.9 4.1-30.7-4.5-4.8-20.6-3-26.5-3m-55.5 73q3.2-.3 6.3-1c-.3.7-5.8 2-6.3 1m-27.1 1.4a112.5 112.5 0 01-13.5-.9c1.3-2 15.8.6 18.9.7-1 .7-4.3.3-5.4.2zM130.3 315.9c-3.7 0-.3 16.4.4 18.6 2 6.7 6 12.9 12.1 16.7 9.8 6.2 24.3 6.3 33.3-1.4 5.7-4.9 17.1-28 8.3-32.1.5.3-12.4 1-13.8 1.6-1.3.5-2.5 3.3-3.9 4.3a20 20 0 01-15.1 3.3c-4-.8-6-3-9-5.6-4-3.5-5.3-5.4-12.3-5.4M239.7 289.7c-9.3.3-18.5 6.9-22.1 15.3-2.3 5.4-6.1 29 4.4 30.2 3.2.3-1.8-12-1.8-15.3 0-5.4 1.3-12.1 4.6-16.6 3.7-4.9 17.3-13.4 21-4.8 2.1 4.8-4.7 16.9-10.2 11.2-.8-1 1.8-2.5.8-3.5-3.3-3-6 .7-4.9 4.6 2.6 8.6 15.3 2.8 18-2.7 4.1-8.1.4-18.9-9.8-18.4"/><path class="cls-7" d="M232.8 288.6c-1.8.5-8 4.9-6 7.2s2.3-1.7 3.3-2.2c6-2.8 13.3-1.3 16 6.3.4 1.5-.6 6.4.9 7 2.3 1 2.1-6.2 2-7-1-7.2-9-13.3-16.2-11.3m13.7 13.2"/><path class="cls-6" d="M165.3 265.5c-5.6-1.5-4.8 7-5.5 10.6 1.6-2.3 5.9-7.4 5.5-10.6"/><path class="cls-6" d="M163.1 263c-3 .5-2.3 9 1.1 3.8.6-.9 3.3-4.6-1.1-3.8M177.1 287.6c-.9.5-5.2 5.5-4 6.2 4.2 2.5 6.7-7.8 4-6.2"/><path class="cls-7" d="M164.6 270.8c-2 3.2.2 4.3.3 3.4 0-.1 1.3-5.9-.3-3.4"/><path class="cls-7" d="M166.3 268.9c-.6.5-4.8 4-3.2 5 1.8 1 4.4-6.2 3.2-5"/><path class="cls-7" d="M167 267.6c-.2.4-3.7 4.6-2.3 5.4 3.2 1.8 4-7.8 2.4-5.4M163.7 261.8c.4 0-3.7 0-3.3 1.5.3.8 6.3.1 6.4-.4.4-1.2-2.5-1.1-3-1.1"/><path class="cls-7" d="M164.3 262.6c1-.1-3.3-.3-3.3.9 0 3 5.3-1.1 3.3-1"/><path class="cls-2" d="M248 288.8c-2.3 2.2 3.2 17.2 4.7 12 .3-1.2-2.4-14.4-4.8-12m2.3.9"/><path class="cls-2" d="M247.8 290.6c-1.8 1 2.4 8.3 2.7 10.2.3 2-1.8 10.8 1.9 9 4-2.2-1-21.3-4.6-19.2m2.7 15.6v.1zm0 .3"/><path class="cls-2" d="M249.9 299c0 5.9-3.1 9-4.2 14s.6 4.4 3.8 0a19.8 19.8 0 003.2-10.2c0-1 1-4.4-.2-5-1-.4-2.6-.6-2.6 1.2"/><path class="cls-2" d="M250.8 305.9c-.9 1.3-8.7 10.4-8.2 11 2.9 2.8 9.5-13.2 8.2-11M233 303.1c-.3.2-5 2.9-3.7 4.2q2.4.4 3.7-2.2c-.3.2 2.4-3.2 0-2"/><path class="cls-2" d="M234.3 304c-.9.4-5.5 2.5-5.1 4 .5 2 8-5.4 5.1-4"/><path class="cls-2" d="M235.4 303.3c-.7.4-6.9 3.9-6.2 5 1 1.7 8.4-6.1 6.2-5"/><path class="cls-2" d="M235 304c-.7.3-7.1 2.5-6.1 4.2 1.3 2.2 8.1-5 6.1-4.2"/><path class="cls-2" d="M237 303.2a13.3 13.3 0 00-9.7 9.6c-.2 1-1.6 8.2 0 8.2 1.3 0 .7-5.4.8-6.1v-.2c.5-3 1.9-6.5 4.4-8.4l.1-.1 3-1.7c-1.3.7 3.3-1.8 1.4-1.3m-8.8 11.6l4.4-8.6c-.1 0 0 0 0 0m3-1.7M222.1 322c0 1.8 1.5 18.1 4 17.5.6-.2-2-10.3-2-11-.2-.7-2-9.1-2-6.6"/><path class="cls-2" d="M223.3 325.9c-3.4.2 1.4 12.7 3 11.8.3-.2-2.6-9.6-1.9-10.8.4-.6-.7-1-1-1m0 2.4"/><path class="cls-2" d="M221.6 324.2c0 1.3 2.6 16.4 5 15 1-.5 0-2-.2-2.4-.6-1.4-3.3-13.5-3.9-13.5l-1 1m5.2 13.1v-.1.1m-.3-.5c.1.3 0 0 0 0"/><path class="cls-2" d="M222 325.3c.2 1.2 3 16 5.5 14.4 1.2-.7-1.5-4.3-1.6-4.7l-.1-.2c-.8-2-1-5.4-2-7.3.2.3-1.9-5.2-1.7-2.2m3.7 9.5c0 .2 0 0 0 0"/><path class="cls-2" d="M224.5 327c-.6.2 1.3 6.5 1.8 6.4.5-.2-1.3-6.5-1.8-6.4M177.6 207.4c-7.5 2.2 1.7 2.3 1.2.7q-.5-1-1.2-.7"/><path class="cls-2" d="M177.6 206.8c-2 3.1.4 2.1.5 2.4 0 1 1.4-5.4-.5-2.4"/><path class="cls-2" d="M177.6 205.6a2.5 2.5 0 000 3.4c3.7 1 .7-6.5 0-3.4"/><path class="cls-8" d="M155 211.1c-2.5.8-5.7 2.6-8.3 2.5a215.8 215.8 0 006.3 20.7c1.8 5.3 5 15.1 11.4 8.7 7-7.3 9-21.2 11.3-30.5-3.3.3-6.2-.4-9.4-.9 0 4.5-3.1 14.4-9.6 9.1-1.6-1.3-2.5-9.6-1.6-9.6"/><path class="cls-9" d="M160.4 225c-2.8.5-11.4 2.6-10.2 6.5.7 2.2 10.1-2.8 11.2-3 2-.4 11.7 1.3 10.6-2.7-.8-2.7-9.9-1.2-11.6-.9m-3.4 4.9h-.1z"/><path class="cls-9" d="M166 225.1c-3.6 1-8.7 1.8-11.6 3.6-2 1.3-1.8-.6-2.7 2.3-.9 2.4 2.4 9.7 3.7 11.6 9.8 14.8 24-20.9 10.5-17.5"/><path class="cls-1" d="M116.6 172.5c-9 1.4-11.3 21.5-1.6 23.1 12 2 14.8-25 1.6-23M211.4 174.2c-8 1.9-9.4 24.4 1.5 21.6 9.4-2.4 9.6-24.3-1.5-21.6m2 6"/><path class="cls-10" d="M91 117c-14.2 0-2.5 36.7-4.9 43.9-1.8 5.3-8.4 10-11.8 15.2a90 90 0 00-9.6 19.3c-5.4 15.7-4.4 30.8 7.4 43.2a89.2 89.2 0 0041.6 22.3 32.6 32.6 0 00-16 17.8c-3.6 10.2 2 13.3 2.7 21.6.9 9.1-3 19.4-3.4 28.7-.4 11 1.4 22 3.2 32.8 2.7 16.3 7.6 32 12.9 47.6.8 2.3 4.2 7.9 4 10.2-.2 1.8-3.4 3.5-3.3 6 0 5.2 4.4 4.5 8.2 4.8 4.2.3 12.5 1.5 16-1.4 4.4-3.5.5-6.3-.2-10-1-4.4.2-9.7.8-14.2 1.7-11.9 4.1-23.7 5.2-35.6 6 3 13.4 4.3 20 2.6-3.8 3.4-.2 19.6.3 24 .6 4.8 1.6 10.5 2.4 15.7 1.6 10.3-8.9 18 6.7 18.7 3.4.2 12.6 0 15-2.2 2.9-2.9.2-6.5-.3-9.7-.9-4.7.1-6.2 2.3-11a162.7 162.7 0 0012.5-36.2c3.2-14.9 6-27.2 14.8-39.8 7 11.9 19 15.3 32 12.6 17.3-3.6 28-18.9 32.4-35.1 3.8-14 2.2-30.1-4.8-42.8-7.4-13.4-21.7-26-37.8-24.7a53 53 0 0019.6-23.3c4.2-11.5 1-23.1-2.3-34.5-1-3.3-4.4-9-4.2-12.4 0-1.9 2-4.2 2.4-5.8.8-2.8 1.4-6.4 2.2-9.5a172.5 172.5 0 004-18.3c1.3-8.4 1.5-18.5-9.7-17-5 .6-9.9 2.6-14.5 4.4-4.2 1.6-10.3 5.9-14.6 6.2-4 .4-11-5-15.2-6.6a119.1 119.1 0 00-19.8-5.2 111.5 111.5 0 00-31.8-1.7 102.4 102.4 0 00-26.2 6.7c-4 1.6-6.2 3.2-10.2 2.6-9.5-1.3-18.1-9.8-28-9.8m-3.4 42.2c-.4-4.2-.6-8.4-.7-12.6-.2-5.3-2.9-23.1 1.6-26.5 5.2-3.8 23.2 6.1 28 8.1 2.9 1.3 6 3.3 9 2.8.3 0 3.3-2.4 5.3-3 3-.9 6-1.6 9-2.3l8.8-2.1c17.1-3.5 36.8-1.8 53.6 3a90 90 0 0118 7.3c1.1.6 7.6 5.4 8.9 5.4 3.9-.1-4.2-5.3-5.4-6 7.3-3.2 14.5-6.5 22.2-8.7 4-1.1 9.7-3.6 12.5 0 3.2 4 1 12.6 0 17-1.8 8.8-4.7 17.6-7.4 26.4a107 107 0 00-7.2-13.7c-5-7.4-7-6.8-2.4-.3 7 9.9 11.6 21.9 14.3 33.6 4.1 17.6 4.3 30.6-9.6 44.3a96.6 96.6 0 01-35.5 22.9c-.5.2-34 10.1-34.2 9.5.5 1.8 16.7-2.3 17.6-2.6 6-1.4 6.6-2.8 10.2 2.5 3.9 5.6 7 11.7 7.7 18.2a31.8 31.8 0 01-19 31.6c-4 2-25 9-26 .2-.6-4.4 16.9-14 20-17.6 1.4-1.6 9-11 7.3-13.8.9 1.4-8 13-9.8 14.7-3.2 3-7 6.4-11.1 8.2.4-2.7 0-7.1 1-9.5.6-2 3.6-3.7 4.6-6.2 3.9-10.6-9.5-12.7-17-13.7.7-1.8 9.5-14 1.4-13.1-4.4.5-3.1 6.6-4 9.4-1.6 4.4-1 3-6.4 3-5 0-11.2.4-14.9 4-7.5 7-.7 11.4-1.7 18.5-5-4.3-10.2-8.8-14.3-14-2-2.3-7.9-11.8-5.2-4.3 3.8 10.6 17.6 18.8 25.7 25.4 6.8 5.6 9.4 11.4-2.7 11.3-8.2 0-16.8-3.5-23.8-7.4-13.9-7.5-24.1-21.1-13.2-36.5 4.6-6.5 10.3-11.7 18-10 3.5.8 34.2 5.2 34.2 2.5 0 1-42.7-7-46.7-8.3a87.9 87.9 0 01-30-16.7c-22.2-18.8-11.8-48.2 3-68.5 2.7-3.8 5.5-7.8 8.5-11.2 2-2.3 6-4.8 7.4-7.4 4.7-8.3-7.5 3.7-9.6 6.2m124.2 169c1.6-13.4 1.5-27 1.7-40.4 0-7.1-1.3-11.9-4-18.5-1.6-3.9-2.4-5.2.3-9.2 3.9-5.7 11.1-6.6 17-10 5.6-3.2 9.7-8.5 16.5-7.9 16 1.5 30.1 17.6 35 32a57.8 57.8 0 01-4.8 46.7c-7.8 14.2-19.1 22.5-35.5 21.9-11.7-.5-21.5-11.2-22.2-22.9-.8-12.3 10-35.6 25.9-29.8 8.6 3.3 8.9 16.3 2.3 21.5-2.7 2.3-6.2 3.5-9.3.9-6-5 1.2-3.4.4-6.3-.6-2.2-4.3 1.9-4.2 3.6.2 3 4.5 5.7 7.2 6 5.3.7 10.2-4.3 11.7-8.7 5.2-15.4-11-25.3-22.9-15.3a32.1 32.1 0 00-12.7 22.8c-.4 6.6 3 12.2 1 17.5-1.3 3.4-4.3 6.8-5.9 10.2 1-4.7 1.9-9.4 2.5-14.1zm-5.5-64l-3.6-4.8a41.5 41.5 0 007.3-2 19.3 19.3 0 00-3.7 6.7m-46.2 12c0-1.5.5-13.5 4.3-11.5 3.5 2-4 8.8-4.3 11.5m-21.2 16.6c-1.7-3.3-3-1-2.1-6.4.6-3.8 1.5-4.8 4.3-6.6 3.7-2.3 9.8-2 14-2 7.6 0 29 1.6 21.7 13.8-2.4 5-13.9-1-18.2-1.5a48.7 48.7 0 00-9-.3c-3.8.3-7.1 2.7-10.7 3m0 1.4c3.8 0 7.6-2.5 11.6-2.7a58 58 0 0114.9 1.3c6.3 1.9 8.4 1.8 7.5 8.2-.8 5.2-1.2 4-4 7.4-2.2 2.6-4.2 4-3.2 7.5.4 1.3 3.3 2.4 3.3 3.1-.2 3.2-7.7 5.4-10.3 6-7.2 1.4-12.7-1-16.2-7.1 6.5-.3 10-4.1 6.3-9.4 1.4 2-16.4-14.3-9.9-14.3m64.3 14.6a29.4 29.4 0 009-14.4 367.7 367.7 0 01-13.8 88.2c-2.9 10.3-8 18.9-11.3 28.8-.7 2.3-1.5 5-1.1 7 .2 1.3 2 2.5 2.2 4 .1.8-.6 4.6-.4 5 .3.5-23.1 1-22.6.3-.5-2.4.2-4.2.9-6.5 1.1-4.2 2.2-5.2 1.5-9.8-.9-6.1-1.8-12.2-2.4-18.3-.3-3.4-.6-6.7-.7-10 0-2.1 1.3-12 1.3-12-1.2-2.1-2.6-.7-5.6-.4a26.3 26.3 0 01-9-.4 14.4 14.4 0 01-3.5-1.2 37.7 37.7 0 01-3.8-1.5q1.3-2.5-.5-3.9c.2 0-6.7 42.4-7.1 46.4-.4 3-.9 5.8-.2 8.7.3 1.4 2.6 4.2 2.4 5.7-.7 4.9-10 3.9-13.6 4-3.8 0-9.1 1-8.7-4 .2-2 2.6-2.7 2.8-4.2.4-3.3-3.5-10.7-4.6-14-4-12.7-8-25-10.6-38a212.3 212.3 0 01-2-67.6c6.6 8.4 20.5 14.4 30.5 16.3 7.6 1.5 6.7.4 11.1 5.4 3.4 3.8 8 5.1 13 4.8a20.3 20.3 0 006.5-1.5c2.7-1.1 4.6-4.3 6.8-5.2 3.1-1.3 8.4-.8 12.7-1.5a39.6 39.6 0 0020.8-10.2z"/><path class="cls-10" d="M179 202.8c-1.4 0 .4 3.6.1 4.4-1.4 3.5-3.7 3.4-7.4 3.2-4.7-.3-9.2-1.6-14-1.3-3.2.3-6 1.8-9 2.2-9.2 1-2-5.9-5-7-3.6-1.4-1.5 7.5-.8 8.6.4.5 1.7.1 2 .5.9 1.3 1.1 2.8 1.7 4.7.8 2.2 1.6 4.6 2.2 6.8 3 11.1 10 33.6 20.1 13.5 3.8-7.6 4.5-15.5 7.5-23.2.4-1.2 7.8-12.4 2.6-12.4m-19.1 16.8c-2.7 0-2.5-1.7-3-3.8-1.4-5-.3-4.4 3-4.9 7.2-1.1 6.5 8.5 0 8.7m-12.9-6c2.7 0 5.4-1.8 8-2.4-2 14.2 12.9 12 11.3.5 3.1.3 6.2 1.3 9.4.8-3.5 9.6-4 21.3-10.8 29.6-12 14.7-14.6-28.5-17.9-28.5"/><path class="cls-10" d="M159.2 195c-6.4 0-8.4 5.7-2.4 8 3.1 1.4 14.3 0 11.7-5.5-1.1-2.5-7.3-2.4-9.3-2.4m2.5 6.4c-14.1 0-3.7-7.9 2.5-5.1 4.4 2 3.8 5-2.5 5"/><path class="cls-8" d="M102.5 198.8c-6 .8-10.1 7.7-5.2 12.6 2.7 2.7 17.2 4.1 20.5 3 6-1.9 6.1-8.8 1.6-12.2-4-3.1-12-4-16.9-3.4M215.7 196.1c-5.6.5-14.5 3-18 8-4.6 7 1.2 11.9 8 9.8 4-1.2 12.1-3 15.1-5.6 5.5-4.7 2.6-12.7-5-12.2"/><path class="cls-11" d="M228.1 197.7c0 3.8 6 3.8 6 0s-6-3.8-6 0M222.7 203c0 4 3.4 0 3.4 0s-3.4-3.8-3.4 0M95.4 200.4c0 3.2 5 3.2 5 0s-5-3.3-5 0M103 206.7c0 3.3 5 3.3 5 0s-5-3.2-5 0M117 179.6c0 4.9 4.3 0 4.2 0 0 0-4.3-5-4.3 0M113.5 187c0 3 4.6 3 4.6 0s-4.6-3-4.6 0M212.5 180.2c0 4.7 4 0 4 0s-4-4.6-4 0M209.2 187.1c0 4.5 4 0 4 0s-4-4.5-4 0M254.4 251.7c-.7 1.1 10 11.8 11.5 14.8 4.6 9.4 6 20 5.3 30.3a64 64 0 01-7 26.4c-.5 1.1-12.4 16.3-12.7 15.8 2 3.3 15.6-13 16.8-15a68.5 68.5 0 0010-31c.8-10.2-.5-21.7-6.8-30.2-1.6-2-14.5-15.5-17-11.1m16.2 50.4M165.2 294.1c-3.5 1-2.6 7.4 0 8.4 6 2.2 5-9.8 0-8.4M161.8 315.2c-1.4.9-6.4 6.8-2.5 6.7 4.1-.2 5.6-8.4 2.5-6.7"/><path class="cls-4" d="M153.9 232c0 2.9 2.4 0 2.4 0s-2.4-2.7-2.4 0M157.8 228.5q.7 1.4 1.4 0-.7-1.5-1.4 0"/><path class="cls-8" d="M95.5 127.3c-8.8 0-5.7 20.8-.7 20.5a40 40 0 0012.1-9.7c2.6-5.8-5.8-10.8-11.4-10.8M247.7 131c-3.5 0-14.2 2.3-13.8 6.3.1 1.4 7.8 10.7 9.3 12 10 8 17.3-18.3 4.5-18.3"/><path class="cls-11" d="M102 314.2c0 8.2-.8 16.5-.5 24.8.1 2.8.9 18.1 3.6 10.8 2-5.5-.3-16.7-.2-22.6 0-2.1 1.4-11.8 0-13-.5-.5-3-3-2.9 0M105.4 364c-2.2.5 8.6 39 10 38.6 1.6-.5-10.3-38.5-10-38.6M240 154.6c-.8.5 4 9.8 4.4 10.8a117.7 117.7 0 018.3 30.4c1.2 10.1.6 19.3-5 28-1.7 2.7-21 22.8-21.6 22.3.7.7 2.6-1.3 3-1.6 11-8.7 24.5-16.7 27-32 1.5-9.6-.9-20.5-3.3-29.7-.7-2.6-10.4-29.7-12.8-28.2M229 244.5s.2-.1 0 0M244.4 165.3s0-.2 0 0"/></svg>