<svg id="Layer_2" data-name="Layer 2" xmlns="http://www.w3.org/2000/svg" viewBox="0 0 323 439"><defs><style>.cls-1{fill:#2c2c2c}.cls-2{fill:#ca896e}.cls-4{fill:#b3835a}.cls-6{fill:#ffbc91}.cls-7{fill:#ffb9b7}.cls-8{fill:#fad8bd}.cls-9{fill:#fff}.cls-10{fill:#835947}</style></defs><path class="cls-1" d="M71.3 301.5c-.8 22 4 43.8 11.8 64.3 1.8 4.9 25.7 57 28.4 55.4-.4.2-25-49.4-27-54.2a180 180 0 01-13.2-65.5"/><path class="cls-1" d="M111.3 420.6a8.2 8.2 0 00-3.7 5s.5 8.1 3 5.7c.5-.6-1.7-5.3-1-7-.1.2 3.3-4.8 1.7-3.7"/><path class="cls-1" d="M114.1 429.3c-.6.5-4 1-4 1.3-.5 1.8 5.2.5 4.9-1-.1-.4-.5-.6-.9-.3"/><path class="cls-1" d="M114.7 429c-1.6 1 6.2 4.1 4.6.6.5 1.2-5.3-.2-4.6-.6"/><path class="cls-1" d="M119.3 429.5c-2.1 2.1 7 3.4 5.4 1 0 0-5.9-.5-5.4-1"/><path class="cls-1" d="M124.8 429.6c-3 1.7 7.2 4.1 5.5 1.3.3.6-6.6-.7-5.5-1.3M134.7 429.9c-.6.6-4 .8-4 .4-.3 1.7 3.2 1.8 4 1 .8-.5 1-2.3 0-1.4"/><path class="cls-1" d="M134.2 418c-.7 3.2 4.3 6.3 3.4 9.8-.2 1.3-2.5 2.3-2.5 2.6 0 1.3 2.7 0 3-.4 1.5-1.9.5-4.6-.2-6.5-.2-.9-2-6.3-3.7-5.5"/><path class="cls-1" d="M140.3 364.6c-1.5 1.5.7 11.2.6 13-.2 8.6-2.1 17.1-4 25.6-.4 2-3.7 16-2.7 16.4.8.2 7.3-31.3 7.6-34.1.7-5.4 1.4-11.5.3-16.8-.2-.7-.6-5.3-1.8-4"/><path class="cls-1" d="M141 367.1c-1.4.9 4 2.2 4.4 2.3a44.6 44.6 0 0013.8 1.7c2.3-.1 8.2-.1 8.7-2.7-.4 2-15 1.3-17 1-1.7-.2-8.4-3-9.8-2.3"/><path class="cls-1" d="M164.7 370c-.1 8.1-.4 16.3 0 24.5.3 5.1.1 19 4.3 22.6 1.7 1.5 1.1.6 1.2-1.2 0-4.4-2.9-10.3-3.5-14.9a.2.2 0 000 .1 173.1 173.1 0 01-1.2-23.6c0-.8.8-6.5.1-7.3 0 0-1-1.7-1-.3"/><path class="cls-1" d="M169.6 416.8c-1.4 3.4-4.5 8-2.6 11.6 1 1.8 9 5.5 10 1.9 0-.2-8-1-9-3.4-1.3-3 1.4-5.6 1.7-8.3 0 0 .5-3 0-1.8"/><path class="cls-1" d="M183.4 428.8c-1.2.4-6.6.6-6.8 1.2-.4 1.4 6.8 1.6 7.3 0 .1-.3.6-1.6-.5-1.2M192 428.6c-1.3.3-7.6.4-7.7.8-1.2 4.4 10.5-1.4 7.7-.8M233 262.6c.6-.2 1.6 27.3 1.4 30-.8 11.4-3 22.5-5 33.8a288.1 288.1 0 01-22.3 67.1c-1.4 3-2.7 6.1-4.2 9.1-1.7 3.5-9.4 13.5-8.7 17.4.5 2.3 2.1-1.3 2.5-1.9 3.3-4.3 5.5-10.7 7.8-15.5 11-23.6 20.9-48.2 25.5-74 1.7-9.9 3.7-20.4 4.8-30.6.4-3.6 1-36.1-1.7-35.5"/><path class="cls-1" d="M194.7 419.3c-.7.2 0 5.1-.1 5.4-.1.5-3 4.7-3.2 4 1.5 6.7 7.5-10.6 3.3-9.4M103 121c-10.7 1-20 7.1-23.9 17.3-.9 2.5-3.3 29.4.8 28.2.5-.1-1.8-13.2-1.8-14.5a31.8 31.8 0 015.9-19.7c9-12 28.6-12.1 39.2-2.4 11.8 10.8 12.6 29.2 5.7 42.8-.5 1-4.4 6.2-1.8 5.8 3.7-.6 7.1-13.3 7.6-15.6 4.5-20.4-9-43.8-31.7-41.8"/><path class="cls-1" d="M79 165.7c-16.1-.2-32 5.2-43.6 16.7-6.2 6.2-10.5 16.7.3 19.6-2.7 3.1-6.4 8-4.4 12.4 1.2 2.4 5.2 3.2 7 4.6.5.4 1.5-.7 2 0 1 1.3-.5 4-.2 5.5a14.8 14.8 0 002 5c5 8.4 17 10.9 26 12.5 3 .6 32 3.6 30.9.2-2.3-1.4-8 .5-11 .4-3.7-.1-10.4.4-13.7-1.3-12.7-1.7-30.4-4.5-32.6-19.2-.8-6-1.9-3.6-6.2-6.5-6-4-.9-7.2 1.2-12 2.1-5.1-1.8-1.9-5-5.5-5-5.9 5.1-14.7 9.1-18 16.9-13.8 38.2-14 58.7-11 0 0-.1 0 0 0h-.1A70.4 70.4 0 01116 173c3 1.2 5.3 3 8 4.4-1.1-.6 4 2.2 3.5 1.6-8.1-8.6-21.3-10.7-32.5-12a269 269 0 00-16-1.3M127.6 179c1.2 1.4 0 0 0 0"/><path class="cls-1" d="M109.6 132.9c-14.2.7-31.1 24.2-14.8 34 1.4.8 7.7 3.2 5.8.4-1-1.5-6-1.8-7.7-4-2.6-3.3-2.7-8-2-12 3.7-18.7 31.7-22.6 38.2-3.8 2.5 7.1-.2 16.7-6 21.6-.3.2-6.3 2.9-5.5 4 .9 1 1.6-.1 2.5.3 8-1.9 12.6-13 12.4-20.4-.2-12-11.3-20.7-22.9-20.1M264.2 150a75 75 0 00-31.7 12.5c-6.5 3.9-13.5 9.5-20.8 11.4-.1 0-20.4 5.7-20.4 4.4 0 0 6 .4 7.3.3 7.8-.8 15.1-4 22-7.7 9.4-5.1 18.3-11.3 28.3-15.6-.1 0 0 0 0 0 11.4-4.8 28.5-7 38.1 3 5.8 6-.7 8.6 1.6 15 2 5.3 6.1 9.2 6.1 15.3a29.8 29.8 0 01-5.2 16.4c-6.7 9-19.4 14.7-29.5 19 .1 0 0 0 0 0a66.8 66.8 0 01-16.6 4.4c-11.8 1.6-24.1.8-36-1q.2 0 0 0c.2.1 0 0 .1 0 0 0-4.6-1.1-4 .4 1.6-.8 1.1-.2 2.3.2 4.3 1.5 10.3 1.7 15.2 2a107.9 107.9 0 0024.9-.8c14.9-2.4 36.4-11.2 45.2-24 3.7-5.4 6-14 4.6-20.3-1.2-5.7-7.2-10.7-6-16.6.5-2.5 2.5-3.6 1.6-6.7-1-3.1-3.7-5.4-6.4-7-6-4-13.7-5.2-20.7-4.7m-20.8 78.5"/><path class="cls-1" d="M205 129.4c-12.4 3-19.8 13.9-20.4 26.3-.4 8.8 3 19.5 11.8 22.3a.5.5 0 00-.3-.4 17.4 17.4 0 01-5.3-4.6c.2.2 0 0 0 0-9.9-12.9-3.9-34.8 11.3-40.5 15.2-5.6 33.4 4.8 33.5 21.7 0-.6-1.5 8.3-1 8.3 1.9.1 2-3.7 2.3-5 3-18.2-14.8-32-31.9-28"/><path class="cls-1" d="M200.3 140.4c-8.7 4.7-11.7 15.6-10.2 24.8.4 2.2 6.3 16.5 8.5 13.4.8-1.2-3.8-5.2-4.2-6a25.4 25.4 0 01-3-16c.8-6 3.5-9.5 7.3-13.9-.4.4 3.8-3.4 1.6-2.3"/><path class="cls-1" d="M203.5 139.5c-2.7.8-6 2.1-7.7 4.3.4.5 4-2 4.7-2.2a21.6 21.6 0 0124.4 5.7c3.6 4.2 4.3 8.5 5.2 13.7 0 .3-.6 3.4.3 3.7a1.1 1.1 0 001-1.5c2.4-15.5-13.2-27.8-27.9-23.7M158.7 167.7c-3.7.1-10-.6-11.7 4-1.8 5 5 8.2 8.6 8.4 3 .2 8.2-.9 10-3 4-5-1.6-9.6-6.9-9.4m-4.5 10.7c-3.4-.5-7.8-3.4-5.4-7.2 1.8-3 7.3-2.4 10-1.9 12 2.1 3.8 10.1-4.6 9.1M178 181.1c-1.1.6 2 7.7-1.6 10.2-4.2 2.8-11.3 1-15.9.4-6.7-.9-10.6-1-17 1.7-2.2 1-6.1 2-8.1-.6-3.7-5 5.6-8.3 5-10.3-.6-2-6.7 5.7-6.8 7.1a5.3 5.3 0 002.2 5c3.1 2.3 6.8.3 9.9-.7a21.6 21.6 0 0110.7-1.2c6 .7 14.5 3.5 20.2.4a8 8 0 002.9-2.3c1-1.6 1.4-11.4-1.5-9.7"/><path class="cls-1" d="M152.4 190.8c-.8 2.3-1.3 5.8.3 7.8 1.6 2.1 7.1 3.4 9.6 1.8 1.2-.8 3.8-7.6 1.6-7.6-1 0-1 5-2 6-1.5 1.2-6.3.4-7.5-.8-1-1-.2-9-2-7.2M169.5 215c-5.1 0-12.4 3.5-13.8 8.9-1.7 6.3 5.3 10.7 8.8 14.7a64.1 64.1 0 0112.2 25.7c2.2 7.4 4.6 15.8 10.6 21.2 11.5 10.1 27.1 3.4 35.8-7.3a49.3 49.3 0 009.8-20.4c.3-1.4 2.2-29.1-1.7-28-1 .2.4 5.6.5 5.7 3 15.3-1.7 33.2-12.7 44.4-7 7.2-18 12-27.6 6.4-9.7-5.7-11.6-18.4-14.6-28.3a61.7 61.7 0 00-15.6-25.4c-3-3.3-5.5-6.4-2.6-10.7C169 206.7 187 226 195 233c-.2-.6.3-1 .8-1-7.3-6.5-15.5-17-26.2-17.1z"/><path class="cls-1" d="M195.8 233.5c-.5.1 12 10 12.8 7.4a81 81 0 00-12.8-7.4M231.7 255.8c-.5.5.2 10.6 2.1 9.5.6-.4-1-10.5-2-9.5M162.5 216.8c.6-.3 7 5.4 8.4 5.4 1.7 0-6.7-8.9-8.4-5.4M156.8 221.6c-1.2 1.7 3.8 3.6 5.2 4 5.5 1.6-2.4-4.7-5.2-4M134.6 192.7c-6.3 12.7-4.3 31.1 6.1 41a26.2 26.2 0 0014.4 7c1.2 0 11.8-1.5 10-3.3l-6.7 2.7c-4.2.4-9-1.4-12.6-3.5a26.9 26.9 0 01-11.2-13.8 39 39 0 01-.9-25.3c-.2.5 1.8-6.7.9-4.8M175.3 192.2c.1-.1 6 13 6.5 14.5.4 1.3 2.1 15.7 2.2 15.7 2.9.8-3.8-33.1-8.7-30.2M102.4 235.8c-1.4.9-6.1 9.7-3.3 11.2.7.4 2.3-1 3-1.2a23.9 23.9 0 019-.4 37.6 37.6 0 0115.8 6.9c3.5 2.6 11.4 14.4 16 13.5 5.7-1 1.2-11.4-.5-13.8-2.9-4-7-7.8-12-8.9l4.1 2.9c-.1-.1 0 0 0 0a26 26 0 018.9 10.3c.5 1.5 2.1 7.5-.2 8.2-2 .7-4.9-2.5-6.1-3.6-9.7-8.5-22.6-22.7-37.4-15.8 0-2.8.2-6 2.6-8.1 1.2-1 7.1-2.9 8.5-1.5a53.4 53.4 0 0119 7.2c-.4-.7.7-.6.8-.8-7.2-4.4-20.3-11.2-28.2-6.1"/><path class="cls-1" d="M127.7 224.1c-1.8.2-8.3 13-6.4 14.2.3.1 5-13 5.3-13.1 6.8-3 4.6 8 3 11 .2-.4-4 7-1.6 4.1 2.5-2.9 8.2-17-.3-16.2M99 246c-2.2.6-5.5 11.6-6 13.2-.4 1-4.1 18.4-1 17.5.7-.2-.4-6.2-.4-6 0-5 1.9-10.1 3.8-14.7 0-.2 5-10.4 3.5-10M142 264.4a42.2 42.2 0 01-6 18c.1 0-4.8 5.4-3.5 5.6 1.7.2 3.8-3.4 4.6-4.6a35 35 0 004.8-11.8c0-.4 1.5-8.1.1-7.2M153 239.7l-1 .3a19 19 0 00-4 2c1.1.6-3.5 3-4.4 4-.2.3-3.9 5.9-1.9 6.5.8.2 1.9-3.6 2-3.6a25.9 25.9 0 016.6-7c-.8.5 4.7-2.8 2.6-2.2"/><path class="cls-1" d="M182.6 277.6c-.5.2-1.1 1.5-1.4 1.9a29.9 29.9 0 01-9.7 8.4 33.4 33.4 0 01-26.4 1.9c-.8-.4-8.5-6.8-8.9-6.6a.9.9 0 00.2 1.3c-1.2 1.5 9 6.9 10.3 7.3 6.5 2.2 14 1.8 20.5-.2 5.3-1.7 12.6-5.2 15-10.7.2-.5 1.9-3.7.4-3.3M64.9 240C52.2 256.4 46 286.6 67 299a79.6 79.6 0 0047 10.7 1 1 0 01.1-.8c-10.5.9-20.8.2-30.8-3.7-9.7-3.9-22-9-26.4-19.2-4.5-10.3-2.2-22.9 2-33 1.3-3.4 5.7-8.2 6.3-11.6 0 .4.8-2.9-.3-1.4"/><path class="cls-1" d="M83.5 267.8c-2 1.3 7.3 8.5 8.1 9 4.6 3 10 4.3 15.3 5.3 7.8 1.5 25 1 28.8 9.6 4.8 10.8-13.5 16.4-20.5 17a2.1 2.1 0 01.4.9c8.8-1 31.5-11.4 17.9-22-9.2-7-23.7-5.2-34.3-8.9a.6.6 0 00.1 0q-.2 0 0 0c-1-.3-17.4-9.8-15.8-10.9m50.7 32.3"/><path class="cls-1" d="M127.2 299.1c-1.2 1.3 8.3 2.3 8.2.7 0-.7-7.8-1.1-8.2-.7M129.5 292.9c-1.1.1 7.5 2.4 6.8 1.7 0-1.2-6.6-1.7-6.8-1.7M131 430.3c-.5.1-2 .1-2 1 .5 2 3.6-1.5 2-1M183 429.4c0 .9 1.8 1 2 .2 0-.9-2-1-2-.2M254.5 228.8a37.6 37.6 0 00-13.4 5.3c-1 .7-8.8 7-7.6 7.8 0 0 7.2-6.5 8-7-.2.1 0 0-.1 0a48 48 0 0148.2.9c18.3 11.2 22.3 35.8 12.6 54.2-8.5 16-32 28.9-45.9 11-7.2-9.3-11.1-26.4-.9-35.1 6-5 15.5-4.8 21.7-.3 6.7 5 3.4 17.8-6 16.5-1.9-.3-4.1-4.8-4.7-3-3.1 8.8 12.5 2.5 14.6-.4 11.3-15.5-25-27-32.3-5.8-5.8 17 8 39.8 26.8 38.4 23-1.7 36.1-28.8 32.7-49.4-4.2-25.2-30-37.7-53.7-33.1"/><path class="cls-1" d="M249 286.6a125 125 0 00-13.4 25.2c-.9 2.1-9.4 25.3-7.6 26-1.4-.6 11.7-32.4 13-35 1-2 9.6-14.1 9.1-15.4 0 0-.2-2.1-1.1-.8M96.3 110a20.7 20.7 0 00-12.4 7.2c-1 1.2-3.7 5.2-.3 4 1-.4 3.5-4 4.5-4.7a31.5 31.5 0 016.1-3.5c-.2.1 6.6-3.7 2.1-3M226 110.6c-2.6 0-.4 2 0 2.5.8.5 5.4.8 6.4 1.2 2.4 1 4.7 3.9 6.9 4.6 4.3 1.2 2.9-1.2-.5-3.9a20.5 20.5 0 00-12.9-4.4zM76.4 110.5a69.8 69.8 0 00-17 30.7 88 88 0 00-2.8 16.3c-.2 2.4-.3 4.9-.3 7.3 0 .5-.2 8.4 1.6 5.2 1.7-3.1.1-11.4.7-15.4a85.5 85.5 0 016.2-22.3 78.4 78.4 0 016.4-11.9c.8-1.2 6.7-7.5 6.6-8.7 0-.4 0-2.6-1.4-1.2"/><path class="cls-1" d="M68.8 84.1c-25 .1 0 42-1.3 42.6 1.4-.6-12.6-31.2-4.2-38 6-4.8 16 1 21.5 4 1 .6 10 7.3 11.7 6.4 2.5-1.4-1-3-1.8-3.9a43.7 43.7 0 00-25.9-11z"/><path class="cls-1" d="M150.5 72.4c-11.8 1.1-23.7 3.6-34.6 8.4-2.3 1-24.2 13.6-21.5 16.2-.1-.1 17-12.4 20.4-14 33-15 75.2-11.6 107 4.2.9.4 8.7 5.3 9.5 3.8 1.5-2.6-15.1-9.2-16.7-9.9a137.7 137.7 0 00-64-8.7M114.7 83"/><path class="cls-1" d="M249.3 70.6c-3.3.8-29.8 12.6-28.5 16.2.2.6 18.5-10.5 21-11.7-.2.1 0 0-.1 0 4.6-2 11.5-5 16.5-2.2 5.2 2.8 6 11 6.3 16.3a61.4 61.4 0 01-1.8 19.5c-.6 2.3-6.7 12.4-6.3 13.9 1 3.9 6-5.7 6.3-6.2 3-6.5 4.1-14.2 4.3-21.4.2-11.7-2.3-28-17.7-24.4"/><path class="cls-1" d="M259.9 118.7c-.6.4 9.9 33.4 12.4 32.6 2-.6-10-34-12.4-32.6"/><path class="cls-2" d="M250.8 72.1c-9.7 1.7-18.5 8-26.6 13.5.5.2 10.5 5.3 5.7 5.8-1.5.2-7-3.7-8-4.2a128.7 128.7 0 00-42-12.5c-27.4-3-64-.2-83.9 21.6 2.6 1.6.6 2.4-1.4 2.1-5.3-.7-11.7-7-17-9.1-25-9.9-16 21-10.7 34 1.4-2.5 6.5-12.5 9.9-13 2.8-.3-.3 2.9-.7 3.5-2.2 3.7-5.2 6.9-7.4 10.7a84.4 84.4 0 00-10.9 44.2 67.6 67.6 0 0121.2-3c-3.3-12-3.4-26.7 5.6-36.3a29.7 29.7 0 0133.4-5.7 33.5 33.5 0 0117.6 29.3c.3 6-1.6 22.3-8.5 25.5 5.7 5.9 14.5-1 21.2-1.3-12-13 29.1-11.8 17.2 0 9.2.5 18.3 3.7 27.5 1.6a1.3 1.3 0 01-1.7-.5c0-1.2 2.8-.4 3.4-.4-16.5-11-11.8-38.9 5.3-46.7 19-8.7 42.3 7.7 36.3 29 10.5-6 22-11.4 34.4-10.2-4.9-9.2-5.9-19.8-10.7-29-4.2 5.6-2.8.6-1.2-2.2a49.3 49.3 0 005.5-19c1-10 1.3-30-13.5-27.7M82 121.2c-3.4-3.2 15.4-14.8 15.6-10 .1 1.8-6 2.9-7.4 3.7-1.2.7-7 7.4-8.2 6.3m144-8.1c-2.2 0-.8-2 0-2.5.4-.3 4.2.4 4.7.5 2.6.6 12 4.2 11.4 7.6-.7 3.5-6-2.6-7.4-3.4a18.3 18.3 0 00-8.7-2.2zM168 216.6l-2 .4c2 .8 8.1 5.9 3.5 4.6-2-.6-3-3.7-5.7-3.6-1.5 0-4.3 2.8-5.1 3.8 1 .3 7.8 4 4.4 4.7-2.4.5-6.3-7.2-6 .1.1 2.6 2.5 4.3 4.1 6 3.6 3.8 7.2 7.4 10 12 9.2 15.4 11.5 56.2 39.8 41.4 17.7-9.3 23.2-32.1 20.7-50.5-1-7.2-3.2-5-10.7-5.4-4-.3-11.8-2.5-15.4-1.5-2.8.9-5.4 3.9-8.6 4.7 1.2 1 11.6 7.6 11.6 7.6-.8 2.9-16.2-10.2-18-11.8-6-5.5-13.6-13.7-22.6-12.5M243.3 228.4l4-.7-4 .7M135.4 245.2a37.5 37.5 0 016 5.5 13 13 0 014.2-6.8 38 38 0 01-12.1-.2l2 1.5"/><path class="cls-2" d="M231.8 262a47 47 0 01-13 20.8 32.2 32.2 0 01-9.8 6.1c-4.5 1.8-6.7.7-7.6 5.9-3.3 20-14.3 41.7-35.8 47-20.8 5-40-8.7-49-26.6-2.1-4-1.3-4.3-4.9-5.3-1.5-.4-4 .1-5.6.1a70.4 70.4 0 01-12-.8c-7.7-1.4-15-4.6-22-7.8-1.4 41.8 17 79.7 37.3 115 1 1.6 2.5 3.4 2.4 5.1-.1 2.2-4.3 3.6-2.4 7 2 3.7 2.8.7 5.5.5.6 0 1.5 1.1 2.3 1.2.7 0 1.6-.8 2.1-.7.3 0 5.3.8 5.4 1-.8-2 2.1.7 2.9.7a44.3 44.3 0 005-.4c6.4-1 4.7-3.4 2.6-9.4-1.9-5.4.4-12.2 1.7-18.2 2-8.9 4-17.8 4-26.9 0-.5-1.2-11.8-.1-11.8.2 0 1.5 2.7 2 3 1.9 1.4 5.8 1.6 8 2 2.5.3 16.6-1.6 17-1 .6.5-.3.8-.2 1l-2 .7a19.3 19.3 0 000 4.2c-.1 8.9-.1 17.9 1 26.7a.8.8 0 000-.2c.8 5.4 4.1 12.4 3.4 17.2-.8 5.1-4.9 10.2 2.2 11.4 3.6.6 7.1-.4 10.7-.5 2.5-.2 5.5 1 8.2-.2 4.4-1.9 2.5-5 3.1-8.7 1.4-8.3 8.9-17.6 12.3-25.3a287.5 287.5 0 0022.7-67.1c3.6-20.2 10.7-45.9 2.6-65.7z"/><path class="cls-2" d="M263.7 229c-7.8 0-15.8 1.7-22.3 6a20.7 20.7 0 00-6.4 5.6c-1.9 3.4-1.2 10.4-1.6 14.6-.7 7.4 1.7 14.6 2.1 22.1 1 17.3-2.6 34.4-5.6 51.4a146.5 146.5 0 017.2-20.7c3-6.8 10-15 11-21.9 1-7-1.4-12.3 3.7-18.8a17.9 17.9 0 0116.6-6.6c5.5.6 12.7 3.5 14.4 9.3 1.9 6.5-4.5 13.8-11 14-3 .1-7.5-5.5-4.6-5.7.9 0 1.3 3 2.8 3.7 3.5 1.6 9-3.2 10.4-6 3.5-7-4-11.9-10-13.3-13.2-3-22 7.8-21 20.3.7 8.4 4.8 17.8 11.9 22.9 12 8.4 27 1.7 35.6-8.3 11.3-13 14-33.1 5.6-48.3-7.8-14-23.5-20.3-38.8-20.3M65.2 241.4a54.3 54.3 0 00-10.5 36c1.6 14 11.8 19.9 23.3 25.4A67 67 0 00113 309c7.3-.5 16.3-2 21-8.5-1 0-6.8.3-6.9-1 0-1.5 4.1 0 5.1-.2 2.7-.5 3.7-.7 4.1-4.2l-2.5-.8c.2 0-4.5-.7-4.6-1 0-1.5 6.4.6 7.2 1.3.5-10.7-21.8-11.1-28.5-12.3a47 47 0 01-15.2-4.9c-.9-.5-11.2-8.2-9-9.6.4-.3 6.5 6.2 7.3 6.8-2.2-11.4 6-21 8-31.6-4.9 5.3-27.8-.3-33.7-1.6z"/><path d="M164.5 238.6c-2 0-5.4 2-7.8 2.2-4 .3-4.8-.5-8.5 2.5-2.3 1.8-5.6 5.3-5.7 8.4 0 2.8 3.3 5.6 3 9-.1 2.7-2.2 3.7-2.8 5-1.4 3.4-1.2 7.9-2.5 11.4-1.7 4.6-4 4.9-1.2 8.7 8.7 12.1 32.2 5 40.2-3.8 2.5-2.8 2.2-2.5 1.8-5.5-.6-4.4-3.6-10-4.9-14.4a57.4 57.4 0 00-11.6-23.5z" fill="#c69a7b"/><path class="cls-4" d="M151.8 192.4c-5.2 0-12 6.2-16.7 1.6a37.8 37.8 0 000 30c3.5 8.3 19 23 28.8 14-6.3-7-13.6-14.9-1.4-21.2 7.6-3.9 15-.6 21.2 4.5a38.2 38.2 0 00-3.8-20c-.8-1.8-2.5-6.8-4.3-7.8-1.4-.7-8.9.6-11 .4.1 5.4-2.6 8.3-8 6.7-5-1.4-4.8-4-4.8-8.2zM107.2 245c-8 0-9 4.5-11.8 11a.6.6 0 000-.1c-2 4.7-3.8 9.7-3.8 14.8 0 5.5 2.6 6.3 7.7 8 8.2 2.9 18.5 2.8 27.3 5.7 3.1 1 4.4 2.8 6.8 1.5 2.5-1.4 4.7-7 5.7-9.3.9-2 3.8-8.6 2.7-11-1-2.2-7.2-6-9-7.9-6.9-6.7-15.5-12.7-25.6-12.7M110.5 135c-11.6 0-21.8 10.6-19.9 22.6 1.7 10 11.9 10 19.6 12.1 5 1.4 7.6 3.4 12.2 0 4.1-3 7-9.2 7.6-14.2 1.4-11.4-8.4-20.5-19.5-20.5M208.8 139.9c-11.9 0-18 10.2-17.6 21.5.2 4.2 2.3 14.7 7.3 16.2 2.5.8 7.6-1.6 10-2.4l5.8-2.4c3.5-1.7 13.4-5.2 15.4-8.6 2-3.4-.6-10.5-2.5-13.7a21.7 21.7 0 00-18.4-10.6"/><path d="M155 169c-12.6 0-4.3 12.7 6 8.7 10.1-4-.5-8.7-6-8.7" fill="#eea47d"/><path class="cls-6" d="M106.4 235.4c-5.4.8-6.8 5-6.7 9.7 10.4-4.7 23.6 2 31 9.2 1.8 1.7 9.6 12.1 12.7 10 4.8-3.2-3-13-5.3-15.3a42.1 42.1 0 00-8-5.9c-6.6-4.2-15.6-8.7-23.7-7.7M128 224.7c-3.5 0-4 6.6-4.7 9-.8 2.8-1.8 5 2.3 5.5 5 .5 9.7-14.5 2.4-14.5"/><path class="cls-7" d="M71.3 94c-6 .5-5.6 8.4-4.9 12.6.3 1.6 1 7.4 3 7.8 2 .4 4.6-4.3 5.7-5.6 1.7-1.9 9-6 8.5-8.6-.5-3-9.4-6.4-12.3-6.2M244.7 77.5c-4 1-13 5.2-10.8 10.6.7 1.8 4.2 2.6 5.7 3.6a42.6 42.6 0 0110.9 11c2.5 3.6 3.5 6.9 6.5 1.5 2-3.6 1.8-9 1.4-13-.7-7.3-5.1-15.8-13.7-13.7m0 5.7c0 .4-.3.4 0 0m-3.3 9.8"/><path class="cls-8" d="M274 310.6c0 2.2 3 1.2 3-.6.2-1.7-3-1.2-3 .6M266.8 151.3c-14 0-26.2 8-38 14.8a83.1 83.1 0 01-35.5 12.6c-8 .6-15.1-.1-23.2-1.1-6-.8-8.4 2.8-14.5 2.5-2-.2-3.4-.9-5.3-1.4.3.1.2-1 .1-1-2.5-.8-4.7-.1-7.4.6-6.5 1.7-10.9 3.7-16.6.5-7.3-4-13.6-7.4-22.2-9a174.6 174.6 0 00-19-2.2c-18.6-1.3-40 4-51.8 19.8-2.2 3-4.2 7.7-1.6 10.7 1.4 1.6 6 1.8 6.2 3.8.4 3.4-7.3 6-5.4 11.3.7 2 4.8 3.2 6 4 2.6 1.8 2.6-.2 3.2 4.7a23.3 23.3 0 000 2.7c1.3 6 6.6 9.4 11.8 11.7a79.4 79.4 0 0020.7 5c1.7.3 24.7 1.1 24.6 1 .9-6.8 6.5-8.5 12.5-7.8 1.5.2 9.1 3.3 10 2.8.6-.4 1-4 1.3-5.1 1.2-4 6.3-13.4 9.3-4.4 1.3 4.1-2 9.2-4 12.6l2.6 1.5c-.4.3-.3-1.6-.9.4-1.1 4.3 20.4.7 18.3-.3a21.8 21.8 0 014-2c-13.5-4.1-20.4-16.4-20.8-30-.2-6.2 2.5-11.6 3-17.2.3-3.5-1-5 2-8 .1-.2 3.8-3.9 4.2-2.3.5 1.7-7.7 4.7-5.6 9.3 1 2.2 3 2.6 5.1 2.7 4.3.1 9-3.7 13.8-3.6 6.3.2 21.6 5.6 25-2 .7-1.6-1.8-8.8.3-7.5 4.4 2.6.7 10.2-2.5 11.7a50.5 50.5 0 016.6 14.2c1.3 4.5.6 9.1 1.6 13.4 1 4 7.6 8.3 11 11.4-.8.1-1.1 1.1-.3 1.4 1.8.6 7.5-2.3 8.5-3.4 1.2-1.3 2.7-3.8-.3-2.3-.5-1 11.8.6 12.2.7a120.5 120.5 0 0027.6-.1.2.2 0 00-.1 0c19.1-2.6 57.5-18.4 51-43.8-1.3-4.7-6-8.8-6.5-13.6-.1-2.3 1-3 1.5-5 2.6-10.7-14.7-14.7-22.5-14.7"/><path class="cls-8" d="M145 242.4c-2.7 1-4.5.9-7.2.7-1.1 0-5.8-1.1-4 2 1.2 1.9 6 4 8 3.7 3.2-.6 6-7.6 3.2-6.4M182.7 279.8c.2 0-4 5.4-4.5 5.8a31.4 31.4 0 01-13.7 6.7c-9.7 2.2-21.8.9-28.1-7.8-1 1-1.8 2.2-3 3 5.4 4.2 4.5 10.4 0 15-4.6 5-11.6 6.2-17.8 7.1-1.2-3.2-.8 1.6-.5 2.7a47 47 0 0011.8 17.5 42 42 0 0037.2 12.2 46 46 0 0031-26c.7-1.5 8.3-26.2 6.9-26.2-7.7 0-14.4-1.8-19.3-10zM124 324.5c.1.2.5.6 0 0"/><path class="cls-2" d="M275 308c-4.5.1-4.7 3 0 2.5 4.3-.3 4.4-2.7 0-2.5"/><path class="cls-2" d="M278.6 307.1c-3.5.6-9.6 3.7-2.8 4 3.8.2 6.2-4.6 2.8-4"/><path class="cls-8" d="M264.6 260.6a16.6 16.6 0 00-12.9 7.1c-2.3 3.5-.2 7.8 1 4.8 2.8-6.3 14.3-6.9 19.5-4.2 2.9 1.5 4.4 3.3 3.4 6.5-1 3.3-6.4 3.8-7.1 6.3-1 3.2 3.5 2 5.4 1.3a12.6 12.6 0 007.6-8.6c2-9.5-9.3-13.8-16.9-13.2m4.5 19.8"/><path class="cls-8" d="M257 265.3c-5.2 1.5-7.5 10.8-7.7 15.1 0 1.5 3.2 20.4 5.2 19.2-.4.2-3.8-12.6-4-13.3-.9-7.5 1.4-12 5.2-18.3-.4.7 3.7-3.3 1.2-2.7M253.5 296.8"/><path class="cls-9" d="M105.2 123c-13 0-23.3 7.6-26.2 20.3a41 41 0 00-.6 13.2c.2 1.9.3 5 1.1 6.7 1.5 2.6.2 1.6 3 2.6 3.2 1.2 9.3.9 12.6 1.2-8.8-5.1-7.1-17.8-2-25.1 5.4-8 16-10.9 25-7.9a20.6 20.6 0 0113.5 25.3c-1.5 5.5-5.4 12.8-11.5 14.1a31.3 31.3 0 015.9 4c3.8-8 7.6-14.3 7.3-24-.4-15.7-11.5-30.5-28-30.5M211 131c-20.4 0-32.6 25.8-20.1 42a20 20 0 005.2 4.7c-10.5-10.2-8.1-32.9 6.1-37.7 15-5 31.7 7 29.1 23.2 5.9-2.5 4.8-11 3-16a24.5 24.5 0 00-23.2-16.3"/><path class="cls-1" d="M166.7 401.1l-.5-3.8.5 3.8M233.4 302.6l-.6 3.8.6-3.8zM78.6 158a21.4 21.4 0 00-.3-2.6l.3 2.7M243.4 228.4l-3.6.4 3.6-.4zM140 75.6l3.6-.5-3.7.5"/><path class="cls-10" d="M254 70c-6 0-12.1 3-17.2 5.9-4.5 2.4-10.7 8.5-15.3 8.3-4.6-.2-12.3-5.2-16.9-6.6a124.8 124.8 0 00-21.4-4.7c-26-3.2-56.5-1-78.6 14.1-2.7 1.8-5 4.6-7.7 6.3-3.3 2.1-2.1 1.8-6-.7A56 56 0 0074.7 85c-15.2-3.9-18 9.4-15 21.6 1.2 5.4 6 12.4 6.2 17.8.2 3.7-4.4 10.4-5.7 14.4a82.8 82.8 0 00-3 13.8l-.7 7.3c0 1.6.8 8.1 0 9.4-1.2 1.6-8 3.4-10 4.6a57 57 0 00-9 6.6c-3.5 3.2-7.5 7-8.5 11.9-1 5.5 2 8.4 6.8 9.6-4.5 4.8-7 10.4-1.4 14.8.6.5 5.6 1.9 5.7 2 1.2 1.2 0 4.9.4 6.7 2.2 10 15 13.8 23.6 15.7A55.5 55.5 0 0053.4 277c1.1 11.7 7 16.2 15.4 22.8 4 3 1.5 0 2.4 4.2.5 2.5 0 5.4 0 8a147.4 147.4 0 002 17.6 185.3 185.3 0 009.5 35.2A294.2 294.2 0 0098 398.4q4 7.9 8.5 15.5c.9 1.5 3.8 4.7 3.8 6.3 0 1.6-1.3 2-2.1 3.9-3.7 8.2 3.9 7 7.4 6.6 1.3-.1 10 1.5 9-.1 1.7 3.1 8.5 1.3 11 .3 7.2-2.8 0-9-.5-13.7-.6-4.8 3.3-14 4.4-18.7 2.1-9.9 4-20 2.5-30.1 7 2.6 15.3 3.6 22.6 2-.1 12.6-.8 25.5 1.8 37.9.8 3.7 2.7 7.3 2.2 10.7-.5 3.9-4.8 8.9.5 11.9 3.3 1.8 12.2-.4 15.6-.7 2.8-.3 6.2 1.3 9-.8 3.3-2.7 1.1-5.5 1.8-8.9 1.4-7.5 8.2-16 11.3-23 5.4-12 10.6-24.1 14.8-36.6 8.5-24.6 12.4-49.6 27.2-71.6 4.2 15.7 18.4 26.4 34.6 20.1 16.2-6.2 25.7-24.3 25.4-41a39.8 39.8 0 00-27.8-37.8c-15.5-5.1-36.2-3.7-47 10a39 39 0 00-2-10.2 77.7 77.7 0 0033.3-7.5c9-4.3 20-9.4 25.8-17.8 5-7.2 6.5-17.3 2.6-25.2-1.5-3.1-5-7-4.3-10.8.3-1.8 2.2-2.7 2.4-4.9 1-9-11.5-10.7-16.8-13.6-3-1.6-1.7-.8-3.2-3.7a31.2 31.2 0 01-1.5-4.4c-1.4-4.3-2.7-8.6-4.3-12.9-1-2.6-2.6-5.2-3.3-7.9-1.1-4-.7-2.5.3-6 1.6-5.9 3.4-11.3 3.8-17.5.7-9.5.5-28.2-12.8-28.2m-12.2 5c5.6 0 10.4-5.5 16.4-2.1 6.1 3.5 6.4 14 6.4 20.2 0 7.9-1.2 16.2-4.6 23.4-.6 1.2-3.8 4.8-3.6 6 .5 2.9 3.6-1.5 3.6-1.5 4.7 9.2 5.5 20.1 10.7 29-12.4-1.3-24 4.3-34.4 10.3 6.5-21.4-17.5-37.7-36.3-29.1-16.8 7.7-22.2 36-5.3 46.7-.8 0-3.4-.8-3.4.4 0 4.7 29.3-7.4 31.5-8.7 8.1-4.5 15.8-9.7 24.3-13.5 10.1-4.5 22-7 32.8-2.3 4 1.7 10.6 5.5 10 10.8-.2 1.8-2 3-2.3 4.8-.5 3.7 3.2 7.6 4.7 10.8 3 6.1 2.6 11.8.4 18.3-4 11.8-17 18-27.5 23a78.2 78.2 0 01-35 7.7c-2.5 0-26.4-2.8-26.7-1.8-.7 2.7 26 1.7 27.3 3 1.1 1 1.2 7.7 1.3 9.3 1.5 18.5-7.8 47.6-30.3 49-23.5 1.4-22.7-33.1-32.7-47.2-2.2-3.2-12.5-10.7-12-15.6.8-6.2 3.3 1.1 6 .6 3.5-.7-3.3-4.4-4.4-4.7.8-1 3.6-3.8 5.1-3.8 2.7 0 3.7 3 5.7 3.6 4.7 1.3-1.5-3.8-3.4-4.6 8-2.3 15 3.6 20.5 8.4 1.1 1 21.1 18.7 22 15.5 0 0-11-7.2-12.2-8.2-2.7-2.3-10.8-7.9-11.9-10.9-.8-2.2.3-7-.2-9.7a48.3 48.3 0 00-7.7-19 7 7 0 004-5.5c.2-1-1.3-8-2.6-6.5-1.2 1.3 1.4 4.8 1 6.6-.7 2.9-2.9 3.8-5.5 4.6-6.2 1.7-13.6-1.3-19.9-1.4a23.8 23.8 0 00-10 2.5c-2.7 1.1-6.5 2-8.4-.9-3.2-4.8 5.8-8 5.3-10-.5-1.6-4.2 2-4.3 2.2-3 3.1-1.8 4.6-2 8.1-.5 5.6-3.3 11-3 17.2.4 13.4 7.3 26.1 20.7 30-4.3 1.5-10 5.8-10.6 10.7a43.4 43.4 0 00-13.3-10.3c2.3-3.7 7.7-13 1.6-15.8-6-2.8-7 9-8.3 12.7-7.7-3-20.4-6.4-22.3 5-.2-.6-14.1.1-16 0a130.3 130.3 0 01-17.5-2.5c-8.1-1.7-21.6-5-23.6-14.7-.3-1.6.7-5.3 0-6.5-1.5-2.5-2.3-.4-4-1.3-4-2-6-3.6-4.9-8 .7-2.5 5.6-6.2 4.9-8.4-.3-.8-5.3-2-6-2.8-1.1-1.3-1.5-2.6-1.2-4.8 1.7-13 22.4-22 33.4-24.4 11.7-2.6 23.8-1.4 35.5.2a79 79 0 0115.4 3.5c1.5.5 13.4 7.5 13.1 7.8a1.6 1.6 0 00-1-1.9c6.5-1 8.7-21.6 8.5-25.5-.4-12-6.5-24-17.6-29.3-10.8-5.1-25.1-3-33.4 5.7-9 9.5-9 24.4-5.6 36.3a62 62 0 00-21.2 3 84.6 84.6 0 0111-44.2c1-1.7 9.8-14.2 8.3-14.3-3.2-.2-9 10.7-10.2 13C62 111.3 52.2 79.7 76.7 89a85.6 85.6 0 0112.7 6.4c1.4.8 3.6 2.9 5.2 3.1 2 .3 4-.5 1.4-2.1 20.6-22.5 58.9-25 87-21.2a128.2 128.2 0 0138.8 12c1 .5 6.7 4.6 8.1 4.3 4.6-.8-4.4-5.2-5.7-5.8A126.2 126.2 0 01241.8 75M84 132.3c10.3-12.8 31.3-12.1 41.6.1a35.2 35.2 0 017.4 27.2c-1 7-4.9 11.7-7 17.8a30 30 0 00-6-4c6.2-1.5 10.1-8.4 11.7-14.1A20.6 20.6 0 00118 134c-9-3-19.6 0-25 7.9-5 7-7 20.2 2 25.1a294 294 0 00-8.2-.8c-1.2-.2-5.8.1-6.7-.5-1-.8-1.5-6.8-1.6-7.6a35 35 0 015.4-25.8m102.5 29.5c-2.3-17.6 10.8-33.7 29.2-30.4a24.3 24.3 0 0118.2 14.4c2.4 6 3.2 14-2.6 17.4 3-16.3-14.5-28.2-29-23.2-14.2 4.8-16.9 27.6-6.1 37.7a18 18 0 01-5.4-4.8 24.8 24.8 0 01-4.3-11.1zm-68.9 10.4c-7-3-19.7-2.6-24.7-8.9-6.8-8.7.5-23 9.5-26.7 10.4-4.2 24 .6 27.1 12 1.4 5 .2 10.3-2.2 14.8a19.8 19.8 0 01-3.5 5c-1.5 1.5-5.4 2.4-6.2 3.8m81 5.4c-9-7.2-9.8-23.1-2.9-31.9 7.6-9.7 23.2-6.3 30 2.6 2.4 3 6.4 11.6 4.3 15.7-1.3 2.6-10.5 6.2-13.1 7.5a55.8 55.8 0 01-18.4 6.1m-59.3 18c4.5 0 8.2-3.4 12.8-3.2-1.4 10 13 12.2 12.6 1.5 2.8.4 8-1 10.3-.2 2.3.8 3.9 5 5 7.6a44.5 44.5 0 013.8 20c-6.8-5.5-15.1-8.7-22.9-3.5-10 6.8-2.8 13.7 3.1 20.2-9 7.7-23.5-3.8-27.7-11.7A38 38 0 01135 194a6 6 0 004 1.7m20.5 3.6c-1.6 0-4.6-.2-5.6-1.7a4.6 4.6 0 01-.5-3.3c.7-2.5.4-1.3 3-1.5 3.2-.4 7.8.3 6.3 4-.7 1.8-1.1 2.5-3.2 2.5M125 227.7c1.2-2.8 3.2-4 5.6-1.7 2.7 2.6.5 7.4-1 10.2-1.1 2-1.7 3.1-3.3 3.3-3.9.5-3.4-2.6-3.3-4.8a26 26 0 012-7zm136.2 1.4c19 0 37.8 7.7 44.2 26.8 6.8 21.3-6.5 55.2-32.9 53.8-19.2-1-34.5-36.2-13.6-46 7-3.4 24.1-.4 22.3 10.2-.7 3.8-6 8.8-10 8.2-2.3-.3-2.6-3-3.2-3.1-2.3-.5-2.1 2.5 0 4.2 3 2.4 8.4-.2 10.8-2.2 11.2-9.4-1.4-19.7-11.6-20.4a17.6 17.6 0 00-15.4 6.7c-5.2 6.7-2.3 12.2-3.6 19.5-1 6-7.9 14-10.5 20a142.4 142.4 0 00-7.8 21.9c2.7-14.6 5.6-29.3 5.8-44.2 0-7.5-1-14.6-2.2-22-.7-3.8-1.2-21 2.4-23a31.8 31.8 0 015.5-4.6 38.6 38.6 0 0119.8-5.8M99.7 245c-.4-19.2 27.3-4.9 34.8.9 3 2.3 14.6 13.2 9 18-1.4 1.4-3.4-.7-4.8-1.7-6.3-4.7-10.1-11-17.4-14.7-6.4-3.2-14.7-5.7-21.6-2.5m57.9-4.3c2 0 4.3-1.5 6-1.5 2 0 1 0 3 1.9 3 3 5 7.8 6.6 11.6 1.2 3.3 2.1 6.6 3.1 10 .9 3 1.7 6.2 2.9 9.3.3.8 2.8 5.4 2.7 6.3-.5 4.3-9.6 9.3-12.7 10.6-7.7 3.3-17.6 4.1-25.3.2-1.7-.9-6.5-3.5-6.7-5.8-.3-2 3.6-7.7 4.3-10.2.6-2.3.6-5.5 1.4-7.4.4-.8 2-1.7 2.4-3 .6-1.7.2-4-.2-5.6-1.4-5.2-3.8-4.5-1-9.2 3.3-5.7 7.5-7.2 13.5-7.2m-93.4 2c1.1-2 2-.7 4-.8 3.6 0 7.6 1.2 11.2 1.6 4 .4 16.6 2.9 19.4-.6-2.2 10.3-10.2 20.5-7.9 31.6-.8-.6-6.8-7.1-7.4-6.8-2.3 1.5 9.2 9.7 10.1 10.2 5.2 2.7 11.1 3.8 16.8 4.7 6.7 1.1 26.2 1.7 25.9 11.9-.5-1-7.2-2.4-7.2-1.3 0 .4 4.8 1 4.6 1 0 0 2.2 1 2.5.8-.5 3.5-1.3 3.6-4 4.2-1.1.2-5.2-1.2-5.2.3 0 1.2 5.8 1 6.9 1-6.5 8.5-20 8.7-29.7 8.6a70 70 0 01-31.8-9.2c-11.6-6-18.1-14-17.8-27.6a56.5 56.5 0 019.6-29.5m31.2 13c2.4-5.6 3-9.8 9.6-10.8a27 27 0 0113.7 2.6 41.4 41.4 0 0113.4 9.3c2.2 2.2 8.7 6.2 9.7 8.6 1.6 3.7-5 20.3-9.4 21.4-1.1.2-6.4-2.8-7.8-3.2a96 96 0 00-11.5-2.1 96.4 96.4 0 01-13.8-3c-4.9-1.7-7.6-2.6-7.6-8 0-5 1.8-10.2 3.7-14.8m105.3 34.7c15.4 0 26.9-15.2 31-28.6 1.5 7.9 3.3 14.4 3.1 22.9-.2 12.1-2.2 23.5-4.3 35.4a283.3 283.3 0 01-18.5 62.2c-3.7 8.6-7.6 17.2-12 25.5-1.8 3.7-5.1 8.4-5.7 12.5-.4 3 1 5-1.6 7.3-3 2.7-13.2 1.7-17 1.6-8.3-.2-8.3-1.8-6.3-10.2 1.4-5.5-1.9-12.3-2.7-18.2a192.5 192.5 0 01-1.1-25c0-1.1-.4-3.8 0-5 .1-.4 2.7-1.6 2.4-2.1-.5-1-14.4 1-17.1.5-1.8-.2-5.4-.4-7-1.5-.4-.2-3.5-3.5-3.1-3.5-1 0 .1 11.6.1 12 0 9-2 17.9-4 26.7-1 5.1-3.6 12.6-2.4 17.2 1.4 5.4 5.7 9.5-1.5 10.5l-5 .4c-.8-.1-4.3-2.4-3.3-.7a75 75 0 00-9.6-1.5c-1.6.2-2.8 2-4.5 1.2-3.1-1.5-.6-5.4-.2-7.4.7-3.5 2.3-.4-.5-5.4-8.8-16-18.1-32.2-24.8-49a195.6 195.6 0 01-10.3-34c-2.2-11.1-1.6-22-2.8-33 12.2 5.6 24.1 9 37.7 8.6 7.2-.2 15.7-1 21.6-5.6 5.5-4.2 8.7-12.1 2.1-16.8a10.7 10.7 0 003-3c9.8 13.5 39.5 11.2 46.3-4.8a21 21 0 0018 10.8"/><path class="cls-10" d="M159.2 167.7c-2.9 0-7-.5-9.7 1.2-5.3 3.5-1.7 9.4 3.4 10.8 3.9 1.1 11 .4 13.3-3.4 2.9-4.9-2.5-8.6-7-8.6m-3.2 10.8c-3.4 0-9.2-2-7.7-6.5 1.3-3.8 7.5-3.1 10.4-2.7 10.5 1.8 6 9.2-2.7 9.2M96.4 110c-4.3 0-8.8 3.4-11.7 6.3-2.8 2.9-4.4 5.6-.4 4 3-1.2 5.8-5.5 9.1-7-.3.2 7.6-3.3 3-3.3M226 110.6c-1.3 1.3-1.7 1.1 0 2.5 1.2.8 4.8.6 6.4 1.2 2.3.9 4.8 4 6.9 4.6 3.3.8 3.8.3.4-3.2s-8.9-5-13.6-5"/><path class="cls-7" d="M238.3 168c-8.1 1.1-20.2 5.6-25.2 12.5-7.3 9.8 2 15.7 11.5 13.8 8.6-1.6 21.7-5.4 25.5-14.4 3.7-8.6-4.3-12.9-11.8-11.9M76.3 177.4c-5.5.7-15.2 3.6-15.2 10.6 0 9.4 14.7 11.4 21.5 11.8 6.7.3 17-2 16.2-10.8-.9-9.3-15-12.6-22.5-11.6m5.1 1.8c1.7.2.3 0 0 0"/><path class="cls-9" d="M93.7 132.7c-15.8 1.4-8.8 28.6 7 22.5 14.4-5.5 6.6-23.6-7-22.5m1.5 6c16.8 2.7 2 19.2-5.8 10.9-4.6-5 1.2-11.4 5.8-11M213.6 137.7c-12.3 8.4 8.2 29.5 16.9 14.5 5-8.8-9.2-19.8-16.9-14.5m1.8 1.7c.8 2 7.2 2.7 9 4.7 2.7 2.9 3.3 5.3 0 8-7.5 5.8-16-8.7-9-12.7M193.4 153c-4.3 2.4 2.4 7.7 5.2 7.7 2.7 0 7.3-3.7 4.8-6.5-2.4-2.6-3.1 1.2-5.2.9-1.9-.4-2-3.8-4.8-2.2M117.3 148.5c-3.8 3.8 5.6 9.7 6.8 4.4.2-.8-6.4-4.8-6.8-4.4M108 163c0 4 3.5 0 3.4 0 0 0-3.4-3.8-3.4 0M199.6 170.2c0 2.8 4.3 2.8 4.3 0s-4.3-2.8-4.3 0M137.7 198.8c-2 1.5-3.5 11 1.2 8.8 2.5-1 3.4-11.5-1.2-8.8M138.6 218.3c-5 5 10.6 18.4 11 14.3.2-2.3-5.7-5.7-7-7.5-.3-.5-2.4-8.4-4-6.8M123.8 256.1c-1 1.8 5 10.7 7.2 10 7-2-4.3-15-7.2-10M129 271.7c-2 2 .4 7.4 3.2 5 2.5-2 0-8-3.1-5M152.7 252.2c-2 3.7-2.8 16 2.4 8.3.8-1.1 2.2-5.4 2-6.8-.4-1.7-2.8-4.4-4.4-1.5M146.6 276.4c0 4 6.2 4 6.2 0 0-3.9-6.2-4-6.2 0M241 166c0 3.6 5.6 3.6 5.6 0s-5.5-3.5-5.5 0M238.5 174.6a1.8 1.8 0 003.6 0 1.8 1.8 0 00-3.6 0M228.8 176l.8.7c2.4 0-.8-3.1-.8-.8M73 175.7c0 3 4.7 3 4.7 0s-4.7-3-4.7 0M74.9 182.7c0 2.8 4.4 2.8 4.4 0s-4.4-2.9-4.4 0M85.3 183.8a2 2 0 003.8 0 2 2 0 00-3.8 0M73.8 312.2a111.5 111.5 0 003.1 29.3c.5 2 5.8 19.4 8 15.7 1-1.6-2-9-2.4-10.7l-4-13.6a79 79 0 01-2.5-14.1c0-.2.2-7-.5-7.3-.6-.3-1.6-.5-1.7.7M86.3 363.4c-2.7.7 18.3 45.9 22.8 49.8 3 2.5 1.3-.3.2-2.6-1.6-3.4-3.8-6.6-5.5-10-4-7.4-8-15.5-11-23l-.2-.2c-.8-1.7-4.6-14.5-6.3-14m6.4 14c0 .2 0 0 0 0M63.6 246.7c-5.8 10.7-9.8 23-6.4 35 3.8 13.6 13.6 14.6 23.6 20.6-11.4-6.8-18-13.9-19.4-27.9a58.4 58.4 0 01.8-16.3c.4-1.8 3.9-8.9 3.5-10.2-.1-.3-.9-3.5-2.1-1.2M267.9 232.7c-1.1 0 3.2.7 3.4.8 12.5 2 22.7 13.7 26.5 25.6a41.8 41.8 0 010 24c-.7 2.5-8.9 18-9 18 2.3 2.2 12.6-16.6 13.4-18.6a35.1 35.1 0 001.3-24.2 34.8 34.8 0 00-35.6-25.6m28.3 22.2l.1.2v-.2"/></svg>