<svg id="Layer_3" data-name="Layer 3" xmlns="http://www.w3.org/2000/svg" viewBox="0 0 323 439"><defs><style>.cls-1{fill:#2c2c2c}.cls-2{fill:#ca896e}.cls-3{fill:#fff}.cls-4{fill:#ffbc91}.cls-5{fill:#b3835a}.cls-7{fill:#ffb9b7}.cls-8{fill:#fad8bd}.cls-9{fill:#835947}.cls-10{fill:#815847}</style></defs><path class="cls-1" d="M209.8 316.6c-.2 0-5.3 51.1-6.2 56a231.8 231.8 0 01-7.7 30.8c-.6 1.8-7.3 15.9-6.2 17.2 1.6 1.9 8-17.6 8.6-19.6a241.5 241.5 0 007.7-33.5c1.5-9.7 2.5-19.7 3.3-29.4.3-4.8 3.5-18 .5-21.5zM93.5 313.6c.1 0-1.3 29.8-1.1 32.8a193.6 193.6 0 007.6 40.7 196.4 196.4 0 006.5 18.6c1.6 4 6.1 10 6.5 14 .3 2.6-1.7 2.4-2.4 5.5-.5 2 .4 6.3 2.8 4-1.8-1-1.8-2.2-1.5-4 .5-2.7 2.8-3 2.6-5.2-.1-1.9-1.9-4.1-2.7-6-3.2-7.1-6-14.4-8.6-21.8a193.3 193.3 0 01-9.8-49.2c-.5-8.7 1-17.6.7-26.2 0 .6 1-4.6-.6-3.2M139.6 372.1c-.3.1.2 24.4 0 27-.6 5.7-4.1 14.5-1.6 19.6a181 181 0 002.5-41.5c6 4.3 14.8 4.3 21.5 2.1a241 241 0 00-1 22.5c0 1.8 2.5 21 3.2 20.4 1.5-1.3-2-18-2-20.8-.1-5.1.1-10.2.4-15.3l.5-7.2c0-.4 2.3-.2 1.7-1.2-.3-.7-9.4 1.6-9.7 1.6-3.9.2-8.8 0-12.1-2.3-.3-.2-5.3-4.4-3.4-4.9"/><path class="cls-1" d="M190.6 417.8c-1.7 3.2 2.6 8.6-.3 10.6-.8.5-2.8-.2-3.7 0-2 .3-3.6 1.7-5.5 2-2.5.2-6.8-.6-9.6-.9-1.2 0-7.7-.2-8.6-1.3-1.3-1.5 1.4-4.2 1.3-6-.1-5.9-3.5 4-3.2 5.3.7 3.4 9.3 3.7 12.4 3.8a54 54 0 008.9-.2c.9-.1 1.5-1.2 2.4-1.4 1.6-.4 4 .5 5.6-.1 4-1.8.9-12 .3-11.8M112.5 428.5c-.6-.5 2.2 4.1 2.9 1.7.2-.8-2.6-1.7-2.9-1.7"/><path class="cls-1" d="M138.8 412c-1.6 4.5-1.5 5.7.5 9.6 1 1.7 3.4 4.9 2 7-.9 1.2-6.7 1.4-8.3 1.5-3.9.4-6 0-9.4-.7h-3.4c-.6 0-6.2-1-6.2.7 0-.8 11.5 1.9 12.7 1.9a48 48 0 0013-1.9c7.4-2.8-2.8-12.9-1-18m-5.7 18.1h-.1m-5.8.5h-.1zM66.4 249.4c-4.6.3-10.3 4.4-11.3 8.9-1.6 6.7 3.8 9.1 8.9 11.2 10.4 4.1 15.3 14 16.9 24.7 1 7.8 7.5 26.2 19.3 19.7a15.7 15.7 0 008.1-10.6c.1-.6 1-4.4 0-4.4-.5 0-1.7 6.2-2 7a16 16 0 01-7.7 7.3c-6.6 2.6-11-4-13.4-9.5 0 .1 0 0 0 0-5.6-13.3-3.7-29.6-20.2-35.8-5-1.8-10.9-4.7-8-11 1.2-2.4 3.8-4 6-5.1.7-.3 5.3-2.7 3.4-2.4"/><path class="cls-1" d="M80.3 256.5c1.4 2.4 5.3 3.3 7.6 5.3a48.2 48.2 0 018.6 9.7 64 64 0 017.8 15c1 2.6 3 6.2 3 9.1 0 .3.6 6.4 1.4 5.3 0-9.6-4-17.2-8.5-25.5a48.3 48.3 0 00-10.1-13c-1.3-1.2-8.5-7.2-9.8-5.9m24 30M58.4 253.4c-2.8 1.7 7.7 8.3 7.2 4.8.1.6-6.5-5.1-7.2-4.8M55.4 257.9c-3.2 1.9 5.8 7 6.8 6.7 3.4-.6-3.8-3.7-4.3-4-.5-.4-1.1-3.5-2.5-2.7"/><path class="cls-1" d="M65.4 249.9c-.4 0-3.9.8-3.3 1.7-.4-.6 9 .7 9.3.8 1.2.4 9.6 5.6 10 5 .1-.4-2.5-1.7-2.6-1.8-3.6-2.5-8.7-6.4-13.4-5.7M44 229.3c-3.3 10.2 1.3 23.5 6.4 32.4A33.2 33.2 0 0060.7 273c1.3.9 14.6 5.9 13.8 3 0 0-7-1.2-6.6-1a27 27 0 01-11-7 35 35 0 01-7.6-11.6c-2-5-4-9.9-4.9-15.1a32 32 0 01-.2-7.3c0 .2.5-7-.2-4.6"/><path class="cls-1" d="M64.2 218.3a28.6 28.6 0 00-3 .4c-7 .8-14.5 3.2-17.3 10.3 0 0-.8 2 0 2.1-.7-.1 7.2-8.3 8-8.7 2.7-1.3 5.7-1.8 8.5-2.4 4.2-.8 10.7-.7 14.7 1.8 3.2 2 2.5 2 2 4.8-.2 1-1.2 1.8-1.3 3-.1 1 1 1.4 1 2.2 0 4.4.3 7.9 5.8 6.7 1.2 3.8.5 5.5 5.5 4.4 1.5-.3 3.6-2 4.5-1.2 2.7 2.5-2 11.8-3.4 14.6 2.7-2.7 5-7.8 4.4-12.5-1-8-5.5 1.7-9.3-2-1.3-1 .4-3.4-1.3-4.7-1.7-1.3-3.4 2-5.3-1.5a49.8 49.8 0 01-.7-6.2c.3-2 2.6-3 2.3-5.3-.7-5.2-11.4-5.6-15.1-5.8zM88.7 257.1a23 23 0 00-1.9 2.5c-.1.6.5 1.8 1 .7a15.9 15.9 0 001-3.2M128.5 214.6a23.4 23.4 0 012.4 6.3 30.3 30.3 0 011.3 5.8 19.6 19.6 0 01-1.2 8c-.7 2-3.8 5-4.1 7-.7 4.5 3-1 4.2-3.1a21.5 21.5 0 001.5-16.6c-.6-2.3-1.2-8-4-7.4zM134.7 217.7c-3.2.4-.7 7.2 1 8.3 3.7 2.2 9.5-.6 13.2-1.3 5-1 8.7-.4 13.6.9 2.1.5 4.8 1.2 6.8 1.5a20 20 0 008.7-.2c1.4-.4 9.6-7.4 6.2-7.5.6 0-3.8 4.8-4.6 5.2a12.8 12.8 0 01-7 1.3c-7.1-.4-13.8-4.4-21-3.6-3.8.5-7.6 3-11.4 3.2-1.7 0-4.4-.1-5.4-1.7-.8-1.2.2-6.2 0-6.1"/><path class="cls-1" d="M151.4 222.4c-1.4.1-.7 6.5-.7 6.6.8 2.1 1.6 2.8 3.9 3.5 4.3 1.3 10.3-1 8-6.9-1-2.9-1 1.1-1.2 1.5-1.4 3.6.2 3.7-3.7 4.3-2.5.3-4.6-.5-5.6-2.5-.3-.6.4-7-.7-6.5M192.4 215.7c-11 7.8-12.4 28.4 3 32.7 6 1.6-2.5-3-4-4a15.8 15.8 0 01-6-15.5 23 23 0 018.4-13 1.2 1.2 0 00-1.4-.2M95.2 205.4c.7-.4 16.4 3.5 19.5 3.8 4.4.5 17.4 2.4 20.9-1 2.8-2.7-7.1-.4-8.5-.3-7 .6-16-.4-21.8-1.2-2.2-.3-8.4-2.3-10-1.3"/><path class="cls-1" d="M107.4 169.1A22.5 22.5 0 0091 186.4c-.9 4.5-1 10 1 14.3 0-.2 5 7.3 6 5-5.1-1-6.5-9.7-6.5-13.9a22 22 0 0115-21.4c16.6-5.3 33.3 9.4 32.2 26.3-.3 3.3-3.8 8.6-3.3 11.5.2 1 1.8-1.5 1.8-1.4 1.9-2.3 2.5-7 2.7-10 1.2-17.3-15.6-32.3-32.6-27.7"/><path class="cls-1" d="M120.7 174.4c-13.7 0-28.6 19.1-17.6 31.2.8.8 6.8 5.5 6.8 2.2 0-.5-3.9-2.1-4.1-2.3a12.3 12.3 0 01-4.3-6.5c-4-14 14.6-29.3 27.2-20.8 5.6 3.7 7.6 11 6.7 17.4-.3 2-5.9 12.7-5.7 12.9 3 3 7.4-16 7.3-17.5-.7-8.8-6.8-16.9-16.3-16.6zM207.1 171c-13 3.4-26.7 19.6-20.2 33.5 2.7 5.7 11.9 5.9 18.4 6.3 11.4.7 27.2 1.3 28.2-14 1-14.6-11-29.6-26.4-25.7m-20.4 23.6c2.2-15.6 23.2-31.3 37.2-19 11 9.5 13.1 31.8-4.5 34.2.1 0 0 0 0 0-6.8 1-14.5.2-21.3-.7.1 0 0 0 0 0-8.6-1.2-12.5-4.6-11.4-14.5z"/><path class="cls-1" d="M207.3 175.3c-10 2-18.3 12.1-18.5 22.2 0 2.7 5.8 15.3 5.5 11-.1-2.3-3.6-5.5-4-8.4a20.7 20.7 0 014.5-15c4.8-6.4 14-11.3 22-7.3 9.9 4.9 11.6 19.5 6.5 28.3.8-1.4-4.6 5.8-1.8 4.5 5.8-2.8 6.5-14.5 5.6-19.6-1.7-9.7-9.5-17.8-19.8-15.7M154.5 203.3c-3.6 0-8.7 2.6-6.3 5.8-.4-7.5 20.9-5.5 21.3 0a2 2 0 011.2-.6c-1.2-5.2-11.9-5-16.2-5.2zM148 211.2c-1.7 1.4 9 3.7 9 3.7 3.5.2 13.2.3 12.1-4-3 4.7-18 4-20.6-.8l-.5 1M91.3 157c-13.7 16-29.5 32.4-33.7 53.8 2.2-2.7 2.5-5.6 3.8-9.2a87.9 87.9 0 0111.7-21.3 437 437 0 0118.2-23.2M57.5 219.2c-1 3.2.8-.1 0 0"/><path class="cls-1" d="M86.2 121c-10.4.8-8.7 16-7.6 22.8 1 5.5 2.3 13.4 5.1 18.4 0 0 1.4 3.7 1.8 3 .7-1.7-.6-3.4-1.3-5.3a100 100 0 01-4.3-16.5c-1.1-6.7-2.7-20 7-20.9 7.1-.6 16.3 6.4 21.5 10.6.8.6 7.3 8.3 9 7.2 1.2-.8-5.5-6.6-5.2-6.3-6.4-5.7-17-13.6-26-13"/><path class="cls-1" d="M147.7 122.9c-7.4.7-14.8 2.3-21.6 5.6-1.3.7-13.6 8.1-11.8 10-1.2-1.3 16.8-10.9 18.8-11.5a89 89 0 0127-3.5c19 0 38.3 3.4 55.7 11 4 1.8 12.5 9 16.4 8.4 1.5-.2-6-5.2-7.2-6a102.3 102.3 0 00-13.2-5.8 144.3 144.3 0 00-64.1-8.2"/><path class="cls-1" d="M255.5 122.7a47 47 0 00-18.2 5.1c-3.5 1.6-12.1 4.6-14 8-1.3 2.4 1.4.5 2 .3 4.8-1.6 9.3-5.5 14.1-7.5 7-3 20.3-8.1 24.7 1.2 4 8.2-1 21-3.9 28.9a199 199 0 01-6.4 15.3c-.6 1.3-2.2 3.4-2.2 4.8 0 4.8 3.8-3.2 4.2-4 4.9-10.2 24.1-52.5-.3-52.1"/><path class="cls-1" d="M256 171c-.5.2 5 29.3 5.2 31.9 1.4 16-3 32.4-16.7 43a87 87 0 01-19 11.1 61.3 61.3 0 01-27.7 4.6c19.9 6.1 50.5-11 60-28.2 6-11.1 5.3-24.6 4.1-36.8-.3-3-3.8-26.1-5.8-25.6"/><path class="cls-1" d="M218.9 259.9c-1 .6 6 21.8 6.2 25 1 12.6-3.6 22.8-14 30.2-9.7 7-24.8 14.6-37.1 11.2-5-1.4-10.5-5-8.4-10.9 2-5.4 9.5-8.3 14.3-10.3 6.1-2.6 17-5.5 20.3-12.1 1.5-3 1.5-2.6-.5-1.6-3.2 1.6-6 5.8-9.4 7.6-8 4.4-40 15.6-21.3 27 7 4.3 15.7 2.3 21.2.7a68.5 68.5 0 0024.7-12.3c9.9-8.1 13-19 12-31.4-.3-1.8-4.7-25-8-23.1"/><path class="cls-1" d="M152.2 278.5a35.9 35.9 0 00-.4 27.2c.7 1.8 10.4 17 12.6 13.3.4-.6-7.3-6.4-7.9-7.2v.1a33.8 33.8 0 01-5.2-27.2c.1-.9 1.5-7.5.9-6.2m.6 1.3M190.7 273.2c1.6-1 6.2 24 5.5 23.7 4.6-3.2-4.1-24.5-5.5-23.7"/><path class="cls-1" d="M176 265.5a81 81 0 00-15 2.7c-4.7 1.3-11 4.2-12.4 9.1-.4 1.2 0 9.1 2 8 .3-.2-1-7.9.3-9.9 3.5-5.2 12.6-6.7 18.3-7.7 6.5-1 16.2-2 22 2.2 1.2 1 2.8 1.7 3 3.4.2 1.4-1.5 2.9-1.4 3.8.1.8-.8 1.1.8 1 5.3-.1-.5-8.9-2.6-10a29 29 0 00-15-2.6"/><path class="cls-1" d="M170 272.3c-5.5.6-11.4 2-15.6 5.7-1 .8-5.3 5.7-3.7 6.2a56 56 0 014.4-5.6 19.7 19.7 0 015.9-3 46.2 46.2 0 0117-2c3.9.2 10.4 3.1 13.7 2.4 1.9-.4 2.5.5.6-1.4-4-4-17.2-2.8-22.4-2.3M174.8 251.7c-4 .4-5.9 11.7-5.5 14.8.3 2 .4 1.4 1.2-.1.8-1.7 1-13.1 4.4-13 3.1 0 .5 5.2.2 5.9a4.5 4.5 0 012 0h-.1c1-2 2.2-8-2.2-7.6"/><path class="cls-1" d="M174.2 261.2c0 .2-3 5.6-1.6 6 .7.2 3-4.8 3-5-.2 0-1.6-.6-1.4-1M238.1 254.7a33 33 0 00-12 6.3c-1 .7-6 6.8-4 7.4a65 65 0 015.2-7.2c0 .1 0 0 0 0a34.3 34.3 0 017.5-4.2 36 36 0 019-2.5h-.1c14.2-2 26 9 31.3 21.5a56.9 56.9 0 013.9 29.3 50.8 50.8 0 01-3.1 11.8 35.5 35.5 0 01-4.5 7.8.5.5 0 000-.1q0 .1 0 0a27.7 27.7 0 01-17.8 10.3c-8.6 1.3-18.4-.9-23.1-9-4.9-8.2-4.3-24 4-30.2 3.8-2.9 10.8-3.3 14.7 0 4.2 3.5 3.6 12.9-2.2 14.8-3 1-3.6-1.2-6-2 .3 0-1.7-3.4-1.7-.6 0 1.3 1.3 2.6 2.3 3.3 7.7 5.8 14.2-7.4 11.1-13.7-6.5-13-22.6-2.7-25.4 7-3.3 11-.7 25 10.6 30 12.3 5.6 27.7.6 35.3-10 17.4-24.4 2.5-81.8-35-70"/><path class="cls-1" d="M226.9 307.8c-2.1 3.3-23 34.3-18.9 36.8.3.1 7.3-15.4 7.7-16.3 2.4-4.5 5-8.8 7.7-13 .7-1.1 4.7-5.6 4.5-7-.1-.3-.4-1.4-1-.5M63.3 211.4a21.3 21.3 0 00-3 1.8c4.1-.8 9-1 13 .5 3.7 1.4 5.6 3 5.7 7 0 .7-1.5 3.3-.7 3.8 2 1.1 1.8-6.8 2-6.3-1.7-6.7-11.5-7.3-17-6.8M54 213.9a17 17 0 00-7.2 6c-.5.8-3.7 7.8-1.5 7.8 1 0 1.4-4.7 1.6-5.2 2-4.7 6.8-7.5 11.5-8.8-2-.7-1.7-1.1-4.4.2M58.3 208.5a2.5 2.5 0 00-.5 2.1c.6-.4 1.6-2.7.5-2"/><path class="cls-1" d="M58.3 209.6q-.6 1.7 1-.1a.6.6 0 00-1 .1M58.8 209.4c-1.7 1 1.4-.8 0 0"/><path class="cls-1" d="M58.4 209l-.3 1.4c2.5-2 .2-.9.3-1.3M57.7 213.3c.4.3-.7-.4 0 0M102.5 157.6c-2.8.4-17 8.1-10 8.2.7 0 2.4-1.8 3-2.2 3-2 7.1-3.8 10.4-3.4.6.1 1.5.3 1.8-.5 1.5-2.9-3.6-2.4-5.2-2.1M222.9 165.4c0-.3 13.5 7 13.6 7 4.2-1.4-13.6-13.2-13.6-7"/><path class="cls-2" d="M85.8 122.6c-14.4 2.1-3 34-.2 41 1.1-1.2 5.7-7 6.2-6.5.4.4-15.6 19.2-15.5 19a83.4 83.4 0 00-17 33.2c11.1-5.2 21-4.6 32.8-1 13.3 4 25.3 3.6 39 2.4 3.8-.3 10 .5 13.6-1.1 3.4-1.6 3.5-5 7.7-6.1 3-.8 13.8.3 16.7 2.2 1 .6 1 2.2 1.8 2.8 1.6 1.2 5 1.8 6.8 2.2 6 1.3 12.4.8 18.6 1.5 13.6 1.6 26 3.1 39.4-.7 6.4-1.8 12.2-4.7 18.4-7 5.5-2 6.9-.6 6.3-6.8a157.7 157.7 0 00-4.3-23.7c-1 2-4.7 10-4.1 4 .2-2.4 3.1-6.8 4-8.8a146.3 146.3 0 006.6-17.7c2.5-8.8 6.8-26.4-7.2-27-10.4-.3-22.9 6.3-31 12.2 3.3 1.7 12 8.6 4.3 4.7-10.1-5.2-19.6-10.1-30.7-13-17-4.6-36.2-6.3-53-4a64.4 64.4 0 00-16.5 4.2c-3.3 1.4-11.5 5.1-12.7 8.9-.2.7 4 3.5.2 2.6-2.4-.6-5.7-5.6-7.6-7-5.6-4.5-15-11.4-22.6-10.5m3.7 32.3c-5.4-1.1-7.7-12.8-7-17 1.7-9.3 9.9-6.8 15.8-3 8 5 7.2 8.6 0 13.7-.3.1-8 6.5-8.8 6.3m160 3.3a48.8 48.8 0 01-12.5-15.7c-.5-5.1 10-9.1 14.1-8.8 12.7 1 2.9 25.6-1.6 24.5m-159 7.8c-2.7-2.7 10.1-8.2 12-8.4 3-.5 7.6.3 3.8 2.7-1 .6-4.5.3-5.8.7-2.7 1-4.9 3.2-7.2 4.2-.7.3-1.7 1.9-2.8.8m145.5 6.4c-3-.8-5.4-4.3-8.7-5.3-.7-.2-6.8-.8-3.7-2.7 2.7-1.7 9.1 2 11 3.8.7.5 4.3 5 1.4 4.2m-140 33c-6.8-3.8-6.2-15.6-4-21.8a22.3 22.3 0 0114.3-14.1c15.3-5 31.3 6.4 33.5 21.9.6 4.2.6 13.2-3.1 16.3-2.1 1.8-7.3 1.8-9.8 2-2.7.1-32.3-2.3-31.8-4 .1-.6.7-.2 1-.3m97.6 4.3c-1.8-1.9-5.3-1.6-7-4a39.5 39.5 0 01-1-5.3c-1.2-7.3 2-14.9 6.8-20.2 8.8-9.8 25-14.3 34.4-2.9 8.5 10.5 10.5 29.7-5.6 33.4-3.6.8-24.6 2-27.6-1M89 259a11.8 11.8 0 01-1.1 1.3c10.2 8.5 21 25 20.8 38.9 0 3.4-.7 7-2.7 9.8a19.8 19.8 0 01-5.7 4.8c-4.3 2.5-5 0-6.4 4.4-1.9 6.3-.9 15.1-.6 21.6a176.9 176.9 0 002.4 22.7 205.3 205.3 0 0011.1 39.5c1.8 4.6 7.6 13 7.8 18.2 0 1.5-.5 1-1.6 3.3-1 2.1-2.3 3.2-.4 5 2.1 2 4 0 6.2.2a33.2 33.2 0 013.5 1.2 36.6 36.6 0 0010.4.3c2.1-.3 7.9-.6 8.7-2 1.5-3-2.4-6.1-3.4-8.5-1.6-4 0-8.2.6-12.6.5-3.4 1.3-35 1-35-1.6.5 1.8 3.8 2.5 4.4 3.2 2.8 9 3 13 2.8 1 0 9.3-2.4 9.7-1.6.4.6-1.5 1.6-1.8 2.6-.7 2.6-.4 5.9-.5 8.6a136 136 0 00.1 21.3c.4 3.9 2.2 8.7 1.6 12.1-.2 1.3-1.6 3.1-1.5 4.2.4 3.4 9 3 12.2 3.2a31.7 31.7 0 008.1-.4c1.2-.2 7.2-.4 8.1-1.6 1.4-1.7-.6-3.6-.9-5.2-1-5.7 3-11 4.9-16.5a311.6 311.6 0 0013.9-87.3 83.2 83.2 0 01-11.2 5.9c-4.1 1.7-6 1.3-7.6 4.7-1.8 4-2 8.9-3.9 13a37 37 0 01-8 11.4c-15.3 14.3-39.7 10-50.7-7s-11.6-44.1-3.6-62.4a27.9 27.9 0 0118.5-16.4c3.7-1.1 23.8-5.9 26.7-1.9l.5-3.1c-6.9 3.8-14.7 2-22 1.2-6.8-.8-13.1-.3-19.9.6-6.8.8-13.7 1.8-20.5 1.2-2.2-.1-19.6-4.9-18.3-6.8"/><path class="cls-2" d="M207.5 262.7c-7.5.4-14.7-1-22.3-.5-4.6.3-9.7-1.6-11.4 3.5 5.8-.6 16.6-.6 20.6 4.8 2.4 3.3-.2 5.8 0 8.6 0 5.1 3 9.7 2.6 15.3 6.6-6.1 4.5-2-.2 2-4 3.3-9.2 5.4-14 7.5-5.2 2.1-12.5 4.5-16 9.5-5.5 8 4.4 13 11.4 13.5 15.5 1.1 37.6-10.3 44.4-24.7a38.8 38.8 0 001.7-23.3c-1-6.2-5-12.1-5.8-18.2a49.7 49.7 0 01-11 2M65.7 251c-2.2 0-5.6 2.1-5.7 3.5 0 2.7 7.2 2.3 5.3 4.4-1.7 2-6.2-3-6.9-4-2.3 2.2-2 4.2.2 6.3.8.8 5.1 1.3 4.6 2.8-.7 2.2-6-1.5-6.6-2.2 0 4.7 7.6 5.5 10.8 7 6.6 3 11 9.5 13.2 16.3 3 8.8 2 17.8 8.5 25 6.3 7 15.6 2 18-6.5 1.5-5.8-.5-11.8-2.8-17-1.8-7.4-9-17.1-14.5-22.8-4.8-5-16.7-12.9-24.1-12.9"/><path class="cls-2" d="M247.3 254.3a27.9 27.9 0 00-3.6.2 35.5 35.5 0 00-9 2.6 37 37 0 00-7.4 4.2.4.4 0 000-.1c-6.2 4.8-2.8 8.4-1.5 15 1.3 6.5 2 13.8.6 20.3a32.7 32.7 0 01-12.5 18.7c-4.3 3.4-3.6 6-3.9 11.3l-.8 12.8a104.1 104.1 0 018.2-16.7c2.7-4.5 7-9 8.9-13.9 2.2-5.4 2.4-11 8-14.6a14.5 14.5 0 0114.6-.3c6.8 4.2 6 19-3.7 19a6.8 6.8 0 01-5.6-3.3c-2.9-4.7 2.8.6 3.1.8 8.5 4.4 13-12.3 3.4-16-11.4-4.2-17.6 7.3-18.5 16.8-2.4 25.8 29.5 32 43.7 13.7a41.4 41.4 0 004.5-7.7c5-12.5 4.7-28.1-.8-41.2-4.1-9.7-13-19.8-24.5-21.4l-3.2-.2"/><path class="cls-3" d="M113.9 169.3a22.4 22.4 0 00-21.8 27.5c1.6 7.4 5.4 8.9 11.9 9.7-12-12 2-32.2 16.7-32.1 17 .1 20.5 22 11 33 8.4-1.3 8.2-11.6 6.3-18.9a25.7 25.7 0 00-24.1-19.2M212.6 171.4c-11.4 0-22.3 9.4-25.2 20.2-1.6 5.8-1.6 14 4.7 16.2-9.7-13.1 4-33.7 19.5-32.8 16.4 1 19.8 23.5 11 34.3a14.5 14.5 0 005-2.5c12.2-9.4 1-33.5-12.6-35.3q1.4.3-2.4-.1"/><path class="cls-4" d="M175.2 273.6c-6.8 0-17.2.8-22 6.7-6.4 8-2.4 24.1 3.3 31.6a.7.7 0 000-.1 23.3 23.3 0 007 6.1c1-14 22.4-13.4 30.4-21.1 4-3.8 1.9-14-1-18.5-3.2-5-12-4.7-17.7-4.7M62.7 219.6c-12 2-20 6.7-18.3 20.9a57.8 57.8 0 006.9 20.2c3.7 6.6 13.5 16.8 21.9 15-4.6-5.7-16.5-6.2-18.2-13.6-2-9 8.8-13.9 15.6-11.2 4.8 1.9 8.4 5 13 7 3 1.3 2.4 1.9 4.6.1 1.3-1 2.3-4.2 2.9-5.8 1-2.7 3.2-8.3 1.4-11-1.9.4-4.8 2.7-6.8 2.4-3.8-.5-2.3-2.5-3.1-5-5 1-5.1-1.5-5.7-5.3-.2-1-1.2-2.7-1.1-3.7.2-1.7 2.4-3.3 2.2-5-.5-4.5-12-5.4-15.3-5"/><path class="cls-5" d="M120.6 175.8c-10.6 0-21 10.8-19.4 21.6 1.4 10.1 10.8 10.5 19.2 10.6 5.9.2 9.2 1 12.3-4.5a21 21 0 002.7-7.9c1.2-9.6-4.2-19.8-14.8-19.8M210.8 176.3a21 21 0 00-16 8.8c-5 6.5-8.2 22.6 3.3 24.1a.4.4 0 00-.1 0c7 1 20 3.8 24.5-1.9 8-9.8 2.7-31-11.7-31"/><path d="M153 204.4c-5.2.8-6.1 5.4-2 8 3.2 2 13.6 2.3 16.6-.3 7.7-6.6-11-8.1-14.6-7.7" fill="#eea47d"/><path class="cls-5" d="M62.4 212.9c-6.8 1-15 4.5-16.3 12.2 6.4-6.3 25.6-11.3 32.4-2.6 3.4-9.2-10-10.4-16.1-9.6M177.8 266.8c-8.5 0-33.7 3.8-27.4 16.8.2-.7 1.9-7.6 2.7-4.4 9.4-8.4 25.8-9 37.4-5.2 0-2.2 3.2 1.4 3.2 1.7 4-6.7-12.3-8.9-15.9-8.9M174.8 253.4c-3.2.8-4 10.2-4.3 12.7 1.8-.2 8.5-13 4.3-12.7"/><path class="cls-3" d="M154.6 224c-6.9 0-1 10.5 4.8 7.4 1.5-.8 3.2-4.2 2-6-1-1.3-5-1.5-6.8-1.5"/><path class="cls-7" d="M89 131.2c-8.5 0-6.8 11.7-4.8 16.8.6 1.4 2.3 5.8 4.2 6.4 2.6.9 1.3-.3 3.7-1.6 2.8-1.6 11-6 12.2-9.6 2.1-6-10.4-12-15.3-12M251.1 133.7c-4.1 0-14.6 3.5-14.1 8.8.1 2 10.3 15.6 12.5 15.7 6 .5 13.5-24.5 1.6-24.5"/><path class="cls-8" d="M260.6 202.4c-3.9 0-9 3.2-12.5 4.6a107.2 107.2 0 01-16.6 5.6c-12.5 2.7-23.8.8-36.2-.5-5.4-.5-11-.2-16.3-1.2-4.8-.9-6.4-2.8-9.8-.7a1.4 1.4 0 00.7 1.8 7.3 7.3 0 01-3.6 2 21 21 0 01-8.1 1c-.5 0-11.4-3-10.4-3.7a1.6 1.6 0 00-.5-2.7c-1.3-.5-3 1.2-4.4 1.4-5.2 1.1-11.5.7-16.9 1.1-6.7.6-13.5 1.1-20.3.4-7.5-.8-14.2-4-21.6-5.3a36.3 36.3 0 00-19.4.6c-1.2.4-11.8 5.2-5.7 7 .5.1 6.3-2.5 7.3-2.5a19.5 19.5 0 016.7.8c5.9 2 8.2 5.6 6.5 11.4-.6 2.3-2.1 4.3-2.4 6.5-.2 2 .6 6.3 2.5 7.4 1 .6 2.6-.8 3.2-.3 1.2.9.4 2 1.2 2.8.6.6-.2 1.8.9 2.4 1.2.7 3.2-.6 4.5-.9 4.2-1 4.6-.6 4.1 4.5a35.7 35.7 0 01-2.8 10c-2.1-.7-1.8 1.6-1.5 2.7.5 2 6 4.4 7.7 5.1a40.2 40.2 0 0016.4 2.4c11.2-.3 22.1-3.3 33.3-2.1 6 .6 12 2.1 18 .8 6-1.4 5-2.9 6.5-8 2.4-8.5 8.9-4.2 6 2.5.1.1-3.4-.7-3 1.4.5 2.4 4.3 1.7 6 1.7 6.8 0 13.8-1 20.4-.9 16.4.4 31-5.6 44-15.6a38.5 38.5 0 0014.8-21c.7-2.5 3.3-22.5 1.3-22.5m-133.7 41.2c-1.2 0 4-8.6 4.5-10.2 1.2-4.1.7-7.8-.3-11.8a25.1 25.1 0 00-2.6-7c2.9-.4 3.4 4.8 4 7.1a21.8 21.8 0 011 10c-.4 2.2-3 12-6.6 12m70.3 5.3c-6.7 0-12.6-9-13.4-14.8-.8-5.6 3.9-18.9 10-18.4a22.6 22.6 0 00-8.2 12.3 15 15 0 001.9 12 16 16 0 005.1 5c.5.4 7.3 3.9 4.6 3.9m-57.4-22.3c-1.7 0-4.6-.3-5.7-1.9-1-1.3-1.3-6.9.6-7.1.6-.1-.8 4.4-.2 5.5 1 2 3.2 2.3 5.3 2.3 4-.2 8-2.7 11.9-3.2 7-.9 13.8 3.2 20.9 3.6a13.1 13.1 0 007-1.3c1-.4 5-5.2 4.6-5.2 3.2.1-2.6 5.7-3 6a13.3 13.3 0 01-7.4 2c-4 .2-7.3-.9-11.2-1.8.1 11.3-14.2 8.3-12-1.5-3.5.3-7.1 2.6-10.8 2.6"/><path class="cls-8" d="M162.8 265.4c-9.5 0-20.4.8-28.6 6-9.8 6.2-13.1 19-14.4 29.7-2.4 20.6 1 49 22.5 58.5 21.7 9.7 43.9-6.4 47.5-28.4.6-3.3.9-3.7-.9-4.4.4.2-6.6 1.9-7.4 1.9a25.4 25.4 0 01-7.2-.6c-5.3-1.2-7-3.8-10.2-7.5-3-3.4-7.6-5.9-10.3-10.4a35 35 0 01-4.4-16.7c0-2.6 1-5.7.6-8.3-.2-2-2-3.8-1.7-6.2.4-5.4 6-8.4 10.7-10 .8-.4 10.3-1.8 10.3-2.5 0-1.6-5.8-1.1-6.5-1.1M240 292.7c-8.9 1.7-13 11.5-13.5 19.7a26.8 26.8 0 001.7 11.8c.5 1 7.6 10.8 8.6 8.2-.4 1-7.7-10.7-8-12.3a27 27 0 012.5-18.8c2.6-4.5 7.6-7.8 13-7a7.7 7.7 0 014 13.4c-4.2 4-4.2-.5-7.5-.9-4-.5 1.4 5 4.4 4.8 12.2-.5 9.3-21.7-5.1-19M234.9 331h.1z"/><path class="cls-5" d="M173.8 259.5c-1.4.4-3.5 5.3-1.3 4.2.8-.5 3.2-4.7 1.3-4.2"/><path class="cls-5" d="M174.3 258.1c-.6 1-4.6 7-1.2 5.5 1.7-.7 2.5-7.4 1.2-5.5"/><path class="cls-5" d="M175.6 256.1c-1.1.3-5.9 8.2-2.4 6.8.9-.4 3.9-7.2 2.4-6.8"/><path class="cls-1" d="M62.8 198.1c.7-1.5-22.9 47.6 1.3-2.9l-1.3 3M144.9 124.5l3.5-.4q-1.8.1-3.5.4M278.9 305.4l-.5 2.6.5-2.6"/><path class="cls-9" d="M87 121c-13.9 0-8.7 22.7-6.7 30.2.9 3.6 2.8 7.4 3.4 11.1.6 3.7-.7 4.3-3.3 7.4a141.8 141.8 0 00-14.9 20.6 76.8 76.8 0 00-5.4 11.7c-1 2.7-1.2 7.5-2.6 9.7-.5.8-1.7 1.3-3.5 2.2-6.4 3.1-8 7-9.4 13.4l-.6 1.6c-6 14.3 6.2 38.8 19.2 45.5a25 25 0 002.7 1c2 .8 6.6.5 8 1.3 4 2.1 6 11.6 6.7 15.4 1 5.6 2 11 5.1 16.2a20.3 20.3 0 002.9 3.7l1 1c3.7 2.9 3.5 2.1 3 7.1-3 30.3 3.4 62 15.7 89.7.9 2.2 5.6 8.6 5.3 10.8-.4 2.5-4.6 4.2-3 7.8 1.9 3.7 4.5 1.2 7.5 1.6 2.6.3 4.1 1 6.7 1 2.3 0 3.8.7 6.4.2 2.6-.5 9.3.3 10.9-1.8 2.2-3-1-6.8-2-9.5-1-2.6-.9-4.7-.8-7.6.4-11.2 2.3-23.3 1.3-35 5.7 4.3 14.8 4.2 21.4 2a185.2 185.2 0 00-.8 28c.2 4.5 1.7 9.4 1.4 13.6 0 1.8-1.2 3.5-1.3 5.1-.2 5.3 8.9 5 13.3 5.2a46.3 46.3 0 008.3-.4c1.6-.3 7.5-.8 8.6-1.7 2.8-2.4-.2-6.3 0-9 .3-3.7 3.2-8 4.4-11.5a216.7 216.7 0 006.1-21c3.4-14 4-28 6.6-41.9 2.4-12.2 10.7-24.2 17.4-34.4-1.4 17.2 11.6 27.9 28.4 25.1 16.9-2.8 25.2-19.1 26.1-35 1-16-4.6-34-18.3-43.4-10.6-7.4-33-6.1-39.6 7a18.9 18.9 0 00-2.5-4.8c22.5-7 41.6-22.7 42.6-47.4a115.4 115.4 0 00-2.5-28.2c-1-4.3-3.5-9.5-2.6-13.7 2.2-11.3 23.5-50.7-4.4-48-5 .4-10 2.4-14.6 4.4q-3.7 1.6-7.3 3.5c-2 1-6.3 5-8.2 5.1-2.8.3-9.4-4.1-12.3-5.2a143.8 143.8 0 00-17.5-5c-23-5-61-9.2-78.2 11C108.5 130 97 121 87 121m-1.4 42.6C82 154.4 75 135.8 81 126.2c6-9.5 21.8 2.3 27.5 6.9 2 1.6 4.4 5.1 6.8 6.3 2 1 1 .8 2.2-.3 0 0-1.3-1.1-1.3-1.3 1-2 3.6-4.1 5.8-5.7 6.8-4.5 15-6.6 23-7.6 18.4-2.4 38-.5 55.9 4.6a120.6 120.6 0 0116.4 6c3 1.5 10.3 7.5 13.5 7.7 5 .3-4.8-5.3-6.2-6 8-5.8 19.3-11.8 29.4-12.2 13.6-.5 12 13.8 9.6 23.3-2.3 9.6-6.4 18.6-10.4 27.6-3.2 7.4.5 3.7 3-1.5 4.4 18.8 10 43.5-1 61a63.6 63.6 0 01-28.4 21.5 61 61 0 01-16.3 5c-1.4.1-14.4-.4-14.2-.9-1.1 4 21.2.4 22.3.1-.1 1.7 1.9 4.8 2.5 6.3a65.6 65.6 0 013.8 14.6c.7 5.6.9 12.6-1.3 18.5-5.7 15.3-28 27-43.7 26.9-5.8 0-16.3-3-14.4-10.7 1.6-6.9 11.7-10 17.3-12.4 4.9-2 10.1-4.2 14-7.5 4.6-3.8 7-8.4.3-2 .4-5-1.3-9.1-2.2-13.9a8.6 8.6 0 010-3.9c.3-2.7 1.7-3.3-.4-6.1-3.9-5.3-14.8-5.5-20.6-4.8 1.4-2.5 8.3-16 0-13.7-2.8.8-3.5 7.5-4 9.9-.8 4.5.4 3.1-3.4 5-1.4.6-3.4.7-5 1.2-8.8 2.7-13.6 6.6-12 15.9 1.1 7.1-.5 14.4 2.4 21.8a26.6 26.6 0 004.9 8.3 45.2 45.2 0 004.5 3.9 24.5 24.5 0 013.2 3.4c11.8 13.6 31.6 5.5 44.6-2.7a333.3 333.3 0 01-11 78 164 164 0 01-6 17.4c-.8 2-2.3 4-2.4 6.2 0 2 2.7 4.6 1.8 6.6-1 2.5-3.2 1-5.4 1.4-1.8.4-3.2 1.8-4.9 2-1.4.2-4.2-.6-5.8-.7-2.1 0-11.9.2-12.8-2-.4-.8 1.1-2.6 1.2-3.3a19 19 0 00-.3-8.4 105.9 105.9 0 01-1.1-23l.5-9.8a22.1 22.1 0 011-4.5c0-.4 1.5 0 1-1-.3-.6-9.4 1.7-9.7 1.7-3.9.2-8.8 0-12.1-2.3-.3-.2-5.3-4.4-3.4-4.9-.6.1.6 16.7.5 16.9-.1 8.7-2 17.1-2.6 25.7-.3 3.8.3 4 2 7 .7 1.5 2.6 3.8 2 5.7-.8 2.9-2.8 1.3-5.2 1.7-4.8.7-9.7 1.7-14.2.9l-1.9-.6a47.4 47.4 0 01-5 .1c-7-1.2-.5-6.8-.5-9.2 0-2.4-3.3-7.2-4.2-9.4a222.5 222.5 0 01-10-27.5c-6.2-22-9.2-45.4-6.2-68 7 1.6 13.5-7.9 14.3-13.6a28.7 28.7 0 00-1.8-13.3 65.8 65.8 0 00-19-28.2c2.7-2 9-16.4 5.4-19.5-1.9-1.7-5.2 2.4-7.4 1.6-3-1-.2-2.7-1.9-4.5-1.5-1.6-3 .5-4.7-.7-1.5-1-2.3-5.6-2-7.2.2-2.5 2.1-4.7 2.7-7.5 2.4-11.6-13-12.4-21-10.4 1.2-2.8 1-5.7 2-9 2.5-7.7 6.7-15 11.5-21.7.8-1.2 19.8-24 19.4-24.3-.5-.5-5 5.2-6.2 6.5zm-39.5 61.5c2-10.2 15-13.3 23.5-12.3 5.2.7 11 3.5 9 9.7-6.4-8.9-26.4-3.6-32.5 2.6m14.4-5c3.5-.6 16.9-1 17.5 4.6.2 1.6-2 2.9-2.2 4.5-.2 1.3.9 2.7 1 4 .7 3.7.7 6.5 5.8 5.3 1.3 7.3 4.3 4 9.9 2.7 1.9 2.2-.5 8.5-1.3 10.7-.6 1.6-1.8 5.4-3.2 6.4-2 1.4-2 .7-4.5-.4-8.3-3.7-16.5-12.8-25.3-4.6-12.6 11.8 9.6 15.9 15 22.4-16.3-1-25-17.5-28.1-31.6-3-13.3 1.8-22.3 15.4-24zm4.4 39c1.6-1.7-4-3-5.3-5.2 6.5-4.8 11.2-2 17.6 1.7a50 50 0 0119 15.5c6.6 10 17.5 28.5 6.9 38.9-10.7 10.3-19.5-5-20.6-15.1l-.9-5.7a33 33 0 00-8-16.2c-4.3-4.4-15.3-5-17-11.2.7 1 5.1 4 6.2 2.5 1.4-1.9-3.5-2.2-4.6-3.4-1.9-2.2-2-3.8.2-6A8.2 8.2 0 0065 259m105.6 7.1c.3-2.3 1.2-12.7 4.8-12.6 3.5.1-2.8 12.3-4.8 12.6m73.3-11.6a29.4 29.4 0 016.8 0c11.5 1.6 20.2 11.7 24.4 21.4a57.2 57.2 0 013.9 29.3 43.7 43.7 0 01-7.6 19.6c-13.7 17.6-45 12.8-43.8-12.3.3-8.2 4-18.7 13.8-18.9 4.8 0 9.7 2.2 10.6 7.2.7 3.9-2.3 10.7-7 10.3-1-.1-5.4-3.8-5.2-4-2.5 1.5 2.7 5 4 5.4 8.7 2.2 12.3-11.5 7.4-16.9-3.4-3.8-10-4.5-14.7-2.7-6 2.4-7.7 8.1-9.7 13.7-4 11.5-13.4 20.9-17.5 32.7l.8-12.8c.1-1.8-.3-7.2.5-8.8.7-1.5 4.2-3 5.4-4.2a31.6 31.6 0 0011.2-24 61.3 61.3 0 00-.9-11c-.5-3.4-2.6-7.6-2.6-10.9 0-5.5 7-8.7 11.1-10.5a38.7 38.7 0 019-2.6zM169.7 268c3.3 0 29.5-2.6 24 7.7 0-.6-2.5-3.2-3.2-1.7-10.7-3.4-29.1-4-37.4 5.2-.8-3.2-2.5 3.6-2.7 4.4-5.4-10.5 12.1-15.6 19.3-15.6m-13.2 43.8c-7.3-9.6-10.6-29.6 2.5-35.4 8-3.5 27.6-5.8 33.5 1.2 2 2.4 2.9 7.6 3.3 10.8 1 7.1-1.5 8.7-8 11.8-7.5 3.6-24 7.1-24.2 17.7a24.8 24.8 0 01-7.1-6.1zm36.6-35.4"/><path class="cls-9" d="M128 212c-.5 0 2.3 6.9 2.6 8 2 6.7 2 13-1.9 19.2-.7 1.1-4.4 4.7-1.2 4.2 4-.6 6-11.3 6.2-14 .1-2.4-2-17.4-5.7-17.4M104.7 157.4c-2.4 0-15.5 3.9-14.6 7.6.6 2.5 2.3.9 3.4 0a34.3 34.3 0 016-3.6c1.7-.7 5.5-.4 6.7-1 2.2-1.5 2.3-3-1.5-3M224 164.2c-1.3 0-1.2 1.3-.8 2 .4.8 3.3.6 4.1 1 1.8.5 7.2 5.1 8.5 5 2.7 0 .7-2-.4-3.4-2.5-3-7.7-4.6-11.3-4.6zM134.8 217.6c-1.5 0-1.6 5.3-1.1 6.3 1 2 2.6 2.5 5 2.8 4 .3 8-1.8 12-2.6-2.5 9.5 11.8 13 12 1.5 3.7 1 7.5 2.1 11.6 1.9a13.3 13.3 0 006.9-2c.4-.4 6.2-6 3-6.1.7 0-3.4 4.6-3.9 4.9a12.4 12.4 0 01-7.3 1.6c-6.8-.2-13.2-4.1-20-3.6-4.4.3-8.4 2.8-12.7 3.1-1.7.1-4.5 0-5.5-1.6-.7-1.1 0-6.2 0-6.2m24.2 13.8c-2 0-5.3 0-6.7-1.6-2.5-3.2 0-5.8 3-5.8 1.4 0 5.3.3 6 1.5 1 1.6 0 6-2.3 6M194.2 214.4c-4.6 0-9.5 11-10.2 14.2-1.7 7.8 3.3 17.7 11.5 19.8 6 1.6-3-3.2-4-4a15.7 15.7 0 01-6.1-15.7 24 24 0 012.4-6c.9-1.6 6.4-8.3 6.4-8.3M154.6 203.3c-5.1 0-10.5 4.8-5.4 9.4 3.6 3.2 12.8 3 17.1 1.4 6.3-2.4 5-8.7-1-9.9a69.6 69.6 0 00-10.7-1m4.6 10.5c-3.5 0-12.2-.5-10.7-6 1.4-5.5 10-2.8 13.7-2.3 12.1 1.7 5.5 8.3-3 8.3"/><path class="cls-10" d="M114 168.2c-8.2 0-16.3 4.2-20.4 11.4-3.6 6.4-5.7 21.5 2.5 25.8-.4 0-.9-.4-1 .2-.6 1.8 36.6 5.5 40.8 2.7 6-4 4.6-17.1 2.4-22.6a26.9 26.9 0 00-24.3-17.5m-3.3 1.3c12-1.4 23.2 6.4 27 17.9 1.5 4.8 2.3 12.6-.7 17-1.5 2.3-2.2 2.4-5.3 3 9.6-11 6-32.8-11-33-14.4-.2-29 20.4-16.7 32.1a35.2 35.2 0 01-3.7-.5c-7.1.4-9.1-10.8-8.6-16.5a21.9 21.9 0 0119-20m11.3 38.6c-6.8 0-15.3.6-19.2-6-3.8-6.3-.9-14.4 3.6-19.5 9.7-11 26.6-7.6 29 7.2a28 28 0 010 5.8 21.9 21.9 0 01-2.7 8c-2.8 4.8-5.3 4.5-10.7 4.5M212.6 170.4c-14.2 0-28.3 14.1-27 28.5.5 6 1.5 8.7 8 10.6 3.1 1 7.6 1 11.2 1.3 10 .6 24.5 2 28.2-10.2 3.8-12.6-6.7-30.2-20.4-30.2m-8.7 2.8a24.3 24.3 0 0111-1.7c14 2 25 26 12.7 35.4a15.4 15.4 0 01-5 2.4c9.2-10.7 5-33.3-11-34.3-15.4-1-29.3 19.7-19.5 32.8-5.4-2.1-6-7.7-5.4-13a28.8 28.8 0 0117.2-21.6m-5.9 36c-7-1-8.7-8.5-7.4-14.9 1.7-9.1 10.5-18 20.2-18 8.7.2 14 8 15.1 16 .6 4.1-.6 17.1-6.5 17.6-6.5.9-14.7.1-21.4-.7z"/><path class="cls-7" d="M220.5 214c-5 .5-14.2-.3-18 3.5-6.7 6.5 2 12.2 7.8 13.3 6.6 1.3 17 1.2 20.1-6 3-7.2-3.2-11.5-9.9-10.8M104.1 209.4c-5.3 0-18 2.2-16.1 10.1 1.3 5.5 11.2 6.2 15.7 6.9 16.8 2.6 16.1-17 .4-17zm3 9.9c.5.1 0 0 0 0"/><path class="cls-3" d="M104.7 174a12 12 0 00-8.3 6.4c-1.6 3.4 0 4.1.6 6.5.9 3.7 0 7 3.4 10 3 2.6 6.6 3 10.2 1.7 15.4-5.2 9.4-27-5.9-24.5m2.8 5.3c8.6 1.6 8.9 12.4.8 15-8 2.5-10.2-8-4.7-12.3a1.6 1.6 0 00.4-2.2 7.1 7.1 0 013.5-.5M221.1 181.7c-13.8 1.4-6.6 19.8 3.6 20.2 8.4.4 8.8-12.4 3.8-10.4-1.7.6-1.4 4.6-3.6 5.2-2.8 1-7.4-4.8-7.6-7-.5-3.5 1-4 4.2-4.9 1.2-.3 4.7.7 4.9-1.6.1-2.3-4.3-1.6-5.3-1.5m-2 11.3M195.5 189c-3.5 2 4.1 11.7 5.6 5.6.5-2-3.4-7-5.6-5.7"/><path class="cls-3" d="M200.7 189.7c-3 2.6-4.4 9 .5 5 2-1.6 2.6-7.7-.5-5M125.2 186.2c-3.2 2 2 9.2 4.9 6.6 2.4-2.1-2.6-8-4.9-6.6"/><path class="cls-3" d="M130 188.3c-1.5 2-3.4 7.8 1 5 3-1.9 1-7.4-1-5M48.5 227c-2.2 2.2-.5 10.8 3.3 6.8 2-2 .4-10.5-3.3-6.8M48.3 240c0 2.5 1.5 13.7 5 8.3.3-.4-.8-7.9-1-8.3-.9-1.1-4-3.6-4 0M155.3 279.7c-4.9 3.7-1.2 19.3 2.3 14 1-1.4 0-6.5.3-8 .1-1.4 1.8-8.7-2.6-6M155.4 300.4c0 2.4 2.5 12.2 4.5 6.3.2-.6-1.2-5-1.6-5.6-.2-.4-3-4.4-3-.7m3.1 1.7M228.8 216.8l.9.9c2.4 0-.9-3.2-.9-.9M223.9 221c0 2.1 1.8 0 1.8 0s-1.8-2-1.8 0M219.2 217.7c0 2.8 2.5 0 2.5 0s-2.5-3-2.5 0M89.8 212.6c0 2.6 2.3 0 2.3 0s-2.3-2.6-2.3 0M94.8 217.8c0 3.4 3 0 3 0s-3-3.3-3 0M100.8 216c0 2.1 1.8 0 1.8 0s-1.8-2-1.8 0M152 206.3a1.8 1.8 0 00-2 1.3c.7 2.5 4-1.9 2-1.3M157.2 206.2c-2 0 .3 3.5 3.2 1.6 2.4-1.6-3.1-1.6-3.2-1.6"/></svg>