<svg id="Layer_3" data-name="Layer 3" xmlns="http://www.w3.org/2000/svg" viewBox="0 0 323 439"><defs><style>.cls-1{fill:#2c2c2c}.cls-2{fill:#ca896e}.cls-3{fill:#fff}.cls-4{fill:#ffbc91}.cls-5{fill:#b3835a}.cls-7{fill:#ffb9b7}.cls-8{fill:#fad8bd}.cls-9{fill:#835947}.cls-10{fill:#815847}</style></defs><path class="cls-1" d="M223 294.3c-.1 0-6.2 61-7.3 66.9a276.5 276.5 0 01-9.2 36.7c-.7 2.2-8.7 19-7.4 20.5 2 2.2 9.6-21 10.3-23.4a288 288 0 009.1-40 434 434 0 004-35c.4-5.8 4.1-21.5.6-25.7zM84.4 290.7c.1.1-1.6 35.6-1.4 39.2a231 231 0 009.1 48.5 234.3 234.3 0 007.8 22.3c2 4.7 7.3 11.8 7.8 16.5.3 3.2-2.1 3-3 6.7-.5 2.3.6 7.5 3.3 4.7-2-1.2-2.1-2.5-1.7-4.7.6-3.3 3.3-3.7 3.1-6.2-.2-2.3-2.2-5-3.2-7.2-3.8-8.5-7.3-17.1-10.2-26A230.6 230.6 0 0184.3 326c-.6-10.5 1.2-21 .8-31.4 0 .8 1.2-5.4-.7-3.8M139.3 360.6c-.3 0 .3 29 0 32.2-.7 6.8-4.9 17.2-1.8 23.3a216 216 0 003-49.4c7.1 5 17.5 5 25.6 2.5-.7 8.9-1.4 17.9-1.2 26.8 0 2.1 3 25 3.8 24.4 1.7-1.6-2.4-21.5-2.5-25 0-6 .2-12 .6-18.1.2-2.9.5-5.7.6-8.6 0-.5 2.7-.3 2-1.5-.4-.8-11.2 2-11.6 2-4.6.2-10.4-.1-14.4-2.8-.3-.3-6.4-5.2-4.1-5.8"/><path class="cls-1" d="M200.1 415c-2 4 3.2 10.3-.3 12.7-.9.6-3.4-.2-4.4 0-2.4.3-4.3 2-6.5 2.3-3 .4-8.1-.7-11.5-1-1.4 0-9.2-.2-10.3-1.5-1.5-1.8 1.7-5 1.6-7.1-.1-7.1-4.2 4.7-3.8 6.2.8 4 11 4.4 14.8 4.6a64.4 64.4 0 0010.6-.2c1-.2 1.7-1.5 2.9-1.7 2-.5 4.8.6 6.6-.2 4.8-2 1.1-14.3.3-14M107 427.9c-.7-.7 2.7 4.8 3.5 2 .2-1-3-2.1-3.5-2"/><path class="cls-1" d="M138.4 408.2c-2 5.3-1.8 6.7.6 11.3 1.2 2.2 4 6 2.3 8.4-1 1.4-7.9 1.7-9.8 1.9-4.6.5-7.1-.2-11.3-1l-4 .1c-.7 0-7.4-1.3-7.4.9 0-1 13.8 2.2 15.2 2.2 4 0 11.7-.9 15.4-2.3 8.9-3.3-3.2-15.3-1-21.5m-.3.7v.1M137.7 429.1h-.1m-13.2 1.2h-.1zM52 214.1c-5.5.5-12.2 5.3-13.5 10.6-1.9 8 4.5 11 10.6 13.4 12.4 5 18.3 16.6 20.2 29.5 1.2 9.3 9 31.3 23 23.5a18.8 18.8 0 009.8-12.7c0-.6 1.2-5.2 0-5.2-.7 0-2 7.5-2.5 8.3a19.2 19.2 0 01-9.1 8.8c-7.9 3-13.3-4.9-16-11.3 0 .1 0-.1 0 0-6.7-15.9-4.5-35.4-24.2-42.8-5.8-2.2-13-5.6-9.4-13.2 1.3-2.7 4.5-4.7 7.1-6 .8-.4 6.2-3.2 4-2.9"/><path class="cls-1" d="M68.6 222.7c1.7 2.8 6.4 4 9.1 6.2A57.5 57.5 0 0188 240.5c3 4.8 8.1 12.8 9.3 18 1.3 3 3.6 7.4 3.6 10.8 0 .4.7 7.6 1.7 6.3 0-11.4-4.8-20.5-10-30.4a57.6 57.6 0 00-12.2-15.5c-1.5-1.4-10.2-8.6-11.7-7m28.6 35.8M42.5 219c-3.3 2 9.2 9.9 8.6 5.7 0 .6-7.8-6.2-8.6-5.7M39 224.3c-3.9 2.2 6.8 8.3 8 8 4-.7-4.5-4.4-5.1-4.8-.6-.5-1.3-4.2-3-3.2"/><path class="cls-1" d="M50.8 214.7c-.4 0-4.6 1-3.9 2.2-.5-.8 10.8.7 11 .8 1.5.6 11.6 6.8 12 6 .2-.4-3-2-3.1-2.2 0 .1 0 0 0 0-4.3-2.9-10.3-7.6-16-6.8M25.3 190.2c-3.9 12.2 1.5 28 7.6 38.7a39.6 39.6 0 0012.3 13.3c1.6 1 17.5 7 16.5 3.6l-8-1.3a32.3 32.3 0 01-13-8.3 41.7 41.7 0 01-9-13.8 74.3 74.3 0 01-5.9-18 38.1 38.1 0 01-.3-8.7c0 .2.7-8.3-.2-5.5"/><path class="cls-1" d="M49.4 177a34.1 34.1 0 00-3.6.5c-8.3 1-17.3 3.9-20.6 12.3 0 0-1 2.3 0 2.5-.8-.1 8.6-10 9.5-10.4 3.3-1.5 6.9-2 10.2-2.7 5-1 12.7-1 17.5 2 3.9 2.5 3 2.4 2.4 5.8-.2 1.2-1.4 2.1-1.6 3.6 0 1 1.1 1.7 1.2 2.6 0 5.2.4 9.4 7 8 1.3 4.6.6 6.6 6.5 5.2 1.8-.4 4.4-2.4 5.4-1.4 3.2 3-2.5 14-4 17.4 3.1-3.2 6-9.3 5.2-14.9-1.2-9.5-6.5 2-11.2-2.3-1.4-1.4.5-4.2-1.5-5.7-2-1.6-4 2.4-6.3-1.8a59.4 59.4 0 01-.8-7.4c.3-2.3 3-3.6 2.7-6.3-.9-6.2-13.6-6.7-18-7zm33.7 27.4M78.7 223.4a27.3 27.3 0 00-2.3 3c-.2.7.6 2 1.3.8a19 19 0 001-3.8M126.2 172.7a28 28 0 012.8 7.5 36.2 36.2 0 011.5 7 23.4 23.4 0 01-1.4 9.5c-.9 2.4-4.6 6-5 8.2-.7 5.5 3.7-1 5.1-3.6 3.4-6.3 3.7-13 1.8-19.8-.8-2.8-1.4-9.5-4.8-8.8zM133.5 176.3c-3.9.5-.9 8.6 1.3 10 4.4 2.6 11.2-.7 15.7-1.6 5.9-1.3 10.3-.5 16.2 1 2.5.7 5.7 1.5 8 1.9 3.6.5 7.1.8 10.5-.3 1.7-.5 11.4-8.8 7.4-8.9.7 0-4.6 5.8-5.5 6.2a15.3 15.3 0 01-8.4 1.5c-8.5-.5-16.5-5.3-25-4.2-4.5.6-9 3.5-13.6 3.7-2 .1-5.3-.1-6.5-2-.9-1.4.3-7.3 0-7.3"/><path class="cls-1" d="M153.4 182c-1.6.1-.8 7.7-.8 7.8 1 2.6 2 3.4 4.6 4.3 5.1 1.5 12.3-1.3 9.6-8.3-1.3-3.4-1.2 1.3-1.4 1.8-1.8 4.2.2 4.4-4.5 5-2.9.5-5.4-.5-6.7-3-.3-.6.5-8.3-.8-7.7M202.4 174c-13.1 9.3-14.8 33.9 3.5 39 7.2 2-3-3.5-4.7-4.8a18.8 18.8 0 01-7.3-18.5 27.4 27.4 0 0110.2-15.6 1.4 1.4 0 00-1.7-.1M86.4 161.7c.8-.5 19.5 4.1 23.3 4.5 5.2.6 20.8 2.9 24.9-1.2 3.3-3.2-8.5-.5-10.2-.3-8.3.7-19-.5-26-1.5-2.6-.3-10-2.7-12-1.5"/><path class="cls-1" d="M100.9 118.4A26.9 26.9 0 0081.5 139c-1 5.4-1.1 12 1.3 17-.1-.1 5.7 8.8 7 6-6-1.1-7.7-11.5-7.7-16.5 0-11.6 6.7-21.9 17.9-25.5 19.8-6.4 39.8 11.2 38.4 31.3-.3 4-4.6 10.2-4 13.7.3 1.2 2.2-1.7 2.2-1.7 2.2-2.6 3-8.4 3.3-11.8 1.4-20.7-18.6-38.6-39-33.1"/><path class="cls-1" d="M116.8 124.7c-16.4 0-34.1 22.8-21 37.2 1 1 8.1 6.6 8 2.7 0-.6-4.5-2.6-4.8-2.8a14.6 14.6 0 01-5-7.7c-4.8-16.8 17.3-35 32.4-24.9 6.6 4.5 9 13.3 8 20.8-.4 2.4-7 15.2-6.9 15.3 3.7 3.7 8.8-19 8.7-20.8-.8-10.5-8-20.1-19.4-19.8zM220 120.7c-15.6 4-32 23.3-24.2 39.9 3.2 6.8 14.2 7 21.9 7.5 13.6 1 32.4 1.6 33.7-16.7 1.1-17.4-13.2-35.3-31.5-30.7M195.6 149c2.5-18.6 27.6-37.3 44.3-22.7 13 11.4 15.6 38-5.3 40.9.1 0 0 0 0 0-8.1 1-17.3.2-25.5-.9.2 0 0 0 0 0-10.2-1.4-14.9-5.5-13.5-17.3z"/><path class="cls-1" d="M220 125.8a28.9 28.9 0 00-22 26.5c0 3.1 7 18.2 6.6 13-.2-2.7-4.3-6.4-4.8-10-1-6.3 1.6-12.9 5.4-17.9 5.8-7.5 16.8-13.4 26.2-8.7 11.8 5.9 14 23.3 7.8 33.9 1-1.7-5.5 6.8-2.2 5.3 7-3.3 7.9-17.3 6.8-23.3-2-11.6-11.4-21.3-23.7-18.8M157 159.2c-4.2 0-10.2 3-7.4 7-.5-9 25-6.6 25.5 0a2.3 2.3 0 011.4-.8c-1.5-6.2-14.2-6-19.4-6.2zM149.4 168.6c-2 1.7 10.6 4.4 10.7 4.4 4.2.3 15.8.4 14.5-4.8-3.6 5.6-21.5 5-24.6-1l-.6 1.4M81.7 104c-16.3 19-35.2 38.6-40.2 64.2 2.7-3.3 3-6.8 4.6-11 3.2-9 8.3-17.5 14-25.4 6.4-9 15.6-20.5 21.6-27.8M41.4 178.2c-1.3 3.8 1-.2 0 0"/><path class="cls-1" d="M75.7 61c-12.5 1-10.4 19-9 27.2 1 6.6 2.6 16 6 22 0 0 1.7 4.4 2 3.5 1-2-.6-4-1.4-6.3a119.4 119.4 0 01-5.2-19.7c-1.3-8-3.2-24 8.3-24.9 8.6-.7 19.6 7.6 25.8 12.6 1 .8 8.6 9.9 10.6 8.6 1.5-1-6.5-7.9-6.2-7.5-7.5-6.7-20.2-16.2-31-15.5"/><path class="cls-1" d="M149 63.2c-8.8 1-17.7 2.8-25.7 6.7-1.6.8-16.2 9.7-14 11.9-1.5-1.4 19.9-12.9 22.3-13.7 10.5-3.2 21.2-4 32.2-4 22.7 0 45.7 4 66.5 13 4.7 2.1 14.8 10.7 19.5 10 1.8-.3-7.1-6.2-8.6-7a122 122 0 00-15.7-7 172 172 0 00-76.5-9.9"/><path class="cls-1" d="M277.7 63a56 56 0 00-21.8 6.2c-4.1 1.8-14.5 5.4-16.8 9.6-1.5 2.7 1.8.5 2.5.2 5.7-2 11.1-6.6 16.8-9 8.4-3.4 24.2-9.6 29.5 1.5 4.7 9.8-1.3 25-4.7 34.5-2.2 6.2-4.8 12.2-7.6 18.2-.7 1.6-2.6 4.1-2.6 5.7 0 5.8 4.4-3.8 5-4.8 5.8-12 28.7-62.6-.3-62"/><path class="cls-1" d="M278.3 120.7c-.7.2 5.9 35 6.1 38 1.6 19.2-3.5 38.7-19.9 51.3a103.9 103.9 0 01-22.6 13.2 73.1 73.1 0 01-33.1 5.6c23.7 7.2 60.2-13 71.4-33.7 7.3-13.3 6.5-29.4 5-44-.3-3.4-4.5-31-7-30.4"/><path class="cls-1" d="M234 226.7c-1.2.7 7 26 7.4 29.8a38 38 0 01-16.8 36c-11.6 8.3-29.5 17.5-44.3 13.4-5.8-1.7-12.4-6-9.9-13 2.4-6.4 11.3-9.9 17-12.3 7.4-3.1 20.3-6.5 24.2-14.5 1.8-3.5 1.8-3-.6-1.8-3.8 1.9-7.1 6.9-11.2 9-9.6 5.3-47.7 18.7-25.4 32.3 8.3 5 18.7 2.7 25.4.8 10-2.9 20.7-7.5 29.4-14.7 11.8-9.7 15.6-22.6 14.2-37.4-.2-2.2-5.5-29.9-9.5-27.6"/><path class="cls-1" d="M154.4 249a42.8 42.8 0 00-.5 32.4c.8 2.1 12.5 20.3 15 15.8.5-.7-8.7-7.7-9.4-8.5-6.8-9-8.7-21.6-6.2-32.5.2-1 1.8-8.9 1-7.3m.8 1.6M200.3 242.6c1.9-1.1 7.4 28.6 6.6 28.2 5.5-3.7-5-29.2-6.6-28.2"/><path class="cls-1" d="M182.9 233.3a96.5 96.5 0 00-18.1 3.4c-5.5 1.4-13 4.9-14.7 10.8-.5 1.4 0 10.9 2.4 9.4.3-.1-1.3-9.3.3-11.7 4.2-6.2 15-8 21.8-9.2 7.8-1.3 19.3-2.4 26.3 2.7 1.5 1 3.3 2 3.6 4 .2 1.6-1.9 3.5-1.7 4.5.2 1-1 1.3 1 1.3 6.3-.2-.6-10.7-3-12-5.3-2.7-12.2-3.6-18-3.2"/><path class="cls-1" d="M175.5 241.5c-6.4.7-13.5 2.4-18.5 6.8-1.1 1-6.4 6.8-4.5 7.4-.3-.1 5.3-6.7 5.3-6.7a23.5 23.5 0 017-3.6 55 55 0 0120.4-2.3c4.6.2 12.4 3.7 16.3 2.8 2.2-.4 3 .6.7-1.6-4.8-4.9-20.5-3.4-26.7-2.8M181.4 217c-4.7.3-7 14-6.6 17.6.3 2.3.5 1.6 1.4-.2 1-2 1.2-15.6 5.2-15.5 3.8 0 .6 6.3.3 7a5.4 5.4 0 012.3.1c1-2.5 2.6-9.5-2.6-9"/><path class="cls-1" d="M180.6 228.3c0 .2-3.6 6.6-1.9 7 .9.3 3.5-5.6 3.6-5.9-.2 0-1.9-.6-1.7-1.1M256.9 220.5c-5 1.5-10.5 4-14.4 7.5-1 .9-7.2 8.1-4.7 8.8-.1 0 5.2-7.7 6.2-8.5-.1 0 0 0 0 0a40.9 40.9 0 019-5h-.2q.2 0 0 0a43 43 0 0110.7-3c17-2.4 31 10.7 37.4 25.6q0 .1 0 0a67.8 67.8 0 014.6 35 .2.2 0 000-.1 60.6 60.6 0 01-3.7 14 42.4 42.4 0 01-5.4 9.4.6.6 0 000-.1q0 .2 0 0a33 33 0 01-21.1 12.4c-10.4 1.4-22-1.1-27.7-10.7-5.8-10-5-28.8 4.8-36.2 4.6-3.4 12.9-3.9 17.5 0 5.1 4.3 4.4 15.4-2.5 17.8-3.7 1.2-4.3-1.6-7.1-2.5.3 0-2.1-4-2.1-.7 0 1.6 1.6 3.1 2.7 4 9.2 6.9 17-9 13.3-16.4-7.8-15.5-27-3.2-30.4 8.4-3.9 13.1-.8 29.7 12.7 35.8 14.7 6.6 33 .7 42-12 21-29.1 3.1-97.5-41.6-83.5"/><path class="cls-1" d="M243.5 283.9c-2.6 3.8-27.5 40.9-22.5 43.8.3.2 8.7-18.4 9.2-19.3 2.7-5.4 6-10.6 9.2-15.7.8-1.2 5.6-6.6 5.3-8.2-.1-.4-.5-1.7-1.2-.6M48.4 168.8a25.4 25.4 0 00-3.6 2.2c4.9-1 10.7-1.2 15.5.6 4.4 1.6 6.7 3.6 6.8 8.2 0 1-1.9 4-.8 4.7 2.3 1.3 2.1-8 2.2-7.5-1.9-8-13.6-8.8-20.1-8.2M37.2 171.8a20.4 20.4 0 00-8.6 7.2c-.6 1-4.3 9.3-1.8 9.3 1.2 0 1.7-5.6 2-6.2 2.3-5.6 8.1-9 13.7-10.5-2.5-.8-2-1.3-5.3.2M42.4 165.4a3 3 0 00-.6 2.5c.7-.5 1.8-3.2.6-2.5"/><path class="cls-1" d="M42.4 166.7q-.7 2 1.2-.1a.7.7 0 00-1.2.1M43 166.4c-2 1.2 1.7-1 0 0"/><path class="cls-1" d="M42.5 166l-.4 1.6c3-2.2.2-1 .4-1.5M41.7 171.2c.5.2-.9-.5 0 0M95 104.6c-3.3.5-20.2 9.8-11.8 9.8.8 0 2.9-2.1 3.5-2.5 3.6-2.4 8.6-4.6 12.4-4 .8 0 1.8.3 2.2-.7 1.7-3.5-4.3-2.9-6.2-2.6M238.7 114c0-.4 16.2 8.3 16.3 8.3 4.9-1.6-16.3-15.7-16.3-8.3"/><path class="cls-2" d="M75.2 63c-17.2 2.5-3.6 40.5-.3 48.9 1.4-1.6 6.9-8.4 7.4-7.9.5.6-18.6 23-18.5 22.7a99.5 99.5 0 00-20.3 39.6c13.3-6.2 25.1-5.4 39.2-1.2 15.8 4.7 30.2 4.3 46.5 3 4.6-.5 12 .5 16.2-1.4 4.2-2 4.2-6 9.2-7.3 3.5-1 16.5.4 20 2.6 1.1.8 1.2 2.7 2.1 3.4 1.9 1.4 5.9 2.1 8.1 2.6 7.3 1.6 14.8 1 22.2 1.8 16.2 1.9 31 3.7 47-.9 7.6-2.1 14.6-5.5 22-8.2 6.5-2.4 8.1-.8 7.5-8.2-.9-9.7-2.9-18.9-5.1-28.3-1.2 2.3-5.6 12-5 4.9.2-3 3.8-8.2 4.8-10.6a174.6 174.6 0 007.8-21c3-10.6 8.2-31.6-8.5-32.2-12.4-.5-27.3 7.4-37 14.5 4 2 14.4 10.2 5.2 5.5-12.1-6.1-23.5-12-36.7-15.5a166.8 166.8 0 00-63.3-4.7 76.9 76.9 0 00-19.6 5c-3.9 1.7-13.8 6.1-15.1 10.6-.3.8 4.7 4.2.2 3-2.8-.7-6.8-6.5-9-8.3-6.7-5.4-17.9-13.5-27-12.5m4.4 38.6c-6.4-1.4-9.2-15.3-8.3-20.3C73.3 70 83 73 90 77.5c9.6 6 8.6 10.3 0 16.4-.3.2-9.5 7.7-10.5 7.6m190.8 4a58.2 58.2 0 01-15-18.9c-.5-6 12-10.9 17-10.5 15 1.2 3.4 30.6-2 29.3m-189.6 9.2c-3.3-3.2 12-9.6 14.3-10 3.6-.5 9 .4 4.5 3.3-1.2.7-5.3.3-6.9.9-3.2 1-5.8 3.8-8.6 4.9-.8.3-2 2.3-3.3 1m173.6 7.6c-3.6-1-6.5-5-10.4-6.3-.9-.3-8.2-1-4.4-3.2 3.2-2 10.8 2.3 13.2 4.5.7.6 5 6 1.5 5M87.4 161.7c-8.1-4.6-7.5-18.6-5-26a26.6 26.6 0 0117.2-16.9c18.3-6 37.3 7.7 40 26.2.7 5 .7 15.7-3.7 19.5-2.6 2-8.7 2-11.7 2.3-3.2.2-38.6-2.8-38-4.9.2-.6.9-.1 1.2-.2m116.5 5.1c-2.2-2.2-6.4-1.9-8.3-4.8-.4-.5-1-5-1.2-6.3a30.2 30.2 0 018.1-24.1c10.4-11.7 29.9-17 41-3.4 10 12.5 12.5 35.3-6.7 39.8-4.3 1-29.4 2.5-32.9-1.2M79 225.7a14.1 14.1 0 01-1.3 1.5c12.1 10.2 25 29.9 24.8 46.3 0 4.1-.8 8.4-3.3 11.8a23.6 23.6 0 01-6.7 5.7c-5.2 3-6 0-7.6 5.3-2.3 7.5-1.1 18-.8 25.7a211 211 0 003 27.1 244.9 244.9 0 0013.1 47.2c2.2 5.4 9 15.4 9.3 21.6.1 1.8-.6 1.2-1.9 4-1.1 2.5-2.7 3.8-.4 6 2.5 2.3 4.6 0 7.3.2 1.1.1 3.3 1.2 4.2 1.4a43.7 43.7 0 0012.4.3c2.5-.2 9.4-.6 10.4-2.3 1.8-3.6-2.9-7.3-4-10.1-2-4.8 0-9.9.7-15 .5-4.1 1.6-42 1.1-41.8-1.8.5 2.2 4.5 3 5.2 3.8 3.3 10.8 3.6 15.5 3.3 1.2 0 11.2-2.8 11.7-1.9.4.8-1.9 2-2.2 3.2-.8 3-.5 7-.7 10.2a162.3 162.3 0 00.2 25.4c.5 4.6 2.6 10.3 2 14.5-.3 1.4-2 3.6-1.9 5 .5 4 10.7 3.5 14.6 3.8a37.8 37.8 0 009.6-.5c1.5-.3 8.7-.5 9.7-1.9 1.7-2-.7-4.3-1-6.3-1.3-6.7 3.5-13 5.7-19.6 11.5-33.5 15-69 16.6-104.2a99.3 99.3 0 01-13.3 7c-5 2.1-7.2 1.6-9.1 5.7-2.2 4.8-2.3 10.6-4.6 15.5a44.2 44.2 0 01-9.7 13.6c-18.1 17-47.3 11.9-60.4-8.4-13-20.3-13.8-52.6-4.3-74.4a33.3 33.3 0 0122-19.5c4.5-1.4 28.5-7 32-2.3l.5-3.7c-8.1 4.5-17.5 2.5-26.1 1.4-8.1-1-15.7-.3-23.8.7-8.1 1-16.3 2.2-24.5 1.5-2.6-.2-23.4-5.9-21.8-8.2"/><path class="cls-2" d="M220.3 230c-8.8.5-17.5-1-26.6-.5-5.5.3-11.5-2-13.5 4 7-.6 19.8-.6 24.5 5.8 2.9 4-.2 7 0 10.3.1 6.1 3.6 11.6 3.1 18.2 7.9-7.3 5.4-2.3-.3 2.4-4.6 4-10.8 6.5-16.6 9-6.2 2.5-15 5.3-19 11.3-6.7 9.7 5.2 15.5 13.5 16.1 18.5 1.4 44.9-12.2 53-29.4 4-8.6 3.7-18.6 2-27.8-1.3-7.4-6-14.5-7-21.7a59.3 59.3 0 01-13 2.3M51.2 216c-2.6 0-6.7 2.6-6.8 4.2-.1 3.3 8.6 2.8 6.3 5.3-2 2.3-7.4-3.5-8.2-4.7-2.7 2.6-2.5 5 .2 7.5 1 .9 6.2 1.5 5.6 3.3-1 2.7-7.3-1.8-8-2.7 0 5.6 9 6.7 12.9 8.4A31.7 31.7 0 0169 256.7c3.5 10.5 2.2 21.3 10 30 7.6 8.3 18.7 2.3 21.5-8 1.9-6.8-.5-14-3.3-20.2A72.3 72.3 0 0080 231.3c-5.8-6-20-15.3-28.8-15.3"/><path class="cls-2" d="M267.8 220a33.3 33.3 0 00-4.3.3.4.4 0 00.1 0 42.4 42.4 0 00-10.8 3 44.2 44.2 0 00-8.9 5 .5.5 0 00.2 0c-7.5 5.6-3.4 10-1.9 17.8 1.5 7.8 2.4 16.5.7 24.3a39 39 0 01-15 22.3c-5 4-4.2 7.1-4.5 13.5l-1 15.2a124.2 124.2 0 019.8-19.9c3.2-5.4 8.2-10.8 10.6-16.6 2.6-6.5 2.8-13.2 9.4-17.4a17.3 17.3 0 0117.5-.3c8.1 5 7.1 22.5-4.3 22.5a8.1 8.1 0 01-6.7-3.9c-3.5-5.6 3.3.8 3.7 1 10.1 5.2 15.3-14.7 4-19-13.6-5.1-21 8.7-22 20-2.9 30.8 35.1 38.2 52.1 16.3a49.3 49.3 0 005.3-9.2 66 66 0 00-1-49c-4.8-11.7-15.4-23.8-29.1-25.7l-3.9-.2"/><path class="cls-3" d="M108.7 118.6a26.7 26.7 0 00-26 32.8c2 8.9 6.4 10.6 14.1 11.6-14.1-14.2 2.5-38.5 20-38.3 20.3.2 24.4 26.2 13 39.3 10.2-1.4 10-13.8 7.6-22.5a30.7 30.7 0 00-28.7-22.9M226.5 121c-13.7 0-26.7 11.3-30.1 24.2-2 7-2 16.7 5.6 19.4-11.6-15.7 4.8-40.3 23.3-39.2 19.5 1.2 23.5 28 13.2 40.9a17.2 17.2 0 005.9-2.9c14.5-11.2 1-40-15.1-42.1q1.7.3-2.8-.2"/><path class="cls-4" d="M181.9 243c-8.2 0-20.6 1-26.3 8-7.6 9.6-2.9 28.8 4 37.7a.8.8 0 00-.2-.1 27.8 27.8 0 008.5 7.3c1-16.7 26.6-16 36.3-25.2 4.7-4.5 2.1-16.6-1.4-22-3.7-6-14.2-5.7-21-5.7M47.6 178.7c-14.3 2.4-24 7.9-21.9 24.8a69 69 0 008.3 24.2c4.4 7.8 16.1 20 26.1 17.9-5.5-6.8-19.6-7.5-21.6-16.3C36 218.5 48.9 212.8 57 216c5.6 2.2 10 6 15.3 8.3 3.7 1.5 3 2.3 5.6.1 1.5-1.2 2.8-5 3.5-6.8 1.2-3.3 3.8-10 1.6-13.2-2.2.5-5.7 3.2-8 2.9-4.6-.6-2.8-3-3.7-6.1-6 1.2-6.1-1.7-6.9-6.2-.2-1.2-1.4-3.2-1.3-4.4.3-2 2.9-4 2.7-6-.6-5.4-14.3-6.5-18.3-6"/><path class="cls-5" d="M116.7 126.4c-12.7 0-25.1 12.8-23.2 25.8 1.8 12 13 12.4 23 12.6 7 .2 11 1 14.7-5.3a25 25 0 003.1-9.5c1.5-11.5-5-23.6-17.6-23.6M224.3 127c-7.6 0-14.6 4.6-19.1 10.5-6 7.7-9.8 26.9 4 28.7a.5.5 0 00-.2 0c8.3 1.2 23.8 4.5 29.2-2.2 9.6-11.8 3.2-37-14-37"/><path d="M155.4 160.5c-6.2 1-7.3 6.4-2.4 9.6 3.8 2.4 16.1 2.7 19.8-.5 9.2-7.8-13-9.6-17.4-9" fill="#eea47d"/><path class="cls-5" d="M47.3 170.6c-8.2 1.1-17.8 5.4-19.5 14.5 7.7-7.5 30.5-13.4 38.7-3 4-11-12-12.4-19.2-11.5M185 235c-10.2 0-40.3 4.4-32.8 20 .2-.9 2.3-9 3.2-5.3 11.3-10 30.8-10.8 44.7-6.2 0-2.6 3.7 1.7 3.8 2 4.8-8-14.7-10.6-19-10.6M181.4 219c-4 .9-4.8 12.1-5.2 15.1 2.2-.3 10.1-15.4 5.2-15.2"/><path class="cls-3" d="M157.3 183.8c-8.2 0-1.3 12.6 5.7 9 1.8-1 3.8-5 2.3-7.2-1.2-1.6-5.9-1.8-8-1.8"/><path class="cls-7" d="M79 73.2c-10.2 0-8.1 14-5.7 20 .6 1.7 2.7 7 5 7.7 3 1 1.5-.4 4.4-2 3.3-1.9 13-7 14.6-11.4 2.5-7.2-12.5-14.3-18.3-14.3M272.4 76.1c-5 0-17.5 4.2-17 10.5.3 2.4 12.4 18.6 15 18.8 7.1.5 16.1-29.3 2-29.3"/><path class="cls-8" d="M283.7 158.2c-4.7 0-10.8 3.8-15 5.4a128 128 0 01-19.8 6.6c-14.9 3.4-28.3 1-43.1-.5-6.5-.6-13-.3-19.4-1.4-5.8-1-7.7-3.4-11.7-1a1.7 1.7 0 00.8 2.2 8.7 8.7 0 01-4.2 2.6c-3 1.1-6.6 1-9.8 1-.5 0-13.5-3.6-12.3-4.3a2 2 0 00-.6-3.4c-1.6-.5-3.6 1.5-5.3 1.8-6.2 1.3-13.7.8-20.1 1.3-8 .7-16.2 1.3-24.3.5-8.9-1-17-4.7-25.7-6.4-7.6-1.5-15.8-2-23.2.7-1.5.6-14 6.3-6.8 8.4.6.1 7.5-3 8.7-3a23.2 23.2 0 018 1c7 2.3 9.7 6.7 7.8 13.6-.7 2.7-2.6 5.1-2.9 7.8-.2 2.4.7 7.5 3 8.8 1.1.7 3-1 3.8-.4 1.4 1 .5 2.3 1.5 3.3.6.7-.3 2.2 1 3 1.4.8 3.8-.8 5.4-1.1 5-1.2 5.4-.8 5 5.3A42.6 42.6 0 0181 222c-2.6-.7-2.2 2-1.9 3.2.6 2.5 7.2 5.3 9.3 6.2A48 48 0 00108 234c13.4-.4 26.3-4 39.7-2.6 7.2.8 14.3 2.6 21.5 1 7-1.6 6-3.4 7.7-9.4 2.8-10.2 10.6-5.1 7 2.9.3.1-3.8-.9-3.4 1.6.6 3 5.1 2 7.3 2 8 .2 16.3-1.2 24.2-1a82 82 0 0052.6-18.6.4.4 0 00-.2.1 46 46 0 0017.8-25c.8-3.2 3.9-27 1.5-27m-159.5 49.2c-1.4 0 4.8-10.3 5.4-12.2 1.4-5 .9-9.3-.4-14.1a30 30 0 00-3-8.3c3.3-.5 4 5.7 4.7 8.5a26 26 0 011 11.9c-.3 2.6-3.5 14.2-7.7 14.2m83.8 6.4c-8 0-15-10.8-16-17.7-.9-6.6 4.7-22.4 12-21.9a27 27 0 00-9.8 14.7 18 18 0 002.3 14.3 19.1 19.1 0 006.1 6c.6.4 8.7 4.6 5.4 4.6m-68.4-26.5c-2 0-5.5-.4-6.8-2.3-1.1-1.7-1.5-8.3.7-8.6.7 0-1 5.3-.2 6.7 1.2 2.2 3.8 2.7 6.3 2.6 4.8-.1 9.5-3.2 14.1-3.7 8.5-1 16.6 3.7 25 4.2a15.6 15.6 0 008.4-1.5c1.2-.5 6-6.2 5.5-6.2 3.8.1-3.1 6.8-3.7 7.2a15.9 15.9 0 01-8.7 2.4c-4.7.2-8.8-1.1-13.4-2.2.2 13.4-17 10-14.2-1.8-4.3.4-8.6 3.2-13 3.2"/><path class="cls-8" d="M167 233.3c-11.3 0-24.3 1-34.1 7.2-11.7 7.3-15.7 22.6-17.2 35.4-2.9 24.5 1.2 58.3 26.8 69.8 26 11.5 52.4-7.7 56.8-34 .6-3.9 1-4.3-1.1-5.2.4.2-8 2.2-8.9 2.3a30.3 30.3 0 01-8.6-.7c-6.2-1.5-8.4-4.6-12.2-9-3.5-4-9-7-12.2-12.4a41.7 41.7 0 01-5.3-19.9c0-3.1 1.2-6.9.8-9.9-.3-2.4-2.4-4.5-2.1-7.4.6-6.5 7.3-10 12.7-12 1-.4 12.4-2.1 12.4-2.9 0-2-6.9-1.3-7.8-1.3M259.2 265.8c-10.7 2-15.6 13.8-16.2 23.5a32 32 0 002 14.1c.6 1.3 9 12.8 10.3 9.8a60.1 60.1 0 01-9.6-14.7c-1.6-7.2-.8-15.9 3-22.4 3.2-5.4 9-9.4 15.6-8.3a9.1 9.1 0 014.8 16c-5 4.6-5.1-.7-9-1.1-4.8-.6 1.6 5.9 5.2 5.7 14.6-.6 11.2-26-6-22.6M253 311.4z"/><path class="cls-5" d="M180.1 226.2c-1.6.5-4 6.3-1.5 5 1-.5 3.8-5.6 1.5-5"/><path class="cls-5" d="M180.8 224.6c-.7 1-5.5 8.3-1.5 6.5 2-.9 3-8.8 1.5-6.5"/><path class="cls-5" d="M182.3 222.2c-1.4.4-7 9.8-3 8 1.2-.4 4.8-8.5 3-8"/><path class="cls-1" d="M47.7 153c.9-1.8-27.2 56.7 1.6-3.5l-1.6 3.5M145.7 65.1l4.2-.4-4.2.4M305.5 281l-.6 3.1.6-3.2"/><path class="cls-9" d="M76.6 61c-16.5 0-10.3 27.1-8 36 1 4.3 3.4 9 4.1 13.3.7 4.4-.9 5.1-4 8.8A169.2 169.2 0 0051 143.7a91.7 91.7 0 00-6.5 14c-1.2 3.1-1.4 8.8-3.1 11.5-.6 1-2 1.5-4.2 2.6-7.6 3.8-9.4 8.4-11.1 16l-.8 1.9c-7.3 17.1 7.4 46.4 22.9 54.3a29.7 29.7 0 003.3 1.3c2.4.9 7.8.4 9.6 1.4 4.7 2.6 7 13.8 7.8 18.4a51.7 51.7 0 006.2 19.3 24.2 24.2 0 003.4 4.4l1.3 1.2c4.3 3.5 4 2.6 3.5 8.5-3.6 36.1 4 74 18.7 107 1 2.6 6.7 10.3 6.3 13-.4 2.9-5.5 4.9-3.4 9.2 2.1 4.5 5.2 1.4 8.8 2 3 .3 5 1.1 8 1.1 2.7 0 4.5.8 7.7.3 3-.6 11 .2 12.9-2.2 2.7-3.6-1.3-8.1-2.4-11.4-1.1-3-1-5.5-.9-9 .4-13.4 2.7-27.8 1.5-41.8 6.9 5.2 17.7 5 25.6 2.5a221 221 0 00-1 33.4c.3 5.2 2 11.2 1.7 16.2-.1 2-1.4 4.1-1.5 6-.3 6.4 10.6 6.1 15.8 6.2a55.2 55.2 0 0010-.5c1.8-.3 8.9-.9 10.2-2 3.3-2.8-.3-7.4 0-10.8.4-4.3 3.7-9.5 5.2-13.7a258.5 258.5 0 007.3-25c4-16.6 4.7-33.4 8-50 2.7-14.5 12.7-28.8 20.6-41-1.7 20.6 14 33.3 33.9 30 20.1-3.3 30-22.8 31.2-41.7 1-19-5.5-40.6-21.8-51.9-12.7-8.8-39.5-7.3-47.3 8.5a22.5 22.5 0 00-3-5.8c26.9-8.4 49.6-27 50.7-56.6a137.7 137.7 0 00-3-33.7c-1-5-4-11.3-3-16.3 2.6-13.4 28-60.4-5.2-57.3-6 .6-12 2.9-17.5 5.3q-4.4 2-8.6 4.2c-2.3 1.3-7.5 6-9.8 6.1-3.4.4-11.2-5-14.7-6.2a171.5 171.5 0 00-20.9-6c-27.3-6-72.7-11-93.3 13.2C102.2 71.6 88.6 61 76.6 61M74.9 112c-4.3-11-12.8-33.2-5.5-44.7 7.1-11.4 26 2.7 32.8 8.2 2.4 2 5.2 6.1 8 7.6 2.5 1.2 1.2 1 2.6-.4 0 0-1.5-1.3-1.5-1.5 1.1-2.4 4.3-5 7-6.8 8-5.4 18-7.9 27.4-9.2 22-2.8 45.3-.5 66.6 5.6a143.8 143.8 0 0119.6 7.2c3.7 1.7 12.4 8.9 16.2 9.1 6 .4-5.8-6.3-7.5-7.2 9.5-7 23-14 35-14.5 16.3-.6 14.4 16.5 11.6 27.8-2.8 11.5-7.7 22.2-12.4 33-3.9 8.8.6 4.4 3.6-1.9 5.2 22.4 11.8 52-1.3 72.7-7.4 11.9-21.3 20.1-33.8 25.7a72.7 72.7 0 01-19.5 6c-1.7.1-17.1-.4-17-1-1.2 4.7 25.4.4 26.7 0-.2 2 2.2 5.8 3 7.6a78.3 78.3 0 014.4 17.4c1 6.7 1.1 15-1.5 22-6.8 18.3-33.3 32.4-52 32.1-7 0-19.5-3.4-17.3-12.7 2-8.2 14-12 20.7-14.8 5.8-2.4 12-5 16.7-9 5.4-4.5 8.4-10 .3-2.4.5-6-1.6-10.8-2.5-16.5a10.2 10.2 0 01-.1-4.6c.3-3.3 2-4-.5-7.4-4.6-6.3-17.7-6.5-24.5-5.7 1.6-3 9.8-19.1 0-16.3-3.4 1-4.2 8.9-4.8 11.8-1 5.4.5 3.7-4 5.9-1.8.8-4.2.9-6 1.4-10.6 3.3-16.3 7.9-14.4 19 1.4 8.5-.5 17.2 2.9 26a31.8 31.8 0 005.8 10c1.7 1.8 3.5 3 5.4 4.6a29.2 29.2 0 013.8 4c14.1 16.2 37.8 6.7 53.2-3.2A397.6 397.6 0 01209 390a195.6 195.6 0 01-7 20.7c-1 2.3-3 4.7-3 7.3 0 2.5 3.2 5.5 2.1 8-1.2 2.9-3.7 1.2-6.4 1.6-2.1.4-3.8 2.2-5.8 2.4-1.7.2-5-.7-7-.8-2.5-.1-14.1.2-15.3-2.4-.4-1 1.4-3.1 1.6-4 .7-3.8.4-5.6-.4-10-1.7-9-1.7-18.3-1.4-27.5l.7-11.6c0-1.2 1.1-5.7 1.2-5.3 0-.5 1.7-.2 1.2-1.2-.4-.8-11.2 2-11.7 2-4.6.1-10.4-.2-14.4-2.8-.3-.3-6.3-5.3-4.1-5.8-.6.1.7 19.8.7 20-.2 10.5-2.5 20.5-3.2 30.8-.3 4.5.4 4.7 2.3 8.4 1 1.8 3.2 4.5 2.6 6.7-1 3.5-3.4 1.6-6.2 2-5.8.9-11.6 2.1-17 1l-2.3-.6a56.5 56.5 0 01-6 .1c-8.3-1.4-.6-8-.6-11 0-2.8-3.9-8.5-5-11.2A265.4 265.4 0 0192.8 374c-7.5-26.1-11-54-7.5-81.2 8.4 2 16.2-9.3 17-16a34.2 34.2 0 00-2.1-16 78.4 78.4 0 00-22.5-33.6c3.1-2.5 10.5-19.5 6.3-23.3-2.2-2-6.2 2.8-8.8 2-3.7-1.3-.3-3.3-2.3-5.4-1.8-2-3.5.5-5.6-.8-1.8-1.2-2.7-6.7-2.5-8.6.4-3 2.6-5.7 3.3-9 2.9-13.8-15.4-14.8-25-12.4 1.4-3.4 1.1-6.8 2.4-10.6 3-9.3 8-18 13.7-26 1-1.4 23.6-28.6 23.1-29-.5-.6-6 6.2-7.4 7.8zM28 185c2.2-12.1 17.7-15.8 28-14.6 6.1.9 13 4.2 10.6 11.5-7.5-10.5-31.4-4.2-38.7 3.1m17.3-6c4-.6 20-1.1 20.8 5.6.2 2-2.4 3.4-2.7 5.4-.1 1.5 1.1 3.2 1.3 4.6.8 4.5.7 8 6.9 6.5 1.5 8.7 5.1 4.8 11.7 3.2 2.3 2.6-.5 10-1.5 12.8-.7 2-2 6.4-3.8 7.6-2.3 1.7-2.3.8-5.4-.5-10-4.4-19.6-15.2-30.1-5.5-15.1 14 11.4 19 17.8 26.8-19.4-1.2-29.9-21-33.5-37.8C23 192 28.7 181.3 45 179.1zm5.2 46.6c1.9-2-4.8-3.5-6.3-6.2 7.7-5.7 13.3-2.3 20.9 2 8.8 5 17 9.7 22.7 18.6 7.9 12 21 34 8.2 46.3-12.8 12.4-23.3-5.8-24.6-18l-1-6.7a39.4 39.4 0 00-9.7-19.3c-5-5.3-18.1-6-20.2-13.5.9 1.2 6.1 4.9 7.4 3 1.7-2.2-4.1-2.6-5.4-4-2.3-2.6-2.4-4.5.2-7a9.7 9.7 0 007.8 4.8m126 8.4c.3-2.7 1.3-15.1 5.6-15 4.3.1-3.3 14.7-5.7 15m87.4-13.8a35 35 0 018.1 0c13.8 1.9 24.2 14 29.2 25.5a68.2 68.2 0 014.6 35 52 52 0 01-9 23.3c-16.4 21-53.6 15.3-52.3-14.7.4-9.8 4.8-22.2 16.5-22.5 5.7-.1 11.5 2.6 12.6 8.6.8 4.6-2.7 12.7-8.4 12.3-1.2-.1-6.4-4.6-6.1-4.7-3 1.7 3.2 6 4.7 6.4 10.5 2.6 14.7-13.8 8.9-20.2-4.1-4.5-12-5.4-17.5-3.2-7.3 2.9-9.3 9.7-11.7 16.4-4.8 13.6-16 24.8-20.8 38.9l1-15.2c0-2.2-.5-8.6.5-10.5.9-1.8 5-3.7 6.5-5a37.6 37.6 0 0013.3-28.6 73.1 73.1 0 00-1-13.3c-.7-4-3.1-9-3.2-12.9 0-6.5 8.3-10.4 13.3-12.6a46.2 46.2 0 0110.8-3zm-88.4 16c4 0 35.2-3 28.7 9.2 0-.7-3-3.8-3.8-2-12.8-4-34.8-4.6-44.7 6.2-1-3.8-3 4.4-3.2 5.3-6.4-12.6 14.5-18.6 23-18.6m-15.7 52.2c-8.7-11.4-12.7-35.4 3-42.3 9.5-4.1 33-6.8 40 1.5 2.4 3 3.4 9.1 3.9 13 1.1 8.4-1.8 10.3-9.5 14-9 4.3-28.7 8.5-29 21.1a29.6 29.6 0 01-8.4-7.3zm43.7-42.2"/><path class="cls-9" d="M125.5 169.6c-.5 0 2.7 8.2 3.1 9.4 2.5 8.1 2.4 15.5-2.2 23-.9 1.3-5.3 5.6-1.5 5 4.7-.7 7.3-13.4 7.4-16.6.2-3-2.5-20.8-6.8-20.8M97.7 104.4c-2.9 0-18.5 4.7-17.4 9.1.7 3 2.8 1 4 0a41 41 0 017.3-4.3c2-.8 6.5-.4 8-1.3 2.6-1.7 2.6-3.5-1.9-3.5M240.1 112.5c-1.6 0-1.4 1.6-1 2.5.4 1 3.9.7 5 1 2 .7 8.5 6.2 10 6.2 3.2-.1.9-2.4-.5-4.2-3-3.6-9-5.4-13.5-5.5zM133.6 176.3c-1.8 0-1.9 6.3-1.3 7.5 1.2 2.4 3.2 3 6 3.2 4.7.5 9.6-2 14.3-3-3 11.4 14 15.5 14.2 1.8 4.5 1.1 9 2.5 14 2.2a15.9 15.9 0 008.1-2.4c.6-.4 7.5-7.1 3.7-7.2.8 0-4 5.4-4.7 5.8-2.8 1.7-5.5 2-8.7 2-8.2-.3-15.8-5-24-4.4-5 .4-9.9 3.4-15 3.8-2 .1-5.3 0-6.6-2-.9-1.3 0-7.3 0-7.3m29 16.4c-2.5 0-6.4.1-8.1-2-3-3.7 0-6.8 3.6-6.9 1.7 0 6.3.4 7.2 1.8 1.2 2 0 7.1-2.8 7.1M204.5 172.5c-5.5 0-11.3 13.1-12.1 16.9-2 9.3 3.9 21.1 13.6 23.6 7.3 1.8-3.4-3.8-4.8-4.8a18.8 18.8 0 01-7.2-18.7 28.7 28.7 0 012.8-7.2c1-1.9 7.7-9.8 7.7-9.8M157.3 159.1c-6.2 0-12.5 5.8-6.5 11.2 4.3 4 15.3 3.7 20.5 1.8 7.4-2.9 5.9-10.4-1.2-11.8a83 83 0 00-12.8-1.2m5.4 12.4c-4.1 0-14.5-.5-12.8-7 1.7-6.6 12.1-3.4 16.5-2.8 14.4 2 6.5 9.8-3.7 9.8"/><path class="cls-10" d="M108.8 117.3A28 28 0 0084.5 131c-4.4 7.7-6.9 25.7 3 30.8-.5 0-1.1-.4-1.3.2-.6 2.2 43.7 6.6 48.8 3.3 7.2-4.7 5.4-20.4 2.8-27a32 32 0 00-29-20.9M105 119a30.5 30.5 0 0132.1 21.3c1.9 5.7 2.8 15-.8 20.4-1.8 2.7-2.5 2.7-6.3 3.4 11.5-13 7.2-39-13-39.3-17.3-.2-34.6 24.3-20 38.3a42 42 0 01-4.4-.6c-8.5.5-11-12.8-10.3-19.7a26 26 0 0122.7-23.8m13.5 46c-8.1 0-18.3.8-23-7.1-4.4-7.6-1-17.2 4.4-23.3 11.6-13.2 31.7-9.1 34.5 8.6a33.5 33.5 0 010 6.9 26.1 26.1 0 01-3.1 9.5c-3.4 5.8-6.3 5.4-12.8 5.4M226.4 119.9c-16.9 0-33.7 16.9-32.2 34 .6 7.3 1.9 10.5 9.5 12.7 3.8 1.1 9.1 1.2 13.4 1.5 11.9.8 29.2 2.5 33.6-12.1 4.6-15.1-7.9-36.1-24.3-36.1m-10.4 3.4a29 29 0 0113.3-2c16.5 2.3 29.6 31 15 42.2a18.3 18.3 0 01-5.8 2.8c10.8-12.7 6-39.7-13.2-40.9-18.4-1-35 23.6-23.3 39.2-6.5-2.6-7.1-9.2-6.4-15.6 1.6-11.3 9.9-21 20.4-25.7m-7 43c-8.3-1.3-10.3-10.2-8.9-17.8 2.1-11 12.6-21.6 24.2-21.5 10.3.2 16.7 9.5 18 19 .7 5-.7 20.5-7.7 21.1-7.9 1-17.6.1-25.5-.9z"/><path class="cls-7" d="M235.9 172c-6 .6-17-.4-21.6 4.1-8 7.8 2.4 14.5 9.4 15.9 8 1.5 20.4 1.5 24-7.3 3.5-8.5-3.8-13.6-11.8-12.7M97 166.4c-6.3 0-21.4 2.7-19.2 12.1 1.5 6.6 13.4 7.4 18.8 8.2 20 3.1 19.2-20.2.4-20.3zm3.5 11.8c.7.2 0 .2 0 0"/><path class="cls-3" d="M97.7 124.3a14.2 14.2 0 00-9.9 7.6c-2 4 0 5 .7 7.7 1 4.5 0 8.3 4.1 12 3.6 3 7.8 3.4 12.2 2 18.3-6.2 11.2-32.2-7-29.3m3.3 6.4c10.2 1.8 10.5 14.7 1 17.8-9.5 3-12.3-9.4-5.7-14.6a1.9 1.9 0 00.4-2.6 8.5 8.5 0 014.3-.6M236.6 133.5c-16.5 1.6-8 23.5 4.3 24 10 .5 10.5-14.7 4.5-12.4-2 .8-1.6 5.5-4.3 6.3-3.4 1-8.8-5.8-9.1-8.4-.5-4.2 1.1-4.8 5.1-5.8 1.4-.4 5.5.8 5.7-2 .3-2.7-5-1.9-6.2-1.7m-2.5 13.3M206 142c-4 2.5 5 14 6.7 6.8.6-2.3-4-8.3-6.7-6.8"/><path class="cls-3" d="M212.3 142.9c-3.6 3.1-5.4 10.8.5 6 2.5-1.9 3.1-9.2-.5-6M122.2 138.8c-3.8 2.3 2.3 11 5.8 7.8 2.9-2.5-3-9.4-5.8-7.8"/><path class="cls-3" d="M128 141.3c-1.9 2.4-4.1 9.3 1 6 3.6-2.3 1.3-8.8-1-6M30.7 187.4c-2.6 2.7-.6 13 4 8.2 2.3-2.5.4-12.6-4-8.2M30.4 203c0 3 1.9 16.4 6 9.9.4-.5-1-9.5-1.3-9.9-1-1.4-4.6-4.3-4.7 0M158 250.3c-5.7 4.4-1.4 23 2.9 16.7 1-1.7 0-7.7.3-9.6.2-1.6 2.2-10.3-3.2-7.1M158.2 275c0 2.9 3 14.5 5.3 7.5.3-.6-1.4-6-1.8-6.6-.3-.5-3.7-5.3-3.5-.9m3.6 2M245.8 175.3l1 1c2.9 0-1-3.8-1-1M240 180.4c0 2.4 2.1 0 2 0 .1 0-2-2.5-2 0M234.3 176.3c0 3.4 3 0 3 0s-3-3.4-3 0M80 170.3c0 3.1 2.7 0 2.7 0s-2.7-3.1-2.7 0M86 176.5c0 4 3.4 0 3.4 0s-3.5-4-3.5 0M93.1 174.4c0 2.5 2.2 0 2.1 0 0 0-2-2.4-2 0M154.2 162.8a2.1 2.1 0 00-2.5 1.5c.9 3 5-2.2 2.5-1.5M160.3 162.6c-2.4 0 .4 4.2 3.8 2 3-2-3.7-2-3.8-2"/></svg>