<svg id="Layer_1" data-name="Layer 1" xmlns="http://www.w3.org/2000/svg" viewBox="0 0 323 439"><defs><style>.cls-1{fill:#ca896e}.cls-2{fill:#2c2c2c}.cls-3{fill:#b3835a}.cls-4{fill:#fff}.cls-6{fill:#ffbc91}.cls-7{fill:#ffb9b7}.cls-9{fill:#fad8bd}.cls-10{fill:#835947}</style></defs><path class="cls-1" d="M263 205H162l7 49.3c.3 2.8.1 13 2.2 14.7 2.2 2 13.8.8 16.7 1l60.6 3.5c3.1.1 7.9 1.4 9.9-.5 1.5-1.4 2.4-6.7 3-8.6L267 249l5.8-16c.7-2.2 3.3-6.4 3.1-8.7-.2-2.4-3.7-5.9-5-7.8z"/><path class="cls-2" d="M62.2 298c-1.8 1.2-1 11.8-1 13.8a123 123 0 001.4 17 160.4 160.4 0 009.5 35c1.9 4.9 26.8 58.9 30.7 57-.6.4-27.7-52.8-29.7-57.9a137.9 137.9 0 01-10-63.3c-.1.2.3-2.3-.9-1.6M134.4 351.9c-.2 10.3-.2 20.6-.9 30.9-.2 3-5 35.3-5.7 35 3.1 1.2 6.5-29.5 6.8-33.2.5-7.9.6-15.7.8-23.6 0-2 .6-5.3.1-7.3.6 2.4-1-5.3-1-1.8M101.8 426.2c-.7 3.7 5 7.4 7 3.4 1.3-2.5-2.3-.6-2.6-.8-.6-.2-2-.3-2.8-.7.5.2-1-4.5-1.6-1.9"/><path class="cls-2" d="M113.2 428.1a20.9 20.9 0 01-5.5.5c-1 1 5.2 4.2 6.1.9.2-.5.6-2-.6-1.4"/><path class="cls-2" d="M113.5 428.8c-1.3 0 2.3 3.5 4.8 2.4 1.3-.6 2.7-1.7.9-2.3-1.6-.6-3.4 1.5-5.7-.1z"/><path class="cls-2" d="M126.3 428.8c-2.4 3.1-5.9-.1-7 1-1.4 1.6 5.4 2.7 6.9 1.3.9-.8 1.3-3.5.1-2.3"/><path class="cls-2" d="M132.6 426.9c-1 4.4-5.3 1.1-6.1 2.6-1 2 5.3 1.8 6.4.5 2-2 0-4.7-.3-3.1"/><path class="cls-2" d="M128 416.7l4.2 11.8c3.1 4-1.2-13.7-4.2-11.8M101.7 420c-.2.7-1 9 1 8.3 1.5-.4-.8-10-1-8.3m1.1 6.2M134.3 357.9c-.9 2.3 9.7 4.8 11.6 5.3 1.3.3 21.5 1.8 19.7-.9 0 0-4 1.8-2.8 0a42 42 0 01-16-.5c-2.7-.6-10.3-4.7-12.5-4M165.5 355c-.4.5.3 4.3.3 4.5a.8.8 0 01.8 0c0-.2-.2-5.6-1.1-4.5"/><path class="cls-2" d="M166 362c.8 13.7.2 27.4 1.4 41 .1 2 1.1 16.7 3.4 14.7.8-.7-2.9-21-3-22.5-.6-11.4-.4-22.7-1.1-34l-.8.8"/><path class="cls-2" d="M169.3 416.8c-2.6 2.6-6.4 14.2 0 14.7 2.3.1 6.2-3.6 3-4.5-1.4-.4-2 2.3-3.6 1.3-3.2-1.9 1.2-7.8 1.2-9.7 0-.1 1.1-3.5-.6-1.8"/><path class="cls-2" d="M173 427.3c-1.2 0 2.7 3.9 5.5 2.7 2.7-1.2 2-1.8.8-2.2-2.1-.8-3.4 2.2-6.2-.5z"/><path class="cls-2" d="M179.5 427.8c-2 0 1.8 2.9 1.2 2.5 2 1.4 7.8-.8 5.7-2-.5-.3-2.6 1.3-3.7 1.2-1 0-2.5-1.8-3.2-1.7"/><path class="cls-2" d="M194.7 425.9c-1.2 0-2.2 3-3.9 3.3-1.3.3-4.3-1.7-4.9-.6-1.2 2.1 6.3 2.2 7.6 1.2 1-.7 2.2-4.5 1.2-4M246.7 261.6c-.8.9 0 7.5 0 8.9 0 4.1-.2 8.2-.7 12.3-.8 8-2.2 15.9-3.7 23.8a680.7 680.7 0 01-8.8 40.4 262.3 262.3 0 01-14.2 41.2 726.2 726.2 0 01-17.1 32.5c3 1.6 16.3-27.5 17.5-30a271.1 271.1 0 0015.5-46.3c3.2-12.7 5.6-25.4 8-38.1A247 247 0 00247 281c.3-3-.8-19-.3-19.5"/><path class="cls-2" d="M202.6 419.3c-1.5.4.6 6.6-2.2 8-2.5 1.4-3-1.4-4.8-1.2-1.7.2-1 1.2.8 2.4 8.4 5.6 8.3-9.9 6.2-9.2M165.2 203.2c-.3 0-.7.7-.9 1 1.8 0 .7-.6.9-1zM159.6 203.8a79 79 0 00-17.7 4.6 1 1 0 01.3.9c5.3-2.2 11.1-2.6 16.4-4.5 2-.8 1.7.3 2.6-1.2l-1.6.2M137.3 210.5c-10 5.2-22.3 16.6-21.8 29 .4 9.5 8.3 7.4 14.8 5.8a96.4 96.4 0 0121.2-2.7c5.6-.2 17.3 1.3 22-2 4.6-3.3-2.6-1.5-4.4-1.3-10 1.3-20.2.5-30.2 1.8-5 .6-13.4 5.2-18.1 3.8-8.6-2.6-1.3-16.7 2-21.2 5.6-5.6 9.7-10 17-13.4l-2.5.2"/><path class="cls-2" d="M167.6 203c-1.8.1-2-.2-3.1 1 9.3-.8 19.4-.2 27.4 5a1 1 0 01.8-1.2c-7.4-4.4-16.7-5-25-4.8M193.3 209.8c4.8 3.5 6.6 8 8.3 13.4.2.5 0 4.1 1.2 4.1q.7-.2.7-.7c-.3-5.1-3.5-17.7-10.2-16.8M256.6 208.7c-1 0 .5 18.1.5 20-.1 8.4-1.5 17-5.8 24.3a22.6 22.6 0 01-16 11.6c-3.1.6-12.7-1-13.1 1.7 15.7 1.3 28.6-3.7 34.1-19.2 2.5-7 3-14.7 2.8-22-.2-4.6.2-12.8-2.5-16.4z"/><path class="cls-2" d="M204 226.6c-9.9.9-21.3 3.5-28.5 11-6 6.1-8.6 18.3-.5 24 7.4 5.2 18.7 2.6 27.2 2.6 3 0 17.9 3.2 19.1.6-7.2-.7-14.6-2.1-22-2-8 .2-22.5 2.8-26.7-6.5-3.6-7.9 2-16.8 8.3-21.1 10.2-7 24.5-8.7 36.4-7.6-.3-.3-.4-.8-.7-1-.6-1.2-11.6-.1-12.6 0M219 227.3c0-.2 8.4 3.5 9.1 2.2.4-.6-8.4-3.6-9.2-2.2M181.7 183c-10.5 1.2-18.3 13.4-22.9 21.8-.9 1.6-1.9 2.9-2 4.9-.6 4.8.3 4.1 2.8 2.5 2.6-1.5 5-6.8 7.1-9.1a35 35 0 0114.4-9.2c2.9-1.2 8.4-2.9 8-7.2-.5-3.5-4.5-4-7.4-3.6m-16.2 13.2c3-4.3 13.8-16.7 20.6-11.7 3.5 2.6.4 5.4-2.7 7-5.7 3-10.8 4.2-15.6 9-3.7 3.6-6.5 8-9.9 12-1.4-3.8 5.7-13.6 7.6-16.3zm0 0v.1"/><path class="cls-2" d="M120 246.2c-2.5.1 2.5 23 3.1 25.1 3.7 13 10 26.2 20.7 34.9 23.2 18.8 51.6 2.8 58.6-23.5.6-2.3 4.7-20 .6-20.4-1.6-.2-1 11.7-1 12.2-2.3 21.8-20 44-44.1 37.4-14.6-4-24.3-17-30-30.3-1.1-2.8-9.9-35-7.9-35.4M182.1 241.6c-2.5.4-11.1 3.3-11.5 6.5-.3 2.3 5.7-2.6 4.2-1.8.5-.2 14.7-5.8 7.3-4.7"/><path class="cls-2" d="M182.3 251.3c-.7 0-13 4-11 5.2 1.5.8 12-4 11.9-4.4q-.3-.8-.9-.8M46.8 190.5c-1.2 1-1.5 3.5-2 5-6 15.5-13.3 40.3-.6 54.8 15.5 17.7 45.4-22.6 46.7-21.4-3.3-3.1-32.3 41.2-47 18.6-6-9.5-5.6-24-3.3-34.6a108.4 108.4 0 015.1-15.3c0-.1 4-9 1-7.1"/><path class="cls-2" d="M56 170a14 14 0 00-5 9.4c0-5.3-7.8-11.2-7.3-2 0-.4 2.5 14.8 3.6 14.7-.2 0-5.4-29.4 1.6-14.6.9 2 1.2 5.1 3 4 1.6-1 2.2-8 4.3-9.9.8 1.9-.2 10.8 1.7 11.4 2.2.6 5.6-7.3 6.4-8.4.8 2.4 0 4.8.1 7.2.2 3.5-.7 3.6 1.7 2.6 1.8-.7 4.2-6.1 5.8-1.6.6 1.9-2 4.7-2.8 6a33.2 33.2 0 00-3.8 9.3c-.8 3.2-3.8 20.9.6 21.6-.5 0 0-16.5.2-17.7a37 37 0 013.6-11.3c1.4-2.7 6.5-8.2 1.9-10.8-2.1-1.2-4.4.5-5.7 2.1.6-4.9.6-13.4-4.4-5.8-1 1.5-1.5 3.6-3 4.6 0-1.6-.4-12.4-2.5-10.9"/><path class="cls-2" d="M93.8 195c-9.3 4-18.3 5.2-25.3 14-1 1.2-5.6 8.4-2.1 7.3.5-.1 4.3-8 6-9 16.4-11.5 32-13 48.3-.3a1.4 1.4 0 01.7-1.7A35 35 0 0093.8 195M81.3 237.6c-1.7.6-4.2 6.4-5 8a105.6 105.6 0 00-8.5 20.4c-1.1 3.5-8.5 41.8-5.6 41.7-.2 0 5.1-36.2 5.6-38.2a106.5 106.5 0 015.9-16.6c1-2.3 6.9-15 7.6-15.3M49.6 104.2c-24.2 4-44 22.3-46.6 47.2a40.6 40.6 0 0011.5 33.2c2.1 2.1 28.8 19.2 30.2 13.5.3-1.5-6.4-2.1-6.6-2.1A48.8 48.8 0 0114 181.6C2 168 2 149 10 133.6c14-27.7 50.5-35 77.5-24.1 11.8 4.8 28.7 14.3 29.3 29.3 6.9-8.7-16.2-24.4-21.8-27.4a73.5 73.5 0 00-45.4-7.2M116.8 141.8c1.5.6 1-.1 0-1.4v1.4"/><path class="cls-2" d="M113.2 179.4A41.5 41.5 0 0193.7 195c-2 .9-29 6.8-28.5 4.6-.5 2 16.8.2 17.8 0a65.7 65.7 0 0014.8-4.8c6.4-3 13.8-7.9 16.5-14.7.3 0-.3-1.9-1-.7M122.5 140.3c-6.5 1.5 1.1 9.3 4 10 4.4 1 9.6-.5 14-1.2 10.1-1.5 23.7 6.2 33 1.8 2.3-1 7.4-10 3.7-9.2 0 0-1.4 4.8-.8 3.7-1.4 2.4-2.6 3.2-5.4 3.8-5 1.1-10.9-.7-15.8-1.6-7-1.4-12.8-.6-19.7.5-4.6.7-20 .2-11.7-8.1l-1.3.3"/><path class="cls-2" d="M141.8 147.8c-1 5.1-3.3 16.2 3.4 18.5 10.3 3.5 14.8-17 11.8-17.7-1.6-.4-1.5 20.7-11.8 16-3.4-1.5-3.2-6.6-3-9.7 0-1.4 1.2-5 .7-6.2.1.3-.8-3-1.1-1"/><path class="cls-2" d="M126.3 149.1c-1.6 0 2.6 34 3 35.8 3.7 13.6 17.1 25.4 28.3 10.9 8-10.3 10.9-24.4 14-36.6.3-1.5 2.8-9.6 1.9-9.9-1.1-.2-9.1 30.3-9.9 32.2-2.7 7-7.3 18.5-16 20-12 2-16.8-13.5-18.3-22.3a150.3 150.3 0 01-1.6-17c-.1-3.3.9-10.9-1.4-13zM151.8 127.6c-2.8-.2-17.5 3.8-11.9 7.3-1.4-6 10-6.7 13.8-6.3 4.3.4 13.6 3.3 9.6 8.8-2.7 3.8-10 2.4-13.8 2.4-2.3 0-7.7-.8-9-3.5a1.3 1.3 0 01-.8.8c3.2 5.2 19 5.4 23.2 2 7.8-6-4.8-12.4-11.1-11.5M255.2 125.5c0-1.3-26.4 4-28.2 4.5a105.2 105.2 0 00-22.8 10.1c4.5.4 12-5 17-6.9 5.6-2.1 12.8-5.1 19-5.1 9 0 18.1-2 27.7-.2 21 4 40.8 22.4 35.2 45.5-4.4 18.1-20.5 27.2-37 32.1-18.4 5.4-38.8 9.4-57.3 2.8 5.7 6 19.4 5.1 27.2 4.7a129.3 129.3 0 0021.3-3.4c15.6-3.6 31-8.3 41-21.8a36.3 36.3 0 00-1.5-45.4c-10.2-12.3-26.1-17-41.6-17zM203.6 206.8c-.7.6-1.2-.4 2 1.2a1.4 1.4 0 01.6-.7q-1.8-2.1-2.6-.5M201.3 142a47.8 47.8 0 00-13.9 12.3c.6.5 6-5.1 7.3-6.2a83.4 83.4 0 018.3-6c-.5 0-1.2 0-1.7-.2zM78.2 70.8a28.1 28.1 0 00-10.8 15.1c-1 3.6-2 17.3 3 18.9 3 1-.2-3-.5-4-2-6.2-2.5-12.1.4-18.3 9.8-20.9 40.2-20.9 54-4.5 9 11.4 8 28.2-1 39.5-2.3 3-5.5 4.7-8.1 7.3-.1.1-2 .8-2.2 1.2-1.2 3.1 7-2.8 6-2 14.1-11 18-33.6 5.9-47.6a35.9 35.9 0 00-46.7-5.6"/><path class="cls-2" d="M89.4 76.9c-9.4 5.8-14.9 17.4-9 27.7.3.5 1.9 4.3 3.1 3.5 2-1.2-1.5-4.5-2-5.7-10.8-23.7 31.2-39.2 41.9-16.2 5 10.8-.2 25.4-10.1 31.5-1.1.7-5.8 1.8-4.8 3.5.8 1.5 8-3.4 8.5-3.8 10.3-8 14-25 6-35.8-7.9-10.7-22.8-11.3-33.6-4.7M221.3 84.4c-10.8 2.3-21.5 9.9-24.7 20.9-2.6 8.5-1.9 25.1 6.3 30.8.7.5 7.7 3.5 7.8 1 0-1.3-2.5-.3-3-.6-10.4-5.4-12.9-19.1-9.8-30.4 6.5-23 44.4-29.2 56.5-8a29.8 29.8 0 013.8 15c0 4-3 8.3-2.8 11.9 0 1-1.1 1.9.5 1.6 2.3-.4 3.5-7.6 3.8-9.3a30.9 30.9 0 00-3.6-19.8c-6.8-12.2-21.8-16-34.8-13.1"/><path class="cls-2" d="M225.8 88.8c-11.9 2.4-19.1 15.1-19.5 26.5-.1 4.8.8 10 4.3 13.5.4.5 11.3 6.4 11.2 3.1 0-1-4.3-.8-5-1-5.2-1.2-8-5.7-8.9-10.8-1.7-9.9 3.2-21.9 11.8-27.3 9.7-6 23-2.2 29.3 7a26.6 26.6 0 014.8 17.5c-.2 1.5-3.7 9-3.2 9.4 1.5 1.4 4.4-7.2 4.5-7.9 1.3-6.6-.8-14.1-4.5-19.7a24.6 24.6 0 00-24.8-10.3M87 46.5A109 109 0 0064.7 68c-2.4 3-22.5 36.8-17.4 38 .7.2 5.2-14.3 5.8-15.8a99.4 99.4 0 0114.5-22.9c5.5-6.5 11.8-11.7 18-17.4-.2.2 4.1-5.1 1.6-3.4"/><path class="cls-2" d="M73.7 9.5c-7.6 5.1-7.3 18.8-7.1 26.8 0 2 1.8 27.8 4.2 27-.2 0-2.9-33.1-2.5-37q0-.1 0 0C69.6 13.9 75.4 5 87.6 13.5c5.6 3.8 13.9 16.4 21 16.9 5.4.3-6.8-8-8.6-9.5-6-5.3-17.7-17.4-26.3-11.4"/><path class="cls-2" d="M134.8 21.6c-2.2.4-27 5.8-26.2 8-.3-1 34.4-7.7 39-8A138.4 138.4 0 01191 25c24.5 6 44.5 18.6 65.2 32.4 1 .6 7.5 6 7.7 2.4 0-1.6-6.2-4.8-7.5-5.7-10.9-7-21.7-14.2-33.5-19.7a146.4 146.4 0 00-88.1-12.9"/><path class="cls-2" d="M286 45.8c-7.4.5-14.8 2.6-21.7 5.3-1.5.5-12.3 4-8.7 5.1 2.1.7 10.9-4.4 13.3-5.2 8.8-2.8 24.6-7.5 31.7 1 5.4 6.6.8 17.2-2.2 24a167.8 167.8 0 01-10 17.9c-1 1.6-3.3 4.3-3.4 6.2-.1 3.4 1 1.8 2.6.4 3.2-2.5 5.5-8.4 7.3-11.7a102.1 102.1 0 008.5-18.5c4.7-14.7-.7-25.6-17.3-24.5M288.8 97.7c0 .8 0-.9 0 0M288.8 97.1c0 .8 0-.8 0 0"/><path class="cls-2" d="M289 95c.3-.2 5.2 28 5.5 30.6.2 2.5.8 19.2 2.7 19.1 2.7 0-3.6-51.3-8.3-49.8M278.4 202.4c-5.2.5 8.5 2 3 1.2 5.1.7 9.4 1.2 13.9 4 7.3 4.4 12.5 12 16 19.5 8.7 18.7 12.8 48.6-1.2 66-14.2 17.4-41.5 18.8-51.8-3.4-7.1-15.4-.9-40.3 18.3-43.4 24.6-4 27.9 40.4 5.8 33.8-.8-.2-4-3.3-3.3-.4.6 3 8 3.9 10.5 3.3 11.6-2.8 11.6-20.9 6.6-29-11.4-18.5-33.5-7-40.2 8.8-8 18.8 3.8 43.6 25.2 45.4 27.1 2.2 39.5-25.4 39-48-.6-23.2-12.3-60.7-41.8-57.8"/><path class="cls-2" d="M255.4 284c-5 2.4-17.8 43.5-17.1 43.7.3 0 10-27.2 11.3-29.9.7-1.5 8.4-14.6 5.8-13.7"/><path class="cls-1" d="M77 9.7c-6.8 1.3-8.1 11-8.7 16.6a1 1 0 000-.2 103.8 103.8 0 002.5 34.7A110.7 110.7 0 0183 49.6c.6-.6 3-3.1 4-3 3.7 0-4 5.2-4.6 5.8a99.2 99.2 0 00-34.2 52 72.4 72.4 0 0121.5-.6c-7.1-11.3-1.6-25.7 8.5-33 10.2-7.5 24.5-8 35.8-2.6 22.3 10.7 25.5 49.2-.2 58.9 1.8 2.7 2.3 5.7 3.7 8.5 1.6 3.2.3 3 5.4 1.7 5.2-1.3 10.4-4.3 16-2.8-1-10.4 28.7-9 26.7 1.2 13.6-3.8 30.3 8.8 42.4 2.3-11.8-.7-13.1-19.3-12.3-27.7 1.2-12.2 10.7-21.3 22-25 11-3.5 25.4-2.3 34 6.2 8 8.1 11.8 24 5 34 14.6.3 29.5 4.8 39.3 16-1.6-14.7-1.8-29.3-6.7-43.2-1.3 1.9-4.5 6.5-4.3 1.8 0-1.8 2.6-4.8 3.4-6.2 3.8-6.3 7.7-12.5 10.6-19.3 3.2-7.5 7.6-19.9-1.6-25-11.1-6.3-29 1-39.5 5.6 1 .7 7.1 3.7 5.7 5.6-1.3 1.6-5.6-2.2-6.7-2.8-6-4-12-8.5-18.2-12.4a157.1 157.1 0 00-63.5-23.4A135.8 135.8 0 00143 22a140.4 140.4 0 00-17 3c-4 .9-12.4 5.1-15.6 5.1C97.9 30.1 91 7.6 77 9.7M236.4 128.8l3.8-.7-3.8.7M55.1 172.8c-3.5 5.1-2.2 13.4-6.2 4.7-.2-1-2-4.5-3.8-4-2 .7 1.3 11.7 1.7 13.1 1.3 4.8 1 5.8-1 11a80 80 0 00-6.4 24c-.8 12 1.6 35.8 19.1 31.3 8-2 14.9-8 20.8-13.5 1.2-1 11-11 11.6-10.5-.1 0-11 12.1-12.1 14.2a102.6 102.6 0 00-7.3 15 149 149 0 00-8.5 43.6c-2.3 32.8 9 63.4 24.6 91.8a512 512 0 0011.3 19.6c1.5 2.5 3.4 5 4 7.7.3 1.8-.6 3.8.4 5.8s-.1 1.5 2.3 2.4c-.6-.2 4-.4 3.4-.4-.4 0 2 .6 2.2.6.9.1 1.5-1.3 2.5-1.2.8 0 0 1.4 1 1.4 1.9 0 4.5.3 5.6.4.8 0 1.5 1 2.5 1 1.6 0 2.2-1.6 3.4-1.8 1.4-.2 2.7 1.4 4.5.6 5-2.1-2.7-9.7-3-12-.3-3.1 2.3-8.4 2.9-11.5a144.4 144.4 0 002.3-14.9c.2-2.2.9-39.9 2-40 1.4 0 .2 5 .5 5.8 1.2 2.8 7.2 3.8 10.4 4.6a42.7 42.7 0 0017 .7c-1.1 1.7 3.3-.4 3.9-1.1.9 13.6.3 27.4 1.6 41 .4 4 1 7.8 1.7 11.7.8 4.3 0 2.8-.8 5.8-.4 2-2.8 7.6.1 9.2.2 0 3.2-1.8 4.1-1.8.2 0 1.8 1.7 2.7 1.9 1.1.1 2-1 3-1s1.5 1.3 2.6 1.3c1.7 0 3.2-1 4.8-1 1.2 0 2.2 1.2 3.5 1 2-.2 2.2-1.7 3.6-2.2.9-.3.8-1 2-1 2-.1 2.2 2.7 4.8 1.3 3.2-1.8 1.4-6.4 2.3-8.9 2.2-6.6 8.3-13.2 11.5-19.5a241.3 241.3 0 0016-40.4c4.6-15.2 7.8-30.7 11-46.3.8-4.2 7.9-51 5.7-50.9 4.1 0-5 51.2-5.9 56 2.6-8.6 5.3-17 9.3-25 2.1-4.1 4-6 3.7-10.4-.2-3.4-1-6.3-.6-9.8 1.5-12.6 11.7-28 25.8-28 15.2 0 23.9 17 18.7 30.2-2.1 5.6-7 10.1-13.3 8.4-.5-.1-6.3-2.3-5.7-3.9.6-1.4 3.7 1.3 4.4 1.6 16.6 6.8 16.7-22.3 7.3-30-13.2-10.9-28.4 1-33.5 14.3a32.6 32.6 0 0010.8 36.8c13.2 9.7 30.2 4.4 40.6-6.8 19.6-20.9 11.4-68.4-10.3-85.2-11.3-8.8-25-6-37.2-1-2 1-2.7.5-3.5 2-.4 1 .8 5.3 1 6.3a101.4 101.4 0 01.6 10.8c0 7.8-.8 15.8-4.2 23-3 6.1-7.8 11.5-14.3 14-4.2 1.6-16.7.2-18.6 2.8-1.7 2.1-1.5 7.6-2.2 10.5a94.2 94.2 0 01-5.4 18.2c-12.8 29-47 48-77.4 34.7a62 62 0 01-33.2-39.3c-5.3-18.3-1.5-37.5 4.9-55 3.1-8.7 9-17.6 11.2-26.6 1-4.6-1-5-6-7.8-13.5-8-29.8-5-41.6 5a17.7 17.7 0 00-5.9 9.1c-.3 1 .6 4.8-1.5 2.9-2.5-2.3-1-12-.7-15a37.8 37.8 0 014.9-15.3c.7-1.3 5.3-7.8.7-7.9-2.2 0-4 6-5.6 3.9-1.1-1.8.8-8.1.1-10.3-1 1.1-4.4 9.2-6.6 8.3-1.5-.6-.8-9.7-1.5-11.3l-1 1.2m110.2 182.5c-.1-1.2 1.1 3.6 1.2 4.1a.8.8 0 00-.8.1l-.4-4.2"/><path class="cls-3" d="M173 240.6c-9.8 2.2-19.9 1.8-29.9 2.4-7 .4-15.5 4.8-22.4 3.8-1.7 7.7 2.1 19.6 4.4 26.8a67 67 0 0016.8 29c15.8 15 39.8 13 52.2-5.3a49.8 49.8 0 007.8-22.7c.2-1.6 1.3-7 .3-8.8-1.4-2.3-2.7-1.5-6.2-1.4-6.8.2-16 1.4-21.8-3.3-3.3-2.7-4.2-6.6-4.1-10.7 0-1 1-9.8 3-9.8M230 89.9c-22.2 0-32.5 43.8-8.3 41.9 7.4-.6 15.1-4.7 22.7-5.6 6.4-.8 8.5-1.5 9.4-8.9 1.6-14-9.5-27.4-23.8-27.4M104.5 74.5c-10.8 0-23.5 7.7-24.6 19.2-.7 6.5 2 11.4 7.2 14.3 6 3.3 12 5.3 17.5 9.5 3.9 3 4.4 2.9 8.7.2a26.4 26.4 0 0010.9-15c4-13.8-4.6-28.2-19.7-28.2"/><path class="cls-4" d="M98 66.1c-11 0-22.2 5.5-27.3 15.6a22.2 22.2 0 00-1.3 18c2.3 5.9 6.1 4.7 11.9 6.4-12-19 11.8-38.2 30.3-32.5 21.7 6.7 20.3 43.6-2.6 47.7 1.9 1.9 2.8 4.2 5 4.2 2.7 0 7-5.2 8.5-7 7.2-8.3 10.1-20.4 6.8-31-4-13.2-17.5-21.4-31.2-21.4M229.5 85.2c-17 0-32.4 11.5-32.4 29.1 0 6.7 1 19 8.6 21.8 5 1.9 9.3-1.7 13.9-3.5-24.9-1-11.3-42.1 8.3-44.2 18-1.8 36 20.8 24.4 37.1 8.5-.2 6-17.5 4.2-22.8-4.2-11.6-15-17.5-27-17.5"/><path d="M153.1 128.5c-1.6 2.8-11-1.8-13 4.5-1.8 5 6 6.5 9.5 6.8a.3.3 0 00-.1 0c3.6.6 14.8 1.1 15-4.5.3-4.6-8-6.8-11.4-6.8" fill="#eea47d"/><path class="cls-6" d="M170.2 203.7c-5.7 0-6.4 3.8-9.9 7.6-5.5 6.1-3.9-3.3-1.5-6.6-17 2.2-38 12.4-41.5 31.2-2 11.3 6.3 9 13.9 6.9 7-2 13.9-2.2 21.2-2.4 6.5-.3 15.9.8 22-2 3.5-1.5 6.6-5.4 10.4-7.1 4.6-2.1 9.7-2.2 14.2-4 3.9-1.7 3.9.6 2.4-5.2a21.9 21.9 0 00-8.1-12.3 39.3 39.3 0 00-23.1-6z"/><path class="cls-6" d="M183.1 184.1c-9.1 0-15.3 8.7-19.8 15.5-2 2.8-6.6 9.8-5.4 13 6-6.8 9.4-13.8 18.3-18.1 3-1.4 7-2 9.4-4.1 3.5-3.1 2.4-6.3-2.5-6.3"/><path class="cls-4" d="M146.8 148.4c-4 0-4.1.6-4.5 4.5-.2 2.3-.5 5 0 7.1 1.2 4.4 3.8 6.2 8.1 4 3.2-1.6 7.7-10.5 5.6-13.9-.7-1-8.9-1.7-9.2-1.7"/><path class="cls-7" d="M141.6 149c-4.8.7-9.7 2-14.6 1.3 1 8.2.7 16.6 1.7 24.8 3.6-4.6 11.3-5.5 16.7-5.4 4.3.2 17.7 1 20.5 5.3 2.5-7.7 3.5-16.1 6.3-23.7-4.9 1-10 .2-14.7-.8-.4 6-3.2 20.4-13 15.6-5.6-2.7-3.7-12.4-3-17.2zM129.3 179.2l.5 2.9q-.3-4.4-.5-2.9z"/><path d="M144.2 169.7a24.2 24.2 0 00-12 2.7c-3.8 2.2-3.5 3.2-3 6.9a.2.2 0 000-.2c2.3 13.8 15 32.6 27.8 15.4a44 44 0 004.2-7.2c.8-1.8 5-9 4.8-10.5-.7-6-17-7.1-21.8-7.1" fill="#e691a1"/><path class="cls-9" d="M61.5 104.7c-20 0-40.1 8.8-50.3 26.6-9.3 16.2-9.7 37 3.6 51.3 6 6.4 17.2 14 26.3 14 3 .1 1.8.9 3.7-1.1 1.2-1.4 1.6-4.2 1.6-6.1-.1-4.3-3.1-8.5-2.7-13 .7-8.3 5.6-1.2 7.3 3 .5-1.7 2.8-10.4 5.7-9.4 2.7 1 1.7 8.4 1.9 10.8 1.1-1 4.3-8.9 6.2-8.2 2.4.8 1.3 7.5 1 9.4 1.9-2.4 5.2-3.7 7-.7 2 3.1-5.5 14.8-6.2 18 8.7 1.7 14.9-1.2 22.9-3.4 10.2-2.8 15-8.1 22.7-15 .6-.5 2-3.1 2.1-.8.6 5.6-12.4 12.8-16.5 14.7a37 37 0 0123.6 10.5c-.5.2-1.7 5-2.2 6.2-3 6.6-6 13.3-8.6 20.1-5 12.5-8.9 25.7-9.3 39.2-.8 25 13 50.9 36.9 60.6 24.2 10 49.3.2 65.6-19a72.5 72.5 0 0015.7-33c.5-2.1 3.3-15.1 2.4-15.1a1.9 1.9 0 00-1.1 1.8l-2.3-.2a52.5 52.5 0 01-5.4-.7c-3-.4-6-.8-9-1 2.4 20.5-9.6 45.2-31 49.7-25.2 5.5-42.5-18.6-49.1-39.7a101.8 101.8 0 01-4-19.7c-.3-2.2.2-5.9-.5-7.8-.3-.8-2.3-1.5-2.9-2.5-5.7-10 7.2-24.7 14.4-29.9a32 32 0 017.4-3.8c1-.4 2.2-.2 3.2-.6.3-.1.8-1.7.3-1.5a60.6 60.6 0 0113.4-3.9c9.7-1.9 11.6-15.3 21-19.9 7.3-3.4 18.8 1.4 8.6 7.6-6.5 4-12.7 4.6-18.2 10.9a47 47 0 0126 4.7c-1.6.4-.3 1.7.2 2a12.5 12.5 0 002.2-.3 16.5 16.5 0 013.1 3 22.5 22.5 0 015.3 14.1c1 0 12.5-1.2 13-.2 2.5 4.4 1.8-1.5 1.2-3a43.8 43.8 0 00-9-15c22 7.8 52 2.3 72.3-8.4a41.3 41.3 0 0023-31c1.5-15.6-8.8-29.8-22.3-36.5-16-8-35.2-6.7-51.8-2.1a103.5 103.5 0 00-20.5 8c-5.6 3-10.6 1.1-17.1-.2-4.5-1-9-2-13.5-2.6a43 43 0 00-9-.5c-4 .3-3.2 1.1-5.3 2.6-5.2 3.6-18.5 6-23.9.4-2.3-2.4 1.2-4-5.7-4-2.4 0-16.7 2.8-18.1 4.7-.7-23.7-36.4-34.1-55.3-34.1m60.6 35.7l1.7-.4c-3 2.9-2.6 6.2 1 8.2 3.3 2 9.4 0 13-.5 3.6-.6 7.2-1.6 10.9-1.3 6 .4 11.7 2.8 17.8 3 2.7 0 6.1.2 8.3-1.7 1.5-1.4 1.3-4.8 2.2-5.5 1.8-1.5 1.5 1.6 1.3 3-.5 3.5-3.7 4.5-5 7-.8 1.6-1 3.7-1.4 5.4-3 12.2-12 56-32.9 43-12.3-7.7-11.8-27.7-12.4-40.2l-.2-4.5-.5-5.8a9 9 0 01-2.7-1c-2.1-2.8-4-5.2-1.1-8.7zm-4.8 2.1c-1 0-.5-1.9-.5-2.1 0 0 2.8 2.1.5 2.1m70.5 12c-1.5 0 5.4-6.5 5.8-6.8 2.7-2.3 6-5.9 9.4-5.6-2 1.2-13.9 12.4-15.2 12.4m17.7 53.5l-2-1c1.4-.9 2.7-.6 2 1M278 245c-9.2 1-16.5 8.6-20.4 16.5-.9 1.7-6.8 25.3-2.1 24-1.5.4 1.9-17.5 2.9-19.7 3-6.5 8-13 14.8-15.8 7.6-3.2 13.8.6 16.6 8 2 5 3.1 14.8-2.1 18.4-2.4 1.7-13.7-.9-8.8 4.2 5 5 13.7-1.8 15.7-6.2 5-11.3-2.2-30.7-16.6-29.3"/><path class="cls-9" d="M289 249.5c-2.3 1.3 4.2 10.5 4.8 12.4a17 17 0 01-1 14.2c-2.4 4-3.6 2.6-7 3.4-.7.2-1.8-1-2.6.2-1 2 2.2 2.8 3.5 3 8.4 1.7 12.8-9.6 12.5-16.3-.1-2.4-4.9-20-10.2-17"/><path class="cls-1" d="M219.5 263.7l-.6 1c.2.8 4.5.4 4.5.4 3.5.4-.4-2.3-4-1.4"/><path class="cls-1" d="M220 264.1c0 1.3 5.6 1.7 5.7.5 0-2-5.6-1.7-5.6-.5"/><path class="cls-2" d="M169.3 410.2c-.2-1.5 3.1 22.8-.4-2.6l.4 2.6M176.5 204c-2-.1 182.5 30 3 .4q-4.5-1-3-.4zM63.8 292.7c.2-1.6-3 25.6.3-2.7l-.3 2.7M87.6 109.6l2.8 1.1q-4.3-1.9-2.8-1.1zM129.3 179.2a10.5 10.5 0 00-.5-3l.5 3M240 128c1 0 2.3-.3 3.1-.4l-3 .5M194.7 148l2.7-2-2.7 2M289.3 194.5q0 .1 0 0l-2.3 1.8 2.3-1.8zM79.5 88a23.6 23.6 0 014.7-7 23.3 23.3 0 00-4.7 7M300 72l-1.5 3.7L300 72zM293 113.2q0 .1 0 0a19.5 19.5 0 00.4 3.1l-.4-3zM311.4 227.2l1.4 3.3-1.4-3.3z"/><path class="cls-10" d="M78.5 8c-10.9 0-11.7 16.3-12 23.9a121.6 121.6 0 001 18.5c.5 3.2 2.8 8.7 2.2 11.6-.8 3.5-7 8.5-9.3 11.7a94 94 0 00-8.2 14.5 81.8 81.8 0 00-3.2 8.3c-.5 1.4-1.3 7.2-2.2 8.3-1.9 2.1-10.4 3-13.5 4.4a52.5 52.5 0 00-30.5 50.4c1.7 20.7 20.4 37.1 40.7 39C38 213 34 232.2 42 246.9c9 16.7 27.5 2.9 37-5.8-28.2 43.7-19.1 100.9 3 144.6 5.5 10.8 13.2 20.9 18.2 31.9 1.3 2.8 1 4.2 1.2 7.3.1 1.3.2 3.6 1 4.6 2.3 2.7 3 .7 5.7.8 3.5 0 8 0 11.4.5 1 0 1.8 1.4 3 1.4 1.4 0 2.6-1 3.8-1.1 2.6-.3 6.3 1.2 7.6-2.8.8-2.7-2.7-6.5-3.5-9.2-1.7-5.9 2-14.2 2.9-20.8 1.8-12.9 2-26 2.2-39a51.7 51.7 0 0022.8 5.4c2.4-.1 10.9-1.3 5.3-2.5-2.4-.6-6.3.8-9 .6a50.5 50.5 0 01-8.7-1.2c-2.3-.6-9.1-1.5-10.4-3.4-.6-1 1.2-7-.4-7-1.3.1-1.7 34.6-1.8 36a145.8 145.8 0 01-4 25c-.5 1.6-1.6 4.2-1.2 5.8.6 2.6 3.5 4.5 3.8 7.6.4 4.5-.6 3.1-3.5 4a10.7 10.7 0 00-2.1-.6c-1.2.1-2.1 1.8-3.7 1.8-1 0-1.7-1-2.4-1.1h-2.6l-4-1.7c-2.8-.2-7.1 2.4-10 .4-1.4-1-.4-6.4-.7-7.6-1-5-6-11.1-8.6-15.6-16.6-28.4-32.8-61-31.7-94.9a174 174 0 016.1-43.6 104.3 104.3 0 018.8-21.1c.7-1.4 13-17.2 13.5-16.7-.6-.5-11.5 10.4-12.5 11.3a49.5 49.5 0 01-21.8 13.2c-12.8 2.3-16.4-13.2-17.1-22.6-.9-11.7 2-22.2 6.1-33 1.3-3.2 2.2-5.1 2-8.1-.4-3.7-2.1-7.3-2.6-11-.8-6.1 1.4-7 3.9-1.1 1.2 2.8 1 4.9 3.2 3.5 1.3-.9 2.2-7.7 4-9.5.7 1.4.6 11 1.6 11.3 2.6.6 5.6-7 6.6-8.3.4 1.4-.6 10.6.5 11 1.4.5 2.8-4.7 5-4.6 4.5.2.1 6.4-.7 7.9a36 36 0 00-4.5 12.7c-.5 3-2.4 15.1.3 17.6 2.2 2 .9-1.8 1.2-2.5 1.6-3.8 3-6.8 6.3-9.5 13-10.5 29.5-13.1 43.8-3.6 1 .7 4.6 4.4 5.8 3.9 2-.8-4.5-5.4-5.3-6-5.6-4-12-6.6-18.9-6.7 3.4-1.5 18-9.7 16.6-14.7-.7-2.3-6 5.3-6.7 6a53.4 53.4 0 01-41.1 13.2c.8-3.7 7.8-13.4 6.6-17-1.4-4-5-3.2-7.3-.3.2-1.7 1.3-9.2-1.3-9.4-2.1-.2-4.8 7-6 8.2 0-1.6.6-11.1-2.4-11-2.9.2-4.7 7.9-5.2 9.6-2.5-7-8.4-10-7-.4.6 4.8 4.7 12.3.7 16.6-4.4 4.6-19.8-4.7-24.8-8.5a39.2 39.2 0 01-15.5-28.5c-3-46 51.7-63.6 87.2-47.3 13.1 6 21.6 14 25.2 28 .1.3-.7 4 .9 3 3-2-2.6-13.4-3.9-15.2 10.5-3.8 17.2-17 18.2-27.3 1.3-14-6.4-26.6-19.3-32.2a35.5 35.5 0 00-34.5 3.2c-10.1 7.3-15.6 21.7-8.5 33a71.4 71.4 0 00-21.5.7 99.4 99.4 0 0134.2-52.1c.6-.5 8.3-6.4 4.7-5.9-5.2.7-13.2 11-16.3 14.3-2.5-11.1-8.9-65 16.8-47.3 6.3 4.3 12.2 14 19.6 16.1 4 1.1 4.6-.6 9.4-2a144.4 144.4 0 0121.9-5c28-4 56.4 1 82 13 11.4 5.3 21.9 12.3 32.3 19.5 1.4 1 8.2 6.8 10 6 3.5-1.3-3.6-5.1-5-6 10.6-4.5 28.5-11.8 39.6-5.5 11 6.1 3.1 22.2-1 30.3-2.4 4.8-5.2 9.4-8 14-1 1.6-3.3 4.4-3.4 6.2-.2 4.7 3 .2 4.3-1.8 5 14 4.8 28.5 6.7 43.2a52.4 52.4 0 00-39.3-16c7-9.9 3-26-5-34-8.6-8.6-23-9.7-34-6.2-11.3 3.7-20.8 12.8-22 25-.9 8.4.5 27.2 12.3 27.7-1.9 1-22.6 14.5-20.6 16.4-.7-.7 19.5-14.6 21.2-15.6a106.4 106.4 0 0131.6-10.7c17.8-3 39-1.4 52.6 12.3 16.1 16.1 13.4 40.3-3.4 54-16.9 13.8-46 18.8-66.7 17-1.7-.2-21-4.9-20.7-5.7-1.5 3 23.3 7.3 25.3 7.4 9.6.4 19.3-1 28.7-3.2.3 13.8 3 27.4-3.3 40.4-5 10.4-13.5 14.8-24.4 14.8-8.6 0-17.8-2.2-26-2.4-8.4-.1-25.7 3.8-29.7-6.4 2.4-1 8.5-1.7 10-3.4 2.7-2.8-9.2 1.3-10.5 1.8-1.2-5.2-.5-6.7 4-9.2 2-1 6.7-1.2 8-2.5.9-.9.8-1.1-.5-1.5-3.3-1.2-9 3-11.3 4.8 3.4-11.6 17-16.3 27.7-18 1.6-.3 28.8 0 28.1 1.2 1.2-2-22-3.1-24.6-2.9-.3-19.4-21-24.4-36.8-23.5 5.5-6.2 11.7-6.9 18.2-10.9 7.8-4.7 2.5-10.6-5-8.9a23 23 0 00-11.4 7.8c-2.9 3.3-5.3 10-8.7 12.4-2.8 2-9.4 2-13 3.1a57.2 57.2 0 00-15.7 7.6c-7.5 5.4-17 16.5-15.5 26.6.4 2.7 2 3.2 2.8 5.2a10.6 10.6 0 011.1 4c1.2 6.6 1.5 13.2 3.2 19.9 5.4 20.5 19.6 44.8 43.7 44.8 24 0 41.7-27.9 37.8-50.4 19.5.9 41.3 7.7 51.2-14.8 4-9.3 4.2-20 3.3-30a102 102 0 00-.6-5.2c-.6-4.2-1.5-3.3 1.6-5.3 3.8-2.3 11.3-3.5 15.6-4.5 40.7-9.2 54.6 64 34.8 88.5-12.6 15.6-36.7 19.5-49 1.6-10.5-15.2-6.6-41.8 13.1-47.7 23.1-7 31.9 34.2 13.2 34.6-1.8 0-14.2-5.4-5.5.2 10.6 6.8 17.6-7.3 17.5-16 0-9.1-5.4-17.4-14.3-20.4-10.1-3.5-19.9 2.8-25.5 11a36 36 0 00-5.8 13.5c-1 5.3 1.5 10.3.9 15-.2 1-2.7 4.3-3 5a96.6 96.6 0 00-5.2 11.3c-2.1 5.3-3.9 10.8-5.5 16.2 1-4.7 10-55.9 6-55.9 1.6 0-3.7 39.6-4.5 43.7-2.5 13-5 26-8.3 39a268.9 268.9 0 01-14.3 42.8 211.6 211.6 0 01-10.8 21.5c-1.7 2.9-4.2 5.8-5.6 8.9-1.1 2.3-.7 2.5-1 4.4-.5 2.6-.4 6.2-4 6.2-1.7 0-2.4-2.3-3.8-2-1.3.2-1.6 2.5-3 3-2 .9-3.8-.5-5.8-.5-1 0-2 1.2-3.2 1.1-.8 0-1.9-1.2-2.4-1.2-.3 0-3.1.8-4 .7-2-.3-2.7-1.7-4.3-1.9-2.3-.3-1.5 2.6-3.5.9-3.3-3 2.1-8.3 2.3-10.5.4-4.2-1.9-9.8-2.3-14-.5-4.5-1.2-48.6-2.7-48.6l.9 36.1a173.3 173.3 0 001.8 21.2c.6 4.3 0 4.6-1.6 8.5-.8 2-1.6 5.2-.7 7.5 1 3 1.7 2.9 4.1 3.1 1 .1 2.7-2.2 2.9-2.3.3 0 2.6 1.4 3.4 1.4a4.8 4.8 0 002.9-1 5.5 5.5 0 003.2 1.6c1.3-.1 2.8-1.2 3.9-1.2 3.2-.2 6.9 2.9 8.7-2.2 3 3.7 8.2.8 9-3.1.4-1.6-1-3.6-.7-4.7.2-1 2.2-3.2 3-4.2a120 120 0 004.7-8 233.3 233.3 0 0017.6-40.9c8.7-26.6 11.2-55.5 26.5-79.8 11.3 32.6 53.6 23.6 62.3-5.6 7.6-25.6-1.7-80-37-79 13.4-6.5 24.4-19.6 25-35a35.5 35.5 0 00-4.8-19c-3-5.1-3-8.3-3.5-14.3-.6-6.9-1.2-13.8-2.5-20.7a95.2 95.2 0 00-2.7-11.6c-1.6-5.3-1.4-5.7 1.4-10.5 5.6-9.7 17.4-28.6 9.5-39.9-7.7-10.9-27.7-4.3-37.4-.8-6.4 2.3-7.8 4.7-13.5 1l-6-3.8c-27.6-17.6-58.6-29.3-91.8-28.1a140.2 140.2 0 00-29.2 4c-4 1-7.9 2.3-11.8 3.6-4.1 1.4-4.7 1-8-1.6C98 19.7 89 8 78.5 8m2.9 98c-2.4-.6-7.7-.8-9.6-2-2.7-2-3.5-8.1-3.6-11.1a25.6 25.6 0 0112.7-22c13.9-8.7 33-5 43.4 7a33 33 0 013.8 6 33 33 0 01-2.2 30c-2.3 3.8-6.3 9.5-10.6 10.9-3.8 1.2-2.5.1-6.2-3.5 22.6-4.6 24.6-41 2.6-47.8C93.3 68 69 87.1 81.3 106m26.8 14.5A62.4 62.4 0 0089.8 109c-5.7-2.4-8.7-4.3-9.8-11-2-12.4 10.3-22 21.4-23.3A20.9 20.9 0 01125 99.1a27.5 27.5 0 01-7.8 15.6c-1.3 1.3-8.6 4.1-9 5.8m100.3 16c-12.7 0-12.8-24-10-32 4.7-12.7 19-19.6 32-19.3 12.8.4 23.6 7.4 26.8 20 1.5 5.5 3 20-4.9 20.3 12.3-16-6.9-38.9-24.4-37-19.6 2-33.2 43.4-8.3 44-3.8 1.5-7.2 4-11.2 4m-.5-16.3c-1.8-11.6 4.7-25.9 16.4-29.5 13-4 25.5 5.5 28.7 17.8 1.4 5.5 1.8 14.8-3.9 17.2-5.6 2.3-13.6 1.8-19.6 3.5-4.6 1.4-7.9 3-12.6 1.8-5.2-1.3-8.1-5.8-9-10.8zm-42.4 76.1c2.4-3.3 16.6-18.9 21.9-10.9 2.7 4.2-5 6.6-7.7 7.7-11 4.4-14.8 11.5-21.8 19.5-1.3-4 5.4-13.2 7.6-16.3m-93 4.5a51.7 51.7 0 007-.6c-5.4 3-11.6 7.5-13.8 13.6-.3-3.1-.8-7.3.2-10.3 1.4-4.4 1.6-2.7 6.5-2.7m85.4 13.3c2.4 0 5-6.9 7-8.6 3.8-3.2 10.8-1.8 15.8-.8 12.8 2.5 19 9.8 21.6 22-7.3.7-15.2 2.8-21.5 6.8-3.3 2-5 4.3-8.4 5.3-13.2 4-27.8.1-41.1 4-4 1.1-11 4.4-13.7-.4-3-5.1 2.3-14.5 5.3-18.7 8.2-11.3 22.6-17 36-19-1 1.3-4.3 9.4-1 9.4M122 247c7.4 0 14.7-3.6 22.2-4 9.6-.5 19.4-.2 28.8-2.2-5 6-4.1 17.2 2.7 21.4 6.2 3.8 15.4 2.4 22.3 2.2 5.5-.1 4.4 1.9 4.2 7.2a51.6 51.6 0 01-1 8 46.5 46.5 0 01-7 17.8 33.6 33.6 0 01-51.3 6.3c-16-14.3-20.5-36.4-22.2-56.8h1.3"/><path class="cls-10" d="M129 135.7c-4.6 0-10 6.7-8 11 1 1.9 2.7 1.7 3.8 3 1.5 2.2 1.5 5.2 1.6 8.4.7 12.1.1 27 7.5 37.5 19.8 27.8 34.8-25.2 37.9-37.4a30.4 30.4 0 011.2-4.7c1.3-2.9 1-1.3 2.7-3.9 1-1.6 4.3-5 2.7-7.5-1.3-1.9-2.4 4.5-3.6 5.5-4.1 3.6-12.4 1.4-17 .5-4.9-1-9.3-2-14.2-1.5-4.2.5-8.2 1.7-12.5 2-3.7.3-9.3.2-9.4-4.8 0-2.6 2.9-4.2 4.6-5.7-.3.2 4.7-2.4 2.7-2.4m17.7 29.2c-4.2 0-4.5-5.2-4.6-8.3 0-1.5-.2-6.8.8-7.9 1.2-1.1 5.7 0 7.1.1 2.9.4 5 .8 5.8 2.8 2 5.4-3.6 13.3-9.1 13.3m-17.2-14.4c4 0 8-1 12-1.6-.8 5.1-2.7 16 4.4 17.6 9.4 2.1 11.3-9.7 11.6-16 4.6 1 10 2 14.7.8-4 9.5-5.1 21-8.6 30.2-2.8 7.4-8.2 20.3-18 20-11-.3-15-14-16.3-22.3-1.6-9.3-1.2-19.4-2.3-29l2.5.3"/><path class="cls-10" d="M153.4 127.5c-4.5 0-13.3.1-14.5 5.7-1.4 6.3 7.5 7.4 11.7 7.7 4.3.3 12 1 14.3-3.8 3-6-7-9.6-11.5-9.6m-.7 1.3c3.2 0 11.7 1.3 11.8 6.1.2 6.6-13 5.3-16.7 4.7-5.4-1-12-5.4-4.5-9.5 3-1.7 6.1-1.3 9.4-1.3"/><path class="cls-4" d="M88.2 69.8c-4 1-6.7 3-8 6.5a1.8 1.8 0 001 1.6l-1 1.6c-.5 2.3-1.5 3.4-1.3 5.9.5 8.2 8.7 14 16.5 11.3 17.7-6.5 12-32-7.2-27m5.6 6.2c12 2 4.4 17.1-4.3 16.1-12.1-1.3-6.8-17.2 4.3-16.1M214.8 91.7c-2 .3-5 1.4-4.2 4 .9 3.2 5 1.3 7.3 1.7 5.5 1.2 8.5 6.5 5 11.3-3.6 4.7-12.2 5.3-14.7-.7-1.2-2.8 4-14.2-1.5-9-4 3.8-2 11.6 1.3 15 4.2 4.1 10.7 4 15.6 1a12.6 12.6 0 00-8.8-23.3M107.2 96.7c-1.8 6 2.4 16.3 9.5 11 6.2-4.6 3.1-12.8-3.5-6.4-.3-1-4-10.8-6-4.6M236.7 106.8c-1 3.8-.5 15.7 5.8 15 2.8-.3 6.3-7.2 5.8-9.6-.6-2.7-4.3-5.2-5.6-1.4-.3-1.5-4.3-10.4-6-4"/><path class="cls-7" d="M81.2 21.2c-9.7 0-10 28.7-1.6 26 3.9-1.4 12.6-8 13-12.6.3-5-6.1-13.4-11.4-13.4M283.6 55.6c-4 0-9.5 2-12.2 5-2.9 3.2-2 2.2.7 5.4 2.5 3 8.2 16.4 12 17.6 8.6 2.8 18-28-.5-28M59.6 109.5c-3.8.5-11.7 3.5-14 7.1-3 4.7.7 7.2 5 6.5 2.6-.5 5.3-2.6 8.2-3a28.7 28.7 0 019.9.4 49.4 49.4 0 0117.5 8.1c3.7 2.6 9.9 8.8 14.5 4.3 4.2-4.3-.4-8.7-3.9-11.2-10.5-7.6-24-14.3-37.2-12.2M237.1 132.6c-13 1.2-25.8 6-34.8 15.8-1.8 2-4.3 4.7-1.7 7.3 2.9 3 5.5-.3 7.8-2 5.3-3.8 11-6 17.3-7.8a60.7 60.7 0 0121.2-2.3c5 .4 13.6 5 18.5 2 6.7-4-.1-10-4.7-11.4a63.4 63.4 0 00-23.6-1.6"/><path class="cls-4" d="M127.5 250.5c-4 4-3.3 26.2 5.6 23.8 6-1.6 3.4-9.7 2.5-13.9-.7-2.8-2-16-8.1-9.9M136.7 282.7c-5.3 1.4 4.8 15.9 7 18 2 2.1 15.8 11.5 18.5 7.7 1-1.6-11.2-10.1-13-11.8a43.7 43.7 0 01-8.5-10c-1-1.5-1.6-4.6-4-4m19.3 20M274.7 207.5c-4.9.4 4.6 2.5 2.3 1.8 2 .6 4.3.4 6.4 1.2a33.5 33.5 0 0113.7 12.9 94.5 94.5 0 0114.9 38.4c0 .9.7 24.2-1.7 23.6 5.3 1.5 3.9-40.3 2.8-45.2-4.1-19.5-17.4-34.3-38.4-32.7m36.2 77.3zM78.5 250.7c-3 1.7-5.5 13.8-6.4 16.7a96.2 96.2 0 00-3.8 18.4 149.4 149.4 0 00.8 38.4 172.8 172.8 0 007.9 33.2C78 360 87 386 88 385.7c-2.6.7-12.5-48.8-13.1-53.6a194.3 194.3 0 01-.2-52.8c.8-5.9 1.5-11.8 2.7-17.6.3-1.2 3.8-12.6 1-11m-2.4 19s.1-.3 0 0M135.4 175.8c0 3.9 3.5 0 3.5 0s-3.5-4-3.5 0M51.4 115.3c0 5.2 8 5.2 8 0 0-5-8-5.3-8 0M59 126.2c0 3.7 6 3.7 6 0 0-3.6-6-3.8-6 0M73.2 121.7c0 2.6 4 2.6 4 0s-4-2.5-4 0M263.1 140.3c0 3.1 4.8 3.1 4.8 0s-4.8-3-4.8 0M253.4 150.8c0 3 4.5 3 4.5 0s-4.5-3-4.5 0M239.2 142.8c0 3.7 5.8 3.7 5.8 0s-5.8-3.7-5.8 0"/></svg>