<svg id="Layer_4" data-name="Layer 4" xmlns="http://www.w3.org/2000/svg" viewBox="0 0 323 439"><defs><style>.cls-1{fill:#2c2c2c}.cls-2{fill:#ca896e}.cls-3{fill:#fad8bd}.cls-4{fill:#b3835a}.cls-5{fill:#ffbc91}.cls-7{fill:#ffb9b7}.cls-8{fill:#fff}.cls-9{fill:#835947}.cls-10{fill:#815847}</style></defs><path class="cls-1" d="M93 289.5c.4 23.9-2.2 47 .8 70.8 1.5 11.8 5.1 22.9 8.4 34.2.7 2.6 9.2 27.4 11.9 25.2 1.3-1-6-12.7-6.9-15a226.5 226.5 0 01-10.9-44.2c.1.5 0-.4 0 .1-3.2-22.9-2.9-50.2-3.3-71.1"/><path class="cls-1" d="M140.4 360c-1.2 1.2.5 8.7.5 11a97.5 97.5 0 01-1.4 16.3c-1.3 7.8-3.6 15.5-5 23.3-.4 2.7 3 17 1.9 17.9-.8.5-12 .3-13 .2-1.8-.2-3.6-1-5.3-1.2-1.6-.2-4.5 1.1-5.7 0-2.3-2 3.6-9 1.3-9.8-1.1-.5-4.2 6.9-4.2 7.8.3 5.5 4 3.5 7.4 4 5.3.7 11.4 1.8 16.6.7 8.2-1.7 4-5.6 2.6-12.2-1.4-6.5 1.8-13.8 3-20.1 2-10.1 3.6-20 3.1-30.4 0-.3-.3-9-1.8-7.5m-4.1 68.5"/><path class="cls-1" d="M141 363c-2.2 3.7 24.6 7.5 23.3 3 .4 1.5-24.6-.9-23.4-3"/><path class="cls-1" d="M164.4 360.5c-.8 14.2.4 28 2 42.3.2 2.6 1.6 18.2 3.4 18 1.2-.2-1-10.4-1-10.7a342.9 342.9 0 01-4.4-49.6"/><path class="cls-1" d="M189.3 416.6c-1.2.3 2 6.6 2 6.7.4 4.8-8.9 4-12.3 4.2-2 .2-7.8 1-9.3.3-1.6-.8-1.5 1.3-1.8-2.4 0 0 3-7 1.5-7-1.2 0-3.8 8.5-2.7 10 1.5 2.2 3 .7 5.1.6 3.8 0 7.4 0 11.2-.5 2-.2 7.3 0 9-1.8 1.3-1.5.2-10.8-2.7-10.1M168.5 428c.2.1 0 0 0 0m0 0c.1 0 .1 0 0 0"/><path class="cls-1" d="M219.8 282.1c5.6 44.9-11.4 90.2-28.7 130.7 0 .2-3.2 6-.9 5.9 2.1-.2 8-15.2 9-17.2a221 221 0 0015.4-45.2 318 318 0 007.5-52c.2-3.3.4-6.7.3-10.1-.1-3.1 0-6.9-1.1-9.8 0 .2-1.7-4.2-1.5-2.3M102.4 131.7c-12.9 4.5-24.8 21.4-19.8 35 6 16.5 23.8 23.5 40.1 18.4 37-11.4 12.7-64.7-20.3-53.4m4.2 0c15.9-2.6 31.4 10.5 33.7 25.8a1.1 1.1 0 000 .2c6.4 25.8-31.6 33-47.2 21-16.5-12.7-11-36.4 7.1-44.9a27.2 27.2 0 016.4-2m6.8-.3M220.3 132.5c-14.5 1.3-28.8 13.3-30.1 28.3-1.3 14.5 11 24.5 24.7 24.7 16 .3 33.8-8 33-26.1-.7-15.3-11.5-28.4-27.6-27m-7.6 3.8c15.8-5.8 30 3 33 19.3 0 0 0 .1 0 0 2.2 12.4-3.5 21.2-14.7 25.4-16.6 6.3-42.7 1.2-38.8-21.9 1.7-10.7 10.6-19.1 20.5-22.8"/><path class="cls-1" d="M114.2 131.3c-19.7 1-19.9 37-3 43 9.8 3.5 23.6-.2 28-10.3.7-1.5 2.4-15.6-.7-15-.6.2.5 10.6.4 11.3-1.2 6-6 10-11.5 12-8 3-18.6 2-23.5-5.8-5.4-8.5-4.6-25.5 4.5-31.7 0 0 18.4-4.1 5.8-3.5M216.5 133.8c-7.5 1.6-11.8 12-12.6 18.7-1.1 9.3 5 16.4 13.3 19.7 7.8 3 16.6 1.7 22.6-4.3a20.7 20.7 0 005.7-11.5c.2-1.1.6-9.1-1-8.7.7-.2-1.4 13.5-1.6 14a20 20 0 01-10.7 9.8c-5.1 2-11.3 1.2-16.2-1.1.1 0-.1 0 0 0-7.4-3.5-12.3-10.1-10.8-18.6.9-5.5 3.5-11.2 7.8-14.9-.4.3 5.7-3.6 3.5-3.1M158.8 175.2c-3.6 1.7-8.4-1.2-10.5 4 2.6-.2 0 2.2.1 2.4.4 3 2.5 4.8 5.7 6 5 2 15 1.3 17.5-4.3-1.3-.6-2.6-2.3 0-2-1.1-2.6-10-9.1-12.8-6.1m-2.4 10.9c-11.7-2.3-4.6-10.6 4.2-9 15.2 2.5 6 10.6-4.2 9M193.2 189.1a30 30 0 01-17.4 14.6c-2.4.6-20.4-1-19.3-2.7-1.2 2 9.2 4.9 10.8 5a25.4 25.4 0 0014.4-2.5 26.7 26.7 0 0010.4-9.1c.6-1 3-3.8 2.5-4.7-.2-.3-.7-1.9-1.4-.6"/><path class="cls-1" d="M90 118.3c-19 21.1-46.6 47-41.4 78.4 2.7 15.8 14 26.6 27.5 34.1 7.2 4 15 7.4 23 9.2 1.8.4 9.4 2.6 10.8 1-1 0-6.6.5-6.6-.8 0-1.7.8-.3 1.2-.6-25.2-5.7-56.2-25-54.4-54-.9 0-1.9.5-1.7-1 0-.7 1.7-1.2 2-2.6.7-2.3.9-4.8 1.5-7.2a82.5 82.5 0 0111.9-23.7 426 426 0 0126.1-32.8"/><path class="cls-1" d="M80.4 83.6c-13.7 5-.7 47.2-.6 47.2 3.8-.9-19.4-58.7 11-44 6.6 3.2 12.8 7.7 19.2 11.6 1.8 1 5.7 4.4 7.5 4.2 4.2-.3-4-4.5-5-5.1-7.3-4.5-22.7-17.3-32.1-14"/><path class="cls-1" d="M173.5 85.3c-14.1 0-27.9 2.4-41.5 5.9-4.7 1.1-16.3 3-19.2 7.7-.8 1.3 0 1.2.8 1.1 1.8-.2 5.4-3.2 6.9-3.8 5-2 10.5-3 15.7-4.2 15-3.4 29.9-5.1 45.2-4.2a114.1 114.1 0 0139 9.2c3 1.3 14.2 8.4 16.7 6.7 2.5-1.6-3-3.6-4.4-4.2a174 174 0 00-18.4-7.5 121.7 121.7 0 00-40.8-6.7z"/><path class="cls-1" d="M262.7 86.4a66 66 0 00-23.4 8.4c-2.4 1.2-14.4 7.4-5.8 5 11.3-3.1 19.7-13.4 32.5-11.8 15.5 2 9 24.3 5.5 33.8-.3.8-8.6 18.5-7.2 19.4 2.3 1.3 12.5-28.9 13-32.6 1.7-11.3-1.1-23.6-14.6-22.2"/><path class="cls-1" d="M258 128.9c-.2.1 6.9 14.5 7.3 15.5a101.2 101.2 0 016.1 24.8c.7-.1 2-1.2 2 .5a3.3 3.3 0 01-1.7 2.1l.2 3.6c-1 7.5-.1 14.7-3 22-5.4 13-17.7 22.3-29.2 29.7-5.1 3.2-10.4 6.2-15.7 9.1-2.4 1.4-7 3-8.8 5.2-2.4 3.4-.1 1.5 2 1 7.2-1.3 16-8.3 22.2-12.2 12.1-7.4 25.4-17 31.4-30.5 5.5-12.2 4.3-26.7 1.3-39.4-.4-1.8-11-33.5-14-31.4M145.2 223c-1.6 0-3.2 0-2.5 1.6l8.6.1c14.4 2 18.8 13.7 2 17.2-6.2 1.3-26.9 3-32.2-2.7-4.2-4.5-.1-10.3 4.6-12.7.9-.4 8.1-2.1 8-2.5 0-1.5-18 3.6-16 13 2.7.2 0 1.3 1.3 2.7 2.3 2.5 5.3 3.4 8.6 4a65 65 0 0029-.3c5-1.6 11.3-6.6 9.7-11.9-2.1-7.3-15-9-21.1-8.5"/><path class="cls-1" d="M137 214.5c-5.6 1-3.1 15.8.6 18 2.6 1.4 4-4 5-7.8 1.3-4.7 1.1-11.4-5.5-10.2m-1.7 8.4c-.6-2.8.5-9.5 5-6 3.6 2.7-1 10.9-2.2 14a48.1 48.1 0 01-2.8-8M119.6 237.6c-2.6.3 1.8 15.6 2.2 16.7.6 1.7 6.3 13.5 5.8 6.5 0-.5-10.2-23-8-23.2M166.3 230.8c-.2 0-2.8 28.2-2.4 28.2 2.7-.2 3.4-17 3.5-19.2 0-1.9-1.2-9-1.1-9M181.4 221.5c-13.8 0-8 10.5-1 15.7 5.3 3.8 29.7 15.2 34.2 4.6 4.6-2.3-5.3-10-6.8-10.8-.2-.2-7.4-4-7.1-2.6.5 3.2 11.5 4 13 9.1 1.6 6-4.4 7-9.1 6.7a46 46 0 01-22.4-7.3c-4.4-3-13.3-11-4.4-14 2.6-.8 15.2 1.7 15.2 1.8a.8.8 0 00-.5-.9 27.5 27.5 0 00-11.1-2.3z"/><path class="cls-1" d="M194.8 221.7c-3.4 1.1-6.9 10.5-1.6 10.6 6.5.2 9.8-13.3 1.6-10.6m-1.7 4c2.5-7.4 12.3 2-1 5a27.3 27.3 0 011-5"/><path class="cls-1" d="M198.1 227.5c-.1.8 2.1 1 2.6 1.1 1.1.4-2.2-3.2-2.6-1M173 224.6a32.4 32.4 0 00-3 6.3c.6 0 .7 0 1 .4 0-.2 3.4-7.6 2-6.7M170.3 232.8c-3.3 1.4-6.4 23.4-3.3 24.4h.2c.7 0-.3-24 3.1-24.4M213.8 241.7a46 46 0 00-3.6 6.5c0 4.7-18.1 14.4-17.8 15.3 1 2.7 12.7-7 13.2-7.5 1.6-1.5 10.3-15 8.2-14.3"/><path class="cls-1" d="M99.3 239.2c-3.2 1.2-6 13-7.1 16.3a55.2 55.2 0 00-3.6 21.7c.4 3.4 3.5 12.4 6.4 12.4 8 4.8 17.8 3.1 26.4 1.2 3.1-.7 6.8-2.7 9.2-3.3 1.5-.3 5.7-.3 8.3-.8 12.2-2.4 33.9-2.4 40-14.4 9.2-17.8-25.7-15.1-34.2-14.6-5.2.4-15.2 0-19 4.2-4 4.5 4.8.6 7.2.2 10.8-2.2 28.7-6.1 39.4-2.4 8.8 3 8.9 11.6 1.6 16.5-8 5.6-19.5 6.6-28.8 8.3-16.7 2.8-56.6 19-55-11.4H90c.3-5.7 3.6-11.9 3.6-17.4.6-1.8 6.6-16.8 5.7-16.5m-9.3 34"/><path class="cls-1" d="M217.4 240.5c-1 .1-.3 1.8-.3 1.9a74.6 74.6 0 012.3 19.8c-1 15.3-12.2 25.6-26.2 30.6a51.6 51.6 0 01-26.3 2.5 32.3 32.3 0 01-13.8-5.8c-.4-.3-7.2-6.3-6.3-4.2 6.1 8.6 16.7 12.1 27 12.4 5.4.2 10.6-1.2 15.5-2.2.5-.1 1.3-2.5 1.8 0 12-3.6 24.2-11.4 28.4-23.8 1.1-3.5 1.7-31.7-2.1-31.2m2 21.7z"/><path class="cls-1" d="M218 270.4c-.5 1.7.3 14.8 3.3 13.8.8-2.4-1-5.1-1.5-7.7 0 .2-.9-8-1.8-6.1M196 261.7c-2.4 2-15.9 8-17 6.5 1.5 2 9.7-.7 11.2-1.3 1-.4 7.3-3.1 6.8-4.5-.2-.3-.4-1.2-1-.7M244.5 227.1c-1 .2-13.2 4.5-11.9 6.2.6.6 8.5-3.8 10-4.3a31 31 0 0112.6-1c7.7.9 14.9 4.9 20.2 9.9a40.2 40.2 0 019.8 43.5c-5.5 13.6-19.5 29.3-35.5 28.3-14.5-.9-29.1-21.3-20.7-35 6.3-10.3 28.7-8.8 21 5.7-.6 1.1-4.3 2.1-4.4 3.4 0 2.2 4.7-.4 5.4-1 9.2-8-4-20-13.3-17-24.3 8.1-9.8 43.7 10.7 46 23.3 2.7 42.8-26.4 41.5-47.1-1.4-22.2-22.3-43-45.4-37.6"/><path class="cls-1" d="M233.1 302.4c-4 2-18.7 27.3-14.6 29a214 214 0 019.3-19.2c.8-1.2 7.5-11 5.3-9.8"/><path class="cls-2" d="M217.9 275.6c-3.1 6-8.3 10.8-14.1 14.3-2.7 1.6-11.2 3.3-12.7 5.5-.7 1 .4 4.6.5 6 .6 13.3-1 31.1-12.8 39.4-13.6 9.4-35.3 8-46.1-4.8-10.8-12.9-10.5-33-3-47.2-11 2.8-24.2 6.7-34.8.9-.2-.4.4-1.3-.5-1.3-2.6 0 1 64.4 1.4 68.2a169 169 0 0015.6 56.8c1.2 2.2 2.8 4.2 2.6 6.5-.1 2.2-4.1 5.5-1.6 7.7.3.3 7.3.9 8 1 2.9.2 5.5 0 8.5 0 1.6 0 6.9.3 7.7-.5 2.8-2.5-1.8-8.2-2.3-10.8-1.8-9.3 4.3-23.4 5.7-32.9a93.9 93.9 0 00.9-12c0-2.6-1.4-9-.6-11.2.9-2.5 2 1.5 4 3 3.2 2.3 8.6 2.4 12.6 2.3 1.5 0 5.4.1 6.6-1 .5-.5.1-1.8.6-2.4.4-.5 0-3 .7-3-1.3 0 3.4 45.9 4.2 51.5.5 3.6 1.2 6.4.6 9.4-.7 2.8-3 5.5-.4 7 2 1.1 10.1-.6 12.8-.8 2.7-.3 10.6.4 9.3-3.7-.2-3.2-1.9-4.7-1.8-7 .2-5 5.7-11.8 7.8-16.7 4.6-10.5 7.9-21 11.3-31.8a276.6 276.6 0 0010.8-51.5 205.6 205.6 0 001.6-21c0-7-3.1-13.3-3.1-20"/><path class="cls-2" d="M251.4 227.7c-7.2 0-12.6 3-18.7 6.5-2.9 1.6-13 5-14.6 7.8-1.4 2.7 2.8 14 2.9 17.3.2 6-2.3 11.5-1.2 17.2 2.8 15.6 2.8 30.5.6 46.7 2.4-7.2 5.2-16.2 12-20.4-7.5-9.2-11.3-23.9-1.5-32.9 4.4-4 12-7 17.5-3.3 4 2.7 6.5 9.3 4.3 13.8-.4 1-7 6.8-7 3.4 0-1.3 4.4-3.1 5-5.2 4.8-14.3-14.8-12.5-20.5-5.5-7.8 9.6-1.2 24.4 7.1 31.4 9.7 8.2 22 5.6 31.4-1.5 20.9-15.7 26.3-46.2 6.7-65.1a36.3 36.3 0 00-24-10.2"/><path class="cls-2" d="M217.1 242.5c-3.6.9-4.2 4.5-6.2 7.4a56.2 56.2 0 01-18.8 16.2c-3.2 1.6-9.6.7-12 2.3-.9.6-1.8 5-3 6.2a17.2 17.2 0 01-4 3c-7.4 4.4-16.4 6-24.6 7.4 13.4 18.3 46 11.8 60.5-1.3 12.4-11.2 11.4-26.2 8.1-41.2zM165.4 250.8c-.4 1.2-1.1 10.2 1.5 6.7.9-1.1 0-8.3-1.5-6.7M82.2 84.6c-14.8 1.5-3.9 35.7-2.2 44.6 1-1.2 10-11.5 10.6-10.9.6.6-21 25-22.8 27.2a79 79 0 00-17.6 38.3 75 75 0 0136.9-1c11.4 2.7 22.5 7.5 34.5 6.7a47.3 47.3 0 0017.3-5c5-2.3 10.1-7.8 15.2-9 9-2.4 13.6 4.3 20.7 6.4 11.5 3.3 23.8 3.9 35.5 4.7 13.3 1 27 .6 39.7-4a60.8 60.8 0 0016.3-9c5-3.9 5.3-4.7 4.1-10.9-.4-2.6-11.4-34.5-12.4-33.8 1.4-1 6.2 9.1 6.5 9.8 5.2-11.1 11.6-24.1 11.3-36.6-.7-25.4-30.3-9.4-42.3-2.3 1.2.6 6.4 2.8 3.3 3.8-2.6.9-9.3-3.4-11.5-4.4-9.2-4.1-19-8-29.4-9.8a144 144 0 00-46.5-.1c-10.7 1.7-25.2 3.5-34.5 9.7.8.5 5.1 2.5 3.8 3.7-1.3 1.2-6.5-3-7.9-3.9-8.3-5-18.6-14.9-28.6-14.2m5.5 30.2c-4.5-1-3.7-10.7-3.6-13.9.1-6.2 1.6-6.2 7-3 4 2.3 8.3 6.7 5.8 11.5-1.1 2-7 6-9.2 5.4m159.5-11.7c4.2-3.2 12-5.8 16.2-1.1 3.5 3.8 2 13.9-1.7 17.2-3 2.7-1 2.2-4.5.1-3.2-2-5.8-7-8.1-10-2.4-3-5-4-2-6.2m-138.7 83.6c-13.4-1.4-29.5-14-26.9-29 3-16.6 18.5-30.9 36-26.7a33.7 33.7 0 0124.6 30.9c.1 17.3-18.3 26.3-33.7 24.8m106-1.2c-13.5-.3-25.4-10.5-24.2-24.7 1.3-15.5 16.5-27.7 31.6-28.4 15.5-.7 25.4 12.2 26 27 .9 18.3-17.2 26.5-33.3 26M168.8 233c-3-.5-1.4 4.9-1.4 6.8 0-.4 1.9-6.8 1.4-6.8"/><path class="cls-2" d="M115.6 240.4c-5.2 1.8-13.2-1.4-16.4 1.7-6 6-8.8 23-9.2 31-1.7 30.4 38.2 14.3 54.8 11.4 9.1-1.6 18.8-2.7 27-7.1 8-4.2 11.2-14.2.5-17.7-10.3-3.1-26 0-36.9 2-2.4.3-8.2 3.1-10 2.5-1.8-.7 0-1-.6-1.7-.3-.5-3-7.8-3.5-9.6-1.4-4.1-.9-10.5-2.9-14a8.7 8.7 0 01-2.8 1.5"/><path class="cls-3" d="M271.7 169c-15.7 14.7-36.1 19-57.1 18a264.7 264.7 0 01-28.6-3.4c-2.9-.4-12.9-3.7-15.2-2.3-2 1.1-.2 1.4.8 2-2.1 4.8-9.7 5.8-14.4 5-2.5-.3-6.2-1.2-7.7-3.6 0 .1-1.7-4.2-.8-3.3-.5-.5 1.3-1.3-.8-2-1.3-.4-10.3 5.8-12 6.6a44 44 0 01-22 3.3c-13-1.3-25.2-7.5-38.4-8.4a73 73 0 00-20.3 1.7c-2 .4-9.9 1.7-5.1 3-2 29 29.4 48.4 54.4 54-.4.3-1.1-1-1.1.6 0 1.4 9.3 1 10.4.7 1.7-.4 8.1-4 4-3.9-2.1-9.3 15.9-14.6 16-13 0 .7-1.5-.6-1.5.7 0 1 3 1 2.6-.2-.6-2-3.4-6.4.2-9.1 5.7-4.6 9 3.2 8 7.8 5.6-.9 22.2.7 24 8.1-2.8.4.4 2.2 2.4 1.7 1.1-.3 2.5-2 .5-2.1 4-10.1 9.2-9.5 19-8.3a10.6 10.6 0 012.5.8q1.5 1.2 2-1c1.4 0 2-1.1 3.6-.7 3 .7 3.9 3.2 2.2 5.6 5.6 1.7 18.6 6.8 15.2 14.5a175.2 175.2 0 0040.2-26 48.4 48.4 0 0015.8-23.6c1.5-6.2.1-12.6 1.3-18.6 0 .1 2.5-7.1-.1-4.6m-100.3 35.6c7.1-.7 13.6-4.8 18.1-10.2 2.3-2.7 7.4-9.3 3.4-1.2a26 26 0 01-17.5 12.5c-2 .4-21.2-1-18.9-4.7-.2.5 12.6 3.7 15 3.6M146.8 285.3l-7.9 1.4c-.4 0-8.2.8-8 .6-7.2 4.2-7 23-6.1 30a34.3 34.3 0 0051.9 24.8c9.3-5.3 12.5-15 14.1-25.1.6-3.6 3.3-19.2.3-22-2-1.6-1 1-2 1-5.7-.8-12.5 2.1-18.8 1.5a37.2 37.2 0 01-15.3-4.7c-1-.7-7.5-7.5-8.2-7.5M238.3 266.4c-5.6 1.2-8.6 6.7-10.5 11.5-.7 1.5-4 10-.6 10.7 1.9.5 2-6.1 2.2-7 1-5.4 3.6-10 8.4-12.1 4.8-2 9.9 1 10.3 6.5.2 2.7-4.2 6.5-4 7 .2.8 4.8-.3 5.4-.9 1.6-1.5 2-4.2 1.9-6.4-.5-5.7-7.5-10.5-13.1-9.3m7.9 5.2"/><path class="cls-3" d="M227.7 280.7c-4 4 2.5 17.9 5 21.2 1 1.3 12.3 11.5 14 8.7-.5.8-12.7-11-13.4-12a24.4 24.4 0 01-4-12c-.1-.4.5-8-1.6-5.9m13.4 25.9"/><path class="cls-4" d="M118.6 132.5c-1.4 1.1-2.3 0-4.3.3-7.5 1.3-11.2 7-12.8 14-3.2 14.2 3.6 28.4 19.6 27 11.7-1.3 21.7-11 16.8-23.6-2.5-6.4-11.5-17.7-19.3-17.7M223 134.2c-11.5 0-19.4 11.4-18.2 22.5 1.1 10.2 13.2 16.8 22.6 16 24.7-2.4 20.7-38.5-4.4-38.5M181.5 222.6c-14.3 0-3.5 12 3.1 15.7 3.4 2 34.6 12.5 28.8-1.4-1.5-3.6-9.3-8-12.7-8.3-3.3-.1-3.7 3-7 3.5-2.6.4-2.2.3-3-1.5-1.8-4.1 3.1-3.9-.9-6.7-2-1.4-6-1.3-8.3-1.3M132.9 224c-6.4.2-18.2 8.5-11.8 15.2 3.6 3.8 14.5 3.3 19.4 3.4 6.5.2 22.3.7 24.2-8.1 1.6-7.4-10-9.5-15-10-1.7-.1-5.4-.8-6.9.1-1.7 1.2-1.3 6-3.1 7.4-2 1.5-1 1.7-3-.5a34.7 34.7 0 01-3.8-7.4z"/><path class="cls-4" d="M138.3 216.3c-7 0-1.3 11.9-.1 14.6 1.4-3.1 7-14.6.1-14.6M196.4 222.6c-3.6 0-4 5.5-4.3 8 3.8.2 11.1-8 4.3-8"/><path class="cls-5" d="M172.7 227.5c-1.9 0 .1 4.3-2.2 3.5 1.2.4.5 1.5-.2 1.8-3.7 0-1.8 22.3-3.4 24.7a25.5 25.5 0 017 2c3.7 1.8 4.1 6.7 6.3 8 3 1.8 10.5-2.1 12.7-3.5-.7-.2 10-7.5 11.2-8.5a38.3 38.3 0 008.5-11.4c-11.8 5.8-36-3.7-40-16.6zM165.9 236l-3.1 4.2a16.8 16.8 0 01-6.2 3.2 46.4 46.4 0 01-14.2 1.4c-6.2 0-16.9.3-22.1-3.9.2 4.9 2.4 15.9 6.6 18.8 2.4 1.7 13.2-1.6 17.5-2 4.3-.2 11.7.5 15.8-.7 5-1.5 1.7 1 3.5-2.6.7-1.4.6-3.3.9-4.8.2-1.1 1.8-13.7 1.3-13.7"/><path d="M157.4 176.9c-13.8 0-4.4 11.4 6.2 8.9 12.2-2.9 0-9-6.2-9" fill="#eea47d"/><path class="cls-7" d="M85.3 95.7c.1 0-5.6 21.4 5.6 18 12.3-3.7 4.3-18-5.6-18M257.3 99.5c-2.9 0-11.4 2.3-11.9 5.3-.3 2 8.4 10.9 9.9 12.5 1.1 1.2 3.2 4.3 5 3.9 2.1-.6 4.2-7.6 4.6-9.6 1.2-5.7-.7-12.1-7.6-12.1"/><path class="cls-8" d="M111.2 131.4a27 27 0 00-11 2.4.3.3 0 00.1 0c-16.5 7.5-23.5 28.8-10.1 42.3 15.2 15.3 53.4 9.8 50.3-17-2 16.4-27.8 22.7-37.4 9.3-7.2-10.1-5.4-34.3 9.4-37h-1.3M211.4 136.6c-14.2 6-26 23.9-15.8 38.3 7.9 11.2 24 10.3 35.4 6 11.2-4.2 16.9-13 14.7-25.4a21 21 0 01-31.4 15.3c-13.7-7.3-12.9-23.8-2.9-34.2z"/><path class="cls-1" d="M199.7 413.6c-.1 0 .6 1.4.3 0a.4.4 0 00-.3 0M203.5 414.4s-.2-.1 0 0"/><path class="cls-9" d="M83 83.1c-15.7 0-7.2 31.5-5.4 39.5.5 2.4 1.8 5.8 1 8-1 3.2-6.3 7.3-8.4 9.9A124.3 124.3 0 0054.5 164c-7.8 16-9.8 35.9 1.8 50.7A78.5 78.5 0 0098.7 240c-6.4 11.2-16.8 36.2-6.2 47.6 11.4 12.3 36.5.8 49.7-1.5 5.1-1 4.8.4 8.8 3.9a36.6 36.6 0 0023.5 7.8c16.1.2 35.7-7 43.4-22.2.4 6.7 3.1 12.4 3 19.5a199.9 199.9 0 01-1.5 21.4 307.3 307.3 0 01-8.2 43 262.2 262.2 0 01-9.4 29.4c-2 5-4 9.9-6.2 14.7-1.7 3.5-6.7 10.3-6.9 13.6-.1 4.3 5.5 6.8-.2 9.5-1.4.7-6.6 1-8.4 1-1.5 0-10.9.9-11.4.5-2.5-1.9.7-5.5 1-7.4.6-2.6 0-5.2-.5-8.3-.8-5-5.7-52.4-4.4-52.4-.8 0-.3 2.6-.7 3-2.1 2.6-.5 2.9-5.7 3.3a36 36 0 01-6.6-.2c-2.7-.3-5.9-.5-8-2.4 0 0-3.2-3.8-2.3-3.7-2.4-.4-.6 8.2-.6 10.9 0 11.6-2.3 23.3-5 34.5-1 4.5-2.3 8.9-1 13.2 1.3 5 4.4 8.2-.9 9.8-5.1 1.5-12.2-.5-17.4-1.2-3.2-.5-4.7 2.1-4.7-2.7 0-1.8 2.5-3.7 2.4-5.6-.1-4-5.2-9.5-6.7-13.4a243 243 0 01-9.4-34.2 207.5 207.5 0 01-4.5-44.7c0-4.2 1-37.7-.2-37.7-2 0-1.4 54-1 59.6A251 251 0 00103 397a86.7 86.7 0 003.2 10c1.3 3 6.4 8.7 6.4 12 0 3-4.2 4.8-2.8 8.3 1.7 4.3 4.3 1.7 7.2 2.2 5.3.9 22 3.7 21.8-4.2 0-3-2.2-5.1-2.8-7.8-1.2-5.6 1.8-12 2.8-17.3a130 130 0 003.4-35.8 27.1 27.1 0 0021.6 2.4 190.5 190.5 0 004 45.8c.3 2.1 1.4 5 1.1 7.2-.5 3.8-5.4 7.8.1 10 1.6.7 8.7-.4 10.6-.6 2.4-.2 4.7-1 7.1-1.4 1.3-.2 2.1.5 3.5-.2 4.5-2.6 1.1-4.7 1.2-9 0-6.5 7.9-17.2 10.6-23.5a218 218 0 008.2-23.4 236.1 236.1 0 006.8-28.5c2.7-15.7 8-26 16.9-39 21.6 22.8 52.2-8.5 55.6-31 3.9-25-18.7-52.5-45.2-46 22.5-13.4 33.5-34.1 29.3-60a102.7 102.7 0 00-5.6-20.8c-2-5.3-1.8-6.9.4-11.7 4.5-10 9.6-20.8 9.5-32-.1-13.9-8.4-18.5-20.9-15.2a83.3 83.3 0 00-17.6 7.3c-2.8 1.4-5.7 4-8.6 3.8-2.4-.2-5.7-2.5-8-3.4-25.1-10-51.5-12.2-78-7a170.1 170.1 0 00-21.2 5.3c-2.6.8-6.3 3.7-8.8 4-2.2.3-3.6-.9-5.9-2.3-7.5-4.5-16.6-12-25.7-12m-7.8 20.4c-.7-7.4-.6-19.6 9.5-18.8 8.5.6 16.9 8.5 24 12.8 2.1 1.3 7.1 5.7 9.4 5.3 2.9-.4-2.9-3.7-3.2-3.9 9-6 23.9-8 34.4-9.7a145.8 145.8 0 0144-.3 120 120 0 0131.4 10c1.6.7 10 5.6 12 4.7 3-1.2-2.2-3.4-3.3-3.9 9.4-5.5 36.8-21.7 41.6-3.5 3.7 14-5.2 29.9-10.6 42.4-.6-1.2-5-10.8-6.5-9.8 1-.7 11.9 30.9 12.5 34 2.3 13.2 2.7 28-4.4 39.8-11.4 18.9-33.4 28-51.5 39.1 3.4-7.6-9.8-13-15.2-14.5a3.6 3.6 0 00-3.2-5.8c-2 0-2.5 2.2-3.7 2.3-1.6.2-6.2-2-8-2.2-12-1.3-15 7.7-17.1 18.2.2-6.6-.3-10.1-6-13.6-5-2.9-12.8-4.1-18.4-3 1.7-6-4.9-13.3-9.2-6.3-1.5 2.3 1 15.8 4 16.4 2 .5 2.6-3.3 3.5-5 2.2-4 .2-2.9 4.3-3.9 4-1 10.5.8 14.1 2.7 9 4.6 4 11.8-3.8 14.2a64.5 64.5 0 01-25.4.7c-4.6-.6-11.2-1.3-11.3-7-.1-6.7 14.6-10.6 14.6-11-.3-3.9-15.3 5-16 9.6-.7 4 1.2 9.3 2 13.2a61.7 61.7 0 005.3 15.5c.4.8-2.2 1 .4 2 1.9.7 9.7-2.6 12.7-3 4.5-.7 9-1 13.5-1.6 6.9-.7 14.3-2 20.6 0 4.7 1.6 8.1 6.2 6.7 10.7-2.2 7-12.9 9.6-19 11.1-12.7 3.3-26.6 5.6-39.6 8.4-14.9 3.2-31.2 2-30.4-16.9.4-9.3 3.5-18.1 7.1-26.3.5-1.2 1.2-3.6 2.1-4.5 2.6-2.6 1-1.1 4.1-1.4.3 0 6.7 1.1 6.8 0 0-.5-12-3.2-13-3.5a125.2 125.2 0 01-24.3-12.4c-12.4-8-22-18.9-22.7-34.1-.9-15.5 6.6-29.8 15.3-42 2.1-3 25.8-29.9 25.2-30.5-.6-.6-10.1 10.3-10.6 10.8-1.5-8.5-3.9-16.8-4.7-25.5zm62.9 127.2c-1-2-7-16.7 1-14.3 5.5 1.5.3 11-1 14.3m54-.2c.1-1.7 3.2-12.8 7-6.6 1.5 2.8-4.8 6.6-7 6.6m-14.4-7.6c3.5-.8 12.7-.7 14 2.4 1 2.6-3.2 5.8.3 7 2.8 1 5.7-3.8 8.1-3.8 2.8-.1 9 3.8 11 5.6 12.2 12-13.3 9.4-18.1 7.8-3.8-1.2-29.2-16-15.3-19m-7.8 11a52 52 0 012.7-6.5c2.3 13.4 29 21.7 39.9 16.6a39 39 0 01-10.7 13.3c-1 .8-10.3 6.3-9 6.6-2.6 1.5-6.6 3.7-9.7 3.5-4-.3-1.1.4-3.5-1.5-2.5-2-3-5.3-6.6-7a27 27 0 00-8-1.8l1.2-7c0-.2-.2 7 .9 7-1.1 0 2.4-22 2.8-23.2zm50.5 89a186.4 186.4 0 001.9-28.8 76.3 76.3 0 00-1.4-13.8c-.4-1.6-1.3-3.1-1.5-4.8-.5-3.9 1-7.2 1.4-11a48.7 48.7 0 00-.8-12.7c-.3-1.7-2.6-8.2-2-9.8 1.3-2.7 13-7 15.8-8.6 14.2-8.2 29.2-7.2 41.5 4.4 21 19.9 13 57.5-13.8 69.4-16.8 7.4-34.8-6-34.8-24.2 0-9.6 14.7-23.8 22.6-12.3 3.6 5.3-3.2 13.7-3 13.8 1.9 1.9 5.9-3.2 6.4-4.2 1.7-3.7.3-9.2-2.5-12.2-6.7-7-18-1.6-22.5 5.2-6 9.1-1.8 21.6 4.6 29.4-6.7 4-9.8 13.2-12 20.3m-76.6-78.2c7.6 0 18.6-.7 22.1-9 0 5.1.4 13.9-2.2 18.7-2.1 3.8-.7 1.5-4.6 2.4-1.7.4-4.5.1-6.2.2l-7.8.5c-4.5.3-15.6 3.7-18.1 2-4.4-2.8-6.3-14-6.7-18.8 5 4.4 17.5 4 23.5 4m70.8-1.3a7 7 0 002.5-1.1 79.8 79.8 0 012.3 19.7c-1.9 30.2-52 47.5-70.9 22.8 7.7-1.1 16-2.9 23-6.5 4.3-2.2 4.9-4.2 8-7.6 1.2-1.3.2-1.6 1.3-2.4.6-.5 6-.6 6.4-.7 5.2-1.2 9.2-4.5 13.3-7.6a46.5 46.5 0 008.7-8c.7-1 4.8-8.6 5.4-8.6"/><path class="cls-9" d="M193.8 188.7c-1.4 0-5.2 6.7-6.2 7.8a28.6 28.6 0 01-10.4 6.7 22 22 0 01-10.5 1.2c-1-.2-10-3.7-10.2-3.4-1.2 2 9.8 5 10.8 5.1a25.4 25.4 0 0013.2-2 26.8 26.8 0 0010-7.5c.1-.2 5.8-7.9 3.3-7.9M159.6 174.8c-3.8.8-10.2 0-11.5 5-1.3 5.8 6 8.3 10.2 8.7 4 .3 14.7-.8 13.2-7.2-1-4.5-8.1-6.3-12-6.5zm-.4 11.5c-12.2 0-11-11.2 1.2-9.2 11.8 1.9 10.1 9.2-1.2 9.2"/><path class="cls-10" d="M111.2 130.3c-15.3 0-30.8 15.4-30 31 .7 16 18 26.2 32.5 25.5 15.3-.8 30.3-11.2 28.2-28-1.9-14.9-15.4-28.5-30.7-28.5m-4.6 1.5a27.1 27.1 0 016-.4c-15.1 2.3-16.5 27.1-9.5 37 9.4 13.2 35.7 7.3 37.4-9.3 2.7 25.3-32 32.2-48.2 19-13.8-11.5-11.3-29.5 2-40.5-.9-1.7 11.4-5.6 12.3-5.8zm11.2 1.4c21 0 31.2 36.3 4.7 40.4-26.9 4-29.6-40.4-4.7-40.4M223.2 132.3c-14.9 0-29.9 11.2-32.7 26-2.7 14.5 8.4 26 22.5 27.1 15.1 1.1 33.9-6 34.9-23.2.9-14.8-8.9-29.9-24.7-29.9m-18 19.5c-.6 0 6.2-14 8.5-15.4 4-2.5 9.3-2.6 13.8-1.8 8.6 1.7 16.5 9.3 17.2 18.3 2.1 27.2-44.4 24-39.5-1.1zm-.5-11.5c1.4 0 5.4-3 6.7-3.6-12 9.5-9.1 28.3 3.9 34.6 12.8 6.3 28.8-.8 30.4-15.8 1.8 11.3-2.5 20.2-13 24.7-9.5 4.2-23.4 6-32.6-.8a20.9 20.9 0 01-8-20.5c.8-4.1 6.9-18.6 12.6-18.6"/><path class="cls-7" d="M81.4 180.5c-11.1 3-1.1 12.5 3.6 15 5.8 3.2 15.4 9.6 22.2 5.1 6.6-4.4 1.8-11.5-4-14-3.7-1.6-8-1.8-11.9-3.3-3-1.2-6.4-3.7-9.9-2.8M242.6 179.4c-1.4 1-9.3 4.8-7.4 4l-1.6.7c-3.3 1.4-12.3 3.5-15 8.2-3.9 7 3.4 11.9 9.9 10 5.8-1.7 11.3-6.6 16-10 3-2.2 7.3-4.3 6.8-8.6-.5-3.7-5.3-6.6-8.7-4.3"/><path class="cls-8" d="M99.9 147.3c-18.6 3.7-10.7 31.2 6.8 22.6 11.6-5.8 6.2-25.2-6.8-22.6m3.4 2.5c13.7 2.2 7.2 24.2-6.7 18.8-10.5-4-2.4-19.8 6.7-18.8m4.1 17.4M205.8 149.6c-14.8 2-13.4 20.6.6 21.6 16.6 1.2 14.8-23.7-.6-21.6m3.3 2.3c12.2 1.9 8.4 21.5-4.9 17.4-11.3-3.4-6.7-18.8 5-17.4m-5.8.8h-.1M123.9 160.4c0 8.5 13.2 8.5 13.3 0 0-8.4-13.3-8.6-13.3 0M230.2 163.8c0 5.7 9.1 5.7 9.1 0s-9-6-9 0M211.2 141.6c-2.5 0-1.5 4.8 2.4 3.2 3.9-1.6-.2-3.2-2.4-3.2M108.3 140.8c-10 .2 2.7 4 3.5 1.2.4-1.5-2.8-1.2-3.5-1.2M187 259.6c-3.1 1.5-9.5 6-1.6 5.3 6.1-.5 5.2-7 1.5-5.3M201.7 249c-2.2 1.4-13.3 7.9-7.2 9.5 1.5.4 6.8-3.9 7.6-5 .4-.5 3.2-6.7-.4-4.5M158.5 244.4c-.1 3.4 2.6 6.7 4.1 2.2 1.3-3.8-4-6-4.1-2.2M157 253.7a2 2 0 004 0 2 2 0 00-4 0M245.5 179.9c0 4.3 3.8 0 3.8 0s-3.8-4.3-3.8 0M241 186.2c0 3.9 3.5 0 3.5 0s-3.4-4-3.4 0M235 188.5c0 2.5 2.3 0 2.3 0s-2.2-2.6-2.2 0M83.4 181.6c0 3.3 3 0 3 0s-3-3.4-3 0M84.7 187.6c0 3.8 3.4 0 3.4 0s-3.4-3.8-3.4 0M92.4 189.7c0 3.6 3.1 0 3.1 0s-3.1-3.6-3.1 0M261.8 145.5c.6-.4 4.8 18 5 20a85 85 0 01-1.2 22 59.4 59.4 0 01-21.7 36c.1-.2-4.6 3.5-4 3.2 14.4-8.7 26-21 29.9-37.7a59.4 59.4 0 001-23.8c-.4-2.3-6.4-21.2-9-19.7M96.4 308.3c-.3 7.9-1 15.7-1 23.6.1 1.9.6 15.2 4 9.6 2-3.4-.8-15.2-.9-19.2 0-3.3 1.4-9.7 0-12.6.2.4-2-5.2-2-1.4M98.3 350.3c0 3.5 1.7 33.9 6.6 34.2 3.5.1-1.3-13.5-1.8-15.3a122 122 0 01-2.9-13.9c0-.7-2-7.5-2-5M253 230c-2.5.3-1.1 3 0 3.8 1 .8 5.4 0 6.9.4 6.8 1.9 11.9 8.6 15.1 14.5a50.3 50.3 0 015.8 24.3c0 2-4.3 18.6-4.5 18.4 2.8 1.7 8.5-14.5 8.7-16.4 1.3-8-.2-16.4-3-23.9-4.6-13-14.4-23-29-21"/><path class="cls-9" d="M176 262.7c-.2 0-3 .3-2.8 1 .7 2.7 8.6-1.5 2.8-1M179.7 267.7c-1 .1-5.5 1-5.3 1.7.7 2.3 7-2 5.3-1.7"/></svg>