<svg id="Layer_4" data-name="Layer 4" xmlns="http://www.w3.org/2000/svg" viewBox="0 0 323 439"><defs><style>.cls-1{fill:#2c2c2c}.cls-2{fill:#ca896e}.cls-3{fill:#fad8bd}.cls-4{fill:#b3835a}.cls-5{fill:#ffbc91}.cls-7{fill:#ffb9b7}.cls-8{fill:#fff}.cls-9{fill:#835947}.cls-10{fill:#815847}</style></defs><path class="cls-1" d="M108.9 325.2c.3 17.9-1.7 35.1.6 53 1.1 8.7 3.8 17 6.2 25.5.6 1.9 7 20.4 9 18.8 1-.8-4.6-9.5-5.2-11.2a169.2 169.2 0 01-8.1-33c0 .3 0-.3 0 0-2.4-17-2.2-37.4-2.5-53"/><path class="cls-1" d="M144.3 377.9c-1 1 .4 6.5.4 8.2a72.9 72.9 0 01-1 12.2c-1 5.8-2.8 11.6-3.8 17.4-.3 2 2.2 12.7 1.4 13.3-.6.4-9 .3-9.8.2-1.2-.1-2.6-.7-3.9-.9-1.1-.1-3.4.9-4.2 0-1.8-1.5 2.7-6.7 1-7.3-1-.4-3.2 5.1-3.2 5.8.2 4.1 3 2.6 5.6 3 3.9.5 8.4 1.3 12.4.5 6-1.2 2.9-4.1 1.8-9.1-1-4.8 1.4-10.3 2.3-15 1.5-7.6 2.7-15 2.4-22.7 0-.3-.3-6.7-1.4-5.6m-3.1 51.2"/><path class="cls-1" d="M144.7 380.1c-1.6 2.8 18.4 5.6 17.4 2.2.3 1.2-18.3-.6-17.4-2.2"/><path class="cls-1" d="M162.2 378.2c-.6 10.7.3 21 1.5 31.7.2 2 1.2 13.6 2.5 13.4 1-.2-.7-7.8-.7-8a256.1 256.1 0 01-3.3-37"/><path class="cls-1" d="M180.8 420.1c-.8.3 1.5 5 1.5 5 .3 3.7-6.6 3-9.2 3.2-1.4.1-5.8.7-7 .2-1-.5-1 1-1.3-1.7 0 0 2.3-5.3 1.2-5.3-1 0-2.9 6.3-2 7.4 1 1.7 2.2.6 3.7.5 3 0 5.6 0 8.4-.3 1.5-.2 5.5 0 6.7-1.4 1-1.1.2-8-2-7.6m-15.5 8.7c.2 0 0 0 0 0m0 0"/><path class="cls-1" d="M203.6 319.7c4.2 33.5-8.5 67.4-21.4 97.6 0 .1-2.4 4.5-.7 4.4 1.6 0 6-11.3 6.7-12.8a165 165 0 0011.5-33.8 237.5 237.5 0 005.6-38.8c.2-2.5.3-5 .2-7.6 0-2.3 0-5.1-.8-7.3 0 .1-1.3-3.1-1-1.7M116 207.4c-9.7 3.3-18.6 16-15 26.1 4.6 12.3 18 17.5 30 13.8 27.7-8.6 9.6-48.4-15-40m3 .1c11.9-2 23.5 7.8 25.2 19.2a.8.8 0 000 .2c4.8 19.3-23.6 24.6-35.2 15.6-12.4-9.5-8.3-27.1 5.3-33.5a20.3 20.3 0 014.8-1.5m5-.2M204 208c-10.9.9-21.6 9.9-22.5 21.1-1 10.8 8.2 18.3 18.5 18.4 12 .2 25.2-6 24.6-19.5-.5-11.4-8.6-21.2-20.6-20m-5.7 2.7c11.8-4.3 22.4 2.2 24.6 14.5 0-.1 0 0 0 0 1.7 9.2-2.5 15.8-11 18.9-12.4 4.7-31.8 1-29-16.3 1.4-8 8-14.4 15.4-17.1"/><path class="cls-1" d="M124.7 207c-14.7.7-14.8 27.7-2.3 32.2 7.4 2.6 17.7-.2 21-7.7.5-1.2 1.8-11.7-.5-11.2-.4.1.4 7.9.3 8.4-1 4.4-4.5 7.5-8.6 9-6 2.2-14 1.5-17.6-4.3-4-6.4-3.4-19.1 3.4-23.7 0 0 13.7-3.1 4.3-2.7M201.2 208.9c-5.7 1.2-8.9 9-9.5 14-.8 7 3.7 12.3 10 14.7a15.6 15.6 0 0016.9-3.2 15.5 15.5 0 004.2-8.6c.2-.8.4-6.8-.8-6.5a54 54 0 01-1.1 10.4 15 15 0 01-8 7.4c-3.9 1.5-8.4 1-12.2-.9.2 0 0 0 0 0-5.5-2.6-9-7.5-8-13.8a19 19 0 015.8-11.2c-.3.3 4.3-2.7 2.7-2.3M158 239.8c-2.6 1.3-6.2-.8-7.8 3 2-.1 0 1.7 0 1.8.4 2.3 2 3.6 4.3 4.5 3.8 1.4 11.3 1 13.1-3.2-1-.5-2-1.7 0-1.5-.8-2-7.5-6.8-9.6-4.6m-1.7 8.1c-8.8-1.7-3.5-7.8 3-6.7 11.4 2 4.6 8-3 6.7M183.7 250.2a22.5 22.5 0 01-13 10.9c-1.7.5-15.2-.7-14.4-2-.9 1.5 6.9 3.6 8.1 3.8a19 19 0 0010.8-2 20 20 0 007.7-6.8c.5-.6 2.2-2.8 1.9-3.4-.2-.3-.6-1.4-1.1-.5"/><path class="cls-1" d="M106.6 197.3c-14.2 15.8-34.8 35-30.9 58.6 2 11.8 10.4 19.9 20.6 25.5a65.6 65.6 0 0017.1 6.9c1.4.3 7 1.9 8.1.8-.7 0-4.9.3-4.9-.7 0-1.3.6-.2.8-.5-18.7-4.2-42-18.6-40.6-40.3-.6 0-1.3.4-1.2-.8 0-.5 1.2-.8 1.5-1.9.5-1.7.6-3.6 1.1-5.3a61.6 61.6 0 018.9-17.7c5.4-8 14.3-18.6 19.5-24.6"/><path class="cls-1" d="M99.4 171.4c-10.1 3.7-.5 35.3-.4 35.2 2.8-.6-14.5-43.8 8.3-32.8 4.9 2.4 9.5 5.8 14.3 8.6 1.3.8 4.2 3.3 5.6 3.2 3.1-.2-3-3.3-3.7-3.8-5.5-3.4-17-13-24-10.4"/><path class="cls-1" d="M169 172.7a125 125 0 00-31 4.4c-3.5.8-12.2 2.2-14.3 5.7-.6 1 0 1 .6.9 1.3-.2 4-2.4 5.1-2.9 3.8-1.5 7.8-2.2 11.8-3.1a118.9 118.9 0 0133.7-3.2 85.3 85.3 0 0129.1 6.9c2.2 1 10.6 6.3 12.5 5 1.9-1.2-2.3-2.7-3.2-3.1a130 130 0 00-13.8-5.6 91 91 0 00-30.5-5z"/><path class="cls-1" d="M235.6 173.5c-6.1.6-12 3.4-17.5 6.3-1.7.9-10.7 5.5-4.3 3.7 8.5-2.3 14.7-10 24.3-8.8 11.6 1.5 6.8 18.2 4.1 25.3-.2.6-6.4 13.8-5.4 14.4 1.8 1 9.4-21.6 9.8-24.3 1.2-8.4-.9-17.6-11-16.6"/><path class="cls-1" d="M232.2 205.2c-.2.1 5 10.9 5.4 11.6a75.6 75.6 0 014.6 18.6c.4-.1 1.4-1 1.5.3a2.5 2.5 0 01-1.3 1.6l.1 2.7c-.8 5.6 0 11-2.3 16.4-4 9.7-13.2 16.7-21.7 22.2-3.9 2.4-7.8 4.6-11.7 6.8-1.8 1-5.4 2.2-6.6 4-1.8 2.4-.1 1 1.4.7 5.4-1 12-6.3 16.6-9.2 9.1-5.5 19-12.7 23.5-22.7a47 47 0 001-29.5c-.3-1.4-8.2-25-10.5-23.5M147.8 275.5c-1 .1-2.3 0-1.8 1.2l6.4.1c10.8 1.5 14 10.3 1.5 12.9-4.6 1-20 2.2-24-2-3.2-3.4-.1-7.7 3.4-9.5.7-.4 6-1.6 6-2 0-1-13.5 2.8-12 9.8 2 .1 0 1 1 2 1.7 1.9 4 2.5 6.5 3 6.7 1.2 15 1.8 21.6-.2 3.8-1.2 8.4-5 7.2-8.9-1.6-5.4-11.1-6.7-15.8-6.4"/><path class="cls-1" d="M141.8 269.2c-4.2.7-2.4 11.8.4 13.4 2 1.1 3-3 3.8-5.8 1-3.5.8-8.5-4.2-7.6m-1.3 6.2c-.4-2 .5-7 3.8-4.5 2.7 2-.7 8.2-1.7 10.5a36 36 0 01-2-6M128.7 286.4c-2 .2 1.4 11.7 1.7 12.6.4 1.2 4.7 10 4.3 4.8 0-.4-7.6-17.2-6-17.4M163.6 281.4c-.1 0-2 21-1.7 21 2-.1 2.5-12.7 2.5-14.3 0-1.4-.8-6.7-.8-6.7M174.9 274.4c-10.3 0-6 7.9-.7 11.8 3.9 2.8 22.1 11.3 25.5 3.4 3.4-1.7-4-7.5-5-8-.2-.2-5.6-3.1-5.4-2 .4 2.3 8.6 3 9.7 6.8 1.2 4.5-3.3 5.2-6.8 5a34.3 34.3 0 01-16.7-5.5c-3.3-2.2-10-8.2-3.3-10.4 2-.6 11.4 1.3 11.4 1.3a.6.6 0 00-.4-.7 20.5 20.5 0 00-8.3-1.7z"/><path class="cls-1" d="M185 274.6c-2.6.8-5.2 7.8-1.3 7.9 4.9.1 7.4-10 1.2-8m-1.3 3.1c2-5.5 9.2 1.5-.7 3.6a20.4 20.4 0 01.7-3.6"/><path class="cls-1" d="M187.4 279c-.1.5 1.6.7 2 .8.8.2-1.7-2.4-2-.9M168.7 276.8a24.2 24.2 0 00-2.3 4.6c.5 0 .5 0 .7.4.1-.2 2.6-5.7 1.6-5M166.7 282.9c-2.5 1-4.9 17.4-2.5 18.2h.1c.5 0-.2-17.9 2.4-18.2M199.1 289.5c-.4.2-2.6 4.8-2.6 4.8 0 3.6-13.6 10.9-13.4 11.5.7 2 9.5-5.2 9.9-5.6 1.2-1.1 7.7-11.2 6.1-10.7"/><path class="cls-1" d="M113.6 287.7c-2.4.8-4.6 9.7-5.3 12a41.2 41.2 0 00-2.7 16.3c.3 2.6 2.6 9.3 4.7 9.3 6 3.6 13.4 2.3 19.8.9 2.3-.5 5-2 6.9-2.5 1-.2 4.3-.2 6.2-.6 9-1.8 25.3-1.8 29.9-10.8 6.8-13.2-19.2-11.2-25.6-10.8-3.9.3-11.3 0-14.2 3.1-3 3.3 3.6.5 5.4.1 8-1.6 21.5-4.5 29.4-1.7 6.6 2.2 6.7 8.6 1.2 12.3-6 4.1-14.5 5-21.5 6.2-12.4 2.1-42.3 14.2-41.2-8.5.3-4.3 2.8-8.9 2.8-13 .4-1.4 4.9-12.6 4.2-12.3m-7 25.3"/><path class="cls-1" d="M201.8 288.6c-.7.1-.2 1.4-.2 1.4a55.7 55.7 0 011.7 14.8c-.7 11.5-9.1 19.1-19.6 22.9a38.6 38.6 0 01-19.6 1.8 24.1 24.1 0 01-10.3-4.3c-.4-.2-5.4-4.7-4.8-3.1 4.6 6.4 12.5 9 20.2 9.3 4 0 8-1 11.6-1.7.4 0 1-1.8 1.4 0 9-2.7 18-8.5 21.1-17.8.9-2.6 1.4-23.6-1.5-23.3m1.5 16.2z"/><path class="cls-1" d="M202.3 311c-.4 1.2.2 11 2.4 10.3.6-1.9-.7-3.9-1.1-5.8 0 .2-.6-6-1.3-4.6M185.8 304.5c-1.8 1.5-11.8 6-12.6 4.8 1 1.5 7.2-.5 8.3-1 .8-.3 5.5-2.3 5-3.3 0-.3-.3-.9-.7-.5M222 278.6c-.7.2-9.8 3.4-8.8 4.6.4.5 6.3-2.8 7.5-3.1a23.2 23.2 0 019.4-.8 27.5 27.5 0 0115 7.4 30 30 0 017.3 32.5c-4 10.2-14.5 21.8-26.4 21.1-10.9-.7-21.8-16-15.5-26 4.7-7.8 21.4-6.7 15.7 4-.5 1-3.3 1.7-3.3 2.7 0 1.6 3.5-.3 4-.7 6.9-6-3-15-9.9-12.8-18.2 6-7.4 32.6 8 34.4 17.4 2 32-19.7 31-35.2-1.1-16.6-16.7-32.1-34-28"/><path class="cls-1" d="M213.5 334.8c-3 1.5-13.9 20.5-10.8 21.7a160 160 0 017-14.4c.5-.8 5.5-8.1 3.8-7.3"/><path class="cls-2" d="M202.2 314.8a27.3 27.3 0 01-10.6 10.7c-2 1.2-8.3 2.5-9.4 4.1-.5.8.3 3.5.3 4.5.5 10-.6 23.3-9.5 29.4-10.2 7-26.4 6-34.5-3.6-8-9.5-7.8-24.6-2.2-35.2-8.2 2.1-18 5-26 .7-.1-.3.3-1-.4-1-2 0 .7 48.1 1 51 1.7 13.1 5 29.9 11.8 42.4.8 1.6 2 3.1 1.9 4.9-.1 1.6-3.1 4-1.2 5.7a58.4 58.4 0 006 .7c2.1.2 4 0 6.3 0 1.2 0 5.1.2 5.8-.3 2-2-1.4-6.1-1.8-8.1-1.3-7 3.2-17.5 4.3-24.6a70.2 70.2 0 00.6-9c0-1.9-1-6.7-.4-8.3.7-1.9 1.5 1.1 3 2.2 2.4 1.7 6.4 1.8 9.4 1.7 1.1 0 4 .1 5-.7.3-.4 0-1.3.4-1.8.3-.4 0-2.2.5-2.2-1 0 2.5 34.2 3.2 38.4.4 2.7.9 4.8.4 7s-2.2 4.2-.3 5.3c1.5.8 7.6-.5 9.6-.7 2-.1 7.9.4 7-2.7-.2-2.4-1.5-3.5-1.4-5.2.1-3.7 4.2-8.9 5.8-12.5a251.7 251.7 0 008.5-23.8 206.6 206.6 0 008-38.4 153.6 153.6 0 001.2-15.7c0-5.2-2.3-10-2.3-14.9"/><path class="cls-2" d="M227.2 279c-5.4 0-9.4 2.3-14 4.9-2 1.2-9.7 3.7-10.8 5.8-1.1 2 2 10.5 2.1 13 .2 4.4-1.7 8.6-1 12.8a107.7 107.7 0 01.6 34.9c1.7-5.4 3.8-12.1 9-15.3-5.7-6.8-8.6-17.8-1.2-24.5 3.3-3 8.9-5.2 13-2.5 3.1 2 4.9 7 3.3 10.3-.3.7-5.3 5-5.3 2.6 0-1 3.3-2.4 3.8-4 3.6-10.6-11-9.3-15.3-4-5.8 7.1-1 18.2 5.3 23.5 7.2 6 16.4 4 23.4-1.2 15.6-11.7 19.7-34.5 5-48.6a27.1 27.1 0 00-17.9-7.6"/><path class="cls-2" d="M201.6 290c-2.7.8-3.1 3.5-4.6 5.6a42 42 0 01-14 12.1c-2.5 1.3-7.3.5-9 1.8-.7.4-1.4 3.7-2.2 4.6a12.8 12.8 0 01-3.1 2.3c-5.5 3.2-12.2 4.4-18.4 5.5 10 13.6 34.4 8.8 45.2-1 9.3-8.3 8.6-19.5 6.1-30.8zM163 296.3c-.4 1-.9 7.7 1.1 5 .6-.8 0-6.2-1.2-5M100.8 172.2c-11 1-2.9 26.6-1.6 33.2.8-.8 7.5-8.5 7.9-8 .4.4-15.8 18.6-17 20.3a59 59 0 00-13.2 28.6 56 56 0 0127.5-.8c8.6 2 16.9 5.6 25.9 5a35.3 35.3 0 0012.8-3.7c3.8-1.7 7.6-5.8 11.4-6.8 6.7-1.7 10.2 3.3 15.5 4.8 8.6 2.5 17.8 3 26.5 3.6a71 71 0 0029.7-3 45.4 45.4 0 0012.1-6.8c3.8-2.8 4-3.5 3.1-8-.3-2-8.5-25.9-9.2-25.4 1-.7 4.5 6.9 4.8 7.4 3.9-8.3 8.7-18 8.4-27.4-.5-19-22.6-7-31.6-1.7 1 .4 4.8 2.1 2.5 2.9-2 .6-7-2.6-8.6-3.3-6.9-3.1-14.1-6-22-7.4a107.6 107.6 0 00-34.7 0c-8 1.2-18.8 2.6-25.7 7.2.5.4 3.7 1.9 2.8 2.8-1 .8-4.8-2.3-6-2.9-6.1-3.7-13.8-11.2-21.3-10.6m4.1 22.5c-3.3-.7-2.7-8-2.7-10.4.1-4.6 1.2-4.6 5.3-2.2 2.9 1.7 6.2 5 4.3 8.6-.8 1.5-5.3 4.4-6.9 4m119.2-8.7c3.1-2.5 9-4.3 12-.9 2.7 3 1.6 10.4-1.2 13-2.2 1.9-.7 1.6-3.3 0-2.5-1.5-4.4-5.2-6.1-7.4-1.8-2.3-3.7-3-1.4-4.7m-103.7 62.4c-10-1-22-10.4-20.1-21.6 2.2-12.5 13.8-23.1 27-20a25.2 25.2 0 0118.3 23c0 13-13.7 19.7-25.2 18.6m79.2-.9c-10.1-.2-19-7.8-18.1-18.4 1-11.6 12.3-20.7 23.6-21.2 11.6-.6 19 9.1 19.5 20.1.6 13.7-13 19.9-25 19.5M165.5 283c-2.3-.3-1 3.7-1 5 0-.2 1.4-5 1-5"/><path class="cls-2" d="M125.8 288.6c-3.9 1.3-9.9-1.1-12.3 1.2-4.5 4.5-6.5 17.1-6.9 23.2-1.2 22.6 28.6 10.6 41 8.5 6.8-1.2 14-2 20.2-5.3 5.9-3.2 8.3-10.6.3-13.2-7.7-2.4-19.4 0-27.5 1.4-1.8.3-6.2 2.4-7.4 2-1.5-.6-.2-.8-.5-1.3-.3-.4-2.3-5.9-2.7-7.2-1-3-.6-7.9-2.1-10.5a6.5 6.5 0 01-2.1 1.2"/><path class="cls-3" d="M242.3 235.2c-11.6 11-27 14.1-42.6 13.4a197.8 197.8 0 01-21.4-2.5c-2-.3-9.6-2.7-11.3-1.7-1.4.8-.2 1 .6 1.5-1.6 3.6-7.3 4.3-10.7 3.8-2-.3-4.7-1-5.8-2.8 0 .1-1.3-3-.6-2.4-.4-.4 1-1-.6-1.5-1-.3-7.7 4.3-9 4.9a32.8 32.8 0 01-16.4 2.5c-9.8-1-18.8-5.6-28.7-6.3a54.5 54.5 0 00-15.1 1.3c-1.6.3-7.4 1.2-3.9 2.2-1.5 21.6 22 36.1 40.6 40.3-.2.3-.8-.7-.8.5 0 1 7 .7 7.8.5 1.3-.3 6-3 3-2.9-1.6-7 11.9-10.9 12-9.7 0 .5-1.2-.5-1.2.5 0 .7 2.2.8 2-.1-.4-1.6-2.5-4.8.1-6.9 4.3-3.4 6.8 2.5 6 6 4.2-.8 16.6.4 17.9 6-2 .3.3 1.6 1.8 1.2.9-.2 2-1.4.4-1.6 3-7.5 6.9-7 14.2-6.2a7.9 7.9 0 011.8.6q1.2 1 1.6-.7c1 0 1.4-.8 2.7-.5 2.2.5 2.8 2.3 1.6 4.2 4.2 1.2 13.9 5 11.4 10.8a131 131 0 0030-19.4c5.4-4.8 10-10.6 11.8-17.6 1.1-4.7 0-9.5 1-14 0 .1 1.8-5.3-.2-3.4m-74.8 26.6a20.7 20.7 0 0013.5-7.6c1.7-2 5.5-7 2.5-.9-2.4 4.8-8 8.3-13 9.4-1.5.2-15.9-.8-14.2-3.6-.2.4 9.5 2.8 11.2 2.7M149 322l-5.8 1.1-6 .5c-5.4 3.1-5.3 17-4.6 22.3a25.6 25.6 0 0038.8 18.6c7-4 9.3-11.2 10.6-18.7.4-2.7 2.4-14.3.1-16.4-1.4-1.3-.8.7-1.4.6-4.3-.5-9.4 1.7-14 1.2a27.8 27.8 0 01-11.5-3.5c-.8-.5-5.6-5.6-6.1-5.6M217.4 308c-4.2.9-6.4 5-7.8 8.5-.5 1.2-3 7.5-.5 8 1.5.4 1.5-4.5 1.6-5.2.8-4 2.8-7.4 6.4-9a5.4 5.4 0 017.6 4.9c.2 2-3.1 4.8-3 5.2.2.6 3.6-.2 4-.7a6 6 0 001.5-4.8c-.4-4.3-5.6-7.9-9.8-7m6 4"/><path class="cls-3" d="M209.5 318.6c-3 3 1.9 13.4 3.7 15.9.7 1 9.2 8.6 10.5 6.5a70 70 0 01-10-9 18.3 18.3 0 01-3-9c0-.2.4-5.9-1.2-4.4m10 19.4"/><path class="cls-4" d="M128 208c-1 .8-1.7 0-3.2.2-5.6 1-8.4 5.1-9.6 10.5-2.4 10.6 2.7 21.1 14.7 20.1 8.7-1 16.2-8.3 12.6-17.7-2-4.7-8.7-13.2-14.5-13.2M206 209.2c-8.6 0-14.5 8.5-13.6 16.8.8 7.6 9.8 12.6 16.9 11.9 18.4-1.7 15.4-28.7-3.3-28.7M175 275.3c-10.7 0-2.6 9 2.3 11.7 2.5 1.4 25.9 9.3 21.5-1-1.1-2.7-7-6.1-9.5-6.2-2.4-.2-2.8 2.2-5.2 2.5-2 .3-1.6.3-2.2-1-1.4-3.2 2.3-3-.7-5-1.5-1.1-4.5-1-6.2-1M138.7 276.3c-4.8.2-13.6 6.4-8.8 11.4 2.7 2.8 10.8 2.4 14.5 2.5 4.8.1 16.6.5 18-6 1.2-5.6-7.4-7.2-11.2-7.5-1.3-.1-4-.6-5.1 0-1.3 1-1 4.5-2.4 5.6-1.5 1.1-.7 1.3-2.2-.4a26 26 0 01-2.8-5.6z"/><path class="cls-4" d="M142.8 270.6c-5.2 0-1 8.8-.2 10.8 1-2.3 5.2-10.8.2-10.8M186.1 275.2c-2.7 0-3 4.1-3.2 6 2.8.2 8.3-6 3.2-6"/><path class="cls-5" d="M168.4 279c-1.4 0 .1 3.1-1.6 2.5.8.3.4 1.2-.2 1.4-2.8 0-1.3 16.6-2.5 18.4a19 19 0 015.3 1.5c2.7 1.3 3 5 4.7 6 2 1.4 7.7-1.6 9.4-2.6-.5-.2 7.5-5.6 8.3-6.4a28.6 28.6 0 006.4-8.5c-8.8 4.4-26.9-2.8-29.8-12.4zM163.3 285.2l-2.3 3.2a12.5 12.5 0 01-4.6 2.4 34.7 34.7 0 01-10.6 1c-4.7 0-12.6.2-16.5-2.9 0 3.7 1.8 11.9 4.9 14 1.8 1.3 9.8-1.2 13-1.4 3.3-.2 8.8.3 11.9-.6 3.8-1 1.3.8 2.6-2a13.5 13.5 0 00.7-3.5 82 82 0 001-10.2"/><path d="M157 241c-10.3 0-3.3 8.6 4.6 6.7 9.1-2.1 0-6.6-4.6-6.6" fill="#eea47d"/><path class="cls-7" d="M103.1 180.5c.1 0-4.1 16 4.2 13.4 9.2-2.8 3.2-13.4-4.2-13.4M231.6 183.3c-2.1 0-8.5 1.7-8.9 4-.2 1.4 6.3 8 7.4 9.3.9.9 2.4 3.2 3.7 2.9 1.7-.4 3.2-5.7 3.5-7.2.9-4.3-.5-9-5.7-9"/><path class="cls-8" d="M122.5 207.1a20.2 20.2 0 00-8.2 1.8c-12.3 5.6-17.5 21.6-7.5 31.6 11.4 11.5 39.9 7.4 37.6-12.7-1.6 12.3-20.8 17-28 7-5.4-7.6-4-25.7 7-27.7h-1M197.3 211c-10.6 4.5-19.4 17.8-11.8 28.6 6 8.4 17.9 7.7 26.5 4.5 8.3-3.1 12.6-9.7 11-19a15.7 15.7 0 01-23.5 11.5c-10.3-5.5-9.6-17.9-2.2-25.6z"/><path class="cls-1" d="M188.6 418c-.1 0 .4 1 .2-.1a.3.3 0 00-.2 0M191.4 418.5s-.1 0 0 0"/><path class="cls-9" d="M101.5 171c-11.9 0-5.4 23.5-4.1 29.5.4 1.8 1.3 4.3.8 6-.8 2.4-4.8 5.4-6.4 7.4a92.9 92.9 0 00-11.7 17.7c-5.8 12-7.3 26.7 1.4 37.8a58.6 58.6 0 0031.6 18.8c-4.7 8.4-12.5 27-4.6 35.6 8.5 9.2 27.3.6 37.1-1.1 3.8-.7 3.6.2 6.6 2.9a27.3 27.3 0 0017.6 5.8c12 .2 26.7-5.2 32.4-16.6.3 5 2.3 9.3 2.3 14.6a149.3 149.3 0 01-1.2 16 229.5 229.5 0 01-6.1 32.2 195.9 195.9 0 01-7 21.9c-1.5 3.7-3 7.4-4.7 11-1.2 2.5-5 7.6-5.1 10.1-.1 3.2 4 5.1-.2 7.1-1 .5-5 .7-6.2.8-1.2 0-8.2.6-8.6.3-1.8-1.4.5-4 .8-5.5.4-2 0-3.9-.4-6.2-.6-3.7-4.3-39.2-3.3-39.2-.6 0-.2 2-.5 2.3-1.6 2-.4 2.2-4.2 2.5a26.9 26.9 0 01-5-.2c-2-.2-4.4-.3-6-1.8 0 0-2.3-2.8-1.7-2.7-1.8-.3-.5 6-.5 8 0 8.7-1.6 17.5-3.7 25.9-.8 3.3-1.7 6.6-.8 9.8 1 3.7 3.3 6.2-.6 7.4-3.8 1.1-9.1-.4-13-1-2.4-.3-3.5 1.6-3.5-2 0-1.3 1.8-2.7 1.8-4.1-.1-3-3.9-7.2-5-10-3-8-5.2-17.4-7-25.6a155 155 0 01-3.4-33.4c0-3.2.8-28.1-.2-28.1-1.5 0-1 40.3-.6 44.5 1 12.6 4.2 24 7.7 36.2a64.8 64.8 0 002.4 7.3c1 2.3 4.7 6.6 4.7 9 0 2.2-3 3.6-2 6.2 1.2 3.3 3.2 1.3 5.4 1.7 4 .6 16.4 2.8 16.3-3.2-.1-2.1-1.7-3.8-2.2-5.7-.9-4.2 1.3-9 2.1-13a97.1 97.1 0 002.5-26.7c4.6 2.9 11 3.4 16.2 1.8-1 10.9 1.1 23.4 3 34.2.2 1.6 1 3.7.8 5.4-.3 2.8-4 5.8.1 7.4 1.2.5 6.5-.3 7.9-.4 1.8-.1 3.5-.8 5.3-1 1-.2 1.6.3 2.6-.2 3.3-2 .9-3.5.9-6.7 0-4.9 6-12.9 8-17.6a162.8 162.8 0 006-17.5 176.4 176.4 0 005.1-21.2c2-11.8 6-19.5 12.7-29.2 16 17 39-6.4 41.5-23.1 2.9-18.8-14-39.3-33.8-34.4 16.9-10 25-25.5 22-44.9a76.7 76.7 0 00-4.3-15.5c-1.5-4-1.3-5.1.3-8.7 3.4-7.5 7.2-15.6 7.1-24 0-10.3-6.2-13.7-15.6-11.3a62.2 62.2 0 00-13.2 5.4c-2 1.1-4.2 3-6.3 2.9-1.9-.2-4.3-1.8-6-2.5a101.5 101.5 0 00-58.3-5.3 127 127 0 00-15.8 4c-2 .6-4.7 2.8-6.6 3-1.6.2-2.7-.7-4.4-1.7-5.6-3.4-12.4-9-19.2-9m-5.8 15.3c-.5-5.6-.5-14.7 7-14.1 6.4.5 12.7 6.3 18 9.6 1.6 1 5.3 4.2 7 4 2.2-.4-2.2-2.8-2.4-3 6.8-4.5 17.9-6 25.7-7.2a109 109 0 0132.9-.3c8.3 1.3 16 4.2 23.4 7.5 1.3.5 7.4 4.2 9 3.5 2.2-.9-1.6-2.5-2.5-2.9 7-4.1 27.5-16.2 31-2.6 2.8 10.5-3.7 22.3-7.8 31.7-.4-1-3.8-8.1-4.8-7.4.6-.4 8.8 23.1 9.2 25.4 1.8 9.9 2.1 21-3.2 29.7-8.6 14.2-25 21-38.5 29.3 2.6-5.7-7.3-9.7-11.4-10.8a2.7 2.7 0 00-2.3-4.4c-1.5 0-1.9 1.6-2.8 1.7-1.2.2-4.7-1.4-6-1.6-8.9-1-11.2 5.7-12.8 13.6.2-5-.2-7.6-4.5-10.1a21.4 21.4 0 00-13.6-2.3c1.2-4.4-3.7-10-7-4.7-1 1.7.8 11.8 3 12.2 1.6.4 2-2.4 2.7-3.6 1.6-3 .1-2.3 3.2-3 3-.7 7.8.6 10.5 2 6.7 3.4 3 8.8-2.8 10.6-6 1.8-13 1.2-19 .5-3.4-.4-8.4-1-8.5-5.2 0-5 11-8 11-8.2-.3-3-11.5 3.7-12 7.2-.5 2.9.9 7 1.4 9.8a46 46 0 004 11.6c.4.6-1.6.7.3 1.5 1.5.5 7.3-2 9.5-2.3l10.2-1.1c5-.6 10.6-1.5 15.3 0 3.6 1.2 6 4.6 5 8-1.7 5.2-9.6 7.1-14.1 8.3-9.5 2.4-20 4.1-29.6 6.2-11.2 2.4-23.4 1.5-22.7-12.6.3-7 2.6-13.5 5.2-19.7.4-.9 1-2.6 1.6-3.3 2-2 .7-.8 3-1 .3 0 5 .8 5.1 0 0-.4-9-2.4-9.7-2.7a93.5 93.5 0 01-18.1-9.2c-9.3-6-16.4-14.2-17-25.5-.6-11.6 5-22.3 11.5-31.4 1.6-2.2 19.2-22.3 18.8-22.8-.4-.4-7.6 7.7-8 8.1-1-6.3-2.8-12.6-3.4-19zm47 95c-.7-1.6-5.3-12.5.7-10.7 4 1.1.3 8.2-.8 10.7m40.3-.2c.2-1.2 2.5-9.5 5.3-4.9 1.2 2-3.6 4.9-5.3 5m-10.7-5.8c2.6-.5 9.5-.5 10.5 1.9.8 1.8-2.4 4.3.2 5.2 2 .7 4.3-2.9 6-3 2.2 0 6.8 3 8.2 4.3 9.2 9-9.9 7-13.5 5.8-2.8-.9-21.7-12-11.4-14.2m-5.8 8.2a38.9 38.9 0 012-4.8c1.8 10 21.7 16.2 29.8 12.4a29.1 29.1 0 01-8 10c-.8.6-7.7 4.7-6.7 4.9-2 1.1-4.9 2.7-7.2 2.6-3-.2-.9.3-2.7-1.1-1.8-1.5-2.1-4-4.8-5.2a20.2 20.2 0 00-6.1-1.4l1-5.3c0-.1-.2 5.3.6 5.3-.8 0 1.8-16.4 2.1-17.4zm37.7 66.6a139.3 139.3 0 001.4-21.6 57 57 0 00-1-10.3c-.3-1.2-1-2.3-1.1-3.6-.4-2.9.8-5.3 1-8.2a36.4 36.4 0 00-.5-9.5c-.3-1.3-2-6-1.5-7.3.9-2 9.7-5.2 11.7-6.4 10.6-6.1 21.9-5.4 31 3.3 15.8 14.8 9.8 43-10.3 51.8-12.5 5.5-26-4.5-26-18 0-7.3 11-17.8 16.9-9.2 2.7 4-2.4 10.2-2.3 10.2 1.5 1.5 4.5-2.3 4.8-3 1.3-2.9.3-7-1.8-9.2-5-5.2-13.4-1.2-16.8 3.9-4.5 6.8-1.4 16.2 3.4 22-5 3-7.3 9.8-8.9 15M146.8 292c5.7 0 14-.5 16.5-6.7 0 3.8.3 10.4-1.6 14-1.6 2.8-.5 1-3.4 1.7a32 32 0 01-4.7.2l-5.8.4c-3.4.2-11.7 2.7-13.5 1.5-3.3-2.1-4.7-10.5-5-14 3.7 3.2 13 2.9 17.5 2.9m53-1a5.2 5.2 0 001.8-.8 59.6 59.6 0 011.7 14.8c-1.4 22.5-38.8 35.4-53 17 5.8-.9 12-2.2 17.3-4.9 3.1-1.6 3.6-3.2 5.9-5.7.9-1 .2-1.2 1-1.8.4-.3 4.4-.4 4.8-.5 3.8-.9 6.8-3.3 10-5.6a34.7 34.7 0 006.4-6c.5-.7 3.6-6.4 4-6.4"/><path class="cls-9" d="M184.2 250c-1.1 0-3.9 5-4.7 5.7a21.3 21.3 0 01-7.7 5 16.5 16.5 0 01-7.9 1c-.7-.2-7.4-2.8-7.6-2.6-1 1.5 7.4 3.7 8.1 3.8a19 19 0 009.9-1.4 20 20 0 007.4-5.7c.1-.1 4.3-5.9 2.5-5.9M158.6 239.6c-2.8.6-7.6 0-8.5 3.7-1 4.3 4.4 6.2 7.6 6.4 3 .3 11-.6 9.8-5.3-.7-3.3-6-4.7-8.9-4.8zm-.2 8.5c-9.2 0-8.3-8.3.8-6.9 8.8 1.4 7.6 6.9-.8 6.9"/><path class="cls-10" d="M122.5 206.3c-11.4 0-23 11.5-22.5 23.2.6 11.9 13.6 19.6 24.3 19 11.5-.6 22.7-8.4 21.1-21-1.4-11-11.5-21.2-23-21.2m-3.3 1.1a20.3 20.3 0 014.4-.3c-11.3 1.7-12.3 20.3-7 27.7 7 9.8 26.6 5.4 27.9-7 2 19-24 24-36 14.2-10.4-8.6-8.5-22 1.4-30.3-.6-1.2 8.6-4.2 9.3-4.3zm8.3 1c15.6 0 23.3 27.2 3.5 30.2-20 3-22.1-30.2-3.5-30.2M206.1 207.8c-11 0-22.3 8.4-24.4 19.4-2 10.9 6.3 19.5 16.8 20.3 11.3.8 25.3-4.5 26-17.3.8-11.1-6.5-22.4-18.4-22.4m-13.4 14.5a41 41 0 016.3-11.5c3-1.8 7-1.9 10.3-1.3 6.5 1.3 12.4 7 13 13.7 1.5 20.3-33.3 18-29.6-.9zm-.3-8.5c1 0 4-2.3 5-2.7-9 7-6.9 21 2.8 25.9 9.6 4.6 21.6-.7 22.7-11.9 1.4 8.5-1.8 15-9.6 18.5-7.2 3-17.6 4.5-24.4-.6a15.6 15.6 0 01-6-15.4c.6-3 5.2-13.8 9.5-13.8"/><path class="cls-7" d="M100.2 243.8c-8.3 2.3-.8 9.3 2.7 11.2 4.4 2.4 11.5 7.2 16.6 3.8 5-3.3 1.3-8.6-3-10.4-2.8-1.2-6-1.4-8.9-2.5-2.3-.9-4.8-2.8-7.4-2M220.6 243c-1 .7-7 3.6-5.5 3l-1.2.5c-2.5 1-9.2 2.6-11.1 6-3 5.4 2.4 9 7.3 7.6 4.3-1.3 8.4-5 12-7.6 2.2-1.5 5.4-3 5-6.3-.4-2.8-4-5-6.5-3.2"/><path class="cls-8" d="M114 219c-13.8 2.7-8 23.3 5.1 16.8 8.7-4.2 4.6-18.8-5-16.8m2.5 1.9c10.2 1.6 5.4 18-5 14-7.9-3-1.8-14.8 5-14M119.7 233.9h-.1M193.2 220.7c-11 1.5-10 15.4.4 16.2 12.4.8 11-17.7-.4-16.2m2.4 1.7c9.2 1.4 6.3 16-3.6 13-8.5-2.5-5-14 3.6-13M132 228.8c0 6.4 9.8 6.4 9.9 0 0-6.3-10-6.4-10 0M211.4 231.3c0 4.3 6.8 4.3 6.8 0s-6.8-4.4-6.8 0M197.2 214.7c-1.9 0-1.1 3.6 1.8 2.4 2.9-1.1-.2-2.4-1.8-2.4M120.3 214.1c-7.4.2 2 3 2.6 1 .3-1.2-2-1-2.6-1M179 303c-2.3 1-7 4.3-1 3.8 4.5-.3 3.8-5.2 1-3.9M190 295c-1.6 1-9.9 5.9-5.3 7 1.1.4 5-2.9 5.7-3.7.2-.4 2.4-5-.3-3.3M157.8 291.5c0 2.6 2 5 3.1 1.7 1-2.9-3-4.5-3.1-1.7M156.7 298.5a1.5 1.5 0 003 0 1.5 1.5 0 00-3 0M222.8 243.3c0 3.2 2.9 0 2.8 0 0 0-2.8-3.2-2.8 0M219.5 248c0 3 2.6 0 2.6 0s-2.6-2.9-2.6 0M215 249.7c0 2 1.7 0 1.7 0s-1.7-1.8-1.7 0M101.7 244.6c0 2.5 2.2 0 2.2 0s-2.2-2.5-2.2 0M102.7 249.1c0 2.9 2.5 0 2.5 0s-2.5-2.9-2.5 0M108.4 250.7c0 2.6 2.4 0 2.4 0s-2.4-2.7-2.4 0M235 217.7c.4-.3 3.6 13.4 3.7 15a63.5 63.5 0 01-1 16.4 44.3 44.3 0 01-16.1 26.8l-3 2.4a45.5 45.5 0 0022.3-28.1 44.4 44.4 0 00.8-17.8c-.3-1.7-4.8-15.9-6.7-14.7m-5.6 50.3M111.4 339.3c-.2 5.8-.8 11.7-.7 17.6 0 1.4.4 11.3 3 7.2 1.5-2.6-.6-11.4-.7-14.4 0-2.4 1-7.3 0-9.4.1.3-1.5-3.9-1.6-1M112.8 370.6c.1 2.7 1.3 25.4 5 25.6 2.6 0-1-10.1-1.3-11.5a91.2 91.2 0 01-2.2-10.3c-.1-.5-1.6-5.6-1.5-3.8M228.3 280.8c-1.7.2-.7 2.2 0 2.8.8.6 4.1 0 5.2.3 5.2 1.4 9 6.4 11.3 10.9a37.5 37.5 0 014.4 18.1 121.4 121.4 0 01-3.4 13.8c2 1.2 6.3-10.9 6.5-12.3a37 37 0 00-2.2-17.9c-3.5-9.6-10.8-17.2-21.8-15.7"/><path class="cls-9" d="M170.9 305.2c-.2 0-2.3.2-2.1.8.5 2 6.4-1.2 2-.8M173.6 309c-.7 0-4 .6-3.9 1.2.5 1.7 5.2-1.4 4-1.3"/></svg>