<svg id="Layer_5" data-name="Layer 5" xmlns="http://www.w3.org/2000/svg" viewBox="0 0 323 439"><defs><style>.cls-1{fill:#2c2c2c}.cls-2{fill:#ca896e}.cls-4{fill:#fff}.cls-6{fill:#b3835a}.cls-7{fill:#fad8bd}.cls-8{fill:#ffb9b7}.cls-9{fill:#e691a1}.cls-10{fill:#835947}.cls-11{fill:#f8f8f5}</style></defs><path class="cls-1" d="M129.5 260.2c-6 .8-7.6 15.1-.5 15.3 7.5.2 8.9-16.5.5-15.3M192.2 261.3c-4.6 1-5.5 12-2 13 10.2 2.7 9.4-14.7 2-13M193.5 265.2v.1"/><path class="cls-1" d="M116.8 245.2a20.7 20.7 0 01-2.8 3c-13.5 10.4-28.5 36-16.7 52a49.3 49.3 0 0023 16.2c2.3.8 18 6.3 19.7 4a87.8 87.8 0 01-23.4-6.8c-5-2.4-8.6-5.9-13-9-4.3-3-6.7-5-8.2-10.4-.7-2.6-1.5-7.5-.6-10.3-2.8.7 1.4-4.2 1.7-4.8 1.4-2.6 2.1-6 3.4-8.7a55 55 0 013.3-6.4 91.2 91.2 0 019.3-12.6c1.3-1.4 3.6-2.6 4.4-4.3.1-.2 1.3-3.5 0-1.9M142.3 321.3c0 .1 11.3.6 12.5.5-1.7 0-11.9-1.7-12.5-.5"/><path class="cls-1" d="M111 223.8c-5.4 1.6-1.9 29.5-1 29.5.6 0-.2-16.1-.1-16 0-3.4-1.8-10.6 2.2-12 2-.7 5.5 1.2 7.5 1.9 4.2 1.4 9.4 4.9 13.8 5.3 5.7.5-1.9-2.2-3.8-3-5-1.9-13-7.3-18.6-5.7"/><path class="cls-1" d="M158.1 223.7c-2.9.1-26.6 3.8-26 7.7.3 2.6 7.5-.8 9.3-1.3a85 85 0 0136.6-1.9 62 62 0 0117.3 5.2l6 3.1c2 1.3 4.6 2.8 2.1-.2-3.5-4.4-12-7.2-17-8.8a82.6 82.6 0 00-28.3-3.8m-23.8 8.5"/><path class="cls-1" d="M219.6 225.6c-2.2.3-22.2 6-21.6 8.5.4 1.9 6.4-1.7 7.9-2.3a60.2 60.2 0 0112.1-4c6.3-1.1 6.6 2.8 6 8.6-.7 5.5-2.7 10.8-4.3 16-1.5 5 0 6.9 1.6.5 1.2-5 9.9-28.5-1.7-27.3M221.3 252.6v.1"/><path class="cls-1" d="M209.8 244.3s8.9 16.7 9.6 18.9c.8 2.3 1.5 4.6 2.1 7 .4 1.6 1.6 3.6 1.8 4.5 2.4 8.2-.2 18-5.7 24.6a30.2 30.2 0 002.5-3c8.8-10.6 3.7-26.6-1.3-38-.8-2-7.5-15.5-9-14M193.7 314.5a132 132 0 01-18.2 5.5c1.5 1.6 17-4 18.2-4.5a53.7 53.7 0 0016.2-9.3 72 72 0 01-16.2 8.3M171.5 320.7l-2.4.3c.3.5 3.5-.2 4-.2a1.2 1.2 0 01.2-.4l-1.8.3"/><path class="cls-1" d="M219.3 255.2s-1.5 2.4-.6 2.7c1.5.4 1.8-3.4.6-2.7"/><path class="cls-1" d="M220 254.7c-1.8 1-1 5.4.1 2.7.1-.3 1.4-3.6-.2-2.7"/><path class="cls-1" d="M219.6 255.8c-.2 0-1 1.6-.6 1.8.6.3 1.4-2 .6-1.8"/><path class="cls-1" d="M219 256.6q-1.5 1.7-.4 3.1c2.2.6.9-4.7.4-3"/><path class="cls-1" d="M218.8 257q-1.2 1.4-.2 2.6c2.4.6.8-4.5.2-2.6M170.6 280.2c-.5.3.3 2.6.3 3 .3-.3 1.4-3.6-.3-3M147.2 281.1c-1 .2-1.2 4.4-1.4 4 .5 1.4.8 1.5 2 2 2.4 1 4.8-1 7.2-1.4 4.5-.8 12.7 3.3 16-.4a1 1 0 01-.7-.8c-2 2.4-10.9-.3-13.5 0-2.1 0-4.3 1.3-6.3 1.4-1.2 0-2.9.3-3.5-1-.3-.9 1.5-4 .2-3.8"/><path class="cls-1" d="M155 285.2c-.2 2.2-.9 5.5 1.2 7 6 4 7.3-7.7 5.4-7.4-1.4.2 1.5 8.3-3.8 6.5-1.5-.5-1.3-1-1.7-2.5.3 1-.8-6-1-3.6"/><path class="cls-1" d="M168.7 285.7a45 45 0 01-7.3 20.7c-8 9.4-10.3-20.6-12.6-19.8-.7.2 4.6 23.7 10.4 22.7 4.9-.7 7.5-11.3 8.5-15a96 96 0 001.1-5.2c.2-.8 0-4.3 0-3.4M144.7 330.8c-2.1 1-5.7 11.4-.9 9.9 1.8-.5-1-1.8-1-2.3-.6-3.8 2.2-5.2 3-8l-1.1.4"/><path class="cls-1" d="M152.7 337.7c-.6 0-9.8 1.4-10 2.2-.1.8 9.4-1 10.8-1 3.6-.1 13.6 4 14.9 1.3-.7.8-13.8-2.4-15.7-2.5zM154 328.6c-2.8 1-9.4 1-11 3.6 0 0 9-2.4 10.2-2.5a33.5 33.5 0 0113 1.6c2.3.8 5 2.8 4 5.6 3-5.5-4-6.3-7.9-7.1-1.4-.3-2.8-1-4-1l-.5-.2c-.5 0-2 .3-2.7.2-1.3-.2.7-.7-1.1-.2"/><path class="cls-1" d="M127.4 318.7c-10.6 6.4-15.6 19.3-5.3 28.1 6.4 5.5 16.1 10.6 24.6 9.5 11.1-1.5 1.3-8.6-2.6-11.9-4.5-3.9-8.1-6.5-11.9-11.5-.6-.9-2.8-5.2-3.3-3.2-.3 1 2.4 3.9 2.8 4.4 2.6 3.6 6 5.8 9 9v-.1c2.6 2.9 16 9.6 7 12.3-5.6 1.7-14.9-2.5-19.6-5.3-4.4-2.6-8.7-5.9-10.3-11-1.5-4.8.5-10 3.6-13.7.8-1 8.3-7 8.3-7a1.7 1.7 0 00-2.3.4m13.2 24.3M185.6 317.4c.8-.6 7 14.1 7 16.2.7 10-7.5 20.6-17.7 22-2.8 0-17.5 2.5-10-5 3.9-2.8 8-4.8 11.3-8.5.3-.4 5.7-9 4.4-9 0 0-5.3 8.8-5.7 9.2a27 27 0 01-7.1 5.7c-2.6 1.4-7.7 3.7-5.4 7.4 1.7 2.7 6.8 2.4 9.2 1.8 10-2.5 21.1-8 22-21.2a23 23 0 00-3-12.3c-.6-1.3-4.1-7-5-6.3m1.4 1.2"/><path class="cls-1" d="M142.7 340c-.1.7-.2 6.3 1.5 4.3.8-1-1.2-5.6-1.5-4.2M145.6 355.7c-.9.5 1.6 3.6 2 4a10.6 10.6 0 008 2.7c1.8 0 11.6-4.9 9.3-6 0 0-6 4.2-7.5 4.5-2.3.5-5.8.5-7.8-.9-.6-.4-3.4-4.8-4-4.3M167.3 340.7c-.3 0-.3.6-.2.8 0 2.2-1 4.4-1 6.6 0 2.3.6-1.1.7-1.3.5-1.8 1.2-4.4.5-6.1zM161.7 321.7c.4 1-4.9 7.8-3 8.1-.1 0 5.9-8.3 3-8.1M159.2 321.7c-1.6 0-1 6.7-1.7 7.3.1.2 2.4-7.3 1.7-7.3M119.4 342.4c-1.4.1-2.5 17-2.7 19.7a108 108 0 003 27.9c1.1 6 2.7 11.7 4.4 17.5 1.5 4.7 2.8 9.8 5 14.2.2.4 1.5 4.3 2 2.2.6-2-2.5-7.7-3.2-9.9l-3.7-11.7a140.4 140.4 0 01-4.7-23.2c-1-7.7-1.7-14.7-1-22.4.2-1.5 1.9-14.4.9-14.3"/><path class="cls-1" d="M146.9 386.7c-1.2.8-1.1 9.6-1.4 11.8-.9 5.7-2 11.5-2.8 17.2a22.2 22.2 0 00.6 9.1c.7 3 .8 3.2-2.2 4a20.9 20.9 0 01-8.5.5c-5.4-.8-2.2-1.3-2-4.7.1-3.7-3.7 2.6-2.7 4.5 1.4 2.7 12.5 2.2 14.8 1 3.5-1.8 1.8-3.4 1-6.4-.8-3.6 0-7.5.6-11.2.9-5.6 1.9-11.3 2.6-17 0-.2 1-9.5 0-8.8"/><path class="cls-1" d="M146.7 389.3c-1.7 3.8 17.8 3 14.8 1.3-.1-.1-15.6.4-14.8-1.3M176 428.5c-1.2.2-14.7 1.4-14.4.5-.6 2 10.4 1 11 1 .6 0 4.7 0 4-1.2a.6.6 0 00-.6-.3"/><path class="cls-1" d="M160.7 392c-1.3 6.8.3 13.9.9 20.1.2 2.3.8 5.2 1.2 7.4 0 .3 0 2.8.6 2.7 1.5-2-1.2-11-1.5-13.6a125 125 0 01-.6-6.7 67.5 67.5 0 010-6.8c0-.8-.2-4.7-.6-3.1m2.2 28.6"/><path class="cls-1" d="M163 421.5c-1.1 2-2.7 4-2.4 6.5 0 .3.8 2.6 1.4 1.6 0-.1-.7-1.8-.5-2.3l1.5-5.8m-1.2 7.6M176.8 428.2c0 .1-.5.6.1.6.7 0 .2-.8-.1-.6"/><path class="cls-1" d="M175.6 422.2c0-.1 2.1 7 1.2 6.8 1.4.4 1-7.6-1.2-6.8"/><path class="cls-1" d="M193 337.5c-1 .3-1 22.3-1.4 25a236.6 236.6 0 01-9.5 41.6c-1 3-2.3 6-3.6 8.8-.8 2-2.1 3.9-2.6 6 0 0-.8 5.5.8 4.6.2-.2-.6-2.7-.6-3.3.2-2.6 2.6-5.7 3.8-8.2a80.6 80.6 0 005-13.8 318.5 318.5 0 007.5-35c.6-3.4 1.2-25.9.5-25.7M193.7 314.5c-1.4.5-7 7.5-4.9 8-.8-.1 6.1-8.5 5-8M212.5 305.5a2.8 2.8 0 00-2.8.9c13-1.3 24.4 11.7 27.4 23.4a38.3 38.3 0 01-1 23c-4.7 11.8-14 21.4-27.6 20-5.5-.6-9.9-4.8-12.2-9.8-3.5-7.7-.7-15 4.6-20.8 5.5-6 17.8-6.7 15.7 5-.5 2.8-2.7 6.5-6 6.6-1.8 0-4.3-1.3-4.6-3.2-.1-1.1 2-1.2 1.8-2-.4-1.5-2.7 1.3-2.7 2.4.1 1.9 2.8 3.6 4.3 3.9 2.4.4 5.2-1 6.7-3 5.6-7.7-1.1-19-10.7-14.8-6.7 3-11.2 11-11.4 18-.5 16.4 16.5 23.2 30.2 16 12.7-6.7 17.3-24.3 15.3-37.5a35.9 35.9 0 00-20.8-27 13.5 13.5 0 00-6.2-1m3.6 46.4z"/><path class="cls-1" d="M190.9 372.6s-.5 1-.3 1c.4 0 .4-1.3.3-1"/><path class="cls-1" d="M195.8 364.1c-1 1.5-7.7 12.2-6 12.7-.2 0 4.3-8.5 4.8-9.3.5-.7 2-4.5 1.2-3.4M156.5 275.2c-12.9 3.5 13.3 8.9 7 1-1.1-1.3-6-1.2-7-1m-2 1.9c.8-.8 7.6-2.5 8.5 0 1.4 3.6-10.3 3-8.4 0"/><path class="cls-2" d="M192.7 340.7a22.4 22.4 0 01-10.3 12.9c-1.5.9-5.7 1.7-6.5 2.8-.7 1 0 4.9-.2 6.5a23.7 23.7 0 01-4.3 11.8c-5 6.5-13.8 8-21.3 5.2-10-3.8-10.9-12.6-12.5-21.7 0-.7.5-2.6.2-3-.4-.5-4-1.2-4.6-1.5a32.6 32.6 0 01-5.6-2.8 39.7 39.7 0 01-7.8-6c-3.4 24.2.7 46.5 8.2 69.5.8 2.4 3 6.5 3 9-.1 1.3-1.6 1.7-1.7 3.3-.3 3.2 2.6 2.6 5 2.6 2.3 0 8.5.7 9.6-1.8.7-1.8-1.7-5.8-1.6-8 0-2.3 5.3-32.9 5-33 .5.2.6 1.7.3 1.6-.9-.3 2 1.8 2 1.9a10.2 10.2 0 001.7.6 17.4 17.4 0 007 .6c3-.3 2.8-1 3.3.4.8 1.9-.4 8.4-.2 10.8l.6 6.6c.4 3.6 2.5 9.4 1.8 12.9-.9 4.3-5 6.8 1.3 7.4 1.8.2 10.7-1.5 11.5-.7-.2-.8.5-2.2.3-3.3-.2-1-1.4-1.9-1.5-2.9-.3-2 1-4.7 1.8-6.7a121.8 121.8 0 007-19c5-18.6 8.5-36.8 8.5-56zM112.8 225.3c-5.5 0-2.9 21.4-2.5 26.1 1.1-1.2 9.2-8.6 7-4.6-2.5 4.1-7.3 7.6-10.2 11.5a61 61 0 00-10.9 22.1c8.6-6 19.4-6.3 29.4-4.7 6.6 1 15.2 2.5 20.7 6.7 1.5-3.3 0 2.7 2.6 3.5 2 .6 6.1-1.4 8.2-1.5a47 47 0 017 .6c1.5.1 5 1 6.2-.5.5-.7 0-4.2.3-4.3.7-.2 1.2 1.6 1.3 2.1 4.9-4.3 11-6.5 17.3-7.9-2.1-2.6-1.4-10.9 2.1-12.8 6.6-3.6 7.1 8.2 4.7 11.7 7.7-1 19-2 26.3 1-2-8.8-4.4-17.3-9.4-25a30.4 30.4 0 01-1.8-2.5c-2.2-4.3 0-2.2 2 .5a69.4 69.4 0 015.3 10 87.2 87.2 0 004.8-16.8c.7-3.2 1.7-7.2.5-10.4-1.4-3.6-3.4-2.9-7.2-2-5.6 1.4-11 3.8-16.2 6.2 3.2 2.2 6.5 5.6.7 2a63 63 0 00-14-6.2 77.8 77.8 0 00-35.8-2.3c-4.3.8-9.6 1.5-13.5 3.4-3.5 1.6-3.3 1.6-7 .2-5.5-2-11.9-5.8-17.9-6.1zm16.2 50.2c-7.1-.4-5.5-14.2.5-15.3 8.4-1.6 7 15.9-.5 15.3m30 5c-9.2 0-3.9-7.1 2.3-5 4.3 1.4 2.1 5.3-2.3 5z"/><path class="cls-2" d="M185 318c-3 1-6.1 1.6-9.2 2.3 4.9 6.1 2 18-2.5 23.5 2-1.5 6.6-10.8 7.3-10.8 1 0-1.8 5.5-2 5.9a28.1 28.1 0 01-7.4 7.7c-2.1 1.5-9.2 4.6-8.4 7.6.9 3.2 6.5 2.3 8.7 2 13-1.6 24.7-13.4 20.4-27-.6-1.7-5-11.6-6.9-11.1M162.4 323.8c-.6 1.2-1.5 2.2-2.1 3.3a11.7 11.7 0 002-3.3"/><path class="cls-2" d="M167.8 330.8a6.8 6.8 0 013.5 3.9 1 1 0 01.2 0 7.2 7.2 0 00-2.2-3c-.2-.3-3-1.6-1.5-.9M167.6 341.5v1.1c0-.3.6-1.2 0-1M128.4 319.3c-7.9 4.4-14.2 14-9.1 22.8 3.4 5.9 11.2 9.8 17.6 11.8 5.2 1.6 19.8 2.6 10.6-5.2-5.3-4.6-11.2-8.4-15.5-14-1-1.3-5.1-7.4-1.6-4.5 2.5 2 4.4 6 7 8.4a24 24 0 012.2-17.6c-2.8-.5-8.8-3-11.2-1.7M157.6 326c.2.5-.4 0 .1.7 0-.4.4-1.9 0-.7M212.3 306.3c-3.3-.6-6.2 3-8.9 4.6-3 1.9-7.6 2.7-10.4 4.8-1 .8-3.1 3.7-3.3 5.2-.1 1.6 1.7 4.2 2.4 5.9 2.5 6.5 1.4 15.3 1.3 22.1a114 114 0 01-2.6 23.6c1-2.1 4-5.3 4.5-7.5.6-2.9-1.4-7-1.3-10.4a16.3 16.3 0 012-8c3-4.9 8-10.7 14-10.3 8 .6 10.4 9.9 6.1 15.6-1.7 2-4.4 3.6-7 2.9-1.5-.4-3.9-2-4-3.8 0-1 2.3-3.9 2.7-2.4.4 1.2-4.9 3.7 1.5 5 2.7.6 5.3-1.5 6.5-3.8 3.3-6.2-1.5-13.5-8.4-12-15.3 3.3-16.8 30.4-1.4 34.5 22 5.9 34.4-20.4 31.9-38.4-1.7-12.3-12.1-27.6-25.6-27.6"/><path d="M158 275.7c-10.8 0 5.3 8 5.2 2 0-2-4-2-5.2-2" fill="#eea47d"/><path class="cls-4" d="M156.8 285.5c-2 .8-1 7.6 3.1 5.5a3 3 0 001.5-4c-.7-1.8-2.4-1.5-4.6-1.5"/><path d="M152.8 338.8c-3.6 0-11 .6-8.6 5.5 1.3 2.8 15.4 11.1 2.5 12 1.9 4.5 6.7 5.5 11.2 4.5 1.3-.3 3.8-1 4.8-2 2.6-2.8.5-.3-.4-3.5-1.4-4.7 6.8-7 4.7-12.8-1.4-3.7-10.3-3.7-14.2-3.7" fill="#ffbc91"/><path class="cls-6" d="M153.2 329.7c-2.3.2-5 .1-7 1.2-2.3 1.2-5.6 5.7-3 8 1.5 1.6 4-.5 5.8-.9a27 27 0 019.2 0c2.3.3 6.8 3 8.8 2.6 2.5-.4 4-4.6 2.9-6.7-2.2-4.4-12.6-4.4-16.7-4.2"/><path class="cls-7" d="M205.8 272.7a73.6 73.6 0 00-22.6 3.3c-1.6.6-15.5 8.6-12.1 9.3-2.7 1.6-2.2 4.5-3 7.3a48.6 48.6 0 01-4.6 12.4c-6.5 11.3-10.6-2.8-12.3-9l-1.4-4.2a15.3 15.3 0 00-.8-3.2 18.3 18.3 0 00-1.7-1.6l-1.5-1.9a3 3 0 00-.4-3.3c-.6-.7-.6-.2-1-.5-7.2-5-20.1-6.5-28.6-6.5a35.5 35.5 0 00-15 3c-1.6.7-6.3 2.7-6.9 4.4-.3.7-.4 2 1 1.7-1.3 3.2 0 9.3 1 12.1 1.7 4.8 4.3 6 8 8.6 4.6 3.4 8.3 7 13.8 9.5a89.5 89.5 0 0022.3 6.3c-2.7 3.9-5.3 14.5-2.3 18.9.9 1.4 3.4 2.8 4.9 4 1.1-2.4-1.5-4.5-1.3-7 .2-4.4 3.7-5.5 7.5-6.4 2-.4 8.6-1 9-1.6a50.2 50.2 0 00.9-6.6c.8 0 2.4-.4 3 0 3.3 1.8-2.6 4.6-2.5 6.4 0 2.3 4.6 1.6 6.4 2 2 .6 4.5 1.4 5.4 3.5.7 1.7-.6 2.7-1.5 4.6-1.1 2.2-5.1 10.4-1 9.8 9.2-1.4 12.5-22.2 7-28 15.9-3.4 36.6-10 45.1-25 2.2-3.9 6.3-16.4 2.7-20.3-3-3.1-13.6-2-17.5-2M169 321l4.2-.6c-.2.4-3.9 1.2-4.2.6m-18 1a74.4 74.4 0 01-8.8-.7c.8-1.3 10.5.4 12.5.5-.6.4-2.9.2-3.6.1zM138.6 355c-2.5 0-.2 10.8.3 12.2a19.6 19.6 0 008 11.1c6.5 4.1 16 4.2 22-1 3.7-3.1 11.3-18.5 5.4-21.2.4.2-8.2.8-9 1.1-1 .3-1.7 2.2-2.6 2.9a13.2 13.2 0 01-10 2.1c-2.7-.5-4-2-6-3.7-2.6-2.3-3.5-3.5-8.1-3.5M211 337.6a17.4 17.4 0 00-14.7 10.2c-1.5 3.5-4 19.1 2.9 20 2.1.1-1.2-8-1.2-10.2 0-3.6.9-8 3-11 2.5-3.2 11.5-8.8 14-3.1 1.3 3.1-3.2 11.1-6.8 7.3-.5-.5 1.2-1.6.5-2.2-2.1-2-4 .4-3.2 3 1.7 5.7 10 1.8 11.9-1.8 2.7-5.4.2-12.5-6.5-12.2"/><path class="cls-7" d="M206.3 337c-1.1.3-5.2 3.1-3.9 4.7 1.3 1.5 1.5-1.2 2.1-1.5 4-1.9 8.9-.9 10.6 4.2.3 1-.4 4.2.6 4.6 1.5.6 1.4-4 1.3-4.7-.7-4.7-5.9-8.7-10.7-7.4m9.1 8.7"/><path class="cls-6" d="M161.7 321.6c-3.7-1-3.2 4.7-3.6 7 1-1.5 3.9-4.8 3.6-7"/><path class="cls-6" d="M160.3 320c-2 .3-1.6 6 .7 2.5.4-.6 2.2-3-.7-2.5M169.6 336.2c-.7.4-3.5 3.7-2.7 4.2 2.8 1.6 4.4-5.2 2.7-4.2"/><path class="cls-7" d="M161.3 325.1c-1.4 2.2.1 2.9.1 2.3 0 0 1-3.9-.1-2.3"/><path class="cls-7" d="M162.4 323.9c-.4.3-3.2 2.7-2.1 3.3 1.2.7 2.9-4.1 2-3.3"/><path class="cls-7" d="M162.9 323c-.2.3-2.5 3-1.6 3.6 2.1 1.2 2.6-5.1 1.6-3.5M160.7 319.2c.2 0-2.4 0-2.2 1 .2.5 4.2 0 4.2-.3.3-.8-1.6-.7-2-.7"/><path class="cls-7" d="M161.1 319.7c.6 0-2.2-.1-2.2.6 0 2 3.5-.7 2.2-.6"/><path class="cls-2" d="M216.3 337c-1.4 1.5 2.2 11.4 3.2 8 .2-.8-1.6-9.5-3.2-8m1.5.6"/><path class="cls-2" d="M216.3 338.2c-1.3.7 1.6 5.5 1.7 6.8.2 1.3-1.2 7.1 1.3 5.9 2.7-1.4-.7-14-3-12.7M218 348.6zm0 .1"/><path class="cls-2" d="M217.6 343.8c0 3.9-2 5.9-2.8 9.3-.7 3.2.5 2.8 2.6 0a13 13 0 002.1-6.8c0-.7.7-2.9-.1-3.2-.7-.3-1.8-.5-1.8.7"/><path class="cls-2" d="M218.2 348.3c-.5 1-5.7 7-5.4 7.3 2 1.9 6.3-8.7 5.4-7.3M206.5 346.5c-.2.1-3.3 1.9-2.4 2.7a2.1 2.1 0 002.4-1.4c-.2.2 1.6-2.1 0-1.3"/><path class="cls-2" d="M207.3 347c-.6.3-3.6 1.8-3.3 2.7.3 1.4 5.2-3.6 3.3-2.7"/><path class="cls-2" d="M208 346.7c-.4.2-4.5 2.5-4 3.3.6 1 5.5-4.1 4-3.3"/><path class="cls-2" d="M207.8 347.1c-.5.2-4.7 1.6-4 2.7.8 1.5 5.4-3.2 4-2.7"/><path class="cls-2" d="M209.1 346.6a8.8 8.8 0 00-6.4 6.3c-.2.7-1 5.4 0 5.4.9 0 .5-3.6.6-4v-.1a8.4 8.4 0 012.9-5.6 44 44 0 002-1.2c-.9.5 2.2-1.2 1-.8M203.2 354.2c0 .1 0 0 0 0zm4.9-6.8M199.3 359c0 1.1 1 12 2.6 11.5.4 0-1.3-6.8-1.4-7.2 0-.5-1.3-6-1.2-4.4"/><path class="cls-2" d="M200 361.6c-2.2.1 1 8.4 2 7.8.2-.2-1.7-6.4-1.2-7.2.2-.4-.5-.6-.7-.6m0 1.5"/><path class="cls-2" d="M199 360.5c0 .8 1.7 10.8 3.3 9.9.6-.4 0-1.4-.2-1.6-.4-1-2.2-9-2.6-9l-.6.7m3.4 8.7v-.1m-.2-.3c.1.2 0 0 0 0"/><path class="cls-2" d="M199.3 361.2c0 .8 1.8 10.5 3.5 9.5.8-.5-1-2.9-1-3.1v-.2c-.6-1.3-.8-3.5-1.4-4.8.1.2-1.3-3.4-1.1-1.4M201.7 367.5"/><path class="cls-2" d="M200.8 362.3c-.3.1.9 4.3 1.2 4.2.4 0-.8-4.3-1.2-4.2M169.8 283.2c-4.9 1.5 1.2 1.5.9.5q-.3-.6-.9-.5"/><path class="cls-2" d="M169.9 282.8c-1.3 2.1.3 1.5.3 1.6 0 .7.9-3.5-.3-1.6"/><path class="cls-2" d="M169.8 282a1.7 1.7 0 000 2.3c2.5.7.5-4.3 0-2.3"/><path class="cls-8" d="M155 285.7c-1.7.5-3.9 1.7-5.6 1.6a142.6 142.6 0 004.2 13.7c1.2 3.5 3.4 10 7.5 5.8 4.7-4.9 6-14 7.5-20.2a22.9 22.9 0 01-6.2-.6c0 3-2 9.5-6.4 6-1-.8-1.6-6.3-1-6.3"/><path class="cls-9" d="M158.5 294.8c-1.9.4-7.5 1.8-6.7 4.4.4 1.4 6.6-1.8 7.4-2 1.3-.3 7.7.9 7-1.8-.6-1.7-6.6-.8-7.7-.6m-2.3 3.2z"/><path class="cls-9" d="M162.1 295c-2.3.6-5.7 1.1-7.5 2.3-1.3.9-1.2-.4-1.9 1.5-.5 1.6 1.7 6.4 2.5 7.7 6.4 9.8 15.9-13.8 7-11.5"/><path class="cls-1" d="M129.5 260.2c-6 .9-7.4 14.2-1 15.2 7.9 1.4 9.7-16.4 1-15.2M192.2 261.3c-5.3 1.2-6.2 16.1 1 14.3 6.2-1.6 6.4-16-1-14.3M193.5 265.2"/><path class="cls-10" d="M112.6 223.6c-9.4 0-1.6 24.1-3.2 28.9-1.2 3.5-5.6 6.7-7.8 10a59.5 59.5 0 00-6.3 12.8c-3.6 10.4-3 20.4 4.8 28.6a59 59 0 0027.6 14.7c-4.4 1.6-9.1 7.2-10.7 11.8-2.3 6.7 1.3 8.7 1.8 14.2.6 6-2 12.9-2.2 19-.3 7.2 1 14.6 2.1 21.7 1.8 10.8 5 21.2 8.5 31.5.5 1.5 2.8 5.2 2.7 6.7-.2 1.2-2.3 2.3-2.2 4 0 3.4 2.9 3 5.4 3.1 2.8.2 8.3 1 10.6-.9 2.9-2.3.3-4.1-.2-6.6-.6-3 .2-6.4.6-9.4 1.1-7.8 2.7-15.6 3.4-23.5a19.6 19.6 0 0013.3 1.7c-2.6 2.3-.2 13 .2 15.9.3 3.1 1 6.9 1.5 10.3 1 6.9-5.8 11.9 4.4 12.4 2.3.2 8.4 0 10-1.4 1.9-2 .1-4.4-.3-6.5-.5-3 .1-4 1.6-7.2a107.5 107.5 0 008.3-24c2-9.8 4-18 9.7-26.3 4.6 7.9 12.6 10.2 21.2 8.4 11.4-2.4 18.4-12.5 21.4-23.3a39 39 0 00-3.2-28.2c-4.9-8.9-14.3-17.2-25-16.3a35 35 0 0013-15.5c2.8-7.6.6-15.2-1.5-22.7-.6-2.2-3-6-2.8-8.3 0-1.2 1.3-2.7 1.6-3.8l1.4-6.2A114 114 0 00225 237c.9-5.5 1-12.1-6.4-11.2-3.3.4-6.6 1.8-9.6 3-2.8 1-6.8 3.8-9.7 4-2.7.3-7.2-3.3-10-4.3a78.7 78.7 0 00-13.1-3.5 73.7 73.7 0 00-21-1.1 67.7 67.7 0 00-17.3 4.4c-2.7 1-4.1 2.1-6.8 1.8-6.2-1-12-6.5-18.5-6.5m-2.3 27.8l-.4-8.3c-.1-3.4-1.9-15.3 1-17.5 3.5-2.5 15.4 4 18.5 5.4 2 .8 4 2.2 6 1.8a20.8 20.8 0 013.5-2l6-1.5 5.8-1.4a78 78 0 0135.4 2 59.5 59.5 0 0111.9 4.8c.8.4 5 3.6 5.9 3.6 2.6 0-2.8-3.5-3.6-4a124.1 124.1 0 0114.7-5.7c2.6-.8 6.4-2.4 8.3 0 2 2.6.6 8.3 0 11.2-1.3 5.8-3.2 11.7-4.9 17.5a70.7 70.7 0 00-4.8-9c-3.3-5-4.6-4.6-1.6-.3a65 65 0 019.5 22.2c2.7 11.7 2.8 20.3-6.3 29.3a63.9 63.9 0 01-23.5 15.1c-.4.2-22.5 6.7-22.6 6.4.3 1.1 11-1.6 11.6-1.8 4-1 4.4-1.8 6.7 1.6 2.6 3.8 4.7 7.8 5.1 12.1a21 21 0 01-12.6 20.9c-2.6 1.3-16.4 5.9-17.1 0-.4-2.8 11.1-9.1 13.2-11.5 1-1 6-7.3 4.8-9.1.6.9-5.3 8.5-6.5 9.7a27.6 27.6 0 01-7.3 5.4c.3-1.8 0-4.7.6-6.3.5-1.3 2.5-2.4 3.1-4.1 2.6-7-6.3-8.4-11.3-9 .5-1.3 6.4-9.3 1-8.7-3 .3-2 4.4-2.7 6.2-1 3-.6 2-4.2 2-3.3 0-7.4.3-9.8 2.6-5 4.7-.5 7.6-1.1 12.3a77 77 0 01-9.5-9.3c-1.3-1.5-5.2-7.8-3.4-2.8 2.5 7 11.6 12.4 17 16.7 4.5 3.7 6.2 7.6-1.8 7.5-5.4 0-11.1-2.3-15.8-4.8-9.1-5-15.9-14-8.7-24.2 3-4.3 6.8-7.8 12-6.6 2.2.5 22.5 3.5 22.5 1.7 0 .6-28.2-4.7-30.9-5.5a58 58 0 01-19.8-11c-14.6-12.5-7.8-32 2-45.4 1.8-2.4 3.6-5 5.6-7.4 1.4-1.5 4-3.1 5-4.8 3-5.5-5 2.4-6.5 4m82.2 111.7c1-8.8 1-17.8 1-26.6.1-4.7-.8-8-2.6-12.3-1-2.5-1.5-3.4.2-6 2.6-3.8 7.4-4.4 11.3-6.6 3.7-2.2 6.4-5.7 10.9-5.3 10.6 1 19.9 11.6 23.1 21.2a38.2 38.2 0 01-3.1 30.8c-5.2 9.4-12.7 14.9-23.5 14.5-7.8-.3-14.2-7.4-14.7-15.1-.5-8.2 6.7-23.6 17-19.7 5.8 2.1 6 10.7 1.7 14.2-1.9 1.5-4.2 2.3-6.2.6-4-3.3.8-2.3.2-4.2-.4-1.4-2.8 1.3-2.7 2.4.1 2 3 3.8 4.7 4 3.5.4 6.8-2.9 7.8-5.8 3.4-10.2-7.3-16.7-15.2-10.1-4.7 4-8 8.9-8.3 15-.3 4.4 1.9 8.1.6 11.7-.8 2.2-2.8 4.4-3.9 6.6.7-3 1.3-6.1 1.7-9.3zm-3.7-42.3l-2.3-3.1a27.5 27.5 0 004.8-1.3 12.7 12.7 0 00-2.5 4.4m-30.5 7.9c0-1 .4-9 2.8-7.6 2.3 1.3-2.6 5.8-2.8 7.6m-14 11c-1.1-2.2-2-.7-1.4-4.2.4-2.5 1-3.2 2.8-4.4 2.5-1.5 6.5-1.4 9.3-1.4 5 0 19.1 1.1 14.4 9.2-1.6 3.3-9.2-.7-12-1a32.2 32.2 0 00-6-.2c-2.6.2-4.7 1.8-7 2m-.1 1c2.5 0 5-1.7 7.6-1.9a38.3 38.3 0 019.9 1c4.1 1.1 5.5 1.1 5 5.3-.6 3.5-.8 2.6-2.7 5-1.4 1.6-2.8 2.6-2 4.9.1.8 2 1.6 2 2 0 2.1-5 3.6-6.7 4-4.8.9-8.4-.7-10.7-4.7 4.3-.2 6.5-2.7 4.1-6.2 1 1.3-10.8-9.5-6.5-9.5m42.5 9.7a19.5 19.5 0 006-9.5 243 243 0 01-9.2 58.2c-1.9 6.9-5.3 12.5-7.4 19.1a10.7 10.7 0 00-.8 4.6c.2.9 1.3 1.6 1.5 2.6 0 .6-.4 3.1-.3 3.3.2.4-15.3.7-15 .3a9 9 0 01.6-4.4c.8-2.7 1.5-3.4 1-6.4-.5-4-1.2-8-1.5-12.1l-.5-6.7c0-1.3.9-7.8.9-7.8-.8-1.5-1.8-.5-3.8-.3a17.4 17.4 0 01-5.8-.3 9.6 9.6 0 01-2.4-.8 25 25 0 01-2.5-1 1.9 1.9 0 00-.3-2.5l-4.7 30.6a16.5 16.5 0 00-.2 5.8c.2.9 1.8 2.8 1.6 3.8-.5 3.2-6.5 2.5-9 2.5s-6 .7-5.7-2.6c0-1.2 1.7-1.8 1.8-2.8.3-2.1-2.3-7-3-9.2a140.3 140.3 0 01-8.3-69.8 36.4 36.4 0 0020.2 10.8c5 1 4.3.3 7.3 3.6a10.2 10.2 0 008.6 3.1 13.4 13.4 0 004.3-1c1.7-.7 3-2.8 4.4-3.4 2.1-.9 5.6-.5 8.4-1a26.2 26.2 0 0013.8-6.7z"/><path class="cls-10" d="M170.8 280.2c-1 0 .3 2.4 0 2.9-.9 2.3-2.4 2.3-4.9 2.1-3-.1-6-1-9.2-.8-2.1.2-3.9 1.2-5.9 1.4-6.1.7-1.3-3.9-3.4-4.6-2.3-1-1 5-.4 5.7.2.3 1 0 1.2.3a12.7 12.7 0 011.2 3.1l1.4 4.5c2 7.4 6.6 22.2 13.3 9 2.6-5 3-10.3 5-15.4.2-.8 5.1-8.2 1.7-8.2M158 291.3c-1.7 0-1.6-1.1-2-2.5-.9-3.3-.1-2.9 2-3.2 4.8-.8 4.4 5.6 0 5.7m-8.5-4c1.8 0 3.6-1.2 5.4-1.6-1.4 9.4 8.4 8 7.4.4 2 .2 4 .9 6.2.5-2.3 6.4-2.6 14.1-7.1 19.6-8 9.7-9.7-18.8-11.9-18.8"/><path class="cls-10" d="M157.7 275c-4.2 0-5.5 3.8-1.6 5.4 2 .8 9.5 0 7.8-3.7-.8-1.6-4.9-1.6-6.2-1.6m1.7 4.2c-9.4 0-2.5-5.2 1.6-3.3 3 1.3 2.5 3.3-1.6 3.3"/><path class="cls-8" d="M120.2 277.6c-4 .5-6.7 5-3.4 8.3 1.8 1.8 11.3 2.7 13.6 2 4-1.3 4-5.9 1-8.1-2.6-2-8-2.6-11.2-2.2M195 275.8c-3.7.3-9.6 2-11.8 5.3-3 4.6.8 7.8 5.3 6.4 2.6-.8 8-2 10-3.7 3.5-3 1.6-8.3-3.4-8"/><path class="cls-11" d="M203.2 276.8a2 2 0 004 0 2 2 0 00-4 0M199.6 280.4c0 2.6 2.3 0 2.3 0s-2.3-2.6-2.3 0M115.6 278.6a1.7 1.7 0 003.3 0 1.7 1.7 0 00-3.3 0M120.5 282.8a1.7 1.7 0 003.4 0 1.7 1.7 0 00-3.4 0M129.8 264.9c0 3.2 2.8 0 2.8 0s-2.8-3.3-2.8 0M127.5 269.7a1.5 1.5 0 003 0 1.5 1.5 0 00-3 0M193 265.3c0 3 2.6 0 2.6 0s-2.7-3-2.7 0M190.7 269.8c0 3 2.7 0 2.7 0s-2.7-3-2.7 0M220.6 312.5c-.4.8 6.7 7.8 7.6 9.8a39.8 39.8 0 013.5 20 42.3 42.3 0 01-4.6 17.5c-.4.7-8.2 10.8-8.4 10.4 1.3 2.2 10.3-8.6 11.1-9.9a45.2 45.2 0 006.7-20.5c.4-6.7-.4-14.3-4.6-20-1-1.3-9.6-10.2-11.3-7.3m10.8 33.3M161.6 340.6c-2.2.6-1.6 4.9.1 5.5 4 1.4 3.3-6.4 0-5.5M159.4 354.5c-1 .6-4.2 4.5-1.6 4.4 2.7 0 3.6-5.5 1.6-4.4"/><path class="cls-4" d="M154.2 299.6c0 1.8 1.6 0 1.6 0s-1.6-1.9-1.6 0M156.8 297.2q.4 1 1 0-.6-1-1 0"/><path class="cls-8" d="M115.6 230.3c-5.8 0-3.8 13.7-.5 13.6 1.5 0 7.6-5.6 8-6.5 1.8-3.8-3.8-7-7.5-7M216.2 232.7c-2.3 0-9.4 1.6-9.1 4.2 0 1 5.1 7.1 6.1 8 6.6 5.3 11.5-12.2 3-12.2"/><path class="cls-11" d="M119.9 353.8c0 5.5-.5 11-.3 16.4 0 1.9.5 12 2.4 7.1 1.3-3.6-.3-11-.2-14.9 0-1.4 1-7.8 0-8.6-.3-.3-2-2-1.9 0M122.1 386.7c-1.4.4 5.8 25.8 6.6 25.6 1.1-.4-6.7-25.5-6.6-25.6M211.1 248.3c-.5.3 2.7 6.5 3 7.2a77.8 77.8 0 015.4 20c.8 6.8.4 12.8-3.3 18.6-1.1 1.8-14 15-14.3 14.7.5.5 1.7-.8 2-1 7.3-5.8 16.2-11.1 17.8-21.2 1-6.3-.6-13.5-2.1-19.6-.5-1.7-6.9-19.6-8.5-18.7m8.6 36.6v.1M203.8 307.7s.1-.1 0 0M214 255.4"/></svg>