<svg xmlns="http://www.w3.org/2000/svg" viewBox="0 0 315 3"><g data-name="Layer 2"><path d="M0 1.5l9 .2c4.5 0 4.5-.4 9-.4s4.5.5 9 .5 4.5-.5 9-.5 4.5.7 9 .7 4.5-.7 9-.7h9c4.5 0 4.5.5 9 .5l9 .2 9-.1h9c4.5 0 4.5-.8 9-.8s4.5.8 9 .8l9-.1 9 .1 9-.2 9-.2c4.5 0 4.5-.3 9-.3s4.5.3 9 .3l9 .2c4.5 0 4.5-.7 9-.7l9 .1c4.5 0 4.5.3 9 .3h9c4.5 0 4.5.3 9 .3h9c4.5 0 4.5-.5 9-.5s4.5.4 9 .4 4.5.3 9 .3h9c4.5 0 4.5-.5 9-.5s4.5.5 9 .5h9c4.5 0 4.5-.8 9-.8s4.5.7 9 .7" fill="none" stroke="#dcc2c8" stroke-miterlimit="10" stroke-width="2" data-name="Layer 1"/></g></svg>