<svg xmlns="http://www.w3.org/2000/svg" viewBox="0 0 21.9 21.9"><defs><style>.cls-1{fill:#dd5089}.cls-2{fill:#fff}</style></defs><g id="Layer_2" data-name="Layer 2"><g id="Product"><path class="cls-1" d="M20.4 13H2.5a1.5 1.5 0 010-3h17.9a1.5 1.5 0 010 3z"/><path class="cls-1" d="M11.4 21.9a1.5 1.5 0 01-1.5-1.5V2.5a1.5 1.5 0 013 0v17.9a1.5 1.5 0 01-1.5 1.5z"/><path class="cls-2" d="M19.4 12H1.5a1.5 1.5 0 010-3h17.9a1.5 1.5 0 010 3z"/><path class="cls-2" d="M10.4 20.9A1.5 1.5 0 019 19.4V1.5a1.5 1.5 0 013 0v17.9a1.5 1.5 0 01-1.5 1.5z"/></g></g></svg>