<svg xmlns="http://www.w3.org/2000/svg" viewBox="0 0 168.666 25.254"><defs><style>.cls-1{fill:#fff}.cls-2{fill:#f9b9d6}</style></defs><g id="Layer_2" data-name="Layer 2"><g id="Logo"><path class="cls-1" d="M47.13 6.079C49.226 4 49.188 7.276 49.71 8.113a4.18 4.18 0 00.383 2.168q1.658.895 3.306 1.804c.77 2.591-2.081.768-2.903 2.072-1.234 1.959-.755 4.4-1.228 6.543-.572 2.587-1.885 5.665-3.25 1.19-.633-2.079.546-5.983.79-8.136-1.672.503-5.446 1.404-4.426-1.333.6-1.61 2.47-.868 3.266-1.813.877-1.043.395-3.665 1.482-4.53z"/><path class="cls-1" d="M58.7 7c5.3-3.062 12.674-.114 10.669 6.443-1.129 3.69-9.863 3.99-9.943 4.456-.857 3.243 10.217.75 10.643.844 4.276.957-.682 3.62-3.237 4.01C57.61 24.164 48.84 12.55 58.7 7zm7.419 4.145c-.512-5.359-9.38-.82-8.034 2.59.964 2.439 8.495 1.144 8.034-2.59z"/><path class="cls-1" d="M77.004 7c5.301-3.062 12.674-.114 10.67 6.443-1.13 3.69-9.864 3.99-9.944 4.456-.856 3.243 10.218.75 10.644.844 4.276.957-.683 3.62-3.238 4.01C75.914 24.164 67.144 12.55 77.004 7zm7.419 4.145c-.512-5.359-9.38-.82-8.034 2.59.964 2.439 8.495 1.144 8.034-2.59zM91.236 1.282c1.9-4.99 2.82 6.193 2.85 6.306 1.173 4.37 4.586 1.17 7.774 4.804 1.658 1.89 4.211 9.24 2.372 11.298-3.088 3.454-3.044-4.175-3.69-6.193-1.348-4.207-4.265-5.894-6.009-.881-.757 2.177-.022 9.977-3.014 4.91-1.485-2.515-.446-8.63-.477-11.27-.031-2.712-.652-6.358.194-8.974z"/><path class="cls-1" d="M110.024 8.65c8.033-4.931 15.027 7.333 8.489 12.301-8.795 6.684-19.177-5.854-8.49-12.301zm6.37 2.495c-3.3-2.654-9.601 2.933-7.741 6.447 2.952 5.577 13.737-1.962 7.741-6.447z"/><path class="cls-1" d="M122.683 9.686c4.069-3.873 1.86 6.169 1.921 7.1.21 3.213 2.533 6.666 5.92 4.049 2.375-1.835.2-7.181 2.503-8.64 2.727-1.728 2.702 2.596 3.042 4.284.382 1.897 2.51 7.121.322 7.906-1.063.38-2.212-1.162-3.216-1.075-1.057.092-1.952 1.626-3.194 1.842-7.659 1.334-11.234-10.818-7.298-15.466z"/><path class="cls-1" d="M142.72 6.079c1.505-.52 4.534-.501 5.519 1.017 1.854 2.86-1.878 1.615-3.559 2.116-6.839 2.035 3.305 3.801 5.025 6.145 3.665 4.993-2.728 6.346-6.842 5.749-12.168-1.766 4.574-3.687 4.574-3.284 0-1.76-6.562-3.328-7.533-4.461-2.28-2.662-.5-6.135 2.816-7.282z"/><path class="cls-1" d="M155.621 7c5.301-3.062 12.675-.114 10.67 6.443-1.13 3.69-9.863 3.99-9.944 4.456-.856 3.243 10.218.75 10.644.844 4.276.957-.683 3.62-3.238 4.01-9.222 1.41-17.991-10.204-8.131-15.753zm7.42 4.145c-.512-5.359-9.38-.82-8.034 2.59.963 2.439 8.494 1.144 8.033-2.59z"/><circle class="cls-2" cx="3.877" cy="12.577" r="3.877"/><circle class="cls-2" cx="27.929" cy="6.435" r="3.877"/><path class="cls-2" d="M20.013 24.417c-5.049 1.122-8.195-4.012-8.327-4.23a1.879 1.879 0 013.218-1.94c.034.055 1.905 3.033 4.293 2.502 2.399-.533 2.824-4.051 2.828-4.087a1.879 1.879 0 013.736.395c-.026.254-.7 6.238-5.748 7.36z"/></g></g></svg>