<svg xmlns="http://www.w3.org/2000/svg" viewBox="0 0 537.7 483.5"><defs><style>.cls-1{fill:#62357e}.cls-2{fill:#e29ac3}.cls-3{fill:#6d4b95}.cls-4{fill:#a3ddf3}.cls-5{fill:#6dccf1}.cls-6{fill:#9cd9f2}.cls-7{fill:#a3d8ee}.cls-8{fill:#84d1ec}.cls-9{fill:#68cef6}.cls-10{fill:#5b2d74}.cls-11{fill:#fefefe}.cls-12{fill:#5a2f73}.cls-13{fill:#73c4e5}.cls-14{fill:#582b70}.cls-15{fill:#9ecde3}.cls-16{fill:#8479ae}.cls-17{fill:#54266b}.cls-18{fill:#522367}.cls-19{fill:#ecf7fd}.cls-20{fill:#f9dbea}.cls-21{fill:#98daf5}.cls-22{fill:#6ecff6}.cls-23{fill:#bedfed}.cls-24{fill:#e7f6fc}.cls-25{fill:#5e2c7b}.cls-26{fill:#522b70}.cls-27{fill:#e4dbea}.cls-28{fill:#442164}.cls-29{fill:#cbbeda}.cls-30{fill:#f5f2f8}</style></defs><g id="Layer_2" data-name="Layer 2"><g id="Layer_1-2" data-name="Layer 1"><path class="cls-1" d="M282.5 147.2c41.6 36.5 52.2 86.4 60 137.7 3.5 23.8 7.8 47.6 18 69.8 6.1 13.4 15 23.8 31.1 23.4 15-.5 28.6-5 36.4-19 5.6-9.7 3-16.5-6.6-22-12.5-7-22.5-31.6-21.2-48.6 2.6-33.2 19.9-57 46-75.5.8-.7 1.7-2.2 3-1a2.8 2.8 0 01.8 2.4c-10.5 21.8-1.5 42 5.5 62a94.4 94.4 0 014.5 44.5l-.3 1.9 1-.4a1.8 1.8 0 00.2-.8c17.8-21.8 40.7-36 67.4-44.2 3.2-1 6.8-5.7 9-2.7 1.8 2.4-3.5 5-5.8 7.1a80 80 0 00-19.4 34.8c-2.9 9.3-6.8 18.3-9.3 27.7-4.6 17.4-16.5 24-33.3 23.4-6.8-.2-10.2 2.4-14.3 7.9a182.8 182.8 0 01-45.6 41.2 430.7 430.7 0 01-154.5 64c-36 7.5-71.8-2.4-107.2-9.5-55.3-11-88-49-114-95-1.6-3-2.4-3.4-5.8-2.2-9.3 3.5-17.6 1-23.8-6.7-6-7.5-6-18.7 1.7-25.6 10-9 11-18.7 8.1-30.7-1.8-7.7-1.8-15.7-2.7-23.6l.3-2.8c2.6 1 1.5 3.4 1.5 5.2.2 7.8 2.3 17.8 4.6 20.6l.9 9h-.8l-.3-2.6a3.2 3.2 0 00-.5.3l.8 2.4 1.8 12.8-1 .9c-3 .6-2 4.4-4.5 5.6l-.6-.3.4.6-.3-.1-1 1.8-.2-.2.1.2-.6.3.3.3-3.5 4.5-1 1v.1a15.5 15.5 0 00-2.6 11c.8 6.8 5.7 10 11.4 12 4.8 1.6 9.5 1.1 13.3-2.9 1.4-1.7 1.9-.5 2.6.8 1.4 2.5 3 5 4.6 7.5.4 2 .8 3.8 3 4.5l2.3 3.8c-.8 2.8 1 4.3 3.2 5.3 0 4 2.3 6.4 5.5 8.3l-.1-.1.1 1.3.8-.3 1.5 2 .5.7h-.1c0 1-.4 2.5 1.7 1.9l4.4 5.6.4.8-.1-.1v1.3l.8-.3 4.3 5.6.5.8h-.1c0 .8-.1 1.7 1.2 1.4l.2.1c-.5 1.9.3 2.6 2.1 2.3l11 12.4 1.2 1.3 1.6 1.6 1.3 1.7 1.6 1.2h-.1l1 1v-.2l.7.4 4.6 3.5c2.8 4.5 7.1 6.9 12.2 8h-.1c8.8 7.2 19.6 10.4 30 13.8 7.7 2.6 15.5 5.7 24 4.8l16.5 3c5 3.5 10.5 4.2 16.4 2.5h1.9v.7a51.8 51.8 0 0025.6 2.1l4.7.2-1.6.8c.5.3.9.7 1.3.7h16.3l3.8-.2-3.5-1.3 14.8-1.4 11-1.5c6.8 1.3 12.5-1.8 18.3-4.7 4.6-.9 9.6-.9 12.8-5.1l11-4.3 8.3-2.4c7.8-.2 14.4-4 21-7.5.5-.4 2.4 1 1.6-1l5.8-2.6a49.9 49.9 0 0023.7-10.4v.1c3.7-.2 7-1.3 9.2-4.7v.1c1.1-.1 3.2 1.2 2.8-1.7l3.8-2.4c1.7 1.1 2.2 0 2.5-1.5v.1c.4-.1 1.6.9 1-.7l33.2-22.4 3.6-2.1.8-.5-.1.1c1 0 2.6.4 2-1.7l1.9-1.6.7-.4c.9.1 1.7.1 1.5-1.2l.1-.3.6.4-.3-.6 10.3-10.9 1.8-1.8 1-1h-.2l1-.9 1-1-.1.1 1-1v.1l1.7-1c2.7.5 2.5-1.5 2.7-3.2l2.8-4c1.5.5.6-.8.8-1.2 3-.6 2.2-5.4 6-5.3 3.7 0 7.5-.4 11.2-.6l-12.1-.3h-1.4c10.4-1.7 21.2-.7 31.3-4.4 3 .8 3.3-1 3.5-3.2l-.1.1c2-.4 2-2 2-3.6l1-1.9a49 49 0 009.2-23.7l.2-1c2-.4 2-1.3.8-2.7a117 117 0 0110.6-28.9l.5-1.1 4.4-5.7c2 .8 1.5-1 1.8-1.9l.9-.9 1-1 1.7-3.5a55.3 55.3 0 00-24.5 10.1l-1.4 1.3h-.1l-1.6.9h-.3l-1.6 1 .3.2-.3-.2-3.9 2.2a4.6 4.6 0 01-.5-.2c-1.8-1.2-2.2 0-2.6 1.4-1.5-.3-2.5.3-2.7 2l.1-.1c-1.2-.2-2.6-.5-2 1.6l-1.2 1.6h-.8l-.7.4v-.2l-1 1c-1 0-2.5-.3-1.8 1.7l-2.3 1.9-1.4 1h.1l-1 1v-.2l-1 1h.2l-1 1v-.2l-1 1h.1l-1 1 .1-.1-1 1v-.1l-1 1h.2l-1 1v-.2l-1 1.4-4 4.9-.6 1-2 2.7v-.1l-2 2.8v-.1l-1.4 1.3-3 1a17.3 17.3 0 00.7-3.4 28.5 28.5 0 00-.5-4.2c2.8-16.8.3-32.7-5.3-48.8-5-14.6-12.2-29.3-8.2-45.7 3-2.4 3.4-5.6 2.4-9l-.7-1-.2 1v-.1l-5.5 3.4-.8.5v-.1l-1 1 .1-.1c-1 .2-2.7-.4-1.8 1.7l-3 2.5-.6.6v-.2l-1 1v-.1l-1 1 .2-.1-1 1h.1l-.5.7-5.2 5.7-.7-.3-.1 1.3v-.1c-1.8.6-3 1.6-2.7 3.8v-.1c-1 .3-2 .6-1.3 2l-.2.4c-2.5-.1-2.1 1.7-2.2 3.2h.1a31 31 0 00-9.5 22.7l-2.8 24.7c-1.6 3.5-1 6.5 2.1 8.8 2.7 7.3 4.5 15 9.4 21.3l.6 1.5 1 1.4-.1-.1 1 1v-.1a1.6 1.6 0 001.7 2c1.6 2.8 4.4 3.8 7.3 4.6l5.8 5.3h-.1v2l.7-.8.9 2.6a7 7 0 000 7.3c-1 6.3-3.5 11.7-8.6 15.7l-1.4 1h.2l-1 1v-.1c-.8 0-1.7 0-1.4 1.3l-.2.2-.6-.4.3.6a42.2 42.2 0 01-39.5 9.2 8.5 8.5 0 001.4-.2 1.3 1.3 0 000-.7l-11.9-4-.2-.2c.3-1.3-.6-1.2-1.5-1.3L368 373a11.1 11.1 0 00-5.4-7.5l-.6-.1-.4-.9c.5-3.9-2.3-6.7-3.8-9.7-3.3-6.8-4-14.5-8.8-20.5l-.2-1a2.3 2.3 0 000-3.7c-.5-2.2.8-5.2-2.5-6.3-6.8-25-8.5-51-13.9-76.2 1.8-2.7.3-5-1-7.3l-1.7-1.8-.1-1c1.2-2.6.7-4.7-2-6l-.8-2.2c.9-8.8-3.7-16.3-6.4-24-2.5-7.1-3.9-15.2-10.8-20L299.4 171l.3-.6h-.7.1l-1-1.1.2.1-1-1c0-.8 0-1.7-1.2-1.3v-.3l-.8-.8h-.3c.5-1.9-.3-2.6-2.1-2.2l-1.6-2-.5-.7h.2l-1.2-1-.6-.8c-1.1-3.4-3.1-6-6.8-6.9l-.2-.2c.4-1.5-.2-2-1.7-1.6v-.3l-.8-.8h-.1l-1.6-1.3-.7-.7-1-1.2v.2l-1-1h.1l-1-1v.2l-1-1v.1l-.7-.5-8.3-8c.8-2.2-1-1.5-2-1.7h.2l-1-1v.2l-.8-1.1c-2.6-3-5.2-5.7-9.3-6.4v.1l-1.1-.9v.2-.7l-.6.3-3.7-2.7c.6-1.7-.7-.6-1-.8a39.9 39.9 0 00-24.7-10.3l-3.5-.9 1.4-.1c-.3-.3-.4-.9-.7-.9-4.4-.7-8.9-1.8-13.4-2-9.5-.4-19-2-28.6.5v.6h-2.8c-6-2-11.7-.4-17.4 1-5.7.4-11.3 1.2-16.5 3.7-10 .7-17.7 6.8-26 11.3-9.1 5-19.2 8.8-26.1 17.4v-.1h-1.2l.2.8-2 1.6-.7.4c-1.6 0-3.4 0-2.8 2.5l-2.9 2.5-.8.5.1-.2-1 1v-.1l-1 1h.2l-1 1v-.2l-1 1.3-8.3 8.9-1-.3v1.5h-.4l-.8.9h-.1l-.9 1-1 .8v.2c-1.9-.1-2.8.6-2.4 2.6l-.3.3c-2.2-.3-3.2.8-3 3l-3.8 3.7c-2.4-.4-2.5 1.2-2.7 2.8l-.9 1h.2l-.4.7c-8.4 11.3-13.8 24.2-20 36.7a45.2 45.2 0 00-8.4 24.8L15.1 259l-.4-2.5a13.7 13.7 0 01-.6 1.8c-1.4 3.1.2 7-2.4 9.9l-.3-4.6c5.6-36.9 17.9-70.5 44.4-98.1a241.3 241.3 0 0159.3-46.7c25.7-14 52.9-16 81-15.3 33.5.7 59.2 16.9 82 39.3l4.4 4.4z"/><path class="cls-2" d="M282.5 147.2l-4.5-4.4c4.2-7.4 2.4-15 1-22.6-1-4.8-.4-10.1 4.6-11.5 4.7-1.3 6.4 3.7 7.6 7.4 1.5 4.9 2 10.5 9.6 5.7a5.7 5.7 0 017.4 1.8c2.1 3 1.1 5.9-.3 8.6-3.6 7.3-11.4 8-17.7 11.2l-7.7 3.8zM335.8 88.6c3.3-9 3.8-18 4.2-27.2.1-3.4 1.2-8 6.1-7.5 4.8.5 5 5 5.4 8.8l.6 5.2 4.1-2.6c3.7-2.2 8-4.6 11.2-.9 3.3 3.9-.8 7.3-3.6 9.4-8.1 6.2-16.5 12-25 17.5-2.6 1.6-2.8-1-3-2.7zM283.7 75.8c-.2-5 .7-8.7 4.3-9.6 4.4-1 7.4 2.6 9.6 5.9 2.3 3.4 3.4 3.6 5.6-.1 2-3.3 4.7-7.5 9.4-4.8 4.6 2.6 2.6 7.3.9 10.6-3.4 6.6-7.6 12.8-11.6 19.1-.7 1.3-2.3 2.5-3.1.7-3.1-7.2-10-11.4-14-17.9a11.5 11.5 0 01-1.1-3.9zM334 4.2c-6.3 7-5.9 16.4-9.8 24a2.4 2.4 0 01-3.9 1L303.8 14c-1.7-1.6-2.7-4-1-6.2 1.7-2.1 4-2 6.2-.9 5.2 2.5 10.2 5 13.5-3 1-2.3 4.4-4.4 7.6-4 1.3.3 2.4 2.5 4 4.2z"/><path class="cls-3" d="M11.4 263.6l.3 4.6v16.5l-.3 2.8a77.2 77.2 0 010-23.9z"/><path class="cls-4" d="M59.9 408.5l-4.4-5.6-1.7-2v.1a1 1 0 00-.4-.7l-1.5-2-.9-1v.1l-5.5-8.4.1.1-3.2-5.3-2.2-3.8-2.4-4.5-.6-1a287.4 287.4 0 01-18.5-55l-.9-9a171 171 0 01-2.7-51.5l3.6-17.3 8.4-24.8c6.2-12.5 11.6-25.4 20-36.7a1 1 0 00.4-.7h-.2l1-1 2.6-2.8 3.7-3.7 3.1-3 .3-.3 2.4-2.6v-.2l1-.8.9-1 .9-.9h.3l1.1-1.2 8.3-9 1-1.2v.2l1-1h-.1l1-1-.1.1 1-1v.2l.7-.5 2.9-2.5 2.9-2.6v.1a1 1 0 00.6-.4l2-1.6 1-.8a246.5 246.5 0 0152-27.8l2.6-.8 19.5-3.7 2.7-.1 9.1-.8h26.7l17.5 1.8 3.5 1c8.5 2.8 17 5.8 24.7 10.3v-.1l1 .8 3.7 2.7a.7.7 0 00.6.4v-.2l1.2 1-.1-.2 9.3 7 .8.5v-.2l1 1h-.1l2 1.7 8.2 8a.8.8 0 00.7.5v-.1l1 1v-.1l1 1-.1-.1 1 1v-.2l1 1.2.7.7 1.6 1.3 1 .8v.3l1.6 1.6.2.2 6.8 7 .6.7 1.2 1h-.2a.9.9 0 00.5.7l1.6 2 2 2.2h.4l.8.8v.3l1.3 1.4-.1-.1 1 1-.1-.1 1 1.1h-.2a.7.7 0 00.4.6l10.2 13.8c8.7 13.5 12.2 29 17.2 44l.7 2.1 2 6.2.2 1 1 2.6 1.7 6.4c5.4 25.2 7.1 51.2 14 76.2l1.5 6.4.8 3.4.1.2.2 1c3.2 10.5 6.4 21 12.6 30.2l.4.9.6.6 5.4 7 1.6 1.6 1.5 1.3.2.2c3 2.7 6.7 4 10.5 4.9 14.8 3.7 28 .5 39.5-9.2l.3-.2.2-.2 1.4-1.3 1-1-.2.1 1.4-1c5-4 7.5-9.4 8.6-15.7.7-2.4 1.1-4.8 0-7.3l-.9-2.6-.7-1.3v.1l-.6-2.2c4.5 1.8 5 7.1 8.7 9.7v.8c0 2 .1 4 2.6 4.7v1.8l-.3.4.5-.3c1.8-.5 2.4-2 2.6-3.7h1l2.8-1c.2 2.4 1.5 1.5 2.6.9a23.5 23.5 0 01-4.3 12.2c-20.5 27.5-48.1 45.9-78.1 61.2h-1c-6.6 1.7-13.3 3.8-20.2 2.7-5.1-.8-9.2-3-5-9.1 2-3 1.3-4.7-2.3-4.8-8.8-.3-17.6-.6-26.4-.7-37-.5-59-17.6-66.9-53.7a62.1 62.1 0 00-29.4-42.9c-15.9-9.7-17.6-18.6-9.2-35.2a160 160 0 0112.4-20.3c14-19.9 16.9-40.7 5.8-62.8-17.6-35-81.1-62.4-123-51-42.2 11.6-64 43.4-75.9 83.5l-1.8 6.3a45.5 45.5 0 00-3.7 16.5c-4.6 19-3.2 38.3-1.2 57.4 1.3 11.7 5.1 23 7.9 34.6 1 3.8 4.5 5.6 7 8.1l2-2 5.4 12.8c-3 2.3-.7 4.8 0 7 4.2 13.9 13.4 25 20.7 37.3 7.2 12.3 19.2 20 28.8 30-4.5 2.2 3.5 3 .5 5l-2.3-1.3-4.6-3.5a.9.9 0 00-.7-.4v.1l-1-1v.1l-1.4-1.2h-.1l-1.3-1.7-1.6-1.6-1.2-1.3-11-12.4-2-2.3-.3-.1-1.2-1.5a1 1 0 00-.4-.7l-4.3-5.6-.8-1a1 1 0 00-.3-.7zm221.9-144.9c12 0 18.4-5.5 18.4-16a18 18 0 00-18.3-17.9c-11.7 0-17.5 7.2-17.3 21.4.2 7.4 7.2 12.5 17.2 12.5zm14.7-80.8c.2-12-10.1-23.8-19.7-23.6-7.6 0-8.2 6.3-8.5 11.3-.7 14.1 5.7 22.3 16.8 22.5 7.8.2 10.2-5.2 11.4-10.2zm11.7 105.7c.5 2.5 1.2 6 2.2 9.6a10.3 10.3 0 008.7 7.6c4.8.8 7.6-2.2 9.5-6.2 5.2-10.8 2.6-21-3.4-30.2-3.1-4.8-7.7-5.5-11.6.3a39.1 39.1 0 00-5.4 18.9zm-94.6-114.6c6.6-.3 11-3.4 11.2-9.8.2-7.3-4-12.6-11.4-13-8.3-.4-10.8 6.3-10.7 13 0 6.6 5 9.2 11 9.8zm89 162.2c5 0 8.3-2.5 8-6.7-.3-7.6-4.8-13-12.3-14.2-5.2-.8-8.3 4-7.9 8.1a14 14 0 0012.2 12.8zM334 346a5.8 5.8 0 005.2 6.2c2.2.4 3.9-1.8 3.9-4.1-.1-3.3-2.1-5.3-5.3-6-3.3-.6-3 2.3-3.8 3.9zm-98.8-208.5c-.5 2.9 1 4 3.2 4.2 2.8.2 3.7-2 3.8-4.2a4.4 4.4 0 00-4.3-5c-3.4 0-1.4 3.7-2.7 5z"/><path class="cls-5" d="M94.4 444.6c3-2-5-2.8-.5-5a45 45 0 0021.1 9 47.8 47.8 0 015.8 1.4 344 344 0 00108.8 21.7 54.4 54.4 0 0024.8-.3c38.9-7.7 75-23.4 110.7-40 2-1 5.8-1.4 4.8-5.5 30-15.3 57.6-33.7 78-61.2a23.5 23.5 0 004.4-12.2l1-1.8c3.3 1-.1 2.9.5 3.8 2 3.2-6 7.7 1.3 10l.6 4.2h-.1l-1.4.3-3.7 2.8-.4-1.1-.5 1.1c-1.1 1.6-5.9 2.1-1.8 5.5l-.9 2.8-1 1 .1-.1-1 1h.1l-1 .9h.1l-1 .9a1.7 1.7 0 00-1.8 1.8c-1.3.2-2.9 0-3.9.8-15.8 11-30.7 23.4-47.6 33-.6.3-.8 1.4-1.2 2.1a9 9 0 002.3-.7c7.3-4.4 14.4-9.1 21.8-13.3 2.3-1.3 4.1-4.6 7.6-3l-33.1 22.3-1.1.7-2.5 1.4-3.8 2.4-2.9 1.7-9.2 4.6h.1l-7.2 2.8c-4 .1-7.5 1.2-10 4.5l-1 .2-9.2 1.9v-1l1.9-.9 1.1-.3-.2-.3-1 .6-1.8 1-1.8.9-2.7.9-1.9 1v-.1c-1.7 0-3.6-.2-4.6 1.8-4.6.6-9.1 1.4-12.8 4.6l-2.7 1-8.3 2.7-1.7.2.2.6 1.5-.8h3.7l-1.9 2.5-11 4.3-4.6 1.4c-1.9-1-3.3-.6-4 1.5a172.4 172.4 0 00-33.5 8.4l-14.8 1.4h-16.3l-4.7-.2-20.1-2-5.5-.7H191l-8.3-1.1-3.6-.7-4.5-.9L158 470a236.1 236.1 0 01-54-18.6h.2l-1.2-1.2c-.4-1.7-1.6-2.2-3.3-2.2l-2.2-1.3-1.9-1.4-1-.8z"/><path class="cls-6" d="M455.1 364.5c-7.4-2.3.7-6.8-1.3-10-.6-.9 2.8-2.8-.5-3.8l3.7-10 .9-1 1.2-2 .2-.3-.4.1-1 2.2-1 .9a5.1 5.1 0 00-.9 0h-3.3l-.3-7.3 2-.1.9 1.6 1.4-1.8 1-.8.8-1c1.6-.1 2.1-1.2 1.9-2.7 1.5-.2 2-1.2 2-2.7h-.2a2.5 2.5 0 002-2.7l.8-.9c3.3-.2 4.5-3.1 6.5-5.1 1.6-1.6 2.1-5.2 5.7-3l-8.4 11.8-.1.5.2-.4 4.4-3c4.8-4 8-9.8 14-12.6l-.1 1.8-1 .9-.8 1.9-.4.3h.2a1.3 1.3 0 00.2-.3l1-1.8.8-1 1.8-1.8 1-1.9 1.8-1.8 1-1h-.1l1-.8.8-1 1-.9.9-.9 1-1c4.4-4.3 11.3-5.3 14.6-11l.7-.8 2-1a2.6 2.6 0 002.8-2.6l1-.6.7 1.9 1.7-2.8 1.2-.5 1.2 2.9-1.2 1.8-4.4 5.7-.3-.3.1-2.6 1-2.2-.3-.2-.8 2.3c-5.8 2.5-8.4 7.3-9.7 13.2a6.6 6.6 0 00.1 1.7 9.7 9.7 0 001.6-1.4l7.1-9.8a2.8 2.8 0 00.7.4 117 117 0 00-10.6 29l-.8 2.6-.2 1-5 12.5c-1.7-5 3.6-9.3 1.3-14.3 3.3-8.1 3.3-8.1 0-8.3l3.3-11.3.8-3.4a15.8 15.8 0 00-2.6 2.6c-11.1 17.6-16.9 39.1-37.2 49.7l-1 1-1.8.8c-3.5 1.2-6.7 2.7-8.3 6.5v.9zm25.7-27.5l1-1a1.2 1.2 0 00.2-.1v-.3l-.3.4-1 1-.8.9-1 .9-1.8.9-1.4.9.5.5 1-1.3 1.8-1 .9-.9zm-20.1-1.8l.1-.4-.2.3-.2.4zm22.8-2l1-.8.3-1.1-.3 1.1-1 1-.1.3zm-17.4-4.5l.2-.3-.2.3-.2.4zm20.2-8.3l-1 1-.9.9-.9.9-.9.9-.2.4.3-.3.9-1 .9-.9 1-.9.8-.9.2-.4zm-12.8 22.1l.4-.4c-.2 0-.3.2-.5.3l-1 1-1.7.9-1 .9-1.8 1-1-.4c2.1-5.9 7.4-9.4 10.7-14.4a8.6 8.6 0 00.7-2.2c-.6.1-1.2.1-1.6.5-8 7.3-17.1 13.7-20.7 24.7l-.1.4.2-.4 8.6-6.4 3.3-1.8 1.8-1 1-.8 1.8-1zm24.7-35.8l-1 1.8c-1.8 1-5.5 1-2.6 4.7l-.7 1 .6-.2 2.8-5.4 1-1.9.1-.4zm-7.4 8.2l-1.3 1 .5.5 1-1.4.6-1-.4-.2zm16-6.6a1.1 1.1 0 000 .4h.2a1.1 1.1 0 00.1-.3h-.3zm-1.8 6.4l-.1.4.3.1a1 1 0 00.1-.4z"/><path class="cls-7" d="M423.1 238l5.2-5.6a.8.8 0 00.5-.7h-.2l1-1v.1l1-1h-.2q.6-.4 1.1-1v.3a.9.9 0 00.7-.6l2.9-2.5 1.8-1.7 1-1v.2l.7-.5 5.5-3.4-1.5 9.1c-4 16.4 3.2 31 8.2 45.7 5.6 16 8 32 5.3 48.8l-2.5 8-.3-6.2.5-7.6c.8-15.5 2.3-31.1-7.9-44.6-3.4-8.9-7-17.7-6.4-27.6a12.3 12.3 0 00-.4-2.5 8.5 8.5 0 00-1.3 2.6l-1.9 19.3-1-1.5-.9.7c-.3 6.7-1 13.3-.5 20 .8 13.1 7.7 24.3 10.4 36.8-2.2-.3-2.5-2.4-3.5-3.9-14.6-20.5-9.6-43.7-9-66.3a5.9 5.9 0 01.2-1.3 4.8 4.8 0 01.6 1.1c.6 2.7.1 5.7 2.2 8l.6-8.5a91 91 0 011-6.7c.4-2.3 2-6 .2-6.6-2.4-.7-3 3.2-4 5.3l-8.8 22 3.3-18.7c-.1-2 3.4-4.3.3-6-2.9-1.5-3.1 2.1-4.2 3.5-10 12-12 26.6-13.5 41.4-1.5 14.3 4.6 27.4 6.5 41.1l-.6.8c-4.9-6.3-6.7-14-9.4-21.3l-2-8.8 2.7-24.7a98.6 98.6 0 019.5-22.8l2-3.1.3-.3 1.3-2.1 2.7-3.7.8-1zm17.3-11.9l.5.2-.4-.3-.5-.3.4.4zm-1.9 7.1a10.3 10.3 0 001-1.8c0-.2-.4-.6-.6-.8a8.2 8.2 0 00-.9 1.4l.6 1.2z"/><path class="cls-8" d="M455.1 364.5v-1c5.1-2.8 11.7-3.1 15.6-8.2 6.8-.6 14-.8 16.7-9l.3-.6-.6.3-10 5.5 10.2-10.1 3.1-3.7-.4 4.8-.2.3.2-.3h.8c.1 4 1.7 1.6 2.7.5 4.2-5 6.2-11 8.4-17 2.3 5-3 9.3-1.2 14.3h-.1l-1 .2.4 1-3.7 10-.9 1.9-2 3.6-3.4 3.1c-10 3.7-20.9 2.7-31.3 4.3l-3 4.4zM14.2 338.9c2.4-1.2 1.5-5 4.6-5.6 3.2 11.5 5.9 23 11 33.9-3.7 4-8.4 4.5-13.2 2.8C11 368 6 365 5.2 358l2.4.1.1.2c1.3 3.6 4.3 5.5 7.7 6.6 2 .6 6.2 1.9 5.7-1.4-1-5.8-.9-12-4.2-17.4 0-2.6 1.2-6-3.6-5.3l.4-1.7h.3l.2-.2z"/><path class="cls-9" d="M487.2 310.4c-5.9 2.8-9.1 8.6-14 12.6l-4.3 3 8.3-11.9c3.2-3.3 6.5-6.7 8-11.2 2.4.2 3.4-1.3 4-3.3l1.9-1.9v.1l2.5-1.4a4.4 4.4 0 00.5.2c1.6-.2 3.3-.3 3.9-2.2l.3.2-.3-.2c.9.3 1.7.3 1.6-1h.3c.9.4 1.6.4 1.6-.9h.1l10.4-2.4c-3.3 5.7-10.2 6.7-14.7 11l-1 1-.9 1-.9.9-.9.9-1 .9h.1l-1 1v-.1c-1.2-.1-1.8.6-1.8 1.8l-.9 1.9z"/><path class="cls-6" d="M420.4 404.4c-3.5-1.5-5.3 1.8-7.6 3-7.4 4.3-14.5 9-21.8 13.4a9 9 0 01-2.3.7c.4-.7.6-1.8 1.2-2.2 16.9-9.5 31.8-22 47.6-33 1-.6 2.6-.5 4-.7l-10.3 11-.3.1v.3l-1.6 1.3v-.1a1 1 0 00-.7.4l-2 1.6-1.9 1.7a1 1 0 00-.7.4z"/><path class="cls-10" d="M29.9 367.2c-5.2-10.8-7.9-22.4-11.1-33.9l.9-1 .3 1.2.4-.2-.7-1-1.8-12.7h.8c4.7 18.8 10 37.4 18.5 55v.9c-1.6-2.5-3.3-5-4.7-7.5-.7-1.3-1.2-2.5-2.6-.8zM15.1 259a171 171 0 002.7 51.5 46.6 46.6 0 01-4.6-20.6c0-1.8 1.1-4.1-1.5-5.2v-16.5c2.6-2.9 1-6.8 2.4-9.9a13.7 13.7 0 00.6-1.8z"/><path class="cls-11" d="M13.3 340.8c4.8-.7 3.6 2.7 3.6 5.3a32.8 32.8 0 01-9.2 12.2v-.2l.2-11 .9-1.1 3.5-4.5a.5.5 0 00.3-.6v-.2.2a1.1 1.1 0 00.7-.1z"/><path class="cls-12" d="M138.8 113.2a246.6 246.6 0 00-52 27.9c6.9-8.6 17-12.4 26.1-17.4 8.3-4.5 16-10.6 26-11.3l-.1.8z"/><path class="cls-10" d="M104.2 451.3a236 236 0 0054 18.6c-8.5 1-16.3-2.2-24-4.8-10.4-3.4-21.2-6.6-30-13.8z"/><path class="cls-13" d="M340.5 447l9.2-1.9-5.5 2.8-5.8 2.5-1.5.5-1.1.6-20 7.5-8.3 2.4 1.9-2.5 2.7-1c2.7-.2 5.3-.7 7.4-2.7l3.6-1 1.9-.8 4.6-2.8 4.5-1.8 1.9-1v.1h2.7l1.8-1z"/><path class="cls-12" d="M326.8 228.8c-5-15-8.5-30.5-17.2-44 7 4.8 8.3 12.9 10.8 20 2.7 7.7 7.3 15.2 6.4 24z"/><path class="cls-7" d="M485.2 302.9c-1.5 4.5-4.8 7.9-8 11.2-3.6-2.2-4.1 1.4-5.7 3-2 2-3.2 4.9-6.5 5.1l4-4.9 1-1.4-.1.2 1-1h-.1l1-1-.1.1 1-1-.1.1 1-1h-.1l1-1v.1l1-1-.2.2 1-1 1-1-.1.1 1.4-1 2.3-1.9 1.9-1.8-.1.1 1-1v.2a1 1 0 00.7-.4h.8z"/><path class="cls-14" d="M216.9 109.6l-17.5-1.9c-7.9-1.6-15.8-.7-23.8-.6 9.5-2.6 19.1-1 28.6-.5 4.5.2 9 1.3 13.4 2 .3 0 .4.6.7.9z"/><path class="cls-12" d="M361.6 364.5c-6.2-9.2-9.4-19.7-12.6-30.2 4.8 6 5.5 13.7 8.8 20.5 1.5 3 4.3 5.8 3.8 9.7z"/><path class="cls-15" d="M254.4 477a172.4 172.4 0 0133.4-8.3l-4 1.4-1.2.6-17.2 4.8z"/><path class="cls-12" d="M27 216.9q-4 12.4-8.3 24.7a45.2 45.2 0 018.4-24.7z"/><path class="cls-14" d="M245.1 120.9c-7.8-4.5-16.2-7.5-24.7-10.4 9.3 1 17.8 3.8 24.7 10.4zM198.5 476.2l20 2c-8.7 2.1-17 .1-25.5-2h5.5z"/><path class="cls-12" d="M518.5 285.1l-1 .6-1.9.5-12.6 5a55.3 55.3 0 0124.5-10l-5.4 2.5-1.2.5z"/><path class="cls-14" d="M496.3 351.5l3.7-10 .6-1.2 5-12.5a49 49 0 01-9.3 23.7zM223.3 478.4h16.3l3.5 1.3c-1.3 0-2.5.3-3.8.3H223c-.4 0-.8-.5-1.3-.8z"/><path class="cls-12" d="M344.2 448l5.5-2.9 1-.2 10-4.5 7.2-2.9a49.9 49.9 0 01-23.7 10.4zM416 248.2a98.6 98.6 0 00-9.5 22.8 31 31 0 019.5-22.8z"/><path class="cls-10" d="M160.9 108.7l-19.4 3.7h-2.6a43.6 43.6 0 0116.5-3.7h5.5z"/><path class="cls-12" d="M315.8 459l20-7.5h1c-6.6 3.4-13.2 7.3-21 7.5zM265.4 475.5l17.2-4.8 1.1.1c-5.8 2.9-11.5 6-18.3 4.7z"/><path class="cls-10" d="M182.8 474.4l8.3 1c-5.9 1.7-11.4 1-16.4-2.6l4.5.9z"/><path class="cls-12" d="M453.6 331.2l2.5-8a28.5 28.5 0 01.5 4.2 17.3 17.3 0 01-.7 3.4l3-1-.5 1.4h.1l-.8 1-1 .9v-.1l-2.4.2-.8-1z"/><path class="cls-15" d="M503 291.2l12.6-5-.9 2.2-2 1-.7.7-10.4 2.4 1.4-1.3z"/><path class="cls-14" d="M455.7 368.8l3-4.4h1.4l12.1.4c-3.7.2-7.5.6-11.2.6-3.8-.1-3 4.7-6 5.3l.4-1.7.2-.2z"/><path class="cls-7" d="M455.4 369l-.4 1.7-.8 1.1-2.8 4.1-2.7 3.1-1.8 1.1.9-2.8 1-1.8h-.1c1.6-.7 2-2.1 1.9-3.7l3.6-2.8z"/><path class="cls-3" d="M175.6 107.1c8 0 16-1 23.8.6h-23.8v-.6z"/><path class="cls-4" d="M7.9 347.1l-.3 11H5.2a15.5 15.5 0 012.7-11z"/><path class="cls-10" d="M103.1 450l1.2 1.4c-5-1.2-9.4-3.6-12.2-8l2.3 1.2.3-.2 1 .8 1.9 1.4 2.2 1.3zM283.7 470.1l4.1-1.4v-.1l4.1-1.5 4.6-1.4c-3.2 4.2-8.2 4.2-12.8 5.1v-.7z"/><path class="cls-14" d="M381.8 381c-3.8-1-7.5-2.2-10.5-5l11.9 4a1.3 1.3 0 010 .8 8.5 8.5 0 01-1.4.2zM160.9 108.7h-5.5c5.7-1.4 11.5-3 17.4-1l-9.2.9zM260.8 132.3l-9.3-7c4 .7 6.7 3.4 9.3 6.4v.6z"/><path class="cls-12" d="M442.6 228.7l1.5-9.1h1c1 3.5.4 6.7-2.5 9.1zM403.7 295.7l2.1 8.8c-3.2-2.3-3.7-5.3-2-8.8z"/><path class="cls-16" d="M522 283.7l5.5-2.6-1.8 3.5-1 1-.8 1a1 1 0 01-.6 0z"/><path class="cls-14" d="M45.5 389l5.6 8.4c-3.2-1.9-5.5-4.4-5.6-8.4z"/><path class="cls-12" d="M434 345.2c1.1 2.5.7 5 0 7.3a7 7 0 010-7.3z"/><path class="cls-14" d="M426.8 336c-3-.7-5.8-1.7-7.4-4.5l.1-.2h.9l7.2 4.8h-.9z"/><path class="cls-12" d="M332.4 247l-1.8-6.3.8-1c1.3 2.4 2.8 4.7 1 7.4z"/><path class="cls-17" d="M289.2 159.3l-6.8-6.9c3.7 1 5.7 3.5 6.8 7z"/><path class="cls-14" d="M368 373l-5.4-7v-.5a11.1 11.1 0 015.4 7.5z"/><path class="cls-12" d="M367.9 437.6l9.2-4.6c-2.2 3.3-5.5 4.4-9.3 4.6z"/><path class="cls-17" d="M426.8 336h.8l3 2.3h.3l.9.9.7 2.2-5.8-5.3z"/><path class="cls-12" d="M348 329.7l-1.7-6.4c3.3 1.1 2 4 2.5 6.3l-.2.2a2 2 0 00-.7 0z"/><path class="cls-14" d="M329.6 237l-2-6c2.7 1.3 3.2 3.4 2 6zM42.4 383.8l3.2 5.3c-2.3-1-4-2.5-3.2-5.3z"/><path class="cls-7" d="M415.8 327.3l-.6-1.5.6-.8 2.6 4.6-.7-.1-1-1v.2l-1-1.4z"/><path class="cls-10" d="M37.8 375.5l2.4 4.5c-2.3-.7-2.7-2.6-3-4.5h.6z"/><path class="cls-17" d="M57.7 169l-3 3c-.2-2.2.8-3.3 3-3zM490 360.1l3.5-3.2c-.2 2.1-.6 4-3.4 3.2z"/><path class="cls-7" d="M489.2 299.6c-.6 2-1.6 3.5-4 3.3l1.2-1.6 2-1.6h.8z"/><path class="cls-3" d="M198.5 476.2H193v-.7z"/><path class="cls-17" d="M83.2 143.7l-3 2.6c-.5-2.6 1.3-2.5 3-2.6z"/><path class="cls-12" d="M422.3 239l-2.7 3.8c-.3-2.2 1-3.2 2.7-3.8zM377 433l3-1.7c.3 3-1.8 1.6-3 1.7z"/><path class="cls-17" d="M50.9 175.7l-2.7 2.8c.2-1.6.3-3.2 2.7-2.8z"/><path class="cls-18" d="M448.7 379l2.7-3c-.2 1.6 0 3.6-2.7 3z"/><path class="cls-17" d="M295 166l-2.1-2.2c1.8-.4 2.6.3 2 2.2z"/><path class="cls-14" d="M505.8 326.8l.8-2.7c1.2 1.4 1.1 2.3-.8 2.7z"/><path class="cls-12" d="M418 245l-2 3.3c0-1.5-.4-3.3 2-3.2z"/><path class="cls-17" d="M60.4 166.1l-2.4 2.6c-.4-2 .5-2.7 2.4-2.6zM67.1 418.1l2.1 2.3c-1.8.3-2.6-.4-2-2.3zM493.4 357l2-3.6c0 1.6 0 3.2-2 3.6z"/><path class="cls-15" d="M498 294.4c-.6 2-2.3 2-3.9 2.2z"/><path class="cls-7" d="M458.4 331.2l.5-1.4 1.5-1.3c.2 1.5-.3 2.6-2 2.7z"/><path class="cls-12" d="M348.8 329.6a2.3 2.3 0 010 3.7v-.1l-.2-3.4z"/><path class="cls-17" d="M264.4 135.3l-2-1.7c1 .2 2.8-.5 2 1.7z"/><path class="cls-18" d="M424.7 402l2-1.8c.6 2.1-1 1.6-2 1.7zM53.8 401l1.7 1.9c-2.1.6-1.7-.8-1.7-2zM437 224.3l-2 1.7c-.8-2.1 1-1.5 2-1.7z"/><path class="cls-14" d="M331.4 239.8l-.8.9-.9-2.7 1.7 1.8z"/><path class="cls-18" d="M523.3 286.6a1 1 0 00.6 0c-.3.8.2 2.6-1.8 1.8l1.2-1.8z"/><path class="cls-17" d="M493.6 296.4l-2.6 1.4c.4-1.3.8-2.6 2.6-1.4z"/><path class="cls-17" d="M489.2 299.6q-.5 0-.9.2c.2-1.7 1.2-2.3 2.8-2l-2 1.8z"/><path class="cls-17" d="M488.4 299.7l-2 1.6c-.6-2.1.8-1.8 2-1.6z"/><path class="cls-18" d="M482.8 304l-1.9 1.8c-.7-2 .8-1.6 1.9-1.8z"/><path class="cls-7" d="M464.3 323.1a2.5 2.5 0 01-2 2.8l2-2.8z"/><path class="cls-7" d="M462.3 325.8c.2 1.5-.4 2.5-2 2.8l2-2.8z"/><path class="cls-17" d="M383.7 428.9l2.5-1.5c-.3 1.4-.8 2.6-2.5 1.5z"/><path class="cls-10" d="M17.9 319.6l-.8-2.4a3.2 3.2 0 01.5-.3l.3 2.6z"/><path class="cls-12" d="M337 450.9l1.4-.5c.8 2.2-1 .7-1.5 1.1v-.6z"/><path class="cls-17" d="M432.4 341.3l.7 1.3-.7.8zM282.2 152.2l-1.7-1.6c1.5-.4 2.1 0 1.7 1.6zM64.6 162l-1 1.2v-1.5z"/><path class="cls-14" d="M417.7 329.5h.7l1.1 1.8-.1.2a1.6 1.6 0 01-1.7-2z"/><path class="cls-6" d="M441.4 385.6a1.7 1.7 0 011.9-1.8z"/><path class="cls-12" d="M419.6 242.7l-1.3 2c-.8-1.4.2-1.7 1.3-2z"/><path class="cls-18" d="M13.3 340.8a1.1 1.1 0 01-.6.1l1-1.8-.4 1.7zM60.2 409.2l.8 1-.7.3zM423.2 370l-1.4 1.4c-.3-1.4.6-1.3 1.4-1.3z"/><path class="cls-14" d="M454.2 371.8l.8-1.1c-.2.4.8 1.7-.8 1.1zM371.1 376l-1.5-1.4c.9 0 1.8 0 1.5 1.3zM246 121.6l-1-.8c.4.2 1.7-.9 1 .8z"/><path class="cls-15" d="M501.5 292.5c0 1.3-.7 1.3-1.6.9l1.6-.9z"/><path class="cls-14" d="M51 397.3l.9 1-.8.3z"/><path class="cls-18" d="M429.3 398.3l1.5-1.3c.2 1.3-.6 1.3-1.5 1.3z"/><path class="cls-17" d="M65.7 416.5l1.2 1.5c-1.3.3-1.2-.6-1.2-1.5zM297.4 168.5L296 167c1.3-.4 1.3.5 1.3 1.4zM386.2 427.5l1-.7c.6 1.6-.6.6-1 .7z"/><path class="cls-12" d="M423.1 238l-.8 1v-1.2z"/><path class="cls-18" d="M83 435.7l1.3 1.7-1.3-1.7zM84.4 437.4l1.5 1.2-1.5-1.2z"/><path class="cls-12" d="M86.9 141l-1 .8-.3-.7z"/><path class="cls-15" d="M499.6 293.4c0 1.3-.7 1.3-1.6 1l1.6-1z"/><path class="cls-17" d="M279.6 149.5l-1.6-1.3z"/><path class="cls-18" d="M14.2 338.9l-.2.3-.4-.6zM12.6 341a.5.5 0 01-.3.5l-.3-.3zM470.9 315l-1 1.1zM471.8 314l-1 1.1 1-1z"/><path class="cls-16" d="M460.7 322.4l-1 .4 1-.4z"/><path class="cls-4" d="M8.8 346l-1 1z"/><path class="cls-11" d="M460.7 322.4l-1 .4.3-1.9.9.7a1.8 1.8 0 01-.2.8z"/><path class="cls-18" d="M477.3 308.6l-1 1 1-1zM478.6 307.7l-1.4 1 1.4-1zM472.7 313.2l-1 1 1-1z"/><path class="cls-17" d="M62.3 164.1l-.9 1 .9-1z"/><path class="cls-12" d="M362.6 365.5v.5l-.6-.6h.6z"/><path class="cls-18" d="M425.4 368.2l-1.4 1 1.4-1zM424.2 369.1l-1 1 1-1z"/><path class="cls-14" d="M250.4 124.7a.7.7 0 01-.6-.4l.6-.3zM251.6 125.4l-1.2-.9 1.2 1z"/><path class="cls-18" d="M421.6 371.6l-.3.2-.3-.6z"/><path class="cls-17" d="M260.8 132.3v-.6l.8 1.1-.8-.5z"/><path class="cls-18" d="M483.7 303.1l-1 1 1-1z"/><path class="cls-17" d="M262.6 133.6l-1-1z"/><path class="cls-18" d="M484.4 302.9a1 1 0 01-.7.4l.7-.4z"/><path class="cls-17" d="M83.8 143.4a1 1 0 01-.7.4l.7-.4zM273.4 143.8a.8.8 0 01-.7-.5z"/><path class="cls-7" d="M446 381l1-1-1 1z"/><path class="cls-18" d="M473.6 312.3l-1 1 1-1z"/><path class="cls-6" d="M517.7 294l-.5 1.2a2.8 2.8 0 01-.7-.4l.9-1z"/><path class="cls-7" d="M445 382l1-1-1 1z"/><path class="cls-17" d="M274.4 144.7l-1-1 1 1z"/><path class="cls-7" d="M444.1 382.9l1-1-1 1z"/><path class="cls-6" d="M443.2 383.8l1-1-1 1z"/><path class="cls-17" d="M275.4 145.6l-1-1 1 1zM276.3 146.5l-1-1zM277.3 147.5l-1-1.2 1 1.2z"/><path class="cls-18" d="M77.4 148.8l-.8.5.8-.5zM76.7 149.1l-1 1 1-1zM474.5 311.3l-1 1 1-1z"/><path class="cls-14" d="M416.7 328.6l1 1-1-1z"/><path class="cls-17" d="M280.5 150.3l-.8-.8.8.8z"/><path class="cls-18" d="M523.9 286.6l.9-1zM431 396.7l.2-.2.3.6zM75.8 150l-1 1 1-1zM74.9 151l-1 1 1-1zM428.6 398.6a1 1 0 01.7-.4l-.7.4zM53.4 400.3a1 1 0 01.5.7l-.5-.7zM424 402.3a1 1 0 01.8-.5l-.8.5zM59.9 408.5a1 1 0 01.4.8l-.4-.8zM524.8 285.6l1-1-1 1zM74 151.8q-.6.6-1 1.3.4-.7 1-1.3z"/><path class="cls-17" d="M291 161.2l-1.2-1.1zM291.3 161.8a.9.9 0 01-.5-.7l.5.7z"/><path class="cls-18" d="M475.5 310.4l-1 1 1-1z"/><path class="cls-17" d="M63.2 163.2l-.8.9.8-.9zM61.3 165z"/><path class="cls-18" d="M80.2 432.8l1.2 1.3z"/><path class="cls-17" d="M296.1 166.8zM299.1 170.4l-1-1.1 1 1.1zM48.3 178.4l-1 1.1 1-1z"/><path class="cls-18" d="M85.8 438.6l1 1-1-1zM86.8 439.4a.9.9 0 01.7.4z"/><path class="cls-17" d="M47.5 179.5a1 1 0 01-.4.7z"/><path class="cls-7" d="M445 219.6h-.9l.2-.8z"/><path class="cls-18" d="M438.6 223l-.8.5.8-.5zM437.9 223.4l-1 1z"/><path class="cls-14" d="M415.8 327.3l1 1.4-1-1.4z"/><path class="cls-17" d="M299.4 171a.7.7 0 01-.4-.6h.7z"/><path class="cls-18" d="M470 316q-.6.6-1 1.3l1-1.4zM476.4 309.5l-1 1 1-1z"/><path class="cls-17" d="M298.3 169.4l-1-1 1 1z"/><path class="cls-18" d="M428.8 231.7a.8.8 0 01-.5.7zM429.7 230.7l-1 1 1-1zM430.5 229.8l-1 1 1-1zM431.5 228.9l-1 1 1-1zM432.2 228.5a.9.9 0 01-.7.6l.7-.6z"/><path class="cls-17" d="M65.3 415.8a1 1 0 01.5.8l-.5-.8z"/><path class="cls-19" d="M229.6 471.7A344 344 0 01120.8 450a47.7 47.7 0 00-5.8-1.4c.2-1.9-.8-3-2.2-4.1a191.7 191.7 0 01-52.2-54.6c-5.3-8.2-8.7-17.8-16.2-24.6L39 352.5c1.1-5.8-1.7-10.9-3-16.2-5.2-22.3-9.6-44.5-7.4-67.6.5-5 2.7-11.9-5.3-14.3A45.4 45.4 0 0127 238c8.6 10.8 20.9 13 33.5 13.7 5.2.2 8-7 4.6-11.4-1.8-2.4-4.6-4-6.9-5.9l-.2-.3-.1.1.3.2c-.3 1.8-.7 3.7-3.2 3.6-3 0-2-2.4-2.3-4-.3-.9-.8-2.3-1.5-2.5-7.5-2.3-15-1.5-22.4.2 11.9-40.1 33.7-72 75.9-83.5 41.9-11.4 105.4 16 123 51 11 22.1 8.2 43-5.8 62.8a160 160 0 00-12.4 20.3c-8.4 16.6-6.7 25.5 9.2 35.2a62.1 62.1 0 0129.4 43c7.9 36 30 53 66.9 53.6 8.8 0 17.6.4 26.4.7 3.6.1 4.3 1.8 2.3 4.8-4.2 6.2-.1 8.3 5 9 7 1.2 13.6-.9 20.2-2.6-.6.6-1.1 1.5-1.9 1.9a410 410 0 01-80.3 31c-18.8 5-37.6 10.7-57 13zm-49.4-216a.5.5 0 00.6.6 2.5 2.5 0 00.3.3.4.4 0 00.4.5l6 3.4 1.8.3h6.4l3-.8 3.6-1.7 2.8-1.8 2.2-2 .6-.8h-.1l.8-1a10.8 10.8 0 002.6-7.4c.4-4.5 0-8.7-3.6-11.9-8.4-7.1-17.5-7.5-24-1l-1.6 1.9c-4.7 6.7-6.7 13.7-1.9 21.3zm-98-34a.7.7 0 00.7-.5l2.7-2.9 1.2-2.2 3.3-8.3c.2-7.5-2.7-13.4-9.6-16.6-5-2.4-10.3-3.8-15.3.6-9.2 7.6-11 18.8-4.4 27 6.1 5 12.7 8 20.4 3.6l1-.7zm60.2 7.4l1.5-2c1.1-1.3.5-2.4-.7-3.2-1.4-.8-1.7.6-2.2 1.4l-4.5 4.3c-10.7 4-18.7-1.4-18.5-12.4a10 10 0 00-.8-2.8 10.4 10.4 0 00-2 2.4c-2.2 5.7-1.7 11 3.7 14.5 6.8 4.4 14 7.3 21 .3l.2-.1a.5.5 0 00.5-.5l1.4-1.4a.4.4 0 00.4-.5zm57.9 157.1c-3.7-1-7.5-1.4-11.1.3l-2.7-.5c4.5-5.6 1.5-12.6 3.6-18.6 2.4-7-.3-9.8-7.2-9.3h-.8l1.2-3.8.4-1 3-12.8c.1-.7-.4-1.6-.6-2.3a13.6 13.6 0 00-1 1.9c-3.3 9.4-7 18.8-9.8 28.4-1.7 5.6-2.8 11.6 1 17l6.5 4.7c1 3.4 4.2 4.2 7 5.4 13.9 6 25-2.3 39-15.2 7.6-7.1 5.5-22.5 0-28.7l-2-6.5-1-1.4.1 1.4v2l-.6 8.2c-.2 10-4.6 18.3-11.3 25.5l-3.6 2-1 .6-4.5 2-1.8.8-1.7.3zm-23.8-122.6l-5.9-.9c-5.7-.7-10.3.4-12.1 6.8-1.8 6 1.7 9.3 6 11.8a45.3 45.3 0 0029.1 5.8c4-.5 7.5-3 5.5-8.8-2.8-8-9-11-16.3-13z"/><path class="cls-9" d="M281.8 263.6c-10 0-17-5.1-17.2-12.5-.2-14.2 5.6-21.4 17.3-21.4a18 18 0 0118.3 18c0 10.4-6.4 16-18.4 16z"/><path class="cls-11" d="M23.3 254.4c8 2.4 5.8 9.4 5.3 14.3-2.2 23.1 2.2 45.3 7.5 67.6 1.2 5.3 4 10.4 2.9 16.2l-2 2c-2.5-2.5-6-4.3-7-8.1-2.8-11.5-6.6-23-7.9-34.6-2-19-3.4-38.3 1.2-57.4zM44.4 365.3c7.5 6.8 11 16.4 16.2 24.6a191.7 191.7 0 0052.2 54.6c1.4 1 2.4 2.2 2.2 4.1a45 45 0 01-21-9c-9.7-10-21.7-17.7-29-30-7.2-12.3-16.4-23.4-20.7-37.3-.6-2.2-3-4.7 0-7z"/><path class="cls-9" d="M296.5 182.8c-1.2 5-3.6 10.4-11.4 10.2-11-.2-17.5-8.4-16.8-22.5.3-5 1-11.2 8.5-11.3 9.6-.2 20 11.6 19.7 23.6zM419.5 331.3l-1-1.7-2.7-4.6c-2-13.7-8-26.8-6.5-41.1 1.5-14.8 3.4-29.5 13.5-41.4 1.1-1.4 1.3-5 4.2-3.5 3.1 1.7-.4 4-.3 6a88 88 0 00-6.3 64.3c.5 7 5.3 12.2 8.1 18.2 3.5 7.4 12.2 12 12 21.4-3.7-2.6-4.2-8-8.7-9.7l-.9-.8-.3-.1c.9-3.6-2.3-5.3-3.9-7.6-2-3-4.6-5.7-7-8.6l.9 8.8-.2.4h-.4zM308.2 288.5a39 39 0 015.4-18.9c3.9-5.8 8.5-5.1 11.6-.3 6 9.3 8.6 19.4 3.4 30.2-2 4-4.7 7-9.5 6.2a10.3 10.3 0 01-8.7-7.6c-1-3.5-1.7-7.1-2.2-9.6z"/><path class="cls-20" d="M28.8 231.6c7.5-1.7 15-2.5 22.4-.2.7.2 1.2 1.6 1.5 2.5.3 1.6-.6 4 2.3 4 2.5.1 2.9-1.8 3.2-3.6 2.3 2 5.1 3.5 6.9 5.9 3.4 4.4.6 11.6-4.6 11.4-12.6-.7-24.9-3-33.5-13.7l1.8-6.3zm11.8 2.5c-2.2-1-3.2.4-3 2 .2 2.4.7 5 3.8 5.4 2.1.3 3.3-1.2 3.5-3 .4-3-1.6-4.2-4.3-4.4z"/><path class="cls-21" d="M229.6 471.7c19.5-2.2 38.3-8 57.1-13a410 410 0 0080.3-31c.8-.3 1.3-1.2 2-1.8h.9c1 4-2.9 4.5-4.8 5.4-35.7 16.7-71.8 32.4-110.7 40-8 1.7-16.5 2.6-24.8.4z"/><path class="cls-9" d="M213.6 174c-5.8-.7-10.9-3.3-11-9.9 0-6.7 2.5-13.4 10.8-13 7.3.4 11.6 5.7 11.4 13-.1 6.4-4.6 9.5-11.2 9.8z"/><path class="cls-21" d="M440.5 348.9c.2-9.5-8.5-14-12-21.4-2.8-6-7.6-11.1-8-18.2l12.7 15.7 1.8 2.8a4.4 4.4 0 002.7 3.7 4.3 4.3 0 002.8 3.6q.4 1 1 1.9h-.1 1l2.4 3.1 2.3 3.6a19.4 19.4 0 00.6-4.3c-.2-4.9-.4-9.9-2.6-14.4 2.6-4.9-.8-9.8 0-14.7 3.3 1 2.3 4.3 3.4 6.4.5 1 1 2 1.3 3l1.7-2.9.9 8.3c-.6 5.1-1.3 10.3-1.8 15.5 0 .7.6 1.5 1 2.3l1-2.3h3.4l-3.7 6.4c-5.3-1.6-3 4.3-5.5 5.6h-1c-1.4-.2-2.5 0-2.7 1.8-2.5-.7-2.5-2.7-2.6-4.7l.3-.2a4.8 4.8 0 00-.4-.6z"/><path class="cls-9" d="M302.6 336.1a14 14 0 01-12.2-12.8c-.4-4.2 2.7-9 7.9-8 7.5 1.1 12 6.5 12.4 14 .2 4.3-3 6.7-8.1 6.8zM334.1 345.9c.9-1.6.5-4.5 3.8-3.8 3.2.6 5.2 2.6 5.3 5.9 0 2.3-1.7 4.5-4 4a5.8 5.8 0 01-5-6.1zM235.3 137.4c1.3-1.3-.7-5 2.7-5a4.4 4.4 0 014.3 5c-.1 2.1-1 4.4-3.8 4.2-2.2-.1-3.7-1.3-3.2-4.2z"/><path class="cls-19" d="M452.3 347l3.7-6.4a5 5 0 01.9 0l.1.1-3.7 10-1 1.8c-1.1.6-2.4 1.5-2.6-.8l2.6-4.7z"/><path class="cls-22" d="M452.3 347l-2.6 4.7-2.9.9c2.4-1.3.2-7.2 5.5-5.6z"/><path class="cls-10" d="M163.6 108.6l9.1-.8z"/><path class="cls-19" d="M443 354.4c.3-1.7 1.4-2 2.9-1.8-.2 1.7-.8 3.2-2.6 3.7l-.2-.1z"/><path class="cls-3" d="M348.6 329.8l.1 3.4-.8-3.5a2.1 2.1 0 01.7.1zM139 112.4h2.5l-2.7.8.1-.8z"/><path class="cls-9" d="M440.4 348.9a4.8 4.8 0 01.4.6l-.3.2v-.8z"/><path class="cls-19" d="M443.3 356.3l-.5.3.3-.4z"/><path class="cls-1" d="M37.8 375.5h-.7v-1z"/><path class="cls-21" d="M329.6 450.6l-4.6 2.8-1.9.9-3.6 1h-2.8v-.1c3.7-3.2 8.2-4 12.9-4.6z"/><path class="cls-13" d="M360.7 440.4l-10 4.5c2.5-3.3 6-4.4 10-4.5z"/><path class="cls-4" d="M447.8 377.3c-4-3.4.7-3.9 1.8-5.5l-.9 3.7-1 1.8z"/><path class="cls-21" d="M309.4 458.9h-3.7l8.3-2.8-1.9 1.9-2.7.9zM334.1 448.8l-4.6 1.8c1-2 2.9-1.8 4.6-1.8z"/><path class="cls-15" d="M292 467l-4.2 1.6c.8-2 2.2-2.4 4.1-1.5z"/><path class="cls-4" d="M103.1 450l-3.3-2c1.7-.1 2.9.4 3.3 2z"/><path class="cls-3" d="M182.8 474.4l-3.6-.7z"/><path class="cls-21" d="M338.7 447.9H336l2.7-1v1zM314 456.1l2.7-1v.1l-2.7 1zM305.7 458.9l-1.5.8-.2-.6 1.7-.2z"/><path class="cls-4" d="M449.6 371.8l.5-1.1.4 1.1h-.9z"/><path class="cls-21" d="M342.4 445.1l1-.6.1.3-1.1.3z"/><path class="cls-4" d="M97.6 446.6l-1.9-1.4 1.9 1.4z"/><path class="cls-21" d="M342.4 445.1l-1.9 1 1.9-1zM340.5 446v1h-1.8l1.8-1zM336 447.9l-1.9 1z"/><path class="cls-8" d="M455.4 369h-1.2l1.4-.2z"/><path class="cls-4" d="M95.8 445.2l-1.1-.8 1 .8z"/><path class="cls-9" d="M490.8 342.5h-.8l.4-4.8-3.1 3.7-10.2 10-6.4 4v-.1h-4.5c20.3-10.6 26-32.1 37.2-49.7a15.8 15.8 0 012.6-2.6l-.8 3.4c-1 3.8-2.2 7.6-3.3 11.3-3 8.6-6.2 17-11 24.8zM456 354.4c3.6-11 12.7-17.4 20.7-24.7.4-.4 1-.4 1.6-.5a8.6 8.6 0 01-.7 2.2c-3.3 5-8.6 8.5-10.6 14.4l-2.3 2.2-8.6 6.4z"/><path class="cls-23" d="M490.8 342.5c5-7.7 8.2-16.2 11.1-24.8 3.3.2 3.3.2 0 8.3-2.2 6-4.2 12-8.4 17-1 1.1-2.6 3.5-2.7-.5z"/><path class="cls-9" d="M517.4 293.8l-.9 1-7.1 9.8a9.7 9.7 0 01-1.6 1.4 6.6 6.6 0 010-1.7c1.2-5.9 3.8-10.7 9.6-13.2h.1z"/><path class="cls-23" d="M466.2 355.3h4.5c-4 5.1-10.5 5.4-15.6 8.3 1.6-3.8 4.8-5.3 8.3-6.5l1.8-.9 1-.9z"/><path class="cls-24" d="M452.7 340.6l-1.1 2.3c-.4-.8-1-1.6-1-2.3.5-5.2 1.2-10.4 1.8-15.5h.9l.3 6-.1 1-1 1.2z"/><path class="cls-9" d="M494.6 313.2c-2.9-3.7.8-3.7 2.6-4.7h.1l-2.8 5.5v-.8z"/><path class="cls-19" d="M518.5 285.1l2.4-.9-1.8 2.8-.6-1.9z"/><path class="cls-9" d="M514.7 288.4l.9-2.2 1.8-.5a2.6 2.6 0 01-2.7 2.7z"/><path class="cls-7" d="M454.3 333.2l2.4-.2-1.4 1.8z"/><path class="cls-24" d="M464.7 348l2.3-2.2 1 .3z"/><path class="cls-9" d="M491 315l-1 1.4-.5-.6 1.3-.9z"/><path class="cls-24" d="M477.2 339.8l-1 1.3-.5-.5 1.4-1z"/><path class="cls-9" d="M517.4 291l.8-2.2.4.2-1.1 2.2z"/><path class="cls-24" d="M490 308.5c0-1.2.5-1.9 1.8-1.8zM487.2 310.4h1.8l-1.8 1.9v-.1-1.8z"/><path class="cls-19" d="M459.1 337.7l-1.2 2 1-2.2z"/><path class="cls-9" d="M490.8 315l.4-1.2.4.2-.7 1z"/><path class="cls-24" d="M479 338.8l-1.8 1-.1-.1 1.8-1z"/><path class="cls-22" d="M494.6 313.2v.8l-.7.2z"/><path class="cls-24" d="M470.7 344.3l1.8-1 .1.1-1.8 1zM484.5 332.4l.3-1.1-.4 1zM489 310.4l1-1.9z"/><path class="cls-9" d="M512.7 289.3l2-1zM465.2 356.2l-1.8 1z"/><path class="cls-24" d="M485.4 315l.9-1.9q-.4 1-1 1.9z"/><path class="cls-9" d="M506.8 308.3l.3.1a1.1 1.1 0 010 .4l-.4-.1a1.1 1.1 0 01.1-.4z"/><path class="cls-7" d="M452.4 333.3l1-1.2 1 1-2 .2z"/><path class="cls-24" d="M469.8 345.2l-1.8 1 1.8-1z"/><path class="cls-23" d="M505 314.7l.3.1a1 1 0 01-.1.4l-.3-.1z"/><path class="cls-9" d="M498.2 306.7l-.9 1.9v-.1l.9-1.8z"/><path class="cls-24" d="M479.9 337.9l-1 1v-.1l1-1z"/><path class="cls-19" d="M456.9 340.6l1-.9-.9 1z"/><path class="cls-24" d="M485.4 315a1.3 1.3 0 01-.2.3h-.2l.4-.3z"/><path class="cls-9" d="M482.7 324.2l-.3.3.2-.4z"/><path class="cls-9" d="M482.6 324.1l1-1v.1l-1 1z"/><path class="cls-24" d="M473.4 342.4l.5-.3-.4.4z"/><path class="cls-24" d="M472.5 343.3l1-.9v.1l-.9 1zM469.8 345.2l.9-1v.2l-.9.8z"/><path class="cls-9" d="M484.5 322.3l-1 1v-.1l1-1zM485.4 321.4l-.9 1v-.1l.8-1zM486.3 320.5l-.9 1v-.2l.9-.9zM486.3 320.4l.2-.3-.2.4zM456 354.4l-.1.4.1-.4zM466.1 355.3l-.9 1zM498.2 306.7l.2-.4-.2.4z"/><path class="cls-24" d="M491.8 306.7l.9-1zM492.7 305.8l1-1zM493.6 304.9l1-1zM494.5 304l1-1zM486.3 313.1l.9-1v.2l-.9.9zM495.4 303l1-.9-1 1zM496.3 302.1l1-1-1 1z"/><path class="cls-9" d="M466.1 328.7l.2-.3-.2.3z"/><path class="cls-7" d="M457.7 332.3l.8-1.2-.8 1.2z"/><path class="cls-24" d="M484.4 332.4l-.9.9 1-.9z"/><path class="cls-9" d="M466.1 328.7l-.2.4.2-.4z"/><path class="cls-24" d="M483.5 333.3l-.1.4.2-.4z"/><path class="cls-7" d="M460.6 335.1l.2-.3-.1.4zM460.7 335.2l-.3.3.2-.4z"/><path class="cls-24" d="M481.7 336l.4-.4v.3a1.2 1.2 0 01-.4.2z"/><path class="cls-9" d="M469 326l-.3.4.1-.5z"/><path class="cls-24" d="M480.8 337l.9-1-.9 1z"/><path class="cls-7" d="M459 337.5h.3l-.2.2-.2-.2zM456.7 333l1-.8-1 .9z"/><path class="cls-24" d="M479.9 337.9l.9-1-.9 1z"/><path class="cls-22" d="M445 325c2.3 4.5 2.5 9.5 2.7 14.4a19.4 19.4 0 01-.7 4.3l-2.2-3.6-2.4-3.2h-1l-1-1.8c.2-2-.4-3.5-2.7-3.7.2-2-.4-3.5-2.7-3.6.2-1.5 0-2.7-1.9-2.8 0-.7.2-1.6-.2-2.2-13.2-18-10.6-38.7-9.5-59 3-7.4 5.7-14.8 8.9-22 .8-2.2 1.5-6 3.9-5.4 1.8.6.2 4.3-.2 6.6a91 91 0 00-1 6.7l-.6 8.4c-2-2.2-1.6-5.2-2.2-7.9a4.8 4.8 0 00-.6-1.1 5.9 5.9 0 00-.3 1.3c-.5 22.6-5.5 45.8 9.1 66.3 1 1.5 1.3 3.6 3.5 3.9l1.2 4.4z"/><path class="cls-9" d="M451.5 316.8l-1.6 3-1.4-3.1c-1.1-2.1 0-5.4-3.3-6.4l-2-9c-.5-10-.8-19.8-6.1-28.6l-1.2-8.1 1.9-19.3a8.5 8.5 0 011.3-2.6 12.3 12.3 0 01.4 2.5c-.6 9.9 3 18.7 6.4 27.6 3.2 14.5 6.1 29 5.6 44z"/><path class="cls-19" d="M423.4 263.7c-1.1 20.4-3.7 41 9.5 59.1.4.6.2 1.5.3 2.2l-12.8-15.7a88 88 0 016.3-64.3l-3.3 18.7zM443.2 301.2l2 9.1c-1 4.9 2.5 9.8-.1 14.7l-1.2-4.4c-2.7-12.5-9.6-23.7-10.4-36.8-.5-6.7.2-13.3.5-20 0-.2.6-.5.9-.7l1 1.5 1.2 8a52.4 52.4 0 006 28.6zM451.5 316.8c.5-15-2.4-29.5-5.6-44 10.2 13.5 8.7 29.1 8 44.6l-.6 7.6h-1l-.8-8.2zM438.6 233.2c-.4-.7-.7-1-.6-1.2a8.2 8.2 0 011-1.4c.1.2.5.6.4.8a10.3 10.3 0 01-.8 1.8z"/><path class="cls-24" d="M440.4 226.1l-.4-.4.5.3zM440.5 226l.4.3-.5-.2z"/><path class="cls-19" d="M470.7 355.3l6.4-3.8 10-5.5.3.3c-2.8 8.2-9.9 8.4-16.7 9z"/><path class="cls-6" d="M500.6 340.3l-.6 1.3-.5-1.1z"/><path class="cls-9" d="M490 342.5l-.2.3.2-.3z"/><path class="cls-19" d="M487 346l.7-.3-.3.6-.3-.3z"/><path class="cls-4" d="M7.7 358.3A32.8 32.8 0 0017 346c3.3 5.3 3.3 11.6 4.2 17.4.5 3.3-3.8 2-5.7 1.4-3.4-1.1-6.4-3-7.7-6.6z"/><path class="cls-1" d="M19.7 332.4l.7.9-.4.2-.3-1.1z"/><path class="cls-5" d="M314 456.2l2.7-1h2.8c-2.1 2-4.7 2.5-7.4 2.8l1.9-1.8zM319.5 455.2l3.6-1zM309.4 458.9l2.7-1zM338.7 447h1.8l-1.8.9v-1zM323.1 454.3l1.9-1z"/><path class="cls-1" d="M337 450.9l-.1.7-1.1-.1 1.1-.6zM283.7 470.1v.7l-1.1-.1 1.1-.6z"/><path class="cls-5" d="M449.6 371.8h1c0 1.6-.3 3-1.9 3.7l1-3.7zM447.8 377.3l1-1.8-1 1.8z"/><path class="cls-4" d="M420.4 331.3l.2-.4-.8-8.8c2.3 2.9 4.9 5.6 7 8.6 1.5 2.3 4.7 4 3.8 7.6l-3-2.2zM431 338.4l.8.8-.9-.8z"/><path class="cls-20" d="M182.8 265.4c7.4 1.8 13.5 5 16.3 12.9 2 5.7-1.5 8.3-5.5 8.8a45.3 45.3 0 01-29-5.8c-4.4-2.5-7.9-5.9-6.1-11.8 1.8-6.4 6.4-7.5 12.1-6.8l5.9 1c.5 2.6-1.5 6 1.7 7.8a4.8 4.8 0 004.2-.3c2.2-1.5.8-3.8.4-5.8zm10.1 14.2a3.6 3.6 0 00-3.2-3c-2.4-.2-2.2 1.6-2.2 3.1 0 1.8.7 3 2.6 3 1.9.1 2.8-1 2.8-3.1z"/><path class="cls-25" d="M211.2 245.3a10.8 10.8 0 01-2.6 7.4c-1.7-.7-.6.7-.8 1l-1 .7c-1.3.1-2 .8-1.8 2.1h.1c-1.5-.3-2.5.3-2.8 1.9l-4.7 1 1 .6-3 .8a5.5 5.5 0 00-6.3 0l-1.9-.3c-.7-3.2-3.3-3.3-5.9-3.4a.4.4 0 01-.4-.5l.2-.5-.5.2a.5.5 0 01-.6-.6v-1.3a24 24 0 012.7-20l.8-2c8.3-3.8 16.4-4.1 23.9 2l3.6 10.9zm-8.7 2.3h.3c3.5.8 3.6-2.3 4.8-4.1-.4-.5 1-2.3-1-1.5-2.7-3.7-3.6-10.5-10.8-5.7-2.1 0-1.7 1.5-1.7 2.8-3.1 2-3.2 4 .1 6l-.1.1v-.2c.2 2.9 1 4.8 4.4 3h2.7c.7.8 1.4 1.3 1.3-.4zm-16.8 4.9c1.8.5 3.6.7 4.5-1.5a2.7 2.7 0 00-1-3.5c-2-1.3-2.5.7-3.5 1.6-2-.8-1.8.8-1.8 1.7 0 1-.2 2.6 1.8 1.7zm2.4 1.2l-.8.3a4.2 4.2 0 00.7.4l.4-.2a7 7 0 00-.3-.5z"/><path class="cls-23" d="M228.9 351.7c5.4 6.2 7.5 21.6-.2 28.7-13.9 12.9-25 21.3-39 15.2-2.7-1.2-5.8-2-6.9-5.4 13.4 3.7 25.5 2.4 35.4-8.4a38.9 38.9 0 0010.7-30.1z"/><path class="cls-12" d="M210.4 382.8l3.6-1.9v1q-.4 1-1 1.8l-3.5 1.9c-10.8 4.8-21.2 5.4-31.1-2.2a4.7 4.7 0 00-1.8-.4l.8 2.5h-1c-3.9-5.4-2.8-11.4-1.1-17 2.9-9.6 6.5-19 9.8-28.4a13.6 13.6 0 011-2c.2.8.7 1.7.6 2.4l-3 12.9-.4 1-1.2 3.6-3.6 11-.1 1c-1.3 4.5-2 9 1.6 13l6.5 3 2.7.5v.1l3.8.6 6.3-.1 2.1-.5 1.7-.3 1.8-.7 4.6-2.1zm-34-3.4l-.6-.2c0 .1-.2.3-.1.4a3.3 3.3 0 00.4.6z"/><path class="cls-11" d="M186.5 386l-6.5-3c1.1-.6 3.6.7 3.3-1.9-.6-5-1.5-9.9-2.3-14.8l1.9-8.2c7-.5 9.6 2.2 7.2 9.3-2 6 .9 13-3.6 18.6z"/><path class="cls-10" d="M140 231.6c-7.1 7-14.3 4-21-.3-5.5-3.4-6-8.8-3.7-14.5a10.4 10.4 0 012-2.4 10 10 0 01.7 2.8c-.2 11 7.8 16.4 18.5 12.4h3.4l.7 1.4a.5.5 0 01-.5.5l-.4-.2zM214 382v-1c6.7-7.3 11-15.5 11.3-25.6l.6-8.3v-1.9h1l2 6.5a38.9 38.9 0 01-10.7 30l-.5-.8h-.9l-1 1z"/><path class="cls-26" d="M65.2 191.8c5-4.4 10.3-3 15.3-.6 6.9 3.2 9.8 9 9.6 16.6h-1.6c0-3.2-.1-6.4-2-9-.7 1.9-1.1 3.9-2 5.8-.1.4-1.1.6-1.8.9 1.7-3 3-6 .4-9.3-2-2.5-4.5-2.9-7.3-1.9 1.6-2.2 1.8-3.6-1.7-3.1l-8.5 1-.4-.4z"/><path class="cls-10" d="M176.4 385.6h1l5.3 2.6c8.5 3.9 23 2.4 26.8-2.7l3.6-1.8 2.8-1.8.9-1h.9l.5.9c-9.9 10.8-22 12.1-35.4 8.4l-6.4-4.6z"/><path class="cls-11" d="M182.8 265.4c.4 2 1.8 4.3-.4 5.8a4.8 4.8 0 01-4.2.3c-3.2-1.9-1.2-5.2-1.7-7.9z"/><path class="cls-26" d="M60.8 218.9c-6.6-8.3-4.8-19.5 4.4-27.1l.4.4c-6.3 8-10.2 16.4-4.6 26.4zM207.6 234.4c-7.5-6.1-15.6-5.8-24-2 6.5-6.5 15.6-6.1 24 1z"/><path class="cls-26" d="M81.2 222.4c-7.7 4.3-14.3 1.5-20.4-3.5l.2-.3a31.2 31.2 0 0019.3 3.8 5.2 5.2 0 011 0z"/><path class="cls-10" d="M183 234.4a24 24 0 00-2.9 20v1.2c-4.8-7.6-2.8-14.6 1.9-21.3h1z"/><path class="cls-12" d="M207.6 234.4v-1c3.7 3.2 4 7.4 3.6 11.9l-3.6-11z"/><path class="cls-27" d="M182.9 358l-1.9 8.3-2.5 2.8 3.6-11h.8z"/><path class="cls-11" d="M199.3 387l-6.3.2-3.8-.6c3.6-1.8 7.4-1.3 11-.4l-.9.9z"/><path class="cls-17" d="M88.5 207.7h1.6l-3.3 8.4-.2-.2 1.9-8.2z"/><path class="cls-26" d="M181.5 257.1c2.6.1 5.2.2 6 3.4z"/><path class="cls-28" d="M139.9 229.7l-3.4-.1 4.5-4.3.7.8v1.9l.7 1.1a.4.4 0 01-.4.5z"/><path class="cls-1" d="M141.7 226l-.7-.7c.5-.8.8-2.2 2.2-1.4 1.2.8 1.8 1.9.7 3.3l-1.3-.3z"/><path class="cls-16" d="M225.9 347.1l-.6 8.3.6-8.3z"/><path class="cls-18" d="M198.6 260l-1-.5 4.7-1.2-3.7 1.7z"/><path class="cls-28" d="M189.3 260.8a5.5 5.5 0 016.4 0z"/><path class="cls-17" d="M85.6 218.3l-2.7 2.9v-.6l1.9-2.8z"/><path class="cls-18" d="M205 256.5c-.2-1.3.5-2 1.8-2.1h.5z"/><path class="cls-16" d="M226.8 345.2h-.9l-.1-1.4z"/><path class="cls-18" d="M202.3 258.4c.3-1.6 1.3-2.2 2.8-2l-2.8 2z"/><path class="cls-17" d="M86.8 216.1l-1.2 2.2-.8-.5 1.8-1.9z"/><path class="cls-26" d="M183 234.4l-1-.1 1.7-2z"/><path class="cls-17" d="M139.9 229.7l2-.1-1.3 1.4-.7-1.3zM142.6 226.9l1.3.3-1.5 2-.8-1.2 1-1.1z"/><path class="cls-11" d="M204.9 385.6l-1.8.7z"/><path class="cls-29" d="M199.3 387l1-.8 1.1.4z"/><path class="cls-28" d="M207.8 253.8c.2-.4-.9-1.8.8-1zM81.2 222.4a5.2 5.2 0 00-.9 0l1.7-1 .2.3z"/><path class="cls-11" d="M183.3 354.3l.4-1zM210.4 382.8l-.9.7z"/><path class="cls-26" d="M180.8 256.3l.5-.2-.2.5a2.3 2.3 0 01-.3-.3zM180.1 255.6v-1.2 1.3z"/><path class="cls-28" d="M207.3 254.5a8 8 0 01-.5-.1l1-.7-.5.8zM82.9 220.6v.6a.7.7 0 01-.7.5l-.2-.3z"/><path class="cls-20" d="M58.2 234.3l-.3-.2.1-.1.2.3z"/><path class="cls-17" d="M140 231.6l-.3-.3.4.2z"/><path class="cls-11" d="M40.6 234.1c2.7.2 4.7 1.4 4.3 4.5-.2 1.7-1.4 3.2-3.5 3-3-.5-3.6-3-3.9-5.5-.1-1.6.9-3 3-2z"/><path class="cls-19" d="M435 327.8c2.3.1 3 1.6 2.7 3.7a4.4 4.4 0 01-2.7-3.7z"/><path class="cls-19" d="M437.7 331.4c2.3.2 2.9 1.8 2.8 3.7a4.3 4.3 0 01-2.8-3.7zM433.1 325c2 0 2.1 1.3 1.9 2.8L433 325zM440.5 335.1l1 1.9zM441.4 337h1z"/><path class="cls-4" d="M443.2 301.2a52.4 52.4 0 01-6.1-28.5c5.3 8.8 5.6 18.7 6 28.5z"/><path class="cls-11" d="M193 279.6c-.1 2.2-1 3.2-2.9 3.2-2 0-2.6-1.3-2.6-3 0-1.6-.2-3.4 2.2-3.2a3.6 3.6 0 013.2 3z"/><path class="cls-30" d="M195.8 236.3c7.2-4.8 8.1 2 10.7 5.7l-.1 1.2-3.6 4.3-.3.1-1.3.5h-2.7l-4.3-3-.1.1.1-.1v-6h-.1l1.7-2.8zM185.7 249c1-.8 1.5-2.8 3.5-1.5a2.7 2.7 0 011 3.5c-1 2.2-2.7 2-4.5 1.5V249z"/><path class="cls-26" d="M194.2 239v6c-3.3-1.9-3.2-3.9 0-6zM185.7 249v3.5c-2 1-1.8-.7-1.8-1.7s-.2-2.5 1.8-1.7zM202.8 247.5l3.6-4.3 1.2.3c-1.2 1.8-1.3 4.9-4.8 4zM194.2 245q2.1 1.6 4.3 3c-3.4 1.8-4.2-.1-4.3-3z"/><path class="cls-26" d="M195.8 236.3l-1.7 2.8c0-1.3-.4-2.8 1.7-2.8z"/><path class="cls-28" d="M188 253.7l.4.5-.4.2a4.2 4.2 0 01-.7-.4c.3 0 .5-.2.8-.3zM207.6 243.5l-1.2-.3.1-1.2c2.1-.8.7 1 1.1 1.5z"/><path class="cls-26" d="M201.2 248l1.3-.4c0 1.7-.6 1.2-1.3.5z"/><path class="cls-25" d="M209.5 385.6c-3.8 5-18.3 6.5-26.8 2.6-1.8-.8-3.5-1.8-5.3-2.7l-.8-2.5a4.7 4.7 0 011.8.4c9.9 7.6 20.3 7 31 2.2z"/><path class="cls-19" d="M178.5 369l2.5-2.7c.8 5 1.7 9.9 2.3 14.8.3 2.6-2.2 1.3-3.3 1.9l-1.6-13z"/><path class="cls-11" d="M178.4 370l1.6 13c-3.6-4-2.9-8.5-1.6-13z"/><path class="cls-25" d="M215.9 381.9l-2.8 1.8 1-1.8h1.8z"/><path class="cls-29" d="M189.2 386.6l3.8.6z"/><path class="cls-25" d="M176.3 379.4l-.2.8a3.3 3.3 0 01-.4-.6v-.4zM217.7 381h-.9zM216.8 381l-1 .9 1-1zM82.9 220.6l-.9.8-1.7 1a31.2 31.2 0 01-19.3-3.8c-5.6-10-1.7-18.4 4.6-26.4l8.5-1c3.5-.5 3.3.9 1.7 3.1-1.7 5.3-4.4 11 4.4 12.6 1.9 1.4 2.2.1 2.5-1.4.7-.3 1.7-.5 1.9-1 .8-1.8 1.2-3.8 1.8-5.8 2 2.7 2.2 5.9 2.1 9l-2 8.2-1.7 1.9-2 2.8zm-10.6-10c-1.3-1.2-3-3-4.4-1.2-.9 1-.7 4 .2 5 1.9 2 3.4.1 4.6-1.5l1-.4z"/><path class="cls-30" d="M80.2 206.9c-8.8-1.6-6.1-7.3-4.4-12.6 2.8-1 5.3-.6 7.3 1.9 2.6 3.2 1.3 6.3-.4 9.3l-2.5 1.4z"/><path class="cls-10" d="M142.6 226.9l-1 1v-1.8l1 .8z"/><path class="cls-27" d="M72.7 212.9c-1.2 1.6-2.7 3.5-4.6 1.6-.9-1-1-4-.2-5 1.5-2 3.1-.1 4.4 1.2l.4 2.2z"/><path class="cls-26" d="M80.2 206.9l2.5-1.4c-.3 1.5-.6 2.8-2.5 1.4z"/><path class="cls-28" d="M72.7 212.9l-.4-2.2 1.5 1.8z"/></g></g></svg>